<?xml version="1.0" encoding="UTF-8" standalone="no"?>
<!-- Created with Inkscape (http://www.inkscape.org/) -->
<svg
   xmlns:dc="http://purl.org/dc/elements/1.1/"
   xmlns:cc="http://creativecommons.org/ns#"
   xmlns:rdf="http://www.w3.org/1999/02/22-rdf-syntax-ns#"
   xmlns:svg="http://www.w3.org/2000/svg"
   xmlns="http://www.w3.org/2000/svg"
   xmlns:sodipodi="http://sodipodi.sourceforge.net/DTD/sodipodi-0.dtd"
   xmlns:inkscape="http://www.inkscape.org/namespaces/inkscape"
   width="700"
   height="700"
   id="svg2"
   version="1.1"
   inkscape:version="0.46"
   sodipodi:docname="LGM-Logo_RGB_Solo.svg"
   inkscape:export-filename="/Volumes/LAFKON Workspace/LGM_Madrid/Artwork/130115_lgm2013Logo/130118_lgmLogo.png"
   inkscape:export-xdpi="71.951782"
   inkscape:export-ydpi="71.951782"
   style="display:inline"
   sodipodi:version="0.32"
   inkscape:output_extension="org.inkscape.output.svg.inkscape">
  <defs
     id="defs4" />
  <sodipodi:namedview
     id="base"
     pagecolor="#ffffff"
     bordercolor="#666666"
     borderopacity="1.0"
     inkscape:pageopacity="0.0"
     inkscape:pageshadow="2"
     inkscape:zoom="1.2974464"
     inkscape:cx="353.57837"
     inkscape:cy="306.74711"
     inkscape:document-units="px"
     inkscape:current-layer="layer5"
     showgrid="false"
     inkscape:window-width="1024"
     inkscape:window-height="721"
     inkscape:window-x="-1"
     inkscape:window-y="1"
     inkscape:window-maximized="1"
     showguides="true"
     inkscape:guide-bbox="true" />
  <metadata
     id="metadata7">
    <rdf:RDF>
      <cc:Work
         rdf:about="">
        <dc:format>image/svg+xml</dc:format>
        <dc:type
           rdf:resource="http://purl.org/dc/dcmitype/StillImage" />
        <dc:title />
      </cc:Work>
    </rdf:RDF>
  </metadata>
  <g
     inkscape:groupmode="layer"
     id="layer5"
     inkscape:label="LGM-Logo_RGB"
     style="display:inline"
     transform="translate(0,-1404.7243)">
    <path
       style="fill:#000000;fill-opacity:1;stroke:none;display:inline"
       d="m 483.65625,1458.4446 -429.625,115.125 131.46875,490.6562 460.46875,0 -162.3125,-605.7812 z"
       id="blackbox"
       inkscape:connector-curvature="0" />
    <g
       id="subline"
       style="fill:#ffffff">
      <path
         d="m 195.7647,1829.6536 0,-41.6243 5.94632,0 0,35.6779 11.89264,0 0,5.9464 -17.83896,0"
         style="font-size:154px;font-style:normal;font-variant:normal;font-weight:500;font-stretch:normal;text-align:start;line-height:81.99999927999999727%;letter-spacing:-0.75000000000000000px;word-spacing:0px;writing-mode:lr-tb;text-anchor:start;fill:#ffffff;fill-opacity:1;stroke:none;display:inline;font-family:DIN_OSP;-inkscape-font-specification:DIN_OSP Medium"
         id="path4872"
         inkscape:connector-curvature="0" />
      <path
         d="m 223.31782,1829.6536 -5.94632,0 0,-41.6243 5.94632,0 0,41.6243"
         style="font-size:154px;font-style:normal;font-variant:normal;font-weight:500;font-stretch:normal;text-align:start;line-height:81.99999927999999727%;letter-spacing:-0.75000000000000000px;word-spacing:0px;writing-mode:lr-tb;text-anchor:start;fill:#ffffff;fill-opacity:1;stroke:none;display:inline;font-family:DIN_OSP;-inkscape-font-specification:DIN_OSP Medium"
         id="path4874"
         inkscape:connector-curvature="0" />
      <path
         d="m 228.86584,1788.0888 11.89264,0 c 1.62531,0 3.01278,0.5748 4.16242,1.7244 1.1496,1.1497 1.72441,2.557 1.72443,4.2219 l 0,12.6062 c -2e-5,0.5946 -0.21805,1.11 -0.65409,1.546 -0.43609,0.4361 -0.95143,0.6541 -1.54605,0.6541 l 0,0.06 c 0.59462,0 1.10996,0.218 1.54605,0.6541 0.43604,0.4361 0.65407,0.9514 0.65409,1.546 l 0,12.6657 c -2e-5,1.6253 -0.57483,3.0128 -1.72443,4.1624 -1.14964,1.1496 -2.53711,1.7245 -4.16242,1.7245 l -11.89264,0 0,-41.5648 m 5.88685,5.8868 0,11.9521 3.74619,0 c 0.63426,10e-5 1.16942,-0.218 1.6055,-0.6541 0.43605,-0.436 0.65408,-0.9712 0.6541,-1.6055 l 0,-7.4329 c -2e-5,-0.6342 -0.21805,-1.1694 -0.6541,-1.6055 -0.43608,-0.436 -0.97124,-0.654 -1.6055,-0.6541 l -3.74619,0 m 0,17.839 0,11.9521 3.74619,0 c 0.63426,0 1.16942,-0.218 1.6055,-0.6541 0.43605,-0.436 0.65408,-0.9712 0.6541,-1.6055 l 0,-7.4329 c -2e-5,-0.6342 -0.21805,-1.1694 -0.6541,-1.6055 -0.43608,-0.4361 -0.97124,-0.6541 -1.6055,-0.6541 l -3.74619,0"
         style="font-size:154px;font-style:normal;font-variant:normal;font-weight:500;font-stretch:normal;text-align:start;line-height:81.99999927999999727%;letter-spacing:-0.75000000000000000px;word-spacing:0px;writing-mode:lr-tb;text-anchor:start;fill:#ffffff;fill-opacity:1;stroke:none;display:inline;font-family:DIN_OSP;-inkscape-font-specification:DIN_OSP Medium"
         id="path4876"
         inkscape:connector-curvature="0" />
      <path
         d="m 252.03633,1788.0888 11.89264,0.059 c 1.62531,10e-5 3.01278,0.5749 4.16242,1.7245 1.1496,1.1496 1.72442,2.5371 1.72444,4.1624 l 0,11.8926 c -2e-5,2.2596 -0.97126,3.9643 -2.9137,5.1139 l 0,0 2.9137,18.612 -5.88686,0 -2.97316,-17.839 -3.03262,0 0,17.839 -5.88686,0 0,-41.5648 m 5.88686,5.8868 0,12.0116 3.74618,0 c 0.63426,0 1.16943,-0.218 1.60551,-0.6541 0.43604,-0.4757 0.65407,-1.0108 0.65409,-1.6055 l 0,-7.4329 c -2e-5,-0.6342 -0.21805,-1.1694 -0.65409,-1.6055 -0.43608,-0.4757 -0.97125,-0.7135 -1.60551,-0.7136 l -3.74618,0"
         style="font-size:154px;font-style:normal;font-variant:normal;font-weight:500;font-stretch:normal;text-align:start;line-height:81.99999927999999727%;letter-spacing:-0.75000000000000000px;word-spacing:0px;writing-mode:lr-tb;text-anchor:start;fill:#ffffff;fill-opacity:1;stroke:none;display:inline;font-family:DIN_OSP;-inkscape-font-specification:DIN_OSP Medium"
         id="path4878"
         inkscape:connector-curvature="0" />
      <path
         d="m 274.62613,1829.6536 0,-41.6243 17.83896,0 0,5.9463 -11.89264,0 0,11.8927 8.91948,0 0,5.9463 -8.91948,0 0,11.8926 11.89264,0 0,5.9464 -17.83896,0"
         style="font-size:154px;font-style:normal;font-variant:normal;font-weight:500;font-stretch:normal;text-align:start;line-height:81.99999927999999727%;letter-spacing:-0.75000000000000000px;word-spacing:0px;writing-mode:lr-tb;text-anchor:start;fill:#ffffff;fill-opacity:1;stroke:none;display:inline;font-family:DIN_OSP;-inkscape-font-specification:DIN_OSP Medium"
         id="path4880"
         inkscape:connector-curvature="0" />
      <path
         d="m 309.05776,1790.6457 c 1.74424,-1.7442 3.84527,-2.6163 6.3031,-2.6164 2.4578,10e-5 4.55882,0.8722 6.30309,2.6164 1.74424,1.7443 2.61637,3.8453 2.61638,6.3031 l -5.94631,0 c -2e-5,-0.8324 -0.29734,-1.5262 -0.89195,-2.0812 -0.55501,-0.5946 -1.24874,-0.8919 -2.08121,-0.892 -0.8325,10e-5 -1.54606,0.2974 -2.14068,0.892 -0.555,0.555 -0.83249,1.2488 -0.83248,2.0812 l 0,23.7853 c -10e-6,0.8325 0.27748,1.546 0.83248,2.1407 0.59462,0.5549 1.30818,0.8324 2.14068,0.8324 0.83247,0 1.5262,-0.2775 2.08121,-0.8324 0.59461,-0.5947 0.89193,-1.3082 0.89195,-2.1407 l 0,-8.9195 -2.97316,0 0,-5.9463 8.91947,0 0,14.8658 c -10e-6,2.4578 -0.87214,4.5588 -2.61638,6.3031 -1.74427,1.7442 -3.84529,2.6164 -6.30309,2.6164 -2.45783,0 -4.55886,-0.8722 -6.3031,-2.6164 -1.74426,-1.7443 -2.61639,-3.8453 -2.61638,-6.3031 l 0,-23.7853 c -10e-6,-2.4578 0.87212,-4.5588 2.61638,-6.3031"
         style="font-size:154px;font-style:normal;font-variant:normal;font-weight:500;font-stretch:normal;text-align:start;line-height:81.99999927999999727%;letter-spacing:-0.75000000000000000px;word-spacing:0px;writing-mode:lr-tb;text-anchor:start;fill:#ffffff;fill-opacity:1;stroke:none;display:inline;font-family:DIN_OSP;-inkscape-font-specification:DIN_OSP Medium"
         id="path4882"
         inkscape:connector-curvature="0" />
      <path
         d="m 329.38795,1788.0888 11.89264,0.059 c 1.62532,10e-5 3.01279,0.5749 4.16242,1.7245 1.14961,1.1496 1.72442,2.5371 1.72444,4.1624 l 0,11.8926 c -2e-5,2.2596 -0.97125,3.9643 -2.9137,5.1139 l 0,0 2.9137,18.612 -5.88686,0 -2.97316,-17.839 -3.03262,0 0,17.839 -5.88686,0 0,-41.5648 m 5.88686,5.8868 0,12.0116 3.74618,0 c 0.63426,0 1.16943,-0.218 1.60551,-0.6541 0.43605,-0.4757 0.65408,-1.0108 0.65409,-1.6055 l 0,-7.4329 c -1e-5,-0.6342 -0.21804,-1.1694 -0.65409,-1.6055 -0.43608,-0.4757 -0.97125,-0.7135 -1.60551,-0.7136 l -3.74618,0"
         style="font-size:154px;font-style:normal;font-variant:normal;font-weight:500;font-stretch:normal;text-align:start;line-height:81.99999927999999727%;letter-spacing:-0.75000000000000000px;word-spacing:0px;writing-mode:lr-tb;text-anchor:start;fill:#ffffff;fill-opacity:1;stroke:none;display:inline;font-family:DIN_OSP;-inkscape-font-specification:DIN_OSP Medium"
         id="path4884"
         inkscape:connector-curvature="0" />
      <path
         d="m 358.16193,1788.0293 5.88685,0 8.91948,41.6243 -5.88686,0 -1.78389,-8.9195 -8.38431,-0.06 -1.7839,8.979 -5.88685,0 8.91948,-41.6243 m 2.91369,11.8927 -2.97316,14.9252 6.00578,0 -2.97315,-14.9252 c -2e-5,0 -0.0199,0 -0.0595,0"
         style="font-size:154px;font-style:normal;font-variant:normal;font-weight:500;font-stretch:normal;text-align:start;line-height:81.99999927999999727%;letter-spacing:-0.75000000000000000px;word-spacing:0px;writing-mode:lr-tb;text-anchor:start;fill:#ffffff;fill-opacity:1;stroke:none;display:inline;font-family:DIN_OSP;-inkscape-font-specification:DIN_OSP Medium"
         id="path4886"
         inkscape:connector-curvature="0" />
      <path
         d="m 375.61281,1788.0888 11.89263,0 c 1.62531,0 3.01279,0.5748 4.16243,1.7244 1.1496,1.1497 1.72441,2.557 1.72443,4.2219 l 0,11.8926 c -2e-5,1.6254 -0.57483,3.0129 -1.72443,4.1625 -1.14964,1.1496 -2.53712,1.7244 -4.16243,1.7244 l -6.00578,0 0,17.839 -5.88685,0 0,-41.5648 m 5.88685,5.8868 0,11.9521 3.74618,0 c 0.63426,10e-5 1.16943,-0.218 1.60551,-0.6541 0.43605,-0.436 0.65408,-0.9712 0.65409,-1.6055 l 0,-7.4329 c -1e-5,-0.6342 -0.21804,-1.1694 -0.65409,-1.6055 -0.43608,-0.436 -0.97125,-0.654 -1.60551,-0.6541 l -3.74618,0"
         style="font-size:154px;font-style:normal;font-variant:normal;font-weight:500;font-stretch:normal;text-align:start;line-height:81.99999927999999727%;letter-spacing:-0.75000000000000000px;word-spacing:0px;writing-mode:lr-tb;text-anchor:start;fill:#ffffff;fill-opacity:1;stroke:none;display:inline;font-family:DIN_OSP;-inkscape-font-specification:DIN_OSP Medium"
         id="path4888"
         inkscape:connector-curvature="0" />
      <path
         d="m 397.62191,1788.0293 5.94632,0 0,17.839 5.94632,0 0,-17.839 5.94632,0 0,41.6243 -5.94632,0 0,-17.839 -5.94632,0 0,17.839 -5.94632,0 0,-41.6243"
         style="font-size:154px;font-style:normal;font-variant:normal;font-weight:500;font-stretch:normal;text-align:start;line-height:81.99999927999999727%;letter-spacing:-0.75000000000000000px;word-spacing:0px;writing-mode:lr-tb;text-anchor:start;fill:#ffffff;fill-opacity:1;stroke:none;display:inline;font-family:DIN_OSP;-inkscape-font-specification:DIN_OSP Medium"
         id="path4890"
         inkscape:connector-curvature="0" />
      <path
         d="m 427.03325,1829.6536 -5.94632,0 0,-41.6243 5.94632,0 0,41.6243"
         style="font-size:154px;font-style:normal;font-variant:normal;font-weight:500;font-stretch:normal;text-align:start;line-height:81.99999927999999727%;letter-spacing:-0.75000000000000000px;word-spacing:0px;writing-mode:lr-tb;text-anchor:start;fill:#ffffff;fill-opacity:1;stroke:none;display:inline;font-family:DIN_OSP;-inkscape-font-specification:DIN_OSP Medium"
         id="path4892"
         inkscape:connector-curvature="0" />
      <path
         d="m 434.84087,1790.6457 c 1.74425,-1.7442 3.84528,-2.6163 6.3031,-2.6164 2.4578,10e-5 4.55883,0.8722 6.3031,2.6164 1.74423,1.7443 2.61636,3.8453 2.61638,6.3031 l 0,2.9732 -5.94632,0 0,-2.9732 c -2e-5,-0.8324 -0.29733,-1.5262 -0.89195,-2.0812 -0.555,-0.5946 -1.24874,-0.8919 -2.08121,-0.892 -0.8325,10e-5 -1.54605,0.2974 -2.14068,0.892 -0.555,0.555 -0.83249,1.2488 -0.83248,2.0812 l 0,23.7853 c -1e-5,0.8325 0.27748,1.546 0.83248,2.1407 0.59463,0.5549 1.30818,0.8324 2.14068,0.8324 0.83247,0 1.52621,-0.2775 2.08121,-0.8324 0.59462,-0.5947 0.89193,-1.3082 0.89195,-2.1407 l 0,-2.9732 5.94632,0 0,2.9732 c -2e-5,2.4578 -0.87215,4.5588 -2.61638,6.3031 -1.74427,1.7442 -3.8453,2.6164 -6.3031,2.6164 -2.45782,0 -4.55885,-0.8722 -6.3031,-2.6164 -1.74425,-1.7443 -2.61638,-3.8453 -2.61638,-6.3031 l 0,-23.7853 c 0,-2.4578 0.87213,-4.5588 2.61638,-6.3031"
         style="font-size:154px;font-style:normal;font-variant:normal;font-weight:500;font-stretch:normal;text-align:start;line-height:81.99999927999999727%;letter-spacing:-0.75000000000000000px;word-spacing:0px;writing-mode:lr-tb;text-anchor:start;fill:#ffffff;fill-opacity:1;stroke:none;display:inline;font-family:DIN_OSP;-inkscape-font-specification:DIN_OSP Medium"
         id="path4894"
         inkscape:connector-curvature="0" />
      <path
         d="m 453.16883,1817.7609 0,2.9732 c 0,2.4578 0.87213,4.5588 2.61638,6.3031 1.74424,1.7442 3.8453,2.6164 6.3031,2.6164 2.4578,0 4.55882,-0.8722 6.3031,-2.6164 1.74424,-1.7443 2.61638,-3.8453 2.61638,-6.3031 l 0,-5.9463 c 0,-2.2596 -0.75322,-4.2417 -2.2596,-5.9464 -1.7839,-1.9821 -4.00389,-2.9731 -6.65988,-2.9731 -0.83249,0 -1.54605,-0.2775 -2.14068,-0.8325 -0.55497,-0.5946 -0.83248,-1.3082 -0.83248,-2.1407 l 0,-5.9463 c 0,-0.8324 0.27751,-1.5262 0.83248,-2.0812 0.59463,-0.5946 1.30819,-0.8919 2.14068,-0.892 0.83248,10e-5 1.52619,0.2974 2.08121,0.892 0.59463,0.555 0.89195,1.2488 0.89195,2.0812 l 0,2.9732 5.41115,0 0.53517,0 0,-2.9732 c 0,-2.4578 -0.87214,-4.5588 -2.61638,-6.3031 -1.74428,-1.7442 -3.8453,-2.6163 -6.3031,-2.6164 -2.4578,10e-5 -4.55886,0.8722 -6.3031,2.6164 -1.74425,1.7443 -2.61638,3.8453 -2.61638,6.3031 l 0,5.9463 c 0,2.2597 0.7532,4.2418 2.2596,5.9463 1.7839,1.9822 4.00384,2.9732 6.65988,2.9732 0.83248,0 1.52619,0.2973 2.08121,0.8919 0.59463,0.5551 0.89195,1.2488 0.89195,2.0813 l 0,5.9463 c 0,0.8325 -0.29732,1.546 -0.89195,2.1407 -0.55502,0.5549 -1.24873,0.8324 -2.08121,0.8324 -0.83249,0 -1.54605,-0.2775 -2.14068,-0.8324 -0.55497,-0.5947 -0.83248,-1.3082 -0.83248,-2.1407 l 0,-2.9732 -5.94632,0"
         style="font-size:154px;font-style:normal;font-variant:normal;font-weight:500;font-stretch:normal;text-align:start;line-height:81.99999927999999727%;letter-spacing:-0.75000000000000000px;word-spacing:0px;writing-mode:lr-tb;text-anchor:start;fill:#ffffff;fill-opacity:1;stroke:none;display:inline;font-family:DIN_OSP;-inkscape-font-specification:DIN_OSP Medium"
         id="path4896"
         inkscape:connector-curvature="0" />
      <path
         d="m 206.17076,1869.4939 -4.45974,-13.3792 0,22.2987 -5.94632,0 0,-41.6243 5.94632,0 7.4329,22.2987 7.4329,-22.2987 5.94631,0 0,41.6243 -5.94631,0 0,-22.2987 -4.45974,13.3792 -5.94632,0"
         style="font-size:156.34930420000000595px;font-style:normal;font-variant:normal;font-weight:500;font-stretch:normal;text-align:start;line-height:74.00000095000000044%;letter-spacing:-0.22000000000000000px;word-spacing:0px;writing-mode:lr-tb;text-anchor:start;fill:#ffffff;fill-opacity:1;stroke:none;display:inline;font-family:DIN_OSP;-inkscape-font-specification:DIN_OSP Medium"
         id="path4898"
         inkscape:connector-curvature="0" />
      <path
         d="m 226.6928,1878.4134 0,-41.6243 17.83896,0 0,5.9464 -11.89264,0 0,11.8926 8.91948,0 0,5.9463 -8.91948,0 0,11.8927 11.89264,0 0,5.9463 -17.83896,0"
         style="font-size:156.34930420000000595px;font-style:normal;font-variant:normal;font-weight:500;font-stretch:normal;text-align:start;line-height:74.00000095000000044%;letter-spacing:-0.22000000000000000px;word-spacing:0px;writing-mode:lr-tb;text-anchor:start;fill:#ffffff;fill-opacity:1;stroke:none;display:inline;font-family:DIN_OSP;-inkscape-font-specification:DIN_OSP Medium"
         id="path4900"
         inkscape:connector-curvature="0" />
      <path
         d="m 247.88486,1878.4134 0,-41.6243 17.83896,0 0,5.9464 -11.89264,0 0,11.8926 8.91948,0 0,5.9463 -8.91948,0 0,11.8927 11.89264,0 0,5.9463 -17.83896,0"
         style="font-size:156.34930420000000595px;font-style:normal;font-variant:normal;font-weight:500;font-stretch:normal;text-align:start;line-height:74.00000095000000044%;letter-spacing:-0.22000000000000000px;word-spacing:0px;writing-mode:lr-tb;text-anchor:start;fill:#ffffff;fill-opacity:1;stroke:none;display:inline;font-family:DIN_OSP;-inkscape-font-specification:DIN_OSP Medium"
         id="path4902"
         inkscape:connector-curvature="0" />
      <path
         d="m 267.19657,1836.7891 17.83896,0 0,5.9464 -5.94632,0 0,35.6779 -5.94632,0 0,-35.6779 -5.94632,0 0,-5.9464"
         style="font-size:156.34930420000000595px;font-style:normal;font-variant:normal;font-weight:500;font-stretch:normal;text-align:start;line-height:74.00000095000000044%;letter-spacing:-0.22000000000000000px;word-spacing:0px;writing-mode:lr-tb;text-anchor:start;fill:#ffffff;fill-opacity:1;stroke:none;display:inline;font-family:DIN_OSP;-inkscape-font-specification:DIN_OSP Medium"
         id="path4904"
         inkscape:connector-curvature="0" />
      <path
         d="m 293.03371,1878.4134 -5.94632,0 0,-41.6243 5.94632,0 0,41.6243"
         style="font-size:156.34930420000000595px;font-style:normal;font-variant:normal;font-weight:500;font-stretch:normal;text-align:start;line-height:74.00000095000000044%;letter-spacing:-0.22000000000000000px;word-spacing:0px;writing-mode:lr-tb;text-anchor:start;fill:#ffffff;fill-opacity:1;stroke:none;display:inline;font-family:DIN_OSP;-inkscape-font-specification:DIN_OSP Medium"
         id="path4906"
         inkscape:connector-curvature="0" />
      <path
         d="m 298.10753,1836.6789 5.94632,0 5.94632,20.8121 0,-20.8121 5.94632,0 0,41.6242 -5.94632,0 -5.94632,-20.8121 0,20.8121 -5.94632,0 0,-41.6242"
         style="font-size:156.34930420000000595px;font-style:normal;font-variant:normal;font-weight:500;font-stretch:normal;text-align:start;line-height:74.00000095000000044%;letter-spacing:-0.22000000000000000px;word-spacing:0px;writing-mode:lr-tb;text-anchor:start;fill:#ffffff;fill-opacity:1;stroke:none;display:inline;font-family:DIN_OSP;-inkscape-font-specification:DIN_OSP Medium"
         id="path4908"
         inkscape:connector-curvature="0" />
      <path
         d="m 322.96971,1839.8465 c 1.74424,-1.7442 3.84527,-2.6163 6.3031,-2.6164 2.4578,10e-5 4.55882,0.8722 6.3031,2.6164 1.74423,1.7443 2.61636,3.8453 2.61638,6.3031 l -5.94632,0 c -2e-5,-0.8324 -0.29734,-1.5262 -0.89195,-2.0812 -0.55501,-0.5946 -1.24874,-0.8919 -2.08121,-0.8919 -0.8325,0 -1.54606,0.2973 -2.14068,0.8919 -0.555,0.555 -0.83249,1.2488 -0.83248,2.0812 l 0,23.7853 c -10e-6,0.8325 0.27748,1.546 0.83248,2.1407 0.59462,0.5549 1.30818,0.8324 2.14068,0.8324 0.83247,0 1.5262,-0.2775 2.08121,-0.8324 0.59461,-0.5947 0.89193,-1.3082 0.89195,-2.1407 l 0,-8.9195 -2.97316,0 0,-5.9463 8.91948,0 0,14.8658 c -2e-5,2.4578 -0.87215,4.5588 -2.61638,6.3031 -1.74428,1.7442 -3.8453,2.6164 -6.3031,2.6164 -2.45783,0 -4.55886,-0.8722 -6.3031,-2.6164 -1.74426,-1.7443 -2.61639,-3.8453 -2.61638,-6.3031 l 0,-23.7853 c -1e-5,-2.4578 0.87212,-4.5588 2.61638,-6.3031"
         style="font-size:156.34930420000000595px;font-style:normal;font-variant:normal;font-weight:500;font-stretch:normal;text-align:start;line-height:74.00000095000000044%;letter-spacing:-0.22000000000000000px;word-spacing:0px;writing-mode:lr-tb;text-anchor:start;fill:#ffffff;fill-opacity:1;stroke:none;display:inline;font-family:DIN_OSP;-inkscape-font-specification:DIN_OSP Medium"
         id="path4910"
         inkscape:connector-curvature="0" />
      <path
         d="m 356.0539,1839.4055 c 1.74425,-1.7442 3.84528,-2.6163 6.3031,-2.6164 2.4578,10e-5 4.55883,0.8722 6.30309,2.6164 1.74424,1.7443 2.61637,3.8453 2.61638,6.3031 -1e-5,1.3082 -0.25769,2.5371 -0.77302,3.6867 l -10.40606,23.0718 11.17908,0 0,5.9463 -17.83895,0 0,-5.9463 11.17908,-24.4394 c 0.47569,-1.1496 0.71354,-1.9226 0.71356,-2.3191 -2e-5,-0.8324 -0.29733,-1.5262 -0.89195,-2.0812 -0.555,-0.5946 -1.24874,-0.8919 -2.08121,-0.8919 -0.8325,0 -1.54605,0.2973 -2.14068,0.8919 -0.555,0.555 -0.83249,1.2488 -0.83248,2.0812 l -5.94632,0 c 0,-2.4578 0.87212,-4.5588 2.61638,-6.3031"
         style="font-size:154px;font-style:normal;font-variant:normal;font-weight:500;font-stretch:normal;text-align:start;line-height:81.99999927999999727%;letter-spacing:-0.75000000000000000px;word-spacing:0px;writing-mode:lr-tb;text-anchor:start;fill:#ffffff;fill-opacity:1;stroke:none;display:inline;font-family:DIN_OSP;-inkscape-font-specification:DIN_OSP Medium"
         id="path4912"
         inkscape:connector-curvature="0" />
      <path
         d="m 377.59845,1839.4055 c 1.74425,-1.7442 3.84527,-2.6163 6.3031,-2.6164 2.45779,10e-5 4.55883,0.8722 6.30309,2.6164 1.74424,1.7443 2.61637,3.8453 2.61638,6.3031 l 0,23.7853 c -10e-6,2.4578 -0.87214,4.5589 -2.61638,6.3031 -1.74426,1.7442 -3.8453,2.6164 -6.30309,2.6164 -2.45783,0 -4.55885,-0.8722 -6.3031,-2.6164 -1.74426,-1.7442 -2.61639,-3.8453 -2.61638,-6.3031 l 0,-23.7853 c -1e-5,-2.4578 0.87212,-4.5588 2.61638,-6.3031 m 8.38431,4.2219 c -0.55501,-0.5946 -1.24874,-0.8919 -2.08121,-0.8919 -0.8325,0 -1.54606,0.2973 -2.14068,0.8919 -0.555,0.555 -0.83249,1.2488 -0.83248,2.0812 l 0,23.7853 c -10e-6,0.8325 0.27748,1.546 0.83248,2.1407 0.59462,0.5549 1.30818,0.8325 2.14068,0.8325 0.83247,0 1.5262,-0.2776 2.08121,-0.8325 0.59461,-0.5947 0.89193,-1.3082 0.89195,-2.1407 l 0,-23.7853 c -2e-5,-0.8324 -0.29734,-1.5262 -0.89195,-2.0812"
         style="font-size:154px;font-style:normal;font-variant:normal;font-weight:500;font-stretch:normal;text-align:start;line-height:81.99999927999999727%;letter-spacing:-0.75000000000000000px;word-spacing:0px;writing-mode:lr-tb;text-anchor:start;fill:#ffffff;fill-opacity:1;stroke:none;display:inline;font-family:DIN_OSP;-inkscape-font-specification:DIN_OSP Medium"
         id="path4914"
         inkscape:connector-curvature="0" />
      <path
         d="m 402.72025,1836.7891 5.94632,0 0,41.6243 -5.94632,0 0,-35.6779 -5.94632,5.9463 0,-5.9463 5.94632,-5.9464"
         style="font-size:154px;font-style:normal;font-variant:normal;font-weight:500;font-stretch:normal;text-align:start;line-height:81.99999927999999727%;letter-spacing:-0.75000000000000000px;word-spacing:0px;writing-mode:lr-tb;text-anchor:start;fill:#ffffff;fill-opacity:1;stroke:none;display:inline;font-family:DIN_OSP;-inkscape-font-specification:DIN_OSP Medium"
         id="path4916"
         inkscape:connector-curvature="0" />
      <path
         d="m 416.16482,1839.5158 c 1.74425,-1.7442 3.84527,-2.6164 6.3031,-2.6164 2.4578,0 4.55883,0.8722 6.3031,2.6164 1.74423,1.7442 2.61636,3.8453 2.61638,6.3031 l 0,5.9463 c -2e-5,2.2596 -0.75323,4.2417 -2.25961,5.9463 1.50638,1.7046 2.25959,3.6867 2.25961,5.9463 l 0,5.9463 c -2e-5,2.4578 -0.87215,4.5589 -2.61638,6.3031 -1.74427,1.7443 -3.8453,2.6164 -6.3031,2.6164 -2.45783,0 -4.55885,-0.8721 -6.3031,-2.6164 -1.74426,-1.7442 -2.61639,-3.8453 -2.61638,-6.3031 l 0,-2.9731 5.94632,0 0,2.9731 c -10e-6,0.8325 0.27749,1.5461 0.83248,2.1407 0.59463,0.555 1.30818,0.8325 2.14068,0.8325 0.83247,0 1.5262,-0.2775 2.08121,-0.8325 0.59462,-0.5946 0.89193,-1.3082 0.89195,-2.1407 l 0,-5.9463 c -2e-5,-0.8325 -0.29733,-1.5262 -0.89195,-2.0812 -0.55501,-0.5946 -1.24874,-0.8919 -2.08121,-0.8919 l 0,-5.9464 c 0.83247,10e-5 1.5262,-0.2774 2.08121,-0.8324 0.59462,-0.5946 0.89193,-1.3082 0.89195,-2.1407 l 0,-5.9463 c -2e-5,-0.8325 -0.29733,-1.5262 -0.89195,-2.0813 -0.55501,-0.5945 -1.24874,-0.8919 -2.08121,-0.8919 -0.8325,0 -1.54605,0.2974 -2.14068,0.8919 -0.55499,0.5551 -0.83249,1.2488 -0.83248,2.0813 l 0,2.9731 -5.94632,0 0,-2.9731 c -1e-5,-2.4578 0.87212,-4.5589 2.61638,-6.3031"
         style="font-size:154px;font-style:normal;font-variant:normal;font-weight:500;font-stretch:normal;text-align:start;line-height:81.99999927999999727%;letter-spacing:-0.75000000000000000px;word-spacing:0px;writing-mode:lr-tb;text-anchor:start;fill:#ffffff;fill-opacity:1;stroke:none;display:inline;font-family:DIN_OSP;-inkscape-font-specification:DIN_OSP Medium"
         id="path4918"
         inkscape:connector-curvature="0" />
    </g>
    <path
       style="fill:#00a651;fill-opacity:1;stroke:none;display:inline"
       d="m 278.90489,1615.8942 -118.40584,31.7185 31.72828,118.4155 98.18172,-26.3048 7.04751,26.3048 98.05605,-26.2758 7.03784,26.2758 82.82998,-22.1962 -22.19626,-82.83 -80.45181,21.5582 -11.75551,-43.8898 -80.21011,21.4906 -11.86185,-44.2668 z"
       id="lgmsquares"
       inkscape:connector-curvature="0" />
  </g>
</svg>
