<?xml version="1.0" encoding="UTF-8" standalone="no"?>
<!-- Created with Inkscape (http://www.inkscape.org/) -->
<svg
   xmlns:dc="http://purl.org/dc/elements/1.1/"
   xmlns:cc="http://creativecommons.org/ns#"
   xmlns:rdf="http://www.w3.org/1999/02/22-rdf-syntax-ns#"
   xmlns:svg="http://www.w3.org/2000/svg"
   xmlns="http://www.w3.org/2000/svg"
   xmlns:sodipodi="http://sodipodi.sourceforge.net/DTD/sodipodi-0.dtd"
   xmlns:inkscape="http://www.inkscape.org/namespaces/inkscape"
   width="1300"
   height="870"
   id="svg2"
   version="1.1"
   inkscape:version="0.46"
   sodipodi:docname="LGM-Logo_RGB_Textblock+URL.svg"
   inkscape:export-filename="/Volumes/LAFKON Workspace/LGM_Madrid/Artwork/130115_lgm2013Logo/130118_lgmLogo.png"
   inkscape:export-xdpi="71.951782"
   inkscape:export-ydpi="71.951782"
   style="display:inline"
   sodipodi:version="0.32"
   inkscape:output_extension="org.inkscape.output.svg.inkscape">
  <defs
     id="defs4" />
  <sodipodi:namedview
     id="base"
     pagecolor="#ffffff"
     bordercolor="#666666"
     borderopacity="1.0"
     inkscape:pageopacity="0.0"
     inkscape:pageshadow="2"
     inkscape:zoom="0.45163227"
     inkscape:cx="593.34411"
     inkscape:cy="631.36044"
     inkscape:document-units="px"
     inkscape:current-layer="layer5"
     showgrid="false"
     inkscape:window-width="1024"
     inkscape:window-height="721"
     inkscape:window-x="-1"
     inkscape:window-y="1"
     inkscape:window-maximized="1"
     showguides="true"
     inkscape:guide-bbox="true" />
  <metadata
     id="metadata7">
    <rdf:RDF>
      <cc:Work
         rdf:about="">
        <dc:format>image/svg+xml</dc:format>
        <dc:type
           rdf:resource="http://purl.org/dc/dcmitype/StillImage" />
        <dc:title />
      </cc:Work>
    </rdf:RDF>
  </metadata>
  <g
     inkscape:groupmode="layer"
     id="layer5"
     inkscape:label="LGM-Logo_RGB"
     style="display:inline"
     transform="translate(0,-1234.7243)">
    <path
       style="fill:#000000;fill-opacity:1;stroke:none;display:inline;stroke-width:0;stroke-miterlimit:4;stroke-dasharray:none"
       d="m 499.97298,1458.4446 -429.625,115.125 131.46875,490.6562 460.46875,0 -162.3125,-605.7812 z"
       id="blackbox"
       inkscape:connector-curvature="0" />
    <g
       id="subline"
       style="fill:#ffffff;stroke-width:0;stroke-miterlimit:4;stroke-dasharray:none;stroke:none">
      <path
         d="m 212.08143,1829.6536 0,-41.6243 5.94632,0 0,35.6779 11.89264,0 0,5.9464 -17.83896,0"
         style="font-size:154px;font-style:normal;font-variant:normal;font-weight:500;font-stretch:normal;text-align:start;line-height:81.99999927999998306%;letter-spacing:-0.75000000000000000px;word-spacing:0px;writing-mode:lr-tb;text-anchor:start;fill:#ffffff;fill-opacity:1;stroke:none;display:inline;font-family:DIN_OSP;-inkscape-font-specification:DIN_OSP Medium;stroke-width:0;stroke-miterlimit:4;stroke-dasharray:none"
         id="path4872"
         inkscape:connector-curvature="0" />
      <path
         d="m 239.63455,1829.6536 -5.94632,0 0,-41.6243 5.94632,0 0,41.6243"
         style="font-size:154px;font-style:normal;font-variant:normal;font-weight:500;font-stretch:normal;text-align:start;line-height:81.99999927999998306%;letter-spacing:-0.75000000000000000px;word-spacing:0px;writing-mode:lr-tb;text-anchor:start;fill:#ffffff;fill-opacity:1;stroke:none;display:inline;font-family:DIN_OSP;-inkscape-font-specification:DIN_OSP Medium;stroke-width:0;stroke-miterlimit:4;stroke-dasharray:none"
         id="path4874"
         inkscape:connector-curvature="0" />
      <path
         d="m 245.18257,1788.0888 11.89264,0 c 1.62531,0 3.01278,0.5748 4.16242,1.7244 1.1496,1.1497 1.72441,2.557 1.72443,4.2219 l 0,12.6062 c -2e-5,0.5946 -0.21805,1.11 -0.65409,1.546 -0.43609,0.4361 -0.95143,0.6541 -1.54605,0.6541 l 0,0.06 c 0.59462,0 1.10996,0.218 1.54605,0.6541 0.43604,0.4361 0.65407,0.9514 0.65409,1.546 l 0,12.6657 c -2e-5,1.6253 -0.57483,3.0128 -1.72443,4.1624 -1.14964,1.1496 -2.53711,1.7245 -4.16242,1.7245 l -11.89264,0 0,-41.5648 m 5.88685,5.8868 0,11.9521 3.74619,0 c 0.63426,10e-5 1.16942,-0.218 1.6055,-0.6541 0.43605,-0.436 0.65408,-0.9712 0.6541,-1.6055 l 0,-7.4329 c -2e-5,-0.6342 -0.21805,-1.1694 -0.6541,-1.6055 -0.43608,-0.436 -0.97124,-0.654 -1.6055,-0.6541 l -3.74619,0 m 0,17.839 0,11.9521 3.74619,0 c 0.63426,0 1.16942,-0.218 1.6055,-0.6541 0.43605,-0.436 0.65408,-0.9712 0.6541,-1.6055 l 0,-7.4329 c -2e-5,-0.6342 -0.21805,-1.1694 -0.6541,-1.6055 -0.43608,-0.4361 -0.97124,-0.6541 -1.6055,-0.6541 l -3.74619,0"
         style="font-size:154px;font-style:normal;font-variant:normal;font-weight:500;font-stretch:normal;text-align:start;line-height:81.99999927999998306%;letter-spacing:-0.75000000000000000px;word-spacing:0px;writing-mode:lr-tb;text-anchor:start;fill:#ffffff;fill-opacity:1;stroke:none;display:inline;font-family:DIN_OSP;-inkscape-font-specification:DIN_OSP Medium;stroke-width:0;stroke-miterlimit:4;stroke-dasharray:none"
         id="path4876"
         inkscape:connector-curvature="0" />
      <path
         d="m 268.35306,1788.0888 11.89264,0.059 c 1.62531,10e-5 3.01278,0.5749 4.16242,1.7245 1.1496,1.1496 1.72442,2.5371 1.72444,4.1624 l 0,11.8926 c -2e-5,2.2596 -0.97126,3.9643 -2.9137,5.1139 l 0,0 2.9137,18.612 -5.88686,0 -2.97316,-17.839 -3.03262,0 0,17.839 -5.88686,0 0,-41.5648 m 5.88686,5.8868 0,12.0116 3.74618,0 c 0.63426,0 1.16943,-0.218 1.60551,-0.6541 0.43604,-0.4757 0.65407,-1.0108 0.65409,-1.6055 l 0,-7.4329 c -2e-5,-0.6342 -0.21805,-1.1694 -0.65409,-1.6055 -0.43608,-0.4757 -0.97125,-0.7135 -1.60551,-0.7136 l -3.74618,0"
         style="font-size:154px;font-style:normal;font-variant:normal;font-weight:500;font-stretch:normal;text-align:start;line-height:81.99999927999998306%;letter-spacing:-0.75000000000000000px;word-spacing:0px;writing-mode:lr-tb;text-anchor:start;fill:#ffffff;fill-opacity:1;stroke:none;display:inline;font-family:DIN_OSP;-inkscape-font-specification:DIN_OSP Medium;stroke-width:0;stroke-miterlimit:4;stroke-dasharray:none"
         id="path4878"
         inkscape:connector-curvature="0" />
      <path
         d="m 290.94286,1829.6536 0,-41.6243 17.83896,0 0,5.9463 -11.89264,0 0,11.8927 8.91948,0 0,5.9463 -8.91948,0 0,11.8926 11.89264,0 0,5.9464 -17.83896,0"
         style="font-size:154px;font-style:normal;font-variant:normal;font-weight:500;font-stretch:normal;text-align:start;line-height:81.99999927999998306%;letter-spacing:-0.75000000000000000px;word-spacing:0px;writing-mode:lr-tb;text-anchor:start;fill:#ffffff;fill-opacity:1;stroke:none;display:inline;font-family:DIN_OSP;-inkscape-font-specification:DIN_OSP Medium;stroke-width:0;stroke-miterlimit:4;stroke-dasharray:none"
         id="path4880"
         inkscape:connector-curvature="0" />
      <path
         d="m 325.37449,1790.6457 c 1.74424,-1.7442 3.84527,-2.6163 6.3031,-2.6164 2.4578,10e-5 4.55882,0.8722 6.30309,2.6164 1.74424,1.7443 2.61637,3.8453 2.61638,6.3031 l -5.94631,0 c -2e-5,-0.8324 -0.29734,-1.5262 -0.89195,-2.0812 -0.55501,-0.5946 -1.24874,-0.8919 -2.08121,-0.892 -0.8325,10e-5 -1.54606,0.2974 -2.14068,0.892 -0.555,0.555 -0.83249,1.2488 -0.83248,2.0812 l 0,23.7853 c -10e-6,0.8325 0.27748,1.546 0.83248,2.1407 0.59462,0.5549 1.30818,0.8324 2.14068,0.8324 0.83247,0 1.5262,-0.2775 2.08121,-0.8324 0.59461,-0.5947 0.89193,-1.3082 0.89195,-2.1407 l 0,-8.9195 -2.97316,0 0,-5.9463 8.91947,0 0,14.8658 c -10e-6,2.4578 -0.87214,4.5588 -2.61638,6.3031 -1.74427,1.7442 -3.84529,2.6164 -6.30309,2.6164 -2.45783,0 -4.55886,-0.8722 -6.3031,-2.6164 -1.74426,-1.7443 -2.61639,-3.8453 -2.61638,-6.3031 l 0,-23.7853 c -10e-6,-2.4578 0.87212,-4.5588 2.61638,-6.3031"
         style="font-size:154px;font-style:normal;font-variant:normal;font-weight:500;font-stretch:normal;text-align:start;line-height:81.99999927999998306%;letter-spacing:-0.75000000000000000px;word-spacing:0px;writing-mode:lr-tb;text-anchor:start;fill:#ffffff;fill-opacity:1;stroke:none;display:inline;font-family:DIN_OSP;-inkscape-font-specification:DIN_OSP Medium;stroke-width:0;stroke-miterlimit:4;stroke-dasharray:none"
         id="path4882"
         inkscape:connector-curvature="0" />
      <path
         d="m 345.70468,1788.0888 11.89264,0.059 c 1.62532,10e-5 3.01279,0.5749 4.16242,1.7245 1.14961,1.1496 1.72442,2.5371 1.72444,4.1624 l 0,11.8926 c -2e-5,2.2596 -0.97125,3.9643 -2.9137,5.1139 l 0,0 2.9137,18.612 -5.88686,0 -2.97316,-17.839 -3.03262,0 0,17.839 -5.88686,0 0,-41.5648 m 5.88686,5.8868 0,12.0116 3.74618,0 c 0.63426,0 1.16943,-0.218 1.60551,-0.6541 0.43605,-0.4757 0.65408,-1.0108 0.65409,-1.6055 l 0,-7.4329 c -1e-5,-0.6342 -0.21804,-1.1694 -0.65409,-1.6055 -0.43608,-0.4757 -0.97125,-0.7135 -1.60551,-0.7136 l -3.74618,0"
         style="font-size:154px;font-style:normal;font-variant:normal;font-weight:500;font-stretch:normal;text-align:start;line-height:81.99999927999998306%;letter-spacing:-0.75000000000000000px;word-spacing:0px;writing-mode:lr-tb;text-anchor:start;fill:#ffffff;fill-opacity:1;stroke:none;display:inline;font-family:DIN_OSP;-inkscape-font-specification:DIN_OSP Medium;stroke-width:0;stroke-miterlimit:4;stroke-dasharray:none"
         id="path4884"
         inkscape:connector-curvature="0" />
      <path
         d="m 374.47866,1788.0293 5.88685,0 8.91948,41.6243 -5.88686,0 -1.78389,-8.9195 -8.38431,-0.06 -1.7839,8.979 -5.88685,0 8.91948,-41.6243 m 2.91369,11.8927 -2.97316,14.9252 6.00578,0 -2.97315,-14.9252 c -2e-5,0 -0.0199,0 -0.0595,0"
         style="font-size:154px;font-style:normal;font-variant:normal;font-weight:500;font-stretch:normal;text-align:start;line-height:81.99999927999998306%;letter-spacing:-0.75000000000000000px;word-spacing:0px;writing-mode:lr-tb;text-anchor:start;fill:#ffffff;fill-opacity:1;stroke:none;display:inline;font-family:DIN_OSP;-inkscape-font-specification:DIN_OSP Medium;stroke-width:0;stroke-miterlimit:4;stroke-dasharray:none"
         id="path4886"
         inkscape:connector-curvature="0" />
      <path
         d="m 391.92954,1788.0888 11.89263,0 c 1.62531,0 3.01279,0.5748 4.16243,1.7244 1.1496,1.1497 1.72441,2.557 1.72443,4.2219 l 0,11.8926 c -2e-5,1.6254 -0.57483,3.0129 -1.72443,4.1625 -1.14964,1.1496 -2.53712,1.7244 -4.16243,1.7244 l -6.00578,0 0,17.839 -5.88685,0 0,-41.5648 m 5.88685,5.8868 0,11.9521 3.74618,0 c 0.63426,10e-5 1.16943,-0.218 1.60551,-0.6541 0.43605,-0.436 0.65408,-0.9712 0.65409,-1.6055 l 0,-7.4329 c -1e-5,-0.6342 -0.21804,-1.1694 -0.65409,-1.6055 -0.43608,-0.436 -0.97125,-0.654 -1.60551,-0.6541 l -3.74618,0"
         style="font-size:154px;font-style:normal;font-variant:normal;font-weight:500;font-stretch:normal;text-align:start;line-height:81.99999927999998306%;letter-spacing:-0.75000000000000000px;word-spacing:0px;writing-mode:lr-tb;text-anchor:start;fill:#ffffff;fill-opacity:1;stroke:none;display:inline;font-family:DIN_OSP;-inkscape-font-specification:DIN_OSP Medium;stroke-width:0;stroke-miterlimit:4;stroke-dasharray:none"
         id="path4888"
         inkscape:connector-curvature="0" />
      <path
         d="m 413.93864,1788.0293 5.94632,0 0,17.839 5.94632,0 0,-17.839 5.94632,0 0,41.6243 -5.94632,0 0,-17.839 -5.94632,0 0,17.839 -5.94632,0 0,-41.6243"
         style="font-size:154px;font-style:normal;font-variant:normal;font-weight:500;font-stretch:normal;text-align:start;line-height:81.99999927999998306%;letter-spacing:-0.75000000000000000px;word-spacing:0px;writing-mode:lr-tb;text-anchor:start;fill:#ffffff;fill-opacity:1;stroke:none;display:inline;font-family:DIN_OSP;-inkscape-font-specification:DIN_OSP Medium;stroke-width:0;stroke-miterlimit:4;stroke-dasharray:none"
         id="path4890"
         inkscape:connector-curvature="0" />
      <path
         d="m 443.34998,1829.6536 -5.94632,0 0,-41.6243 5.94632,0 0,41.6243"
         style="font-size:154px;font-style:normal;font-variant:normal;font-weight:500;font-stretch:normal;text-align:start;line-height:81.99999927999998306%;letter-spacing:-0.75000000000000000px;word-spacing:0px;writing-mode:lr-tb;text-anchor:start;fill:#ffffff;fill-opacity:1;stroke:none;display:inline;font-family:DIN_OSP;-inkscape-font-specification:DIN_OSP Medium;stroke-width:0;stroke-miterlimit:4;stroke-dasharray:none"
         id="path4892"
         inkscape:connector-curvature="0" />
      <path
         d="m 451.1576,1790.6457 c 1.74425,-1.7442 3.84528,-2.6163 6.3031,-2.6164 2.4578,10e-5 4.55883,0.8722 6.3031,2.6164 1.74423,1.7443 2.61636,3.8453 2.61638,6.3031 l 0,2.9732 -5.94632,0 0,-2.9732 c -2e-5,-0.8324 -0.29733,-1.5262 -0.89195,-2.0812 -0.555,-0.5946 -1.24874,-0.8919 -2.08121,-0.892 -0.8325,10e-5 -1.54605,0.2974 -2.14068,0.892 -0.555,0.555 -0.83249,1.2488 -0.83248,2.0812 l 0,23.7853 c -1e-5,0.8325 0.27748,1.546 0.83248,2.1407 0.59463,0.5549 1.30818,0.8324 2.14068,0.8324 0.83247,0 1.52621,-0.2775 2.08121,-0.8324 0.59462,-0.5947 0.89193,-1.3082 0.89195,-2.1407 l 0,-2.9732 5.94632,0 0,2.9732 c -2e-5,2.4578 -0.87215,4.5588 -2.61638,6.3031 -1.74427,1.7442 -3.8453,2.6164 -6.3031,2.6164 -2.45782,0 -4.55885,-0.8722 -6.3031,-2.6164 -1.74425,-1.7443 -2.61638,-3.8453 -2.61638,-6.3031 l 0,-23.7853 c 0,-2.4578 0.87213,-4.5588 2.61638,-6.3031"
         style="font-size:154px;font-style:normal;font-variant:normal;font-weight:500;font-stretch:normal;text-align:start;line-height:81.99999927999998306%;letter-spacing:-0.75000000000000000px;word-spacing:0px;writing-mode:lr-tb;text-anchor:start;fill:#ffffff;fill-opacity:1;stroke:none;display:inline;font-family:DIN_OSP;-inkscape-font-specification:DIN_OSP Medium;stroke-width:0;stroke-miterlimit:4;stroke-dasharray:none"
         id="path4894"
         inkscape:connector-curvature="0" />
      <path
         d="m 469.48556,1817.7609 0,2.9732 c 0,2.4578 0.87213,4.5588 2.61638,6.3031 1.74424,1.7442 3.8453,2.6164 6.3031,2.6164 2.4578,0 4.55882,-0.8722 6.3031,-2.6164 1.74424,-1.7443 2.61638,-3.8453 2.61638,-6.3031 l 0,-5.9463 c 0,-2.2596 -0.75322,-4.2417 -2.2596,-5.9464 -1.7839,-1.9821 -4.00389,-2.9731 -6.65988,-2.9731 -0.83249,0 -1.54605,-0.2775 -2.14068,-0.8325 -0.55497,-0.5946 -0.83248,-1.3082 -0.83248,-2.1407 l 0,-5.9463 c 0,-0.8324 0.27751,-1.5262 0.83248,-2.0812 0.59463,-0.5946 1.30819,-0.8919 2.14068,-0.892 0.83248,10e-5 1.52619,0.2974 2.08121,0.892 0.59463,0.555 0.89195,1.2488 0.89195,2.0812 l 0,2.9732 5.41115,0 0.53517,0 0,-2.9732 c 0,-2.4578 -0.87214,-4.5588 -2.61638,-6.3031 -1.74428,-1.7442 -3.8453,-2.6163 -6.3031,-2.6164 -2.4578,10e-5 -4.55886,0.8722 -6.3031,2.6164 -1.74425,1.7443 -2.61638,3.8453 -2.61638,6.3031 l 0,5.9463 c 0,2.2597 0.7532,4.2418 2.2596,5.9463 1.7839,1.9822 4.00384,2.9732 6.65988,2.9732 0.83248,0 1.52619,0.2973 2.08121,0.8919 0.59463,0.5551 0.89195,1.2488 0.89195,2.0813 l 0,5.9463 c 0,0.8325 -0.29732,1.546 -0.89195,2.1407 -0.55502,0.5549 -1.24873,0.8324 -2.08121,0.8324 -0.83249,0 -1.54605,-0.2775 -2.14068,-0.8324 -0.55497,-0.5947 -0.83248,-1.3082 -0.83248,-2.1407 l 0,-2.9732 -5.94632,0"
         style="font-size:154px;font-style:normal;font-variant:normal;font-weight:500;font-stretch:normal;text-align:start;line-height:81.99999927999998306%;letter-spacing:-0.75000000000000000px;word-spacing:0px;writing-mode:lr-tb;text-anchor:start;fill:#ffffff;fill-opacity:1;stroke:none;display:inline;font-family:DIN_OSP;-inkscape-font-specification:DIN_OSP Medium;stroke-width:0;stroke-miterlimit:4;stroke-dasharray:none"
         id="path4896"
         inkscape:connector-curvature="0" />
      <path
         d="m 222.48749,1869.4939 -4.45974,-13.3792 0,22.2987 -5.94632,0 0,-41.6243 5.94632,0 7.4329,22.2987 7.4329,-22.2987 5.94631,0 0,41.6243 -5.94631,0 0,-22.2987 -4.45974,13.3792 -5.94632,0"
         style="font-size:156.34930420000000595px;font-style:normal;font-variant:normal;font-weight:500;font-stretch:normal;text-align:start;line-height:74.00000095000000044%;letter-spacing:-0.22000000000000000px;word-spacing:0px;writing-mode:lr-tb;text-anchor:start;fill:#ffffff;fill-opacity:1;stroke:none;display:inline;font-family:DIN_OSP;-inkscape-font-specification:DIN_OSP Medium;stroke-width:0;stroke-miterlimit:4;stroke-dasharray:none"
         id="path4898"
         inkscape:connector-curvature="0" />
      <path
         d="m 243.00953,1878.4134 0,-41.6243 17.83896,0 0,5.9464 -11.89264,0 0,11.8926 8.91948,0 0,5.9463 -8.91948,0 0,11.8927 11.89264,0 0,5.9463 -17.83896,0"
         style="font-size:156.34930420000000595px;font-style:normal;font-variant:normal;font-weight:500;font-stretch:normal;text-align:start;line-height:74.00000095000000044%;letter-spacing:-0.22000000000000000px;word-spacing:0px;writing-mode:lr-tb;text-anchor:start;fill:#ffffff;fill-opacity:1;stroke:none;display:inline;font-family:DIN_OSP;-inkscape-font-specification:DIN_OSP Medium;stroke-width:0;stroke-miterlimit:4;stroke-dasharray:none"
         id="path4900"
         inkscape:connector-curvature="0" />
      <path
         d="m 264.20159,1878.4134 0,-41.6243 17.83896,0 0,5.9464 -11.89264,0 0,11.8926 8.91948,0 0,5.9463 -8.91948,0 0,11.8927 11.89264,0 0,5.9463 -17.83896,0"
         style="font-size:156.34930420000000595px;font-style:normal;font-variant:normal;font-weight:500;font-stretch:normal;text-align:start;line-height:74.00000095000000044%;letter-spacing:-0.22000000000000000px;word-spacing:0px;writing-mode:lr-tb;text-anchor:start;fill:#ffffff;fill-opacity:1;stroke:none;display:inline;font-family:DIN_OSP;-inkscape-font-specification:DIN_OSP Medium;stroke-width:0;stroke-miterlimit:4;stroke-dasharray:none"
         id="path4902"
         inkscape:connector-curvature="0" />
      <path
         d="m 283.5133,1836.7891 17.83896,0 0,5.9464 -5.94632,0 0,35.6779 -5.94632,0 0,-35.6779 -5.94632,0 0,-5.9464"
         style="font-size:156.34930420000000595px;font-style:normal;font-variant:normal;font-weight:500;font-stretch:normal;text-align:start;line-height:74.00000095000000044%;letter-spacing:-0.22000000000000000px;word-spacing:0px;writing-mode:lr-tb;text-anchor:start;fill:#ffffff;fill-opacity:1;stroke:none;display:inline;font-family:DIN_OSP;-inkscape-font-specification:DIN_OSP Medium;stroke-width:0;stroke-miterlimit:4;stroke-dasharray:none"
         id="path4904"
         inkscape:connector-curvature="0" />
      <path
         d="m 309.35044,1878.4134 -5.94632,0 0,-41.6243 5.94632,0 0,41.6243"
         style="font-size:156.34930420000000595px;font-style:normal;font-variant:normal;font-weight:500;font-stretch:normal;text-align:start;line-height:74.00000095000000044%;letter-spacing:-0.22000000000000000px;word-spacing:0px;writing-mode:lr-tb;text-anchor:start;fill:#ffffff;fill-opacity:1;stroke:none;display:inline;font-family:DIN_OSP;-inkscape-font-specification:DIN_OSP Medium;stroke-width:0;stroke-miterlimit:4;stroke-dasharray:none"
         id="path4906"
         inkscape:connector-curvature="0" />
      <path
         d="m 314.42426,1836.6789 5.94632,0 5.94632,20.8121 0,-20.8121 5.94632,0 0,41.6242 -5.94632,0 -5.94632,-20.8121 0,20.8121 -5.94632,0 0,-41.6242"
         style="font-size:156.34930420000000595px;font-style:normal;font-variant:normal;font-weight:500;font-stretch:normal;text-align:start;line-height:74.00000095000000044%;letter-spacing:-0.22000000000000000px;word-spacing:0px;writing-mode:lr-tb;text-anchor:start;fill:#ffffff;fill-opacity:1;stroke:none;display:inline;font-family:DIN_OSP;-inkscape-font-specification:DIN_OSP Medium;stroke-width:0;stroke-miterlimit:4;stroke-dasharray:none"
         id="path4908"
         inkscape:connector-curvature="0" />
      <path
         d="m 339.28644,1839.8465 c 1.74424,-1.7442 3.84527,-2.6163 6.3031,-2.6164 2.4578,10e-5 4.55882,0.8722 6.3031,2.6164 1.74423,1.7443 2.61636,3.8453 2.61638,6.3031 l -5.94632,0 c -2e-5,-0.8324 -0.29734,-1.5262 -0.89195,-2.0812 -0.55501,-0.5946 -1.24874,-0.8919 -2.08121,-0.8919 -0.8325,0 -1.54606,0.2973 -2.14068,0.8919 -0.555,0.555 -0.83249,1.2488 -0.83248,2.0812 l 0,23.7853 c -10e-6,0.8325 0.27748,1.546 0.83248,2.1407 0.59462,0.5549 1.30818,0.8324 2.14068,0.8324 0.83247,0 1.5262,-0.2775 2.08121,-0.8324 0.59461,-0.5947 0.89193,-1.3082 0.89195,-2.1407 l 0,-8.9195 -2.97316,0 0,-5.9463 8.91948,0 0,14.8658 c -2e-5,2.4578 -0.87215,4.5588 -2.61638,6.3031 -1.74428,1.7442 -3.8453,2.6164 -6.3031,2.6164 -2.45783,0 -4.55886,-0.8722 -6.3031,-2.6164 -1.74426,-1.7443 -2.61639,-3.8453 -2.61638,-6.3031 l 0,-23.7853 c -10e-6,-2.4578 0.87212,-4.5588 2.61638,-6.3031"
         style="font-size:156.34930420000000595px;font-style:normal;font-variant:normal;font-weight:500;font-stretch:normal;text-align:start;line-height:74.00000095000000044%;letter-spacing:-0.22000000000000000px;word-spacing:0px;writing-mode:lr-tb;text-anchor:start;fill:#ffffff;fill-opacity:1;stroke:none;display:inline;font-family:DIN_OSP;-inkscape-font-specification:DIN_OSP Medium;stroke-width:0;stroke-miterlimit:4;stroke-dasharray:none"
         id="path4910"
         inkscape:connector-curvature="0" />
      <path
         d="m 372.37063,1839.4055 c 1.74425,-1.7442 3.84528,-2.6163 6.3031,-2.6164 2.4578,10e-5 4.55883,0.8722 6.30309,2.6164 1.74424,1.7443 2.61637,3.8453 2.61638,6.3031 -1e-5,1.3082 -0.25769,2.5371 -0.77302,3.6867 l -10.40606,23.0718 11.17908,0 0,5.9463 -17.83895,0 0,-5.9463 11.17908,-24.4394 c 0.47569,-1.1496 0.71354,-1.9226 0.71356,-2.3191 -2e-5,-0.8324 -0.29733,-1.5262 -0.89195,-2.0812 -0.555,-0.5946 -1.24874,-0.8919 -2.08121,-0.8919 -0.8325,0 -1.54605,0.2973 -2.14068,0.8919 -0.555,0.555 -0.83249,1.2488 -0.83248,2.0812 l -5.94632,0 c 0,-2.4578 0.87212,-4.5588 2.61638,-6.3031"
         style="font-size:154px;font-style:normal;font-variant:normal;font-weight:500;font-stretch:normal;text-align:start;line-height:81.99999927999998306%;letter-spacing:-0.75000000000000000px;word-spacing:0px;writing-mode:lr-tb;text-anchor:start;fill:#ffffff;fill-opacity:1;stroke:none;display:inline;font-family:DIN_OSP;-inkscape-font-specification:DIN_OSP Medium;stroke-width:0;stroke-miterlimit:4;stroke-dasharray:none"
         id="path4912"
         inkscape:connector-curvature="0" />
      <path
         d="m 393.91518,1839.4055 c 1.74425,-1.7442 3.84527,-2.6163 6.3031,-2.6164 2.45779,10e-5 4.55883,0.8722 6.30309,2.6164 1.74424,1.7443 2.61637,3.8453 2.61638,6.3031 l 0,23.7853 c -10e-6,2.4578 -0.87214,4.5589 -2.61638,6.3031 -1.74426,1.7442 -3.8453,2.6164 -6.30309,2.6164 -2.45783,0 -4.55885,-0.8722 -6.3031,-2.6164 -1.74426,-1.7442 -2.61639,-3.8453 -2.61638,-6.3031 l 0,-23.7853 c -1e-5,-2.4578 0.87212,-4.5588 2.61638,-6.3031 m 8.38431,4.2219 c -0.55501,-0.5946 -1.24874,-0.8919 -2.08121,-0.8919 -0.8325,0 -1.54606,0.2973 -2.14068,0.8919 -0.555,0.555 -0.83249,1.2488 -0.83248,2.0812 l 0,23.7853 c -10e-6,0.8325 0.27748,1.546 0.83248,2.1407 0.59462,0.5549 1.30818,0.8325 2.14068,0.8325 0.83247,0 1.5262,-0.2776 2.08121,-0.8325 0.59461,-0.5947 0.89193,-1.3082 0.89195,-2.1407 l 0,-23.7853 c -2e-5,-0.8324 -0.29734,-1.5262 -0.89195,-2.0812"
         style="font-size:154px;font-style:normal;font-variant:normal;font-weight:500;font-stretch:normal;text-align:start;line-height:81.99999927999998306%;letter-spacing:-0.75000000000000000px;word-spacing:0px;writing-mode:lr-tb;text-anchor:start;fill:#ffffff;fill-opacity:1;stroke:none;display:inline;font-family:DIN_OSP;-inkscape-font-specification:DIN_OSP Medium;stroke-width:0;stroke-miterlimit:4;stroke-dasharray:none"
         id="path4914"
         inkscape:connector-curvature="0" />
      <path
         d="m 419.03698,1836.7891 5.94632,0 0,41.6243 -5.94632,0 0,-35.6779 -5.94632,5.9463 0,-5.9463 5.94632,-5.9464"
         style="font-size:154px;font-style:normal;font-variant:normal;font-weight:500;font-stretch:normal;text-align:start;line-height:81.99999927999998306%;letter-spacing:-0.75000000000000000px;word-spacing:0px;writing-mode:lr-tb;text-anchor:start;fill:#ffffff;fill-opacity:1;stroke:none;display:inline;font-family:DIN_OSP;-inkscape-font-specification:DIN_OSP Medium;stroke-width:0;stroke-miterlimit:4;stroke-dasharray:none"
         id="path4916"
         inkscape:connector-curvature="0" />
      <path
         d="m 432.48155,1839.5158 c 1.74425,-1.7442 3.84527,-2.6164 6.3031,-2.6164 2.4578,0 4.55883,0.8722 6.3031,2.6164 1.74423,1.7442 2.61636,3.8453 2.61638,6.3031 l 0,5.9463 c -2e-5,2.2596 -0.75323,4.2417 -2.25961,5.9463 1.50638,1.7046 2.25959,3.6867 2.25961,5.9463 l 0,5.9463 c -2e-5,2.4578 -0.87215,4.5589 -2.61638,6.3031 -1.74427,1.7443 -3.8453,2.6164 -6.3031,2.6164 -2.45783,0 -4.55885,-0.8721 -6.3031,-2.6164 -1.74426,-1.7442 -2.61639,-3.8453 -2.61638,-6.3031 l 0,-2.9731 5.94632,0 0,2.9731 c -10e-6,0.8325 0.27749,1.5461 0.83248,2.1407 0.59463,0.555 1.30818,0.8325 2.14068,0.8325 0.83247,0 1.5262,-0.2775 2.08121,-0.8325 0.59462,-0.5946 0.89193,-1.3082 0.89195,-2.1407 l 0,-5.9463 c -2e-5,-0.8325 -0.29733,-1.5262 -0.89195,-2.0812 -0.55501,-0.5946 -1.24874,-0.8919 -2.08121,-0.8919 l 0,-5.9464 c 0.83247,10e-5 1.5262,-0.2774 2.08121,-0.8324 0.59462,-0.5946 0.89193,-1.3082 0.89195,-2.1407 l 0,-5.9463 c -2e-5,-0.8325 -0.29733,-1.5262 -0.89195,-2.0813 -0.55501,-0.5945 -1.24874,-0.8919 -2.08121,-0.8919 -0.8325,0 -1.54605,0.2974 -2.14068,0.8919 -0.55499,0.5551 -0.83249,1.2488 -0.83248,2.0813 l 0,2.9731 -5.94632,0 0,-2.9731 c -10e-6,-2.4578 0.87212,-4.5589 2.61638,-6.3031"
         style="font-size:154px;font-style:normal;font-variant:normal;font-weight:500;font-stretch:normal;text-align:start;line-height:81.99999927999998306%;letter-spacing:-0.75000000000000000px;word-spacing:0px;writing-mode:lr-tb;text-anchor:start;fill:#ffffff;fill-opacity:1;stroke:none;display:inline;font-family:DIN_OSP;-inkscape-font-specification:DIN_OSP Medium;stroke-width:0;stroke-miterlimit:4;stroke-dasharray:none"
         id="path4918"
         inkscape:connector-curvature="0" />
    </g>
    <path
       style="fill:#00a651;fill-opacity:1;stroke:none;display:inline;stroke-width:0;stroke-miterlimit:4;stroke-dasharray:none"
       d="m 295.22162,1615.8942 -118.40584,31.7185 31.72828,118.4155 98.18172,-26.3048 7.04751,26.3048 98.05605,-26.2758 7.03784,26.2758 82.82998,-22.1962 -22.19626,-82.83 -80.45181,21.5582 -11.75551,-43.8898 -80.21011,21.4906 -11.86185,-44.2668 z"
       id="lgmsquares"
       inkscape:connector-curvature="0" />
    <g
       id="10"
       style="stroke-width:0;stroke-miterlimit:4;stroke-dasharray:none;stroke:none;fill:#000000">
      <path
         d="m 845.5966,1466.8472 10.4321,-2.7953 19.56672,73.024 -10.4321,2.7953 -16.77147,-62.592 -7.63666,13.2272 -2.79524,-10.432 7.63665,-13.2272"
         style="font-size:108px;font-style:normal;font-variant:normal;font-weight:500;font-stretch:normal;text-align:start;line-height:89.99999762000000203%;letter-spacing:0px;word-spacing:0px;writing-mode:lr-tb;text-anchor:start;fill:#000000;fill-opacity:1;stroke:none;font-family:DIN_OSP;-inkscape-font-specification:DIN_OSP Medium;stroke-width:0;stroke-miterlimit:4;stroke-dasharray:none"
         id="path6746"
         inkscape:connector-curvature="0" />
      <path
         d="m 873.44385,1464.3052 c 2.24014,-3.8799 5.51614,-6.3976 9.82801,-7.553 4.31192,-1.1553 8.40786,-0.613 12.28783,1.6271 3.88001,2.2402 6.39769,5.5162 7.55304,9.828 l 11.18098,41.728 c 1.15538,4.3119 0.613,8.4078 -1.62711,12.2878 -2.24012,3.88 -5.51612,6.3977 -9.82802,7.5531 -4.31189,1.1553 -8.40783,0.613 -12.28782,-1.6272 -3.87999,-2.2401 -6.39767,-5.5161 -7.55304,-9.828 l -11.18099,-41.728 c -1.15535,-4.3118 -0.61297,-8.4077 1.62712,-12.2878 m 16.69375,3.4654 c -1.25316,-0.7822 -2.60999,-0.9777 -4.07049,-0.5864 -1.46046,0.3914 -2.57254,1.2484 -3.33623,2.5711 -0.71275,1.2346 -0.87347,2.5821 -0.48215,4.0425 l 11.18099,41.728 c 0.39134,1.4605 1.21359,2.5819 2.46676,3.3642 1.3041,0.6941 2.68638,0.8455 4.14686,0.4542 1.46048,-0.3914 2.5471,-1.2043 3.25986,-2.4389 0.76368,-1.3227 0.94985,-2.7143 0.55852,-4.1748 l -11.18099,-41.728 c -0.39132,-1.4604 -1.23903,-2.5377 -2.54313,-3.2319"
         style="font-size:108px;font-style:normal;font-variant:normal;font-weight:500;font-stretch:normal;text-align:start;line-height:89.99999762000000203%;letter-spacing:0px;word-spacing:0px;writing-mode:lr-tb;text-anchor:start;fill:#000000;fill-opacity:1;stroke:none;font-family:DIN_OSP;-inkscape-font-specification:DIN_OSP Medium;stroke-width:0;stroke-miterlimit:4;stroke-dasharray:none"
         id="path6748"
         inkscape:connector-curvature="0" />
    </g>
    <path
       inkscape:connector-curvature="0"
       id="until"
       style="font-size:108px;font-style:normal;font-variant:normal;font-weight:500;font-stretch:normal;text-align:start;line-height:89.99999762000000203%;letter-spacing:0px;word-spacing:0px;writing-mode:lr-tb;text-anchor:start;fill:#000000;fill-opacity:1;stroke:none;font-family:DIN_OSP;-inkscape-font-specification:DIN_OSP Medium;stroke-width:0;stroke-miterlimit:4;stroke-dasharray:none"
       d="m 920.45146,1485.2525 25.0368,-6.7086 2.23619,8.3456 -25.03679,6.7086 -2.2362,-8.3456" />
    <g
       id="13"
       style="stroke-width:0;stroke-miterlimit:4;stroke-dasharray:none;stroke:none;fill:#000000">
      <path
         d="m 954.50474,1437.6654 10.4321,-2.7953 19.56672,73.024 -10.4321,2.7953 -16.77147,-62.592 -7.63666,13.2272 -2.79525,-10.432 7.63666,-13.2272"
         style="font-size:108px;font-style:normal;font-variant:normal;font-weight:500;font-stretch:normal;text-align:start;line-height:89.99999762000000203%;letter-spacing:0px;word-spacing:0px;writing-mode:lr-tb;text-anchor:start;fill:#000000;fill-opacity:1;stroke:none;font-family:DIN_OSP;-inkscape-font-specification:DIN_OSP Medium;stroke-width:0;stroke-miterlimit:4;stroke-dasharray:none"
         id="path6752"
         inkscape:connector-curvature="0" />
      <path
         d="m 980.42014,1435.641 c 2.24013,-3.8799 5.51614,-6.3976 9.82801,-7.553 4.31191,-1.1553 8.40786,-0.613 12.28785,1.6271 3.88,2.2402 6.3977,5.5162 7.553,9.828 l 2.7953,10.432 c 1.0622,3.9642 0.6725,7.7956 -1.169,11.4942 3.4441,2.2824 5.6973,5.4056 6.7595,9.3698 l 2.7952,10.432 c 1.1554,4.3119 0.613,8.4078 -1.6271,12.2878 -2.2401,3.88 -5.5161,6.3977 -9.828,7.553 -4.3119,1.1554 -8.4079,0.613 -12.28786,-1.6271 -3.87999,-2.2401 -6.39766,-5.5161 -7.55304,-9.828 l -1.39762,-5.216 10.432,-2.7952 1.39762,5.216 c 0.3913,1.4605 1.2136,2.5819 2.4668,3.3642 1.3041,0.6941 2.6863,0.8455 4.1468,0.4541 1.4605,-0.3913 2.5471,-1.2042 3.2599,-2.4388 0.7637,-1.3227 0.9498,-2.7143 0.5585,-4.1748 l -2.7952,-10.432 c -0.3914,-1.4604 -1.2391,-2.5377 -2.5432,-3.2319 -1.2531,-0.7823 -2.61,-0.9777 -4.0705,-0.5865 l -2.79521,-10.4319 c 1.46051,-0.3913 2.54711,-1.2043 3.25991,-2.4389 0.7636,-1.3226 0.9498,-2.7142 0.5585,-4.1748 l -2.79528,-10.432 c -0.39132,-1.4604 -1.23903,-2.5377 -2.54314,-3.2319 -1.25316,-0.7822 -2.60999,-0.9777 -4.07048,-0.5864 -1.46047,0.3914 -2.57254,1.2484 -3.33624,2.571 -0.71274,1.2347 -0.87346,2.5822 -0.48214,4.0426 l 1.39762,5.216 -10.432,2.7952 -1.39762,-5.216 c -1.15535,-4.3118 -0.61298,-8.4077 1.62712,-12.2878"
         style="font-size:108px;font-style:normal;font-variant:normal;font-weight:500;font-stretch:normal;text-align:start;line-height:89.99999762000000203%;letter-spacing:0px;word-spacing:0px;writing-mode:lr-tb;text-anchor:start;fill:#000000;fill-opacity:1;stroke:none;font-family:DIN_OSP;-inkscape-font-specification:DIN_OSP Medium;stroke-width:0;stroke-miterlimit:4;stroke-dasharray:none"
         id="path6754"
         inkscape:connector-curvature="0" />
    </g>
    <g
       id="april"
       style="stroke-width:0;stroke-miterlimit:4;stroke-dasharray:none;stroke:none;fill:#000000">
      <path
         d="m 1044.5711,1413.5322 10.3277,-2.7673 35.2147,68.8311 -10.3276,2.7673 -7.3225,-14.8094 -14.7371,3.8369 1.0912,16.5909 -10.3276,2.7673 -3.9188,-77.2168 m 10.7022,19.4943 1.8001,27.5819 10.5363,-2.8232 -12.2321,-24.7867 c 0,10e-5 -0.035,0.01 -0.1043,0.028"
         style="font-size:108px;font-style:normal;font-variant:normal;font-weight:500;font-stretch:normal;text-align:start;line-height:89.99999762000000203%;letter-spacing:0px;word-spacing:0px;writing-mode:lr-tb;text-anchor:start;fill:#000000;fill-opacity:1;stroke:none;font-family:DIN_OSP;-inkscape-font-specification:DIN_OSP Medium;stroke-width:0;stroke-miterlimit:4;stroke-dasharray:none"
         id="path6756"
         inkscape:connector-curvature="0" />
      <path
         d="m 1074.6191,1405.5926 20.864,-5.5905 c 2.8514,-0.7639 5.5558,-0.4077 8.113,1.0687 2.5573,1.4765 4.2273,3.6752 5.0099,6.596 l 5.5905,20.864 c 0.7641,2.8515 0.4079,5.5558 -1.0686,8.1131 -1.4764,2.5573 -3.6403,4.2179 -6.4918,4.9819 l -10.5363,2.8232 8.3858,31.296 -10.3277,2.7673 -19.5388,-72.9197 m 13.095,7.5604 5.6184,20.9683 6.5722,-1.761 c 1.1127,-0.2981 1.9491,-0.9322 2.5091,-1.9022 0.5601,-0.97 0.691,-2.0113 0.3928,-3.1241 l -3.494,-13.04 c -0.2982,-1.1127 -0.9322,-1.9491 -1.9022,-2.5092 -0.97,-0.5599 -2.0114,-0.6909 -3.1242,-0.3928 l -6.5721,1.761"
         style="font-size:108px;font-style:normal;font-variant:normal;font-weight:500;font-stretch:normal;text-align:start;line-height:89.99999762000000203%;letter-spacing:0px;word-spacing:0px;writing-mode:lr-tb;text-anchor:start;fill:#000000;fill-opacity:1;stroke:none;font-family:DIN_OSP;-inkscape-font-specification:DIN_OSP Medium;stroke-width:0;stroke-miterlimit:4;stroke-dasharray:none"
         id="path6758"
         inkscape:connector-curvature="0" />
      <path
         d="m 1113.7391,1395.1105 20.892,-5.4862 c 2.8514,-0.764 5.5557,-0.4078 8.113,1.0686 2.5573,1.4765 4.2179,3.6404 4.9819,6.4918 l 5.5905,20.864 c 1.0622,3.9642 0.1596,7.4112 -2.7078,10.3412 l 0,0 13.8608,31.2825 -10.3276,2.7672 -13.6018,-29.8983 -5.3203,1.4255 8.3857,31.296 -10.3276,2.7673 -19.5388,-72.9196 m 13.095,7.5603 5.6464,21.0727 6.5721,-1.761 c 1.1128,-0.2981 1.9492,-0.9322 2.5092,-1.9023 0.5414,-1.0395 0.6723,-2.0808 0.3928,-3.1241 l -3.4941,-13.04 c -0.2981,-1.1126 -0.9322,-1.949 -1.9022,-2.5091 -0.9886,-0.6295 -2.0393,-0.7952 -3.1521,-0.4972 l -6.5721,1.761"
         style="font-size:108px;font-style:normal;font-variant:normal;font-weight:500;font-stretch:normal;text-align:start;line-height:89.99999762000000203%;letter-spacing:0px;word-spacing:0px;writing-mode:lr-tb;text-anchor:start;fill:#000000;fill-opacity:1;stroke:none;font-family:DIN_OSP;-inkscape-font-specification:DIN_OSP Medium;stroke-width:0;stroke-miterlimit:4;stroke-dasharray:none"
         id="path6760"
         inkscape:connector-curvature="0" />
      <path
         d="m 1184.1616,1454.3959 -10.432,2.7952 -19.5667,-73.024 10.432,-2.7952 19.5667,73.024"
         style="font-size:108px;font-style:normal;font-variant:normal;font-weight:500;font-stretch:normal;text-align:start;line-height:89.99999762000000203%;letter-spacing:0px;word-spacing:0px;writing-mode:lr-tb;text-anchor:start;fill:#000000;fill-opacity:1;stroke:none;font-family:DIN_OSP;-inkscape-font-specification:DIN_OSP Medium;stroke-width:0;stroke-miterlimit:4;stroke-dasharray:none"
         id="path6762"
         inkscape:connector-curvature="0" />
      <path
         d="m 1194.4029,1451.6517 -19.5667,-73.024 10.432,-2.7952 16.7715,62.592 20.864,-5.5905 2.7952,10.432 -31.296,8.3857"
         style="font-size:108px;font-style:normal;font-variant:normal;font-weight:500;font-stretch:normal;text-align:start;line-height:89.99999762000000203%;letter-spacing:0px;word-spacing:0px;writing-mode:lr-tb;text-anchor:start;fill:#000000;fill-opacity:1;stroke:none;font-family:DIN_OSP;-inkscape-font-specification:DIN_OSP Medium;stroke-width:0;stroke-miterlimit:4;stroke-dasharray:none"
         id="path6764"
         inkscape:connector-curvature="0" />
    </g>
    <g
       id="medialab"
       style="stroke-width:0;stroke-miterlimit:4;stroke-dasharray:none;stroke:none;fill:#000000">
      <path
         d="m 631.61139,1686.3086 -14.1133,-21.3755 10.48217,39.12 -10.432,2.7952 -19.56672,-73.024 10.432,-2.7952 23.52217,35.6259 2.55782,-42.614 10.432,-2.7953 19.56672,73.024 -10.432,2.7953 -10.48217,-39.12 -1.53469,25.5684 -10.432,2.7952"
         style="font-size:108px;font-style:normal;font-variant:normal;font-weight:500;font-stretch:normal;text-align:start;line-height:89.99999762000000203%;letter-spacing:0px;word-spacing:0px;writing-mode:lr-tb;text-anchor:start;fill:#000000;fill-opacity:1;stroke:none;font-family:DIN_OSP;-inkscape-font-specification:DIN_OSP Medium;stroke-width:0;stroke-miterlimit:4;stroke-dasharray:none"
         id="path6766"
         inkscape:connector-curvature="0" />
      <path
         d="m 674.59825,1691.5618 -19.56672,-73.024 31.296,-8.3857 2.79524,10.432 -20.86399,5.5905 5.59049,20.864 15.648,-4.1929 2.79524,10.432 -15.648,4.1929 5.5905,20.864 20.86399,-5.5905 2.79525,10.432 -31.296,8.3857"
         style="font-size:108px;font-style:normal;font-variant:normal;font-weight:500;font-stretch:normal;text-align:start;line-height:89.99999762000000203%;letter-spacing:0px;word-spacing:0px;writing-mode:lr-tb;text-anchor:start;fill:#000000;fill-opacity:1;stroke:none;font-family:DIN_OSP;-inkscape-font-specification:DIN_OSP Medium;stroke-width:0;stroke-miterlimit:4;stroke-dasharray:none"
         id="path6768"
         inkscape:connector-curvature="0" />
      <path
         d="m 693.13278,1608.3286 20.86399,-5.5905 c 2.85142,-0.7639 5.55575,-0.4077 8.11303,1.0686 2.55725,1.4766 4.22722,3.6753 5.0099,6.5961 l 14.00418,52.2644 c 0.76401,2.8514 0.4078,5.5557 -1.0686,8.113 -1.47648,2.5572 -3.64039,4.2179 -6.49179,4.9819 l -20.86399,5.5905 -19.56672,-73.024 m 13.09497,7.5604 14.03213,52.3686 6.57216,-1.761 c 1.11273,-0.2981 1.94912,-0.9322 2.50916,-1.9022 0.56002,-0.97 0.69095,-2.0114 0.39281,-3.1241 L 717.82626,1617.03 c -0.29816,-1.1127 -0.93224,-1.9491 -1.90224,-2.5092 -0.96999,-0.5599 -2.01137,-0.6909 -3.12411,-0.3928 l -6.57216,1.761"
         style="font-size:108px;font-style:normal;font-variant:normal;font-weight:500;font-stretch:normal;text-align:start;line-height:89.99999762000000203%;letter-spacing:0px;word-spacing:0px;writing-mode:lr-tb;text-anchor:start;fill:#000000;fill-opacity:1;stroke:none;font-family:DIN_OSP;-inkscape-font-specification:DIN_OSP Medium;stroke-width:0;stroke-miterlimit:4;stroke-dasharray:none"
         id="path6770"
         inkscape:connector-curvature="0" />
      <path
         d="m 764.60196,1667.4454 -10.432,2.7952 -19.56672,-73.024 10.432,-2.7952 19.56672,73.024"
         style="font-size:108px;font-style:normal;font-variant:normal;font-weight:500;font-stretch:normal;text-align:start;line-height:89.99999762000000203%;letter-spacing:0px;word-spacing:0px;writing-mode:lr-tb;text-anchor:start;fill:#000000;fill-opacity:1;stroke:none;font-family:DIN_OSP;-inkscape-font-specification:DIN_OSP Medium;stroke-width:0;stroke-miterlimit:4;stroke-dasharray:none"
         id="path6772"
         inkscape:connector-curvature="0" />
      <path
         d="m 766.1258,1588.7702 10.32768,-2.7673 35.21472,68.8311 -10.32768,2.7673 -7.32247,-14.8094 -14.73707,3.837 1.09122,16.5909 -10.32768,2.7673 -3.91872,-77.2169 m 10.70217,19.4943 1.80007,27.582 10.53632,-2.8232 -12.23207,-24.7867 c 0,0 -0.0348,0.01 -0.10432,0.028"
         style="font-size:108px;font-style:normal;font-variant:normal;font-weight:500;font-stretch:normal;text-align:start;line-height:89.99999762000000203%;letter-spacing:0px;word-spacing:0px;writing-mode:lr-tb;text-anchor:start;fill:#000000;fill-opacity:1;stroke:none;font-family:DIN_OSP;-inkscape-font-specification:DIN_OSP Medium;stroke-width:0;stroke-miterlimit:4;stroke-dasharray:none"
         id="path6774"
         inkscape:connector-curvature="0" />
      <path
         d="m 816.8157,1653.4548 -19.56672,-73.024 10.432,-2.7953 16.77148,62.592 20.864,-5.5905 2.79524,10.432 -31.296,8.3858"
         style="font-size:108px;font-style:normal;font-variant:normal;font-weight:500;font-stretch:normal;text-align:start;line-height:89.99999762000000203%;letter-spacing:0px;word-spacing:0px;writing-mode:lr-tb;text-anchor:start;fill:#000000;fill-opacity:1;stroke:none;font-family:DIN_OSP;-inkscape-font-specification:DIN_OSP Medium;stroke-width:0;stroke-miterlimit:4;stroke-dasharray:none"
         id="path6776"
         inkscape:connector-curvature="0" />
      <path
         d="m 846.19959,1567.3145 10.32768,-2.7673 35.21472,68.8311 -10.32768,2.7673 -7.32247,-14.8094 -14.73707,3.837 1.09122,16.5909 -10.32777,2.7673 -3.91863,-77.2169 m 10.70217,19.4943 1.80007,27.582 10.53622,-2.8232 -12.23197,-24.7867 c -8e-5,0 -0.0348,0.01 -0.10432,0.028"
         style="font-size:108px;font-style:normal;font-variant:normal;font-weight:500;font-stretch:normal;text-align:start;line-height:89.99999762000000203%;letter-spacing:0px;word-spacing:0px;writing-mode:lr-tb;text-anchor:start;fill:#000000;fill-opacity:1;stroke:none;font-family:DIN_OSP;-inkscape-font-specification:DIN_OSP Medium;stroke-width:0;stroke-miterlimit:4;stroke-dasharray:none"
         id="path6778"
         inkscape:connector-curvature="0" />
      <path
         d="m 877.35074,1559.0794 20.864,-5.5905 c 2.85133,-0.7639 5.55567,-0.4077 8.11302,1.0686 2.55719,1.4765 4.22715,3.6752 5.0099,6.5961 l 5.92592,22.1158 c 0.27944,1.0433 0.13919,2.0499 -0.42075,3.0198 -0.56012,0.9701 -1.36173,1.5949 -2.40485,1.8743 l 0.028,0.1043 c 1.04311,-0.2794 2.04971,-0.1392 3.01979,0.4208 0.96992,0.5601 1.59468,1.3617 1.87429,2.4048 l 5.95387,22.2202 c 0.76394,2.8514 0.40774,5.5558 -1.06861,8.113 -1.47653,2.5573 -3.64046,4.218 -6.49178,4.982 l -20.86399,5.5905 -19.53877,-72.9197 m 13.09497,7.5604 5.61845,20.9683 6.57215,-1.761 c 1.11276,-0.2981 1.94915,-0.9322 2.50917,-1.9023 0.55994,-0.9699 0.69088,-2.0113 0.3928,-3.1241 l -3.49406,-13.04 c -0.29824,-1.1126 -0.93232,-1.949 -1.90223,-2.5091 -0.96998,-0.56 -2.01135,-0.6909 -3.12412,-0.3928 l -6.57216,1.761 m 8.38574,31.296 5.61844,20.9683 6.57216,-1.761 c 1.11275,-0.2982 1.94914,-0.9323 2.50916,-1.9023 0.55994,-0.9699 0.69087,-2.0113 0.39281,-3.1241 l -3.49406,-13.04 c -0.29825,-1.1127 -0.93233,-1.9491 -1.90224,-2.5091 -0.96999,-0.56 -2.01136,-0.691 -3.12411,-0.3928 l -6.57216,1.761"
         style="font-size:108px;font-style:normal;font-variant:normal;font-weight:500;font-stretch:normal;text-align:start;line-height:89.99999762000000203%;letter-spacing:0px;word-spacing:0px;writing-mode:lr-tb;text-anchor:start;fill:#000000;fill-opacity:1;stroke:none;font-family:DIN_OSP;-inkscape-font-specification:DIN_OSP Medium;stroke-width:0;stroke-miterlimit:4;stroke-dasharray:none"
         id="path6780"
         inkscape:connector-curvature="0" />
    </g>
    <g
       id="prado"
       style="stroke-width:0;stroke-miterlimit:4;stroke-dasharray:none;stroke:none;fill:#000000">
      <path
         d="m 937.86445,1542.8648 20.86399,-5.5905 c 2.85144,-0.764 5.55578,-0.4078 8.11303,1.0686 2.55728,1.4765 4.22725,3.6752 5.0099,6.5961 l 5.59049,20.864 c 0.76405,2.8514 0.40784,5.5558 -1.06861,8.113 -1.47643,2.5573 -3.64035,4.218 -6.49177,4.982 l -10.53632,2.8232 8.38573,31.296 -10.32768,2.7673 -19.53876,-72.9197 m 13.09497,7.5604 5.61844,20.9683 6.57216,-1.761 c 1.11276,-0.2981 1.94915,-0.9322 2.50917,-1.9023 0.56004,-0.9699 0.69097,-2.0113 0.3928,-3.1241 l -3.49406,-13.04 c -0.29814,-1.1127 -0.93222,-1.949 -1.90223,-2.5091 -0.96998,-0.56 -2.01136,-0.6909 -3.12412,-0.3928 l -6.57216,1.761"
         style="font-size:108px;font-style:normal;font-variant:normal;font-weight:500;font-stretch:normal;text-align:start;line-height:89.99999762000000203%;letter-spacing:0px;word-spacing:0px;writing-mode:lr-tb;text-anchor:start;fill:#000000;fill-opacity:1;stroke:none;font-family:DIN_OSP;-inkscape-font-specification:DIN_OSP Medium;stroke-width:0;stroke-miterlimit:4;stroke-dasharray:none"
         id="path6782"
         inkscape:connector-curvature="0" />
      <path
         d="m 976.98444,1532.3826 20.89195,-5.4862 c 2.85141,-0.7639 5.55581,-0.4077 8.11301,1.0686 2.5573,1.4766 4.218,3.6405 4.982,6.4918 l 5.5905,20.864 c 1.0622,3.9642 0.1596,7.4113 -2.7078,10.3412 l 0,0 13.8608,31.2825 -10.3277,2.7673 -13.6017,-29.8984 -5.32035,1.4256 8.38575,31.296 -10.32769,2.7673 -19.53877,-72.9197 m 13.09498,7.5604 5.64639,21.0726 6.57219,-1.761 c 1.1127,-0.2981 1.9491,-0.9322 2.5091,-1.9022 0.5414,-1.0395 0.6724,-2.0809 0.3928,-3.1241 l -3.494,-13.04 c -0.2982,-1.1127 -0.9322,-1.9491 -1.90226,-2.5092 -0.98861,-0.6295 -2.0393,-0.7952 -3.15207,-0.4971 l -6.57215,1.761"
         style="font-size:108px;font-style:normal;font-variant:normal;font-weight:500;font-stretch:normal;text-align:start;line-height:89.99999762000000203%;letter-spacing:0px;word-spacing:0px;writing-mode:lr-tb;text-anchor:start;fill:#000000;fill-opacity:1;stroke:none;font-family:DIN_OSP;-inkscape-font-specification:DIN_OSP Medium;stroke-width:0;stroke-miterlimit:4;stroke-dasharray:none"
         id="path6784"
         inkscape:connector-curvature="0" />
      <path
         d="m 1027.9445,1518.6161 10.3277,-2.7673 35.2147,68.8311 -10.3277,2.7673 -7.3224,-14.8094 -14.7371,3.837 1.0912,16.5909 -10.3277,2.7672 -3.9187,-77.2168 m 10.7022,19.4943 1.8001,27.582 10.5363,-2.8232 -12.2321,-24.7867 c 0,0 -0.035,0.01 -0.1043,0.028"
         style="font-size:108px;font-style:normal;font-variant:normal;font-weight:500;font-stretch:normal;text-align:start;line-height:89.99999762000000203%;letter-spacing:0px;word-spacing:0px;writing-mode:lr-tb;text-anchor:start;fill:#000000;fill-opacity:1;stroke:none;font-family:DIN_OSP;-inkscape-font-specification:DIN_OSP Medium;stroke-width:0;stroke-miterlimit:4;stroke-dasharray:none"
         id="path6786"
         inkscape:connector-curvature="0" />
      <path
         d="m 1059.0677,1510.2767 20.864,-5.5905 c 2.8515,-0.764 5.5558,-0.4078 8.113,1.0686 2.5573,1.4765 4.2273,3.6752 5.0099,6.5961 l 14.0042,52.2643 c 0.7641,2.8514 0.4079,5.5557 -1.0686,8.113 -1.4764,2.5573 -3.6403,4.2179 -6.4918,4.982 l -20.864,5.5904 -19.5667,-73.0239 m 13.095,7.5603 14.0321,52.3687 6.5722,-1.761 c 1.1127,-0.2982 1.9491,-0.9323 2.5091,-1.9023 0.5601,-0.97 0.691,-2.0113 0.3929,-3.1241 l -11.9078,-44.4403 c -0.2981,-1.1127 -0.9322,-1.9491 -1.9022,-2.5092 -0.97,-0.5599 -2.0114,-0.6909 -3.1241,-0.3928 l -6.5722,1.761"
         style="font-size:108px;font-style:normal;font-variant:normal;font-weight:500;font-stretch:normal;text-align:start;line-height:89.99999762000000203%;letter-spacing:0px;word-spacing:0px;writing-mode:lr-tb;text-anchor:start;fill:#000000;fill-opacity:1;stroke:none;font-family:DIN_OSP;-inkscape-font-specification:DIN_OSP Medium;stroke-width:0;stroke-miterlimit:4;stroke-dasharray:none"
         id="path6788"
         inkscape:connector-curvature="0" />
      <path
         d="m 1105.4193,1502.7764 c 2.2401,-3.8799 5.5161,-6.3976 9.828,-7.553 4.3119,-1.1553 8.4079,-0.613 12.2878,1.6271 3.8801,2.2402 6.3977,5.5162 7.5531,9.828 l 11.181,41.728 c 1.1553,4.3119 0.613,8.4078 -1.6272,12.2878 -2.2401,3.88 -5.5161,6.3977 -9.828,7.5531 -4.3119,1.1553 -8.4078,0.613 -12.2878,-1.6272 -3.88,-2.2401 -6.3977,-5.5161 -7.553,-9.828 l -11.181,-41.728 c -1.1554,-4.3118 -0.613,-8.4077 1.6271,-12.2878 m 16.6938,3.4654 c -1.2532,-0.7822 -2.61,-0.9777 -4.0705,-0.5864 -1.4605,0.3914 -2.5726,1.2484 -3.3363,2.5711 -0.7127,1.2346 -0.8734,2.5821 -0.4821,4.0425 l 3.9692,14.8134 3.2705,12.2055 3.9413,14.7091 c 0.3913,1.4605 1.2136,2.5819 2.4667,3.3642 1.3041,0.6941 2.6864,0.8455 4.1469,0.4542 1.4605,-0.3914 2.5471,-1.2043 3.2599,-2.4388 0.7636,-1.3228 0.9498,-2.7144 0.5585,-4.1749 l -3.9413,-14.7091 -3.2705,-12.2054 -3.9692,-14.8135 c -0.3913,-1.4604 -1.239,-2.5377 -2.5431,-3.2319"
         style="font-size:108px;font-style:normal;font-variant:normal;font-weight:500;font-stretch:normal;text-align:start;line-height:89.99999762000000203%;letter-spacing:0px;word-spacing:0px;writing-mode:lr-tb;text-anchor:start;fill:#000000;fill-opacity:1;stroke:none;font-family:DIN_OSP;-inkscape-font-specification:DIN_OSP Medium;stroke-width:0;stroke-miterlimit:4;stroke-dasharray:none"
         id="path6790"
         inkscape:connector-curvature="0" />
    </g>
    <g
       id="future"
       style="color:#000000;fill:#00a651;fill-opacity:1;fill-rule:nonzero;stroke:none;marker:none;visibility:visible;display:inline;overflow:visible;enable-background:accumulate;stroke-width:0;stroke-miterlimit:4;stroke-dasharray:none">
      <path
         inkscape:connector-curvature="0"
         id="path7016"
         style="font-size:108px;font-style:normal;font-variant:normal;font-weight:500;font-stretch:normal;text-align:start;line-height:89.99999762000000203%;letter-spacing:0px;word-spacing:0px;writing-mode:lr-tb;text-anchor:start;fill:#00a651;fill-opacity:1;stroke:none;font-family:DIN_OSP;-inkscape-font-specification:DIN_OSP Medium;color:#000000;fill-rule:nonzero;marker:none;visibility:visible;display:inline;overflow:visible;enable-background:accumulate;stroke-width:0;stroke-miterlimit:4;stroke-dasharray:none"
         d="m 547.66712,1446.0484 19.56672,73.0239 10.432,-2.7952 -8.38574,-31.296 15.648,-4.1929 -2.79525,-10.432 -15.648,4.1929 -5.59049,-20.864 20.864,-5.5905 -2.79525,-10.432 -31.29599,8.3858" />
      <path
         inkscape:connector-curvature="0"
         id="path7018"
         style="font-size:108px;font-style:normal;font-variant:normal;font-weight:500;font-stretch:normal;text-align:start;line-height:89.99999762000000203%;letter-spacing:0px;word-spacing:0px;writing-mode:lr-tb;text-anchor:start;fill:#00a651;fill-opacity:1;stroke:none;font-family:DIN_OSP;-inkscape-font-specification:DIN_OSP Medium;color:#000000;fill-rule:nonzero;marker:none;visibility:visible;display:inline;overflow:visible;enable-background:accumulate;stroke-width:0;stroke-miterlimit:4;stroke-dasharray:none"
         d="m 585.76836,1435.8392 10.43201,-2.7953 15.37385,57.376 c 0.39132,1.4605 1.21357,2.5819 2.46676,3.3642 1.30408,0.6941 2.68637,0.8455 4.14686,0.4542 1.46046,-0.3913 2.54708,-1.2043 3.25986,-2.4388 0.76366,-1.3227 0.94983,-2.7143 0.55851,-4.1748 l -15.37385,-57.376 10.43201,-2.7953 15.37385,57.376 c 1.15533,4.3119 0.61296,8.4079 -1.62713,12.2878 -2.24013,3.88 -5.51614,6.3977 -9.828,7.5531 -4.31191,1.1553 -8.40786,0.613 -12.28783,-1.6271 -3.88,-2.2402 -6.39768,-5.5161 -7.55305,-9.8281 l -15.37385,-57.3759" />
      <path
         inkscape:connector-curvature="0"
         id="path7020"
         style="font-size:108px;font-style:normal;font-variant:normal;font-weight:500;font-stretch:normal;text-align:start;line-height:89.99999762000000203%;letter-spacing:0px;word-spacing:0px;writing-mode:lr-tb;text-anchor:start;fill:#00a651;fill-opacity:1;stroke:none;font-family:DIN_OSP;-inkscape-font-specification:DIN_OSP Medium;color:#000000;fill-rule:nonzero;marker:none;visibility:visible;display:inline;overflow:visible;enable-background:accumulate;stroke-width:0;stroke-miterlimit:4;stroke-dasharray:none"
         d="m 621.80929,1426.182 31.296,-8.3857 2.79525,10.432 -10.432,2.7952 16.77147,62.592 -10.432,2.7953 -16.77147,-62.592 -10.432,2.7952 -2.79525,-10.432" />
      <path
         inkscape:connector-curvature="0"
         id="path7022"
         style="font-size:108px;font-style:normal;font-variant:normal;font-weight:500;font-stretch:normal;text-align:start;line-height:89.99999762000000203%;letter-spacing:0px;word-spacing:0px;writing-mode:lr-tb;text-anchor:start;fill:#00a651;fill-opacity:1;stroke:none;font-family:DIN_OSP;-inkscape-font-specification:DIN_OSP Medium;color:#000000;fill-rule:nonzero;marker:none;visibility:visible;display:inline;overflow:visible;enable-background:accumulate;stroke-width:0;stroke-miterlimit:4;stroke-dasharray:none"
         d="m 657.89586,1416.5126 10.432,-2.7952 15.37385,57.376 c 0.39132,1.4605 1.21357,2.5819 2.46677,3.3642 1.30407,0.6941 2.68635,0.8455 4.14685,0.4542 1.46046,-0.3913 2.54709,-1.2043 3.25987,-2.4388 0.76365,-1.3227 0.94982,-2.7144 0.55851,-4.1748 l -15.37385,-57.376 10.432,-2.7953 15.37385,57.376 c 1.15533,4.3119 0.61295,8.4079 -1.62712,12.2878 -2.24015,3.88 -5.51615,6.3977 -9.82801,7.5531 -4.31191,1.1553 -8.40785,0.613 -12.28783,-1.6271 -3.88,-2.2402 -6.39768,-5.5162 -7.55304,-9.8281 l -15.37385,-57.376" />
      <path
         inkscape:connector-curvature="0"
         id="path7024"
         style="font-size:108px;font-style:normal;font-variant:normal;font-weight:500;font-stretch:normal;text-align:start;line-height:89.99999762000000203%;letter-spacing:0px;word-spacing:0px;writing-mode:lr-tb;text-anchor:start;fill:#00a651;fill-opacity:1;stroke:none;font-family:DIN_OSP;-inkscape-font-specification:DIN_OSP Medium;color:#000000;fill-rule:nonzero;marker:none;visibility:visible;display:inline;overflow:visible;enable-background:accumulate;stroke-width:0;stroke-miterlimit:4;stroke-dasharray:none"
         d="m 697.63028,1405.9777 20.89195,-5.4862 c 2.8514,-0.764 5.55574,-0.4078 8.11302,1.0686 2.55726,1.4765 4.2179,3.6404 4.98195,6.4918 l 5.59049,20.864 c 1.06218,3.9642 0.15959,7.4112 -2.70777,10.3412 l 0,0 13.8608,31.2824 -10.32768,2.7673 -13.60173,-29.8983 -5.32032,1.4255 8.38574,31.296 -10.32768,2.7673 -19.53877,-72.9196 m 13.09497,7.5603 5.6464,21.0727 6.57216,-1.761 c 1.11273,-0.2981 1.94912,-0.9322 2.50916,-1.9023 0.54138,-1.0395 0.67232,-2.0808 0.3928,-3.1241 l -3.49405,-13.04 c -0.29817,-1.1127 -0.93225,-1.9491 -1.90224,-2.5091 -0.98864,-0.6296 -2.03933,-0.7953 -3.15207,-0.4972 l -6.57216,1.761" />
      <path
         inkscape:connector-curvature="0"
         id="path7026"
         style="font-size:108px;font-style:normal;font-variant:normal;font-weight:500;font-stretch:normal;text-align:start;line-height:89.99999762000000203%;letter-spacing:0px;word-spacing:0px;writing-mode:lr-tb;text-anchor:start;fill:#00a651;fill-opacity:1;stroke:none;font-family:DIN_OSP;-inkscape-font-specification:DIN_OSP Medium;color:#000000;fill-rule:nonzero;marker:none;visibility:visible;display:inline;overflow:visible;enable-background:accumulate;stroke-width:0;stroke-miterlimit:4;stroke-dasharray:none"
         d="m 756.20461,1468.4378 -19.56672,-73.024 31.296,-8.3858 2.79524,10.432 -20.86399,5.5905 5.59049,20.864 15.6479,-4.1928 2.79524,10.432 -15.6479,4.1928 5.59049,20.864 20.864,-5.5905 2.79525,10.432 -31.296,8.3858" />
    </g>
    <g
       id="tools"
       style="color:#000000;fill:#00a651;fill-opacity:1;fill-rule:nonzero;stroke:none;marker:none;visibility:visible;display:inline;overflow:visible;enable-background:accumulate;stroke-width:0;stroke-miterlimit:4;stroke-dasharray:none">
      <path
         inkscape:connector-curvature="0"
         id="path7028"
         style="font-size:108px;font-style:normal;font-variant:normal;font-weight:500;font-stretch:normal;text-align:start;line-height:89.99999762000000203%;letter-spacing:0px;word-spacing:0px;writing-mode:lr-tb;text-anchor:start;fill:#00a651;fill-opacity:1;stroke:none;font-family:DIN_OSP;-inkscape-font-specification:DIN_OSP Medium;color:#000000;fill-rule:nonzero;marker:none;visibility:visible;display:inline;overflow:visible;enable-background:accumulate;stroke-width:0;stroke-miterlimit:4;stroke-dasharray:none"
         d="m 788.77499,1381.4437 31.296,-8.3857 2.79525,10.432 -10.432,2.7952 16.77147,62.592 -10.432,2.7952 -16.77147,-62.592 -10.432,2.7953 -2.79525,-10.432" />
      <path
         inkscape:connector-curvature="0"
         id="path7030"
         style="font-size:108px;font-style:normal;font-variant:normal;font-weight:500;font-stretch:normal;text-align:start;line-height:89.99999762000000203%;letter-spacing:0px;word-spacing:0px;writing-mode:lr-tb;text-anchor:start;fill:#00a651;fill-opacity:1;stroke:none;font-family:DIN_OSP;-inkscape-font-specification:DIN_OSP Medium;color:#000000;fill-rule:nonzero;marker:none;visibility:visible;display:inline;overflow:visible;enable-background:accumulate;stroke-width:0;stroke-miterlimit:4;stroke-dasharray:none"
         d="m 828.83319,1375.6298 c 2.24013,-3.88 5.51604,-6.3976 9.82801,-7.5531 4.31181,-1.1553 8.40776,-0.6129 12.28783,1.6271 3.87991,2.2402 6.39759,5.5162 7.55304,9.8281 l 11.18098,41.7279 c 1.15527,4.312 0.6129,8.4079 -1.62712,12.2879 -2.24021,3.88 -5.51621,6.3977 -9.82801,7.553 -4.31199,1.1554 -8.40784,0.613 -12.28783,-1.6271 -3.87999,-2.2401 -6.39767,-5.5161 -7.55304,-9.828 l -11.18098,-41.728 c -1.15535,-4.3118 -0.61298,-8.4078 1.62712,-12.2878 m 16.69374,3.4654 c -1.25326,-0.7822 -2.61009,-0.9777 -4.07049,-0.5865 -1.46056,0.3914 -2.57263,1.2485 -3.33623,2.5711 -0.71284,1.2346 -0.87356,2.5821 -0.48214,4.0425 l 3.96925,14.8135 3.27043,12.2054 3.9413,14.7091 c 0.39124,1.4606 1.2135,2.5819 2.46677,3.3642 1.30399,0.6942 2.68628,0.8456 4.14685,0.4542 1.46039,-0.3913 2.54701,-1.2042 3.25987,-2.4388 0.76358,-1.3227 0.94975,-2.7143 0.55851,-4.1748 l -3.9413,-14.7091 -3.27043,-12.2055 -3.96925,-14.8134 c -0.39142,-1.4604 -1.23913,-2.5377 -2.54314,-3.2319" />
      <path
         inkscape:connector-curvature="0"
         id="path7032"
         style="font-size:108px;font-style:normal;font-variant:normal;font-weight:500;font-stretch:normal;text-align:start;line-height:89.99999762000000203%;letter-spacing:0px;word-spacing:0px;writing-mode:lr-tb;text-anchor:start;fill:#00a651;fill-opacity:1;stroke:none;font-family:DIN_OSP;-inkscape-font-specification:DIN_OSP Medium;color:#000000;fill-rule:nonzero;marker:none;visibility:visible;display:inline;overflow:visible;enable-background:accumulate;stroke-width:0;stroke-miterlimit:4;stroke-dasharray:none"
         d="m 867.86876,1365.1702 c 2.24004,-3.8799 5.51604,-6.3976 9.82801,-7.553 4.31182,-1.1553 8.40776,-0.6129 12.28783,1.6271 3.87991,2.2402 6.39759,5.5162 7.55304,9.828 l 11.18098,41.728 c 1.15528,4.3119 0.6129,8.4079 -1.62712,12.2878 -2.24021,3.88 -5.51621,6.3977 -9.82801,7.5531 -4.31199,1.1554 -8.40793,0.613 -12.28782,-1.6272 -3.88009,-2.24 -6.39777,-5.516 -7.55304,-9.828 l -11.18099,-41.728 c -1.15545,-4.3118 -0.61307,-8.4077 1.62712,-12.2878 m 16.69375,3.4654 c -1.25326,-0.7822 -2.61009,-0.9777 -4.07049,-0.5864 -1.46056,0.3914 -2.57264,1.2484 -3.33623,2.5711 -0.71285,1.2346 -0.87356,2.5821 -0.48215,4.0425 l 3.96925,14.8134 3.27044,12.2055 3.94129,14.7091 c 0.39125,1.4605 1.2135,2.5819 2.46677,3.3642 1.304,0.6941 2.68628,0.8455 4.14686,0.4542 1.46038,-0.3913 2.547,-1.2043 3.25986,-2.4389 0.76358,-1.3226 0.94975,-2.7142 0.55851,-4.1748 l -3.94129,-14.7091 -3.27044,-12.2054 -3.96925,-14.8135 c -0.39141,-1.4604 -1.23913,-2.5377 -2.54313,-3.2319" />
      <path
         inkscape:connector-curvature="0"
         id="path7034"
         style="font-size:108px;font-style:normal;font-variant:normal;font-weight:500;font-stretch:normal;text-align:start;line-height:89.99999762000000203%;letter-spacing:0px;word-spacing:0px;writing-mode:lr-tb;text-anchor:start;fill:#00a651;fill-opacity:1;stroke:none;font-family:DIN_OSP;-inkscape-font-specification:DIN_OSP Medium;color:#000000;fill-rule:nonzero;marker:none;visibility:visible;display:inline;overflow:visible;enable-background:accumulate;stroke-width:0;stroke-miterlimit:4;stroke-dasharray:none"
         d="m 921.27689,1424.2068 -19.56672,-73.024 10.432,-2.7952 16.77148,62.5919 20.86399,-5.5904 2.79525,10.432 -31.296,8.3857" />
      <path
         inkscape:connector-curvature="0"
         id="path7036"
         style="font-size:108px;font-style:normal;font-variant:normal;font-weight:500;font-stretch:normal;text-align:start;line-height:89.99999762000000203%;letter-spacing:0px;word-spacing:0px;writing-mode:lr-tb;text-anchor:start;fill:#00a651;fill-opacity:1;stroke:none;font-family:DIN_OSP;-inkscape-font-specification:DIN_OSP Medium;color:#000000;fill-rule:nonzero;marker:none;visibility:visible;display:inline;overflow:visible;enable-background:accumulate;stroke-width:0;stroke-miterlimit:4;stroke-dasharray:none"
         d="m 948.94332,1394.4316 1.39763,5.216 c 1.15537,4.3119 3.67304,7.5879 7.55313,9.828 3.8799,2.2402 7.97584,2.7825 12.28783,1.6271 4.3118,-1.1553 7.5878,-3.673 9.82801,-7.553 2.24002,-3.88 2.78239,-7.9759 1.62712,-12.2878 l -2.79525,-10.432 c -1.06228,-3.9641 -3.31541,-7.0874 -6.7594,-9.3698 -4.06144,-2.6387 -8.42192,-3.3338 -13.08146,-2.0854 -1.46057,0.3914 -2.84285,0.24 -4.14686,-0.4542 -1.25326,-0.7822 -2.07552,-1.9036 -2.46677,-3.3641 l -2.79524,-10.432 c -0.39142,-1.4604 -0.2307,-2.8079 0.48214,-4.0426 0.7636,-1.3226 1.87567,-2.1796 3.33624,-2.5711 1.46039,-0.3912 2.81722,-0.1957 4.07048,0.5865 1.30401,0.6942 2.15172,1.7715 2.54314,3.2319 l 1.39762,5.216 9.49312,-2.5437 0.93888,-0.2515 -1.39762,-5.216 c -1.15545,-4.3118 -3.67313,-7.5878 -7.55304,-9.828 -3.88007,-2.2401 -7.97602,-2.7824 -12.28783,-1.6272 -4.31197,1.1555 -7.58798,3.6732 -9.82801,7.5531 -2.2402,3.8801 -2.78257,7.976 -1.62722,12.2878 l 2.79525,10.432 c 1.0622,3.9642 3.31534,7.0875 6.7595,9.3698 4.06126,2.6388 8.42175,3.3339 13.08146,2.0853 1.46039,-0.3912 2.81722,-0.1958 4.07049,0.5865 1.304,0.6942 2.15171,1.7715 2.54314,3.2319 l 2.79524,10.432 c 0.39124,1.4605 0.20507,2.8521 -0.55851,4.1748 -0.71286,1.2346 -1.79948,2.0475 -3.25987,2.4388 -1.46057,0.3914 -2.84285,0.24 -4.14685,-0.4542 -1.25327,-0.7822 -2.07553,-1.9036 -2.46677,-3.3641 l -1.39762,-5.216 -10.4321,2.7952" />
    </g>
    <g
       id="madrid"
       style="color:#000000;fill:#00a651;fill-opacity:1;fill-rule:nonzero;stroke:none;marker:none;visibility:visible;display:inline;overflow:visible;enable-background:accumulate;stroke-width:0;stroke-miterlimit:4;stroke-dasharray:none">
      <path
         inkscape:connector-curvature="0"
         id="path7038"
         style="font-size:108px;font-style:normal;font-variant:normal;font-weight:500;font-stretch:normal;text-align:start;line-height:89.99999762000000203%;letter-spacing:0px;word-spacing:0px;writing-mode:lr-tb;text-anchor:start;fill:#00a651;fill-opacity:1;stroke:none;font-family:DIN_OSP;-inkscape-font-specification:DIN_OSP Medium;color:#000000;fill-rule:nonzero;marker:none;visibility:visible;display:inline;overflow:visible;enable-background:accumulate;stroke-width:0;stroke-miterlimit:4;stroke-dasharray:none"
         d="m 606.45418,1592.4206 -14.11331,-21.3755 10.48218,39.12 -10.432,2.7952 -19.56672,-73.024 10.432,-2.7952 23.52217,35.6259 2.55782,-42.614 10.432,-2.7953 19.56672,73.024 -10.432,2.7953 -10.48217,-39.12 -1.5347,25.5684 -10.43199,2.7952" />
      <path
         inkscape:connector-curvature="0"
         id="path7040"
         style="font-size:108px;font-style:normal;font-variant:normal;font-weight:500;font-stretch:normal;text-align:start;line-height:89.99999762000000203%;letter-spacing:0px;word-spacing:0px;writing-mode:lr-tb;text-anchor:start;fill:#00a651;fill-opacity:1;stroke:none;font-family:DIN_OSP;-inkscape-font-specification:DIN_OSP Medium;color:#000000;fill-rule:nonzero;marker:none;visibility:visible;display:inline;overflow:visible;enable-background:accumulate;stroke-width:0;stroke-miterlimit:4;stroke-dasharray:none"
         d="m 640.7236,1521.7428 10.32768,-2.7673 35.21472,68.8311 -10.32768,2.7673 -7.32247,-14.8094 -14.73707,3.837 1.09122,16.5908 -10.32768,2.7673 -3.91872,-77.2168 m 10.70217,19.4943 1.80007,27.5819 10.53632,-2.8232 -12.23207,-24.7866 c 0,0 -0.0348,0.01 -0.10432,0.028" />
      <path
         inkscape:connector-curvature="0"
         id="path7042"
         style="font-size:108px;font-style:normal;font-variant:normal;font-weight:500;font-stretch:normal;text-align:start;line-height:89.99999762000000203%;letter-spacing:0px;word-spacing:0px;writing-mode:lr-tb;text-anchor:start;fill:#00a651;fill-opacity:1;stroke:none;font-family:DIN_OSP;-inkscape-font-specification:DIN_OSP Medium;color:#000000;fill-rule:nonzero;marker:none;visibility:visible;display:inline;overflow:visible;enable-background:accumulate;stroke-width:0;stroke-miterlimit:4;stroke-dasharray:none"
         d="m 671.84682,1513.4033 20.864,-5.5905 c 2.8514,-0.7639 5.55574,-0.4077 8.11302,1.0687 2.55725,1.4765 4.22721,3.6752 5.0099,6.596 l 14.00419,52.2644 c 0.76399,2.8514 0.40779,5.5557 -1.06861,8.113 -1.47647,2.5573 -3.6404,4.2179 -6.49178,4.9819 l -20.864,5.5905 -19.56672,-73.024 m 13.09497,7.5604 14.03214,52.3687 6.57216,-1.7611 c 1.11272,-0.2981 1.9491,-0.9322 2.50916,-1.9022 0.56,-0.97 0.69094,-2.0113 0.3928,-3.1241 l -11.90774,-44.4403 c -0.29817,-1.1127 -0.93225,-1.9491 -1.90224,-2.5092 -0.97001,-0.5599 -2.01138,-0.6909 -3.12412,-0.3928 l -6.57216,1.761" />
      <path
         inkscape:connector-curvature="0"
         id="path7044"
         style="font-size:108px;font-style:normal;font-variant:normal;font-weight:500;font-stretch:normal;text-align:start;line-height:89.99999762000000203%;letter-spacing:0px;word-spacing:0px;writing-mode:lr-tb;text-anchor:start;fill:#00a651;fill-opacity:1;stroke:none;font-family:DIN_OSP;-inkscape-font-specification:DIN_OSP Medium;color:#000000;fill-rule:nonzero;marker:none;visibility:visible;display:inline;overflow:visible;enable-background:accumulate;stroke-width:0;stroke-miterlimit:4;stroke-dasharray:none"
         d="m 713.03226,1502.4795 20.89196,-5.4861 c 2.8514,-0.764 5.55574,-0.4078 8.11302,1.0686 2.55725,1.4765 4.2179,3.6404 4.98195,6.4918 l 5.59049,20.8639 c 1.06217,3.9643 0.15958,7.4113 -2.70777,10.3412 l 0,0 13.8608,31.2825 -10.32768,2.7673 -13.60174,-29.8984 -5.32032,1.4256 8.38574,31.296 -10.32768,2.7673 -19.53877,-72.9197 m 13.09498,7.5604 5.64639,21.0727 6.57216,-1.761 c 1.11274,-0.2982 1.94913,-0.9322 2.50917,-1.9023 0.54138,-1.0395 0.67232,-2.0808 0.3928,-3.1241 l -3.49406,-13.04 c -0.29816,-1.1127 -0.93224,-1.9491 -1.90223,-2.5092 -0.98864,-0.6295 -2.03933,-0.7952 -3.15207,-0.4971 l -6.57216,1.761" />
      <path
         inkscape:connector-curvature="0"
         id="path7046"
         style="font-size:108px;font-style:normal;font-variant:normal;font-weight:500;font-stretch:normal;text-align:start;line-height:89.99999762000000203%;letter-spacing:0px;word-spacing:0px;writing-mode:lr-tb;text-anchor:start;fill:#00a651;fill-opacity:1;stroke:none;font-family:DIN_OSP;-inkscape-font-specification:DIN_OSP Medium;color:#000000;fill-rule:nonzero;marker:none;visibility:visible;display:inline;overflow:visible;enable-background:accumulate;stroke-width:0;stroke-miterlimit:4;stroke-dasharray:none"
         d="m 783.45474,1561.765 -10.432,2.7952 -19.56672,-73.024 10.432,-2.7952 19.56672,73.024" />
      <path
         inkscape:connector-curvature="0"
         id="path7048"
         style="font-size:108px;font-style:normal;font-variant:normal;font-weight:500;font-stretch:normal;text-align:start;line-height:89.99999762000000203%;letter-spacing:0px;word-spacing:0px;writing-mode:lr-tb;text-anchor:start;fill:#00a651;fill-opacity:1;stroke:none;font-family:DIN_OSP;-inkscape-font-specification:DIN_OSP Medium;color:#000000;fill-rule:nonzero;marker:none;visibility:visible;display:inline;overflow:visible;enable-background:accumulate;stroke-width:0;stroke-miterlimit:4;stroke-dasharray:none"
         d="m 774.1293,1485.9968 20.86399,-5.5905 c 2.85144,-0.7639 5.55578,-0.4077 8.11303,1.0686 2.55728,1.4765 4.22725,3.6752 5.0099,6.5961 l 14.00418,52.2644 c 0.76404,2.8514 0.40783,5.5557 -1.06861,8.113 -1.47644,2.5572 -3.64036,4.2179 -6.49178,4.9819 l -20.86399,5.5905 -19.56672,-73.024 m 13.09497,7.5604 14.03213,52.3686 6.57216,-1.761 c 1.11275,-0.2981 1.94914,-0.9322 2.50916,-1.9022 0.56004,-0.97 0.69097,-2.0113 0.39281,-3.1241 l -11.90775,-44.4403 c -0.29814,-1.1127 -0.93222,-1.9491 -1.90224,-2.5092 -0.96997,-0.5599 -2.01135,-0.6909 -3.12411,-0.3928 l -6.57216,1.761" />
    </g>
    <g
       transform="matrix(0.9779978,-0.26205373,0.26205373,0.9779978,-53.25799,888.30019)"
       style="font-size:40px;font-style:normal;font-weight:normal;line-height:125%;letter-spacing:0px;word-spacing:0px;fill:#00a651;fill-opacity:1;stroke:none;display:inline;font-family:Sans;color:#000000;fill-rule:nonzero;marker:none;visibility:visible;overflow:visible;enable-background:accumulate;stroke-width:0;stroke-miterlimit:4;stroke-dasharray:none"
       id="url">
      <path
         d="m 430.80846,973.14011 5,28.03999 4.04,0 3,-16.71999 2.96,16.71999 4.04,0 5,-27.99999 -4.04,0 -2.96,16.36 -3,-16.4 -4.04,0 -3,16.4 -2.96,-16.4 -4.04,0"
         style="font-variant:normal;font-weight:500;font-stretch:normal;fill:#00a651;font-family:DIN_OSP;-inkscape-font-specification:DIN_OSP Medium;color:#000000;fill-opacity:1;fill-rule:nonzero;stroke:none;marker:none;visibility:visible;display:inline;overflow:visible;enable-background:accumulate;stroke-width:0;stroke-miterlimit:4;stroke-dasharray:none"
         id="path3877"
         inkscape:connector-curvature="0" />
      <path
         d="m 456.12096,973.14011 5,28.03999 4.04,0 3,-16.71999 2.96,16.71999 4.04,0 5,-27.99999 -4.04,0 -2.96,16.36 -3,-16.4 -4.04,0 -3,16.4 -2.96,-16.4 -4.04,0"
         style="font-variant:normal;font-weight:500;font-stretch:normal;fill:#00a651;font-family:DIN_OSP;-inkscape-font-specification:DIN_OSP Medium;color:#000000;fill-opacity:1;fill-rule:nonzero;stroke:none;marker:none;visibility:visible;display:inline;overflow:visible;enable-background:accumulate;stroke-width:0;stroke-miterlimit:4;stroke-dasharray:none"
         id="path3879"
         inkscape:connector-curvature="0" />
      <path
         d="m 481.43346,973.14011 5,28.03999 4.04,0 3,-16.71999 2.96,16.71999 4.04,0 5,-27.99999 -4.04,0 -2.96,16.36 -3,-16.4 -4.04,0 -3,16.4 -2.96,-16.4 -4.04,0"
         style="font-variant:normal;font-weight:500;font-stretch:normal;fill:#00a651;font-family:DIN_OSP;-inkscape-font-specification:DIN_OSP Medium;color:#000000;fill-opacity:1;fill-rule:nonzero;stroke:none;marker:none;visibility:visible;display:inline;overflow:visible;enable-background:accumulate;stroke-width:0;stroke-miterlimit:4;stroke-dasharray:none"
         id="path3881"
         inkscape:connector-curvature="0" />
      <path
         d="m 507.78596,997.18011 4,0 0,3.99999 -4,0 0,-3.99999"
         style="font-variant:normal;font-weight:500;font-stretch:normal;fill:#00a651;font-family:DIN_OSP;-inkscape-font-specification:DIN_OSP Medium;color:#000000;fill-opacity:1;fill-rule:nonzero;stroke:none;marker:none;visibility:visible;display:inline;overflow:visible;enable-background:accumulate;stroke-width:0;stroke-miterlimit:4;stroke-dasharray:none"
         id="path3883"
         inkscape:connector-curvature="0" />
      <path
         d="m 515.36971,1001.1801 0,-27.99999 4,0 0,24 8,0 0,3.99999 -12,0"
         style="font-variant:normal;font-weight:500;font-stretch:normal;fill:#00a651;font-family:DIN_OSP;-inkscape-font-specification:DIN_OSP Medium;color:#000000;fill-opacity:1;fill-rule:nonzero;stroke:none;marker:none;visibility:visible;display:inline;overflow:visible;enable-background:accumulate;stroke-width:0;stroke-miterlimit:4;stroke-dasharray:none"
         id="path3885"
         inkscape:connector-curvature="0" />
      <path
         d="m 534.09908,1001.1801 -4,0 0,-27.99999 4,0 0,27.99999"
         style="font-variant:normal;font-weight:500;font-stretch:normal;fill:#00a651;font-family:DIN_OSP;-inkscape-font-specification:DIN_OSP Medium;color:#000000;fill-opacity:1;fill-rule:nonzero;stroke:none;marker:none;visibility:visible;display:inline;overflow:visible;enable-background:accumulate;stroke-width:0;stroke-miterlimit:4;stroke-dasharray:none"
         id="path3887"
         inkscape:connector-curvature="0" />
      <path
         d="m 538.02596,973.22011 8,0 c 1.09332,3e-5 2.02665,0.3867 2.8,1.16 0.77332,0.77336 1.15998,1.72003 1.16,2.84 l 0,8.48 c -2e-5,0.40002 -0.14668,0.74669 -0.44,1.04 -0.29335,0.29335 -0.64002,0.44002 -1.04,0.44 l 0,0.04 c 0.39998,2e-5 0.74665,0.14669 1.04,0.44 0.29332,0.29335 0.43998,0.64002 0.44,1.04 l 0,8.52 c -2e-5,1.09334 -0.38668,2.02667 -1.16,2.79999 -0.77335,0.7733 -1.70668,1.16 -2.8,1.16 l -8,0 0,-27.95999 m 3.96,3.96 0,8.04 2.52,0 c 0.42665,2e-5 0.78665,-0.14665 1.08,-0.44 0.29332,-0.29331 0.43999,-0.65331 0.44,-1.08 l 0,-5 c -1e-5,-0.42664 -0.14668,-0.78664 -0.44,-1.08 -0.29335,-0.2933 -0.65335,-0.43997 -1.08,-0.44 l -2.52,0 m 0,12 0,8.04 2.52,0 c 0.42665,10e-6 0.78665,-0.14666 1.08,-0.44 0.29332,-0.29332 0.43999,-0.65332 0.44,-1.08 l 0,-5 c -1e-5,-0.42665 -0.14668,-0.78665 -0.44,-1.08 -0.29335,-0.29332 -0.65335,-0.43998 -1.08,-0.44 l -2.52,0"
         style="font-variant:normal;font-weight:500;font-stretch:normal;fill:#00a651;font-family:DIN_OSP;-inkscape-font-specification:DIN_OSP Medium;color:#000000;fill-opacity:1;fill-rule:nonzero;stroke:none;marker:none;visibility:visible;display:inline;overflow:visible;enable-background:accumulate;stroke-width:0;stroke-miterlimit:4;stroke-dasharray:none"
         id="path3889"
         inkscape:connector-curvature="0" />
      <path
         d="m 553.80721,973.22011 8,0.04 c 1.09332,3e-5 2.02665,0.3867 2.8,1.16 0.77332,0.77336 1.15998,1.7067 1.16,2.8 l 0,8 c -2e-5,1.52002 -0.65335,2.66668 -1.96,3.44 l 0,0 1.96,12.51999 -3.96,0 -2,-11.99999 -2.04,0 0,11.99999 -3.96,0 0,-27.95999 m 3.96,3.96 0,8.08 2.52,0 c 0.42665,2e-5 0.78665,-0.14665 1.08,-0.44 0.29332,-0.31998 0.43999,-0.67998 0.44,-1.08 l 0,-5 c -1e-5,-0.42664 -0.14668,-0.78664 -0.44,-1.08 -0.29335,-0.31997 -0.65335,-0.47997 -1.08,-0.48 l -2.52,0"
         style="font-variant:normal;font-weight:500;font-stretch:normal;fill:#00a651;font-family:DIN_OSP;-inkscape-font-specification:DIN_OSP Medium;color:#000000;fill-opacity:1;fill-rule:nonzero;stroke:none;marker:none;visibility:visible;display:inline;overflow:visible;enable-background:accumulate;stroke-width:0;stroke-miterlimit:4;stroke-dasharray:none"
         id="path3891"
         inkscape:connector-curvature="0" />
      <path
         d="m 569.19783,1001.1801 0,-27.99999 12,0 0,4 -8,0 0,8 6,0 0,4 -6,0 0,8 8,0 0,3.99999 -12,0"
         style="font-variant:normal;font-weight:500;font-stretch:normal;fill:#00a651;font-family:DIN_OSP;-inkscape-font-specification:DIN_OSP Medium;color:#000000;fill-opacity:1;fill-rule:nonzero;stroke:none;marker:none;visibility:visible;display:inline;overflow:visible;enable-background:accumulate;stroke-width:0;stroke-miterlimit:4;stroke-dasharray:none"
         id="path3893"
         inkscape:connector-curvature="0" />
      <path
         d="m 585.32721,974.94011 c 1.17333,-1.1733 2.58666,-1.75997 4.24,-1.76 1.65332,3e-5 3.06665,0.5867 4.24,1.76 1.17332,1.17336 1.75998,2.5867 1.76,4.24 l -4,0 c -1e-5,-0.55997 -0.20001,-1.02664 -0.6,-1.4 -0.37335,-0.39997 -0.84001,-0.59997 -1.4,-0.6 -0.56001,3e-5 -1.04001,0.20003 -1.44,0.6 -0.37334,0.37336 -0.56001,0.84003 -0.56,1.4 l 0,16 c -1e-5,0.56001 0.18666,1.04001 0.56,1.44 0.39999,0.37334 0.87999,0.56001 1.44,0.56 0.55999,10e-6 1.02665,-0.18666 1.4,-0.56 0.39999,-0.39999 0.59999,-0.87999 0.6,-1.44 l 0,-6 -2,0 0,-4 6,0 0,10 c -2e-5,1.65334 -0.58668,3.06667 -1.76,4.24 -1.17335,1.17329 -2.58668,1.75999 -4.24,1.75999 -1.65334,0 -3.06667,-0.5867 -4.24,-1.75999 -1.17334,-1.17333 -1.76,-2.58666 -1.76,-4.24 l 0,-16 c 0,-1.6533 0.58666,-3.06664 1.76,-4.24"
         style="font-variant:normal;font-weight:500;font-stretch:normal;fill:#00a651;font-family:DIN_OSP;-inkscape-font-specification:DIN_OSP Medium;color:#000000;fill-opacity:1;fill-rule:nonzero;stroke:none;marker:none;visibility:visible;display:inline;overflow:visible;enable-background:accumulate;stroke-width:0;stroke-miterlimit:4;stroke-dasharray:none"
         id="path3895"
         inkscape:connector-curvature="0" />
      <path
         d="m 599.19783,973.22011 8,0.04 c 1.09332,3e-5 2.02666,0.3867 2.8,1.16 0.77332,0.77336 1.15999,1.7067 1.16,2.8 l 0,8 c -10e-6,1.52002 -0.65334,2.66668 -1.96,3.44 l 0,0 1.96,12.51999 -3.96,0 -2,-11.99999 -2.04,0 0,11.99999 -3.96,0 0,-27.95999 m 3.96,3.96 0,8.08 2.52,0 c 0.42666,2e-5 0.78666,-0.14665 1.08,-0.44 0.29333,-0.31998 0.43999,-0.67998 0.44,-1.08 l 0,-5 c -10e-6,-0.42664 -0.14667,-0.78664 -0.44,-1.08 -0.29334,-0.31997 -0.65334,-0.47997 -1.08,-0.48 l -2.52,0"
         style="font-variant:normal;font-weight:500;font-stretch:normal;fill:#00a651;font-family:DIN_OSP;-inkscape-font-specification:DIN_OSP Medium;color:#000000;fill-opacity:1;fill-rule:nonzero;stroke:none;marker:none;visibility:visible;display:inline;overflow:visible;enable-background:accumulate;stroke-width:0;stroke-miterlimit:4;stroke-dasharray:none"
         id="path3897"
         inkscape:connector-curvature="0" />
      <path
         d="m 618.74846,973.18011 3.96,0 6,27.99999 -3.96,0 -1.2,-5.99999 -5.64,-0.04 -1.2,6.03999 -3.96,0 6,-27.99999 m 1.96,8 -2,10.04 4.04,0 -2,-10.04 c -10e-6,2e-5 -0.0133,2e-5 -0.04,0"
         style="font-variant:normal;font-weight:500;font-stretch:normal;fill:#00a651;font-family:DIN_OSP;-inkscape-font-specification:DIN_OSP Medium;color:#000000;fill-opacity:1;fill-rule:nonzero;stroke:none;marker:none;visibility:visible;display:inline;overflow:visible;enable-background:accumulate;stroke-width:0;stroke-miterlimit:4;stroke-dasharray:none"
         id="path3899"
         inkscape:connector-curvature="0" />
      <path
         d="m 630.68221,973.22011 8,0 c 1.09332,3e-5 2.02665,0.3867 2.8,1.16 0.77332,0.77336 1.15998,1.72003 1.16,2.84 l 0,8 c -2e-5,1.09335 -0.38668,2.02669 -1.16,2.8 -0.77335,0.77335 -1.70668,1.16002 -2.8,1.16 l -4.04,0 0,11.99999 -3.96,0 0,-27.95999 m 3.96,3.96 0,8.04 2.52,0 c 0.42665,2e-5 0.78665,-0.14665 1.08,-0.44 0.29332,-0.29331 0.43999,-0.65331 0.44,-1.08 l 0,-5 c -1e-5,-0.42664 -0.14668,-0.78664 -0.44,-1.08 -0.29335,-0.2933 -0.65335,-0.43997 -1.08,-0.44 l -2.52,0"
         style="font-variant:normal;font-weight:500;font-stretch:normal;fill:#00a651;font-family:DIN_OSP;-inkscape-font-specification:DIN_OSP Medium;color:#000000;fill-opacity:1;fill-rule:nonzero;stroke:none;marker:none;visibility:visible;display:inline;overflow:visible;enable-background:accumulate;stroke-width:0;stroke-miterlimit:4;stroke-dasharray:none"
         id="path3901"
         inkscape:connector-curvature="0" />
      <path
         d="m 645.68221,973.18011 4,0 0,12 4,0 0,-12 4,0 0,27.99999 -4,0 0,-11.99999 -4,0 0,11.99999 -4,0 0,-27.99999"
         style="font-variant:normal;font-weight:500;font-stretch:normal;fill:#00a651;font-family:DIN_OSP;-inkscape-font-specification:DIN_OSP Medium;color:#000000;fill-opacity:1;fill-rule:nonzero;stroke:none;marker:none;visibility:visible;display:inline;overflow:visible;enable-background:accumulate;stroke-width:0;stroke-miterlimit:4;stroke-dasharray:none"
         id="path3903"
         inkscape:connector-curvature="0" />
      <path
         d="m 665.66158,1001.1801 -4,0 0,-27.99999 4,0 0,27.99999"
         style="font-variant:normal;font-weight:500;font-stretch:normal;fill:#00a651;font-family:DIN_OSP;-inkscape-font-specification:DIN_OSP Medium;color:#000000;fill-opacity:1;fill-rule:nonzero;stroke:none;marker:none;visibility:visible;display:inline;overflow:visible;enable-background:accumulate;stroke-width:0;stroke-miterlimit:4;stroke-dasharray:none"
         id="path3905"
         inkscape:connector-curvature="0" />
      <path
         d="m 671.10846,974.94011 c 1.17333,-1.1733 2.58666,-1.75997 4.24,-1.76 1.65332,3e-5 3.06665,0.5867 4.24,1.76 1.17332,1.17336 1.75998,2.5867 1.76,4.24 l 0,2 -4,0 0,-2 c -1e-5,-0.55997 -0.20001,-1.02664 -0.6,-1.4 -0.37335,-0.39997 -0.84001,-0.59997 -1.4,-0.6 -0.56001,3e-5 -1.04001,0.20003 -1.44,0.6 -0.37334,0.37336 -0.56001,0.84003 -0.56,1.4 l 0,16 c -1e-5,0.56001 0.18666,1.04001 0.56,1.44 0.39999,0.37334 0.87999,0.56001 1.44,0.56 0.55999,10e-6 1.02665,-0.18666 1.4,-0.56 0.39999,-0.39999 0.59999,-0.87999 0.6,-1.44 l 0,-2 4,0 0,2 c -2e-5,1.65334 -0.58668,3.06667 -1.76,4.24 -1.17335,1.17329 -2.58668,1.75999 -4.24,1.75999 -1.65334,0 -3.06667,-0.5867 -4.24,-1.75999 -1.17334,-1.17333 -1.76,-2.58666 -1.76,-4.24 l 0,-16 c 0,-1.6533 0.58666,-3.06664 1.76,-4.24"
         style="font-variant:normal;font-weight:500;font-stretch:normal;fill:#00a651;font-family:DIN_OSP;-inkscape-font-specification:DIN_OSP Medium;color:#000000;fill-opacity:1;fill-rule:nonzero;stroke:none;marker:none;visibility:visible;display:inline;overflow:visible;enable-background:accumulate;stroke-width:0;stroke-miterlimit:4;stroke-dasharray:none"
         id="path3907"
         inkscape:connector-curvature="0" />
      <path
         d="m 683.63221,993.18011 0,2 c 0,1.65334 0.58666,3.06667 1.76,4.24 1.17333,1.17329 2.58666,1.75999 4.24,1.75999 1.65332,0 3.06665,-0.5867 4.24,-1.75999 1.17332,-1.17333 1.75998,-2.58666 1.76,-4.24 l 0,-4 c -2e-5,-1.51998 -0.50668,-2.85332 -1.52,-4 -1.20001,-1.33331 -2.69335,-1.99998 -4.48,-2 -0.56001,2e-5 -1.04001,-0.18665 -1.44,-0.56 -0.37334,-0.39998 -0.56001,-0.87998 -0.56,-1.44 l 0,-4 c -10e-6,-0.55997 0.18666,-1.02664 0.56,-1.4 0.39999,-0.39997 0.87999,-0.59997 1.44,-0.6 0.55999,3e-5 1.02666,0.20003 1.4,0.6 0.39999,0.37336 0.59999,0.84003 0.6,1.4 l 0,2 3.64,0 0.36,0 0,-2 c -2e-5,-1.6533 -0.58668,-3.06664 -1.76,-4.24 -1.17335,-1.1733 -2.58668,-1.75997 -4.24,-1.76 -1.65334,3e-5 -3.06667,0.5867 -4.24,1.76 -1.17334,1.17336 -1.76,2.5867 -1.76,4.24 l 0,4 c 0,1.52002 0.50666,2.85335 1.52,4 1.19999,1.33335 2.69333,2.00002 4.48,2 0.55999,2e-5 1.02666,0.20002 1.4,0.6 0.39999,0.37335 0.59999,0.84002 0.6,1.4 l 0,4 c -10e-6,0.56001 -0.20001,1.04001 -0.6,1.44 -0.37334,0.37334 -0.84001,0.56001 -1.4,0.56 -0.56001,10e-6 -1.04001,-0.18666 -1.44,-0.56 -0.37334,-0.39999 -0.56001,-0.87999 -0.56,-1.44 l 0,-2 -4,0"
         style="font-variant:normal;font-weight:500;font-stretch:normal;fill:#00a651;font-family:DIN_OSP;-inkscape-font-specification:DIN_OSP Medium;color:#000000;fill-opacity:1;fill-rule:nonzero;stroke:none;marker:none;visibility:visible;display:inline;overflow:visible;enable-background:accumulate;stroke-width:0;stroke-miterlimit:4;stroke-dasharray:none"
         id="path3909"
         inkscape:connector-curvature="0" />
      <path
         d="m 705.65096,995.18011 -3,-9 0,14.99999 -4,0 0,-27.99999 4,0 5,15 5,-15 4,0 0,27.99999 -4,0 0,-14.99999 -3,9 -4,0"
         style="font-variant:normal;font-weight:500;font-stretch:normal;fill:#00a651;font-family:DIN_OSP;-inkscape-font-specification:DIN_OSP Medium;color:#000000;fill-opacity:1;fill-rule:nonzero;stroke:none;marker:none;visibility:visible;display:inline;overflow:visible;enable-background:accumulate;stroke-width:0;stroke-miterlimit:4;stroke-dasharray:none"
         id="path3911"
         inkscape:connector-curvature="0" />
      <path
         d="m 720.52596,1001.1801 0,-27.99999 12,0 0,4 -8,0 0,8 6,0 0,4 -6,0 0,8 8,0 0,3.99999 -12,0"
         style="font-variant:normal;font-weight:500;font-stretch:normal;fill:#00a651;font-family:DIN_OSP;-inkscape-font-specification:DIN_OSP Medium;color:#000000;fill-opacity:1;fill-rule:nonzero;stroke:none;marker:none;visibility:visible;display:inline;overflow:visible;enable-background:accumulate;stroke-width:0;stroke-miterlimit:4;stroke-dasharray:none"
         id="path3913"
         inkscape:connector-curvature="0" />
      <path
         d="m 735.13533,1001.1801 0,-27.99999 12,0 0,4 -8,0 0,8 6,0 0,4 -6,0 0,8 8,0 0,3.99999 -12,0"
         style="font-variant:normal;font-weight:500;font-stretch:normal;fill:#00a651;font-family:DIN_OSP;-inkscape-font-specification:DIN_OSP Medium;color:#000000;fill-opacity:1;fill-rule:nonzero;stroke:none;marker:none;visibility:visible;display:inline;overflow:visible;enable-background:accumulate;stroke-width:0;stroke-miterlimit:4;stroke-dasharray:none"
         id="path3915"
         inkscape:connector-curvature="0" />
      <path
         d="m 747.70471,973.18011 12,0 0,4 -4,0 0,23.99999 -4,0 0,-23.99999 -4,0 0,-4"
         style="font-variant:normal;font-weight:500;font-stretch:normal;fill:#00a651;font-family:DIN_OSP;-inkscape-font-specification:DIN_OSP Medium;color:#000000;fill-opacity:1;fill-rule:nonzero;stroke:none;marker:none;visibility:visible;display:inline;overflow:visible;enable-background:accumulate;stroke-width:0;stroke-miterlimit:4;stroke-dasharray:none"
         id="path3917"
         inkscape:connector-curvature="0" />
      <path
         d="m 765.66158,1001.1801 -4,0 0,-27.99999 4,0 0,27.99999"
         style="font-variant:normal;font-weight:500;font-stretch:normal;fill:#00a651;font-family:DIN_OSP;-inkscape-font-specification:DIN_OSP Medium;color:#000000;fill-opacity:1;fill-rule:nonzero;stroke:none;marker:none;visibility:visible;display:inline;overflow:visible;enable-background:accumulate;stroke-width:0;stroke-miterlimit:4;stroke-dasharray:none"
         id="path3919"
         inkscape:connector-curvature="0" />
      <path
         d="m 769.42846,973.18011 4,0 4,14 0,-14 4,0 0,27.99999 -4,0 -4,-13.99999 0,13.99999 -4,0 0,-27.99999"
         style="font-variant:normal;font-weight:500;font-stretch:normal;fill:#00a651;font-family:DIN_OSP;-inkscape-font-specification:DIN_OSP Medium;color:#000000;fill-opacity:1;fill-rule:nonzero;stroke:none;marker:none;visibility:visible;display:inline;overflow:visible;enable-background:accumulate;stroke-width:0;stroke-miterlimit:4;stroke-dasharray:none"
         id="path3921"
         inkscape:connector-curvature="0" />
      <path
         d="m 786.65533,974.94011 c 1.17333,-1.1733 2.58666,-1.75997 4.24,-1.76 1.65333,3e-5 3.06666,0.5867 4.24,1.76 1.17332,1.17336 1.75999,2.5867 1.76,4.24 l -4,0 c -10e-6,-0.55997 -0.20001,-1.02664 -0.6,-1.4 -0.37334,-0.39997 -0.84001,-0.59997 -1.4,-0.6 -0.56001,3e-5 -1.04,0.20003 -1.44,0.6 -0.37334,0.37336 -0.56,0.84003 -0.56,1.4 l 0,16 c 0,0.56001 0.18666,1.04001 0.56,1.44 0.4,0.37334 0.87999,0.56001 1.44,0.56 0.55999,10e-6 1.02666,-0.18666 1.4,-0.56 0.39999,-0.39999 0.59999,-0.87999 0.6,-1.44 l 0,-6 -2,0 0,-4 6,0 0,10 c -10e-6,1.65334 -0.58668,3.06667 -1.76,4.24 -1.17334,1.17329 -2.58667,1.75999 -4.24,1.75999 -1.65334,0 -3.06667,-0.5867 -4.24,-1.75999 -1.17333,-1.17333 -1.76,-2.58666 -1.76,-4.24 l 0,-16 c 0,-1.6533 0.58667,-3.06664 1.76,-4.24"
         style="font-variant:normal;font-weight:500;font-stretch:normal;fill:#00a651;font-family:DIN_OSP;-inkscape-font-specification:DIN_OSP Medium;color:#000000;fill-opacity:1;fill-rule:nonzero;stroke:none;marker:none;visibility:visible;display:inline;overflow:visible;enable-background:accumulate;stroke-width:0;stroke-miterlimit:4;stroke-dasharray:none"
         id="path3923"
         inkscape:connector-curvature="0" />
      <path
         d="m 800.28596,997.18011 4,0 0,3.99999 -4,0 0,-3.99999"
         style="font-variant:normal;font-weight:500;font-stretch:normal;fill:#00a651;font-family:DIN_OSP;-inkscape-font-specification:DIN_OSP Medium;color:#000000;fill-opacity:1;fill-rule:nonzero;stroke:none;marker:none;visibility:visible;display:inline;overflow:visible;enable-background:accumulate;stroke-width:0;stroke-miterlimit:4;stroke-dasharray:none"
         id="path3925"
         inkscape:connector-curvature="0" />
      <path
         d="m 809.38971,974.94011 c 1.17333,-1.1733 2.58666,-1.75997 4.24,-1.76 1.65332,3e-5 3.06665,0.5867 4.24,1.76 1.17332,1.17336 1.75998,2.5867 1.76,4.24 l 0,16 c -2e-5,1.65334 -0.58668,3.06667 -1.76,4.24 -1.17335,1.17329 -2.58668,1.75999 -4.24,1.75999 -1.65334,0 -3.06667,-0.5867 -4.24,-1.75999 -1.17334,-1.17333 -1.76,-2.58666 -1.76,-4.24 l 0,-16 c 0,-1.6533 0.58666,-3.06664 1.76,-4.24 m 5.64,2.84 c -0.37335,-0.39997 -0.84001,-0.59997 -1.4,-0.6 -0.56001,3e-5 -1.04001,0.20003 -1.44,0.6 -0.37334,0.37336 -0.56001,0.84003 -0.56,1.4 l 0,5.68 0,4.68 0,5.64 c -1e-5,0.56001 0.18666,1.04001 0.56,1.44 0.39999,0.37334 0.87999,0.56001 1.44,0.56 0.55999,10e-6 1.02665,-0.18666 1.4,-0.56 0.39999,-0.39999 0.59999,-0.87999 0.6,-1.44 l 0,-5.64 0,-4.68 0,-5.68 c -1e-5,-0.55997 -0.20001,-1.02664 -0.6,-1.4"
         style="font-variant:normal;font-weight:500;font-stretch:normal;fill:#00a651;font-family:DIN_OSP;-inkscape-font-specification:DIN_OSP Medium;color:#000000;fill-opacity:1;fill-rule:nonzero;stroke:none;marker:none;visibility:visible;display:inline;overflow:visible;enable-background:accumulate;stroke-width:0;stroke-miterlimit:4;stroke-dasharray:none"
         id="path3927"
         inkscape:connector-curvature="0" />
      <path
         d="m 823.26033,973.22011 8,0.04 c 1.09332,3e-5 2.02666,0.3867 2.8,1.16 0.77332,0.77336 1.15999,1.7067 1.16,2.8 l 0,8 c -10e-6,1.52002 -0.65334,2.66668 -1.96,3.44 l 0,0 1.96,12.51999 -3.96,0 -2,-11.99999 -2.04,0 0,11.99999 -3.96,0 0,-27.95999 m 3.96,3.96 0,8.08 2.52,0 c 0.42666,2e-5 0.78666,-0.14665 1.08,-0.44 0.29333,-0.31998 0.43999,-0.67998 0.44,-1.08 l 0,-5 c -10e-6,-0.42664 -0.14667,-0.78664 -0.44,-1.08 -0.29334,-0.31997 -0.65334,-0.47997 -1.08,-0.48 l -2.52,0"
         style="font-variant:normal;font-weight:500;font-stretch:normal;fill:#00a651;font-family:DIN_OSP;-inkscape-font-specification:DIN_OSP Medium;color:#000000;fill-opacity:1;fill-rule:nonzero;stroke:none;marker:none;visibility:visible;display:inline;overflow:visible;enable-background:accumulate;stroke-width:0;stroke-miterlimit:4;stroke-dasharray:none"
         id="path3929"
         inkscape:connector-curvature="0" />
      <path
         d="m 840.17096,974.94011 c 1.17333,-1.1733 2.58666,-1.75997 4.24,-1.76 1.65332,3e-5 3.06665,0.5867 4.24,1.76 1.17332,1.17336 1.75998,2.5867 1.76,4.24 l -4,0 c -1e-5,-0.55997 -0.20001,-1.02664 -0.6,-1.4 -0.37335,-0.39997 -0.84001,-0.59997 -1.4,-0.6 -0.56001,3e-5 -1.04001,0.20003 -1.44,0.6 -0.37334,0.37336 -0.56001,0.84003 -0.56,1.4 l 0,16 c -1e-5,0.56001 0.18666,1.04001 0.56,1.44 0.39999,0.37334 0.87999,0.56001 1.44,0.56 0.55999,10e-6 1.02665,-0.18666 1.4,-0.56 0.39999,-0.39999 0.59999,-0.87999 0.6,-1.44 l 0,-6 -2,0 0,-4 6,0 0,10 c -2e-5,1.65334 -0.58668,3.06667 -1.76,4.24 -1.17335,1.17329 -2.58668,1.75999 -4.24,1.75999 -1.65334,0 -3.06667,-0.5867 -4.24,-1.75999 -1.17334,-1.17333 -1.76,-2.58666 -1.76,-4.24 l 0,-16 c 0,-1.6533 0.58666,-3.06664 1.76,-4.24"
         style="font-variant:normal;font-weight:500;font-stretch:normal;fill:#00a651;font-family:DIN_OSP;-inkscape-font-specification:DIN_OSP Medium;color:#000000;fill-opacity:1;fill-rule:nonzero;stroke:none;marker:none;visibility:visible;display:inline;overflow:visible;enable-background:accumulate;stroke-width:0;stroke-miterlimit:4;stroke-dasharray:none"
         id="path3931"
         inkscape:connector-curvature="0" />
    </g>
  </g>
</svg>
