<?xml version="1.0" encoding="UTF-8" standalone="no"?>
<!-- Created with Inkscape (http://www.inkscape.org/) -->

<svg
   xmlns:dc="http://purl.org/dc/elements/1.1/"
   xmlns:cc="http://creativecommons.org/ns#"
   xmlns:rdf="http://www.w3.org/1999/02/22-rdf-syntax-ns#"
   xmlns:svg="http://www.w3.org/2000/svg"
   xmlns="http://www.w3.org/2000/svg"
   xmlns:sodipodi="http://sodipodi.sourceforge.net/DTD/sodipodi-0.dtd"
   xmlns:inkscape="http://www.inkscape.org/namespaces/inkscape"
   width="1488.1899"
   height="2104.72"
   id="svg2"
   version="1.1"
   inkscape:version="0.47 r22583"
   sodipodi:docname="130211_SUBLINE-10_OFFSET-ONLY.svg"
   style="display:inline">
  <defs
     id="defs4">
    <inkscape:perspective
       sodipodi:type="inkscape:persp3d"
       inkscape:vp_x="0 : 526.18109 : 1"
       inkscape:vp_y="0 : 1000 : 0"
       inkscape:vp_z="744.09448 : 526.18109 : 1"
       inkscape:persp3d-origin="372.04724 : 350.78739 : 1"
       id="perspective10" />
    <inkscape:perspective
       id="perspective2830"
       inkscape:persp3d-origin="0.5 : 0.33333333 : 1"
       inkscape:vp_z="1 : 0.5 : 1"
       inkscape:vp_y="0 : 1000 : 0"
       inkscape:vp_x="0 : 0.5 : 1"
       sodipodi:type="inkscape:persp3d" />
    <inkscape:perspective
       id="perspective3648"
       inkscape:persp3d-origin="0.5 : 0.33333333 : 1"
       inkscape:vp_z="1 : 0.5 : 1"
       inkscape:vp_y="0 : 1000 : 0"
       inkscape:vp_x="0 : 0.5 : 1"
       sodipodi:type="inkscape:persp3d" />
    <inkscape:perspective
       id="perspective3694"
       inkscape:persp3d-origin="0.5 : 0.33333333 : 1"
       inkscape:vp_z="1 : 0.5 : 1"
       inkscape:vp_y="0 : 1000 : 0"
       inkscape:vp_x="0 : 0.5 : 1"
       sodipodi:type="inkscape:persp3d" />
    <inkscape:perspective
       id="perspective3626"
       inkscape:persp3d-origin="0.5 : 0.33333333 : 1"
       inkscape:vp_z="1 : 0.5 : 1"
       inkscape:vp_y="0 : 1000 : 0"
       inkscape:vp_x="0 : 0.5 : 1"
       sodipodi:type="inkscape:persp3d" />
    <inkscape:perspective
       id="perspective2926"
       inkscape:persp3d-origin="0.5 : 0.33333333 : 1"
       inkscape:vp_z="1 : 0.5 : 1"
       inkscape:vp_y="0 : 1000 : 0"
       inkscape:vp_x="0 : 0.5 : 1"
       sodipodi:type="inkscape:persp3d" />
    <inkscape:perspective
       id="perspective2956"
       inkscape:persp3d-origin="0.5 : 0.33333333 : 1"
       inkscape:vp_z="1 : 0.5 : 1"
       inkscape:vp_y="0 : 1000 : 0"
       inkscape:vp_x="0 : 0.5 : 1"
       sodipodi:type="inkscape:persp3d" />
    <inkscape:perspective
       id="perspective2936"
       inkscape:persp3d-origin="0.5 : 0.33333333 : 1"
       inkscape:vp_z="1 : 0.5 : 1"
       inkscape:vp_y="0 : 1000 : 0"
       inkscape:vp_x="0 : 0.5 : 1"
       sodipodi:type="inkscape:persp3d" />
    <inkscape:perspective
       id="perspective2975"
       inkscape:persp3d-origin="0.5 : 0.33333333 : 1"
       inkscape:vp_z="1 : 0.5 : 1"
       inkscape:vp_y="0 : 1000 : 0"
       inkscape:vp_x="0 : 0.5 : 1"
       sodipodi:type="inkscape:persp3d" />
    <inkscape:perspective
       id="perspective3428"
       inkscape:persp3d-origin="0.5 : 0.33333333 : 1"
       inkscape:vp_z="1 : 0.5 : 1"
       inkscape:vp_y="0 : 1000 : 0"
       inkscape:vp_x="0 : 0.5 : 1"
       sodipodi:type="inkscape:persp3d" />
    <inkscape:perspective
       id="perspective2894"
       inkscape:persp3d-origin="0.5 : 0.33333333 : 1"
       inkscape:vp_z="1 : 0.5 : 1"
       inkscape:vp_y="0 : 1000 : 0"
       inkscape:vp_x="0 : 0.5 : 1"
       sodipodi:type="inkscape:persp3d" />
    <inkscape:perspective
       id="perspective4582"
       inkscape:persp3d-origin="0.5 : 0.33333333 : 1"
       inkscape:vp_z="1 : 0.5 : 1"
       inkscape:vp_y="0 : 1000 : 0"
       inkscape:vp_x="0 : 0.5 : 1"
       sodipodi:type="inkscape:persp3d" />
    <clipPath
       clipPathUnits="userSpaceOnUse"
       id="clipPath26">
      <path
         d="m 0,1683.78 1190.55,0 L 1190.55,0 0,0 0,1683.78 z"
         id="path28" />
    </clipPath>
    <clipPath
       clipPathUnits="userSpaceOnUse"
       id="clipPath34">
      <path
         d="m 776.699,361.366 204.012,0 0,-165.218 -204.012,0 0,165.218 z"
         id="path36" />
    </clipPath>
    <clipPath
       clipPathUnits="userSpaceOnUse"
       id="clipPath144">
      <path
         d="m 0,1683.78 1190.55,0 L 1190.55,0 0,0 0,1683.78 z"
         id="path146" />
    </clipPath>
    <inkscape:perspective
       id="perspective3472"
       inkscape:persp3d-origin="0.5 : 0.33333333 : 1"
       inkscape:vp_z="1 : 0.5 : 1"
       inkscape:vp_y="0 : 1000 : 0"
       inkscape:vp_x="0 : 0.5 : 1"
       sodipodi:type="inkscape:persp3d" />
    <clipPath
       clipPathUnits="userSpaceOnUse"
       id="clipPath26-2">
      <path
         d="m 0,1683.78 1190.55,0 L 1190.55,0 0,0 0,1683.78 z"
         id="path28-9" />
    </clipPath>
    <clipPath
       clipPathUnits="userSpaceOnUse"
       id="clipPath34-1">
      <path
         d="m 787.487,360.515 204.012,0 0,-165.219 -204.012,0 0,165.219 z"
         id="path36-8" />
    </clipPath>
    <clipPath
       clipPathUnits="userSpaceOnUse"
       id="clipPath144-0">
      <path
         d="m 0,1683.78 1190.55,0 L 1190.55,0 0,0 0,1683.78 z"
         id="path146-3" />
    </clipPath>
    <inkscape:perspective
       id="perspective3808"
       inkscape:persp3d-origin="0.5 : 0.33333333 : 1"
       inkscape:vp_z="1 : 0.5 : 1"
       inkscape:vp_y="0 : 1000 : 0"
       inkscape:vp_x="0 : 0.5 : 1"
       sodipodi:type="inkscape:persp3d" />
    <inkscape:perspective
       id="perspective3833"
       inkscape:persp3d-origin="0.5 : 0.33333333 : 1"
       inkscape:vp_z="1 : 0.5 : 1"
       inkscape:vp_y="0 : 1000 : 0"
       inkscape:vp_x="0 : 0.5 : 1"
       sodipodi:type="inkscape:persp3d" />
    <inkscape:perspective
       id="perspective3748"
       inkscape:persp3d-origin="0.5 : 0.33333333 : 1"
       inkscape:vp_z="1 : 0.5 : 1"
       inkscape:vp_y="0 : 1000 : 0"
       inkscape:vp_x="0 : 0.5 : 1"
       sodipodi:type="inkscape:persp3d" />
    <clipPath
       clipPathUnits="userSpaceOnUse"
       id="clipPath26-29">
      <path
         d="m 0,1683.78 1190.55,0 L 1190.55,0 0,0 0,1683.78 z"
         id="path28-7" />
    </clipPath>
    <clipPath
       clipPathUnits="userSpaceOnUse"
       id="clipPath834">
      <path
         d="m 392.059,358.657 204.011,0 0,-165.218 -204.011,0 0,165.218 z"
         id="path836" />
    </clipPath>
    <inkscape:perspective
       id="perspective4120"
       inkscape:persp3d-origin="0.5 : 0.33333333 : 1"
       inkscape:vp_z="1 : 0.5 : 1"
       inkscape:vp_y="0 : 1000 : 0"
       inkscape:vp_x="0 : 0.5 : 1"
       sodipodi:type="inkscape:persp3d" />
    <inkscape:perspective
       id="perspective5413"
       inkscape:persp3d-origin="0.5 : 0.33333333 : 1"
       inkscape:vp_z="1 : 0.5 : 1"
       inkscape:vp_y="0 : 1000 : 0"
       inkscape:vp_x="0 : 0.5 : 1"
       sodipodi:type="inkscape:persp3d" />
    <inkscape:perspective
       id="perspective4200"
       inkscape:persp3d-origin="0.5 : 0.33333333 : 1"
       inkscape:vp_z="1 : 0.5 : 1"
       inkscape:vp_y="0 : 1000 : 0"
       inkscape:vp_x="0 : 0.5 : 1"
       sodipodi:type="inkscape:persp3d" />
    <inkscape:perspective
       id="perspective4651"
       inkscape:persp3d-origin="0.5 : 0.33333333 : 1"
       inkscape:vp_z="1 : 0.5 : 1"
       inkscape:vp_y="0 : 1000 : 0"
       inkscape:vp_x="0 : 0.5 : 1"
       sodipodi:type="inkscape:persp3d" />
    <clipPath
       clipPathUnits="userSpaceOnUse"
       id="clipPath834-7">
      <path
         d="m 392.059,358.657 204.011,0 0,-165.218 -204.011,0 0,165.218 z"
         id="path836-5" />
    </clipPath>
    <inkscape:perspective
       id="perspective7151"
       inkscape:persp3d-origin="0.5 : 0.33333333 : 1"
       inkscape:vp_z="1 : 0.5 : 1"
       inkscape:vp_y="0 : 1000 : 0"
       inkscape:vp_x="0 : 0.5 : 1"
       sodipodi:type="inkscape:persp3d" />
    <inkscape:perspective
       id="perspective7173"
       inkscape:persp3d-origin="0.5 : 0.33333333 : 1"
       inkscape:vp_z="1 : 0.5 : 1"
       inkscape:vp_y="0 : 1000 : 0"
       inkscape:vp_x="0 : 0.5 : 1"
       sodipodi:type="inkscape:persp3d" />
    <inkscape:perspective
       id="perspective7195"
       inkscape:persp3d-origin="0.5 : 0.33333333 : 1"
       inkscape:vp_z="1 : 0.5 : 1"
       inkscape:vp_y="0 : 1000 : 0"
       inkscape:vp_x="0 : 0.5 : 1"
       sodipodi:type="inkscape:persp3d" />
    <inkscape:perspective
       id="perspective5460"
       inkscape:persp3d-origin="0.5 : 0.33333333 : 1"
       inkscape:vp_z="1 : 0.5 : 1"
       inkscape:vp_y="0 : 1000 : 0"
       inkscape:vp_x="0 : 0.5 : 1"
       sodipodi:type="inkscape:persp3d" />
    <inkscape:perspective
       id="perspective3818"
       inkscape:persp3d-origin="0.5 : 0.33333333 : 1"
       inkscape:vp_z="1 : 0.5 : 1"
       inkscape:vp_y="0 : 1000 : 0"
       inkscape:vp_x="0 : 0.5 : 1"
       sodipodi:type="inkscape:persp3d" />
    <marker
       markerWidth="512.48126"
       markerHeight="520.10254"
       orient="auto"
       id="marker3832">
      <path
         d="m 256.24063,260.05126 -403.61626,-0.2413 -108.865,-420.45748 370.98,-99.40375 141.50126,520.10254 z"
         style="fill:#010101;fill-opacity:1;fill-rule:nonzero;stroke:none;display:inline"
         id="path824-0" />
    </marker>
    <inkscape:perspective
       id="perspective3818-8"
       inkscape:persp3d-origin="0.5 : 0.33333333 : 1"
       inkscape:vp_z="1 : 0.5 : 1"
       inkscape:vp_y="0 : 1000 : 0"
       inkscape:vp_x="0 : 0.5 : 1"
       sodipodi:type="inkscape:persp3d" />
    <inkscape:perspective
       id="perspective4643"
       inkscape:persp3d-origin="0.5 : 0.33333333 : 1"
       inkscape:vp_z="1 : 0.5 : 1"
       inkscape:vp_y="0 : 1000 : 0"
       inkscape:vp_x="0 : 0.5 : 1"
       sodipodi:type="inkscape:persp3d" />
    <inkscape:perspective
       id="perspective3728"
       inkscape:persp3d-origin="0.5 : 0.33333333 : 1"
       inkscape:vp_z="1 : 0.5 : 1"
       inkscape:vp_y="0 : 1000 : 0"
       inkscape:vp_x="0 : 0.5 : 1"
       sodipodi:type="inkscape:persp3d" />
    <clipPath
       clipPathUnits="userSpaceOnUse"
       id="clipPath26-5">
      <path
         d="m 0,1683.78 1190.55,0 L 1190.55,0 0,0 0,1683.78 z"
         id="path28-72" />
    </clipPath>
    <inkscape:perspective
       id="perspective7175"
       inkscape:persp3d-origin="0.5 : 0.33333333 : 1"
       inkscape:vp_z="1 : 0.5 : 1"
       inkscape:vp_y="0 : 1000 : 0"
       inkscape:vp_x="0 : 0.5 : 1"
       sodipodi:type="inkscape:persp3d" />
    <inkscape:perspective
       id="perspective7273"
       inkscape:persp3d-origin="0.5 : 0.33333333 : 1"
       inkscape:vp_z="1 : 0.5 : 1"
       inkscape:vp_y="0 : 1000 : 0"
       inkscape:vp_x="0 : 0.5 : 1"
       sodipodi:type="inkscape:persp3d" />
    <inkscape:perspective
       id="perspective2934"
       inkscape:persp3d-origin="0.5 : 0.33333333 : 1"
       inkscape:vp_z="1 : 0.5 : 1"
       inkscape:vp_y="0 : 1000 : 0"
       inkscape:vp_x="0 : 0.5 : 1"
       sodipodi:type="inkscape:persp3d" />
    <clipPath
       clipPathUnits="userSpaceOnUse"
       id="clipPath22">
      <path
         d="m 0,1683.78 1190.55,0 L 1190.55,0 0,0 0,1683.78 z"
         id="path24" />
    </clipPath>
    <inkscape:perspective
       id="perspective2998"
       inkscape:persp3d-origin="0.5 : 0.33333333 : 1"
       inkscape:vp_z="1 : 0.5 : 1"
       inkscape:vp_y="0 : 1000 : 0"
       inkscape:vp_x="0 : 0.5 : 1"
       sodipodi:type="inkscape:persp3d" />
    <inkscape:perspective
       id="perspective2911"
       inkscape:persp3d-origin="0.5 : 0.33333333 : 1"
       inkscape:vp_z="1 : 0.5 : 1"
       inkscape:vp_y="0 : 1000 : 0"
       inkscape:vp_x="0 : 0.5 : 1"
       sodipodi:type="inkscape:persp3d" />
    <inkscape:perspective
       id="perspective3261"
       inkscape:persp3d-origin="0.5 : 0.33333333 : 1"
       inkscape:vp_z="1 : 0.5 : 1"
       inkscape:vp_y="0 : 1000 : 0"
       inkscape:vp_x="0 : 0.5 : 1"
       sodipodi:type="inkscape:persp3d" />
    <inkscape:perspective
       id="perspective3487"
       inkscape:persp3d-origin="0.5 : 0.33333333 : 1"
       inkscape:vp_z="1 : 0.5 : 1"
       inkscape:vp_y="0 : 1000 : 0"
       inkscape:vp_x="0 : 0.5 : 1"
       sodipodi:type="inkscape:persp3d" />
    <inkscape:perspective
       id="perspective3757"
       inkscape:persp3d-origin="0.5 : 0.33333333 : 1"
       inkscape:vp_z="1 : 0.5 : 1"
       inkscape:vp_y="0 : 1000 : 0"
       inkscape:vp_x="0 : 0.5 : 1"
       sodipodi:type="inkscape:persp3d" />
    <inkscape:perspective
       id="perspective3062"
       inkscape:persp3d-origin="0.5 : 0.33333333 : 1"
       inkscape:vp_z="1 : 0.5 : 1"
       inkscape:vp_y="0 : 1000 : 0"
       inkscape:vp_x="0 : 0.5 : 1"
       sodipodi:type="inkscape:persp3d" />
    <inkscape:perspective
       id="perspective3986"
       inkscape:persp3d-origin="0.5 : 0.33333333 : 1"
       inkscape:vp_z="1 : 0.5 : 1"
       inkscape:vp_y="0 : 1000 : 0"
       inkscape:vp_x="0 : 0.5 : 1"
       sodipodi:type="inkscape:persp3d" />
    <inkscape:perspective
       id="perspective3910"
       inkscape:persp3d-origin="0.5 : 0.33333333 : 1"
       inkscape:vp_z="1 : 0.5 : 1"
       inkscape:vp_y="0 : 1000 : 0"
       inkscape:vp_x="0 : 0.5 : 1"
       sodipodi:type="inkscape:persp3d" />
  </defs>
  <sodipodi:namedview
     id="base"
     pagecolor="#ffffff"
     bordercolor="#666666"
     borderopacity="1.0"
     inkscape:pageopacity="0.0"
     inkscape:pageshadow="2"
     inkscape:zoom="0.10528984"
     inkscape:cx="438.6812"
     inkscape:cy="752.31799"
     inkscape:document-units="px"
     inkscape:current-layer="g6698"
     showgrid="false"
     inkscape:window-width="987"
     inkscape:window-height="688"
     inkscape:window-x="35"
     inkscape:window-y="17"
     inkscape:window-maximized="0"
     showguides="true"
     inkscape:guide-bbox="true"
     units="mm">
    <sodipodi:guide
       position="0.50000018,2104.2194"
       orientation="2103.72,0"
       id="guide7256" />
    <sodipodi:guide
       position="0.50000018,0.49947181"
       orientation="0,1487.1901"
       id="guide7258" />
    <sodipodi:guide
       position="1487.6901,0.49947181"
       orientation="-2103.72,0"
       id="guide7260" />
    <sodipodi:guide
       position="1487.6901,2104.2194"
       orientation="0,-1487.1901"
       id="guide7262" />
  </sodipodi:namedview>
  <metadata
     id="metadata7">
    <rdf:RDF>
      <cc:Work
         rdf:about="">
        <dc:format>image/svg+xml</dc:format>
        <dc:type
           rdf:resource="http://purl.org/dc/dcmitype/StillImage" />
        <dc:title></dc:title>
      </cc:Work>
    </rdf:RDF>
  </metadata>
  <g
     inkscape:label="OFFSET"
     inkscape:groupmode="layer"
     id="g6698"
     transform="translate(0,1052.3579)"
     style="display:inline">
    <path
       style="fill:#00a651;fill-opacity:1;stroke:none;display:inline"
       d="m 779.46875,1598.7812 -370.90625,99.4063 108.8125,406.0313 4.78125,0 0,-228.3438 257.28125,0 0,228.3438 135.4375,0 -135.40625,-505.4376 z m -14.84375,21.3126 c 0.95538,0.027 1.88802,0.2967 2.78125,0.8124 1.42912,0.8252 2.35568,2.0369 2.78125,3.625 l 1,3.8438 c 0.39125,1.4601 0.27198,2.8564 -0.40625,4.2188 1.26853,0.8406 2.10876,2.0085 2.5,3.4687 l 1.03125,3.8125 c 0.42557,1.5883 0.23134,3.1022 -0.59375,4.5312 -0.82514,1.4293 -2.06803,2.3557 -3.65625,2.7813 -1.58824,0.4255 -3.07086,0.2314 -4.5,-0.5937 -1.42917,-0.8252 -2.38693,-2.0368 -2.8125,-3.625 l -0.5,-1.9063 3.84375,-1.0313 0.53125,1.9376 c 0.14416,0.5378 0.44465,0.9305 0.90625,1.2187 0.48032,0.2557 0.96202,0.3317 1.5,0.1875 0.53796,-0.1442 0.95621,-0.4515 1.21875,-0.9062 0.28128,-0.4872 0.33157,-0.9933 0.1875,-1.5313 l -1.03125,-3.875 c -0.14419,-0.5379 -0.45718,-0.9318 -0.9375,-1.1875 -0.46161,-0.2882 -0.9308,-0.3317 -1.46875,-0.1875 l -1.03125,-3.8437 c 0.538,-0.1441 0.92494,-0.4516 1.1875,-0.9063 0.28127,-0.4872 0.36283,-1.0245 0.21875,-1.5625 l -1.03125,-3.8125 c -0.1442,-0.5379 -0.45715,-0.9318 -0.9375,-1.1875 -0.46157,-0.2881 -0.99327,-0.3629 -1.53125,-0.2188 -0.53794,0.1441 -0.90619,0.4504 -1.1875,0.9376 -0.26253,0.4547 -0.33166,0.962 -0.1875,1.5 l 0.5,1.9062 -3.84375,1.0312 -0.5,-1.9374 c -0.42556,-1.5882 -0.23142,-3.1021 0.59375,-4.5313 0.82508,-1.4291 2.03678,-2.3557 3.625,-2.7813 0.59559,-0.1595 1.17678,-0.2038 1.75,-0.1874 z m -10.65625,2.5937 7.1875,26.9063 -3.84375,1.0312 -6.1875,-23.0312 -2.8125,4.8437 -1.03125,-3.8437 2.8125,-4.875 3.875,-1.0313 z m -14.84375,4.0937 c 1.16134,-0.085 2.2719,0.1937 3.34375,0.8126 1.42918,0.8251 2.3557,2.0054 2.78125,3.5937 l 4.125,15.375 c 0.42557,1.5883 0.2314,3.1022 -0.59375,4.5313 -0.82509,1.4291 -2.03677,2.3556 -3.625,2.7812 -1.58824,0.4255 -3.10208,0.2313 -4.53125,-0.5938 -1.42911,-0.8251 -2.35569,-2.0054 -2.78125,-3.5937 l -4.125,-15.4063 c -0.42558,-1.5882 -0.23134,-3.1021 0.59375,-4.5312 0.82516,-1.4292 2.03679,-2.3244 3.625,-2.75 0.39706,-0.1064 0.80037,-0.1905 1.1875,-0.2188 z m -13.34375,3.7188 c 0.95536,0.027 1.88802,0.2968 2.78125,0.8125 1.42912,0.8252 2.32443,2.0368 2.75,3.625 0.22651,0.8453 0.29027,1.6991 0.15625,2.5313 l -2.71875,16.6874 7.21875,-1.9062 1.03125,3.8125 -11.53125,3.0937 -1.03125,-3.8437 3,-17.7187 c 0.10837,-0.8253 0.13115,-1.3688 0.0625,-1.625 -0.14413,-0.5379 -0.45717,-0.9319 -0.9375,-1.1876 -0.4616,-0.2881 -0.96211,-0.3629 -1.5,-0.2187 -0.53798,0.1442 -0.96872,0.4503 -1.25,0.9375 -0.26255,0.4547 -0.33162,0.9621 -0.1875,1.5 l -3.8125,1.0312 c -0.42557,-1.5882 -0.23141,-3.102 0.59375,-4.5312 0.82509,-1.4291 2.00554,-2.3557 3.59375,-2.7812 0.59559,-0.1596 1.20804,-0.2351 1.78125,-0.2188 z m 13.59375,0.25 c -0.12972,0.01 -0.24051,0.026 -0.375,0.062 -0.53796,0.1442 -0.96865,0.4503 -1.25,0.9375 -0.26254,0.4547 -0.33163,0.9933 -0.1875,1.5312 l 4.125,15.3438 c 0.14415,0.5379 0.44464,0.9618 0.90625,1.25 0.48039,0.2556 0.99328,0.3004 1.53125,0.1562 0.53796,-0.1441 0.92494,-0.4515 1.1875,-0.9062 0.28125,-0.4872 0.36291,-0.9933 0.21875,-1.5312 l -4.125,-15.375 c -0.14413,-0.538 -0.45716,-0.9319 -0.9375,-1.1876 -0.34618,-0.2161 -0.70461,-0.3083 -1.09375,-0.2812 z m -35.5625,5.5 c 1.16132,-0.085 2.30311,0.1937 3.375,0.8125 1.42912,0.8252 2.35562,2.0056 2.78125,3.5937 l -3.875,1.0313 c -0.14413,-0.5379 -0.42593,-0.9318 -0.90625,-1.1875 -0.46159,-0.2882 -0.96204,-0.3629 -1.5,-0.2188 -0.53796,0.1442 -0.96872,0.4504 -1.25,0.9376 -0.26254,0.4547 -0.30039,0.9621 -0.15625,1.5 l 4.125,15.375 c 0.14414,0.538 0.41339,0.9618 0.875,1.25 0.48032,0.2556 0.99328,0.3003 1.53125,0.1562 0.53794,-0.1442 0.92493,-0.4516 1.1875,-0.9062 0.28124,-0.4873 0.36291,-0.9934 0.21875,-1.5313 l -1.53125,-5.7813 -1.90625,0.5313 -1.0625,-3.8437 5.78125,-1.5313 2.5625,9.5937 c 0.4255,1.5883 0.23133,3.0709 -0.59375,4.5 -0.82516,1.4291 -2.03676,2.3869 -3.625,2.8126 -1.58822,0.4255 -3.10215,0.2001 -4.53125,-0.625 -1.4292,-0.8252 -2.35569,-2.0056 -2.78125,-3.5938 l -4.125,-15.375 c -0.42558,-1.5883 -0.20016,-3.1021 0.625,-4.5312 0.82508,-1.4292 2.0368,-2.3557 3.625,-2.7813 0.39707,-0.1064 0.76914,-0.1593 1.15625,-0.1875 z m -9.78125,2.5 7.21875,26.9062 -3.875,1 -7.4375,-12.4062 3.625,13.4375 -3.84375,1.0625 -7.21875,-26.9062 3.84375,-1.0313 7.46875,12.4375 -3.625,-13.4688 3.84375,-1.0312 z m -14.8125,3.9688 7.21875,26.9062 -3.84375,1 -7.21875,-26.875 3.84375,-1.0312 z m -5.15625,1.375 1,3.8437 -3.8125,1.0313 6.1875,23.0624 -3.84375,1.0313 -6.1875,-23.0625 -3.84375,1.0312 -1.03125,-3.8437 11.53125,-3.0937 z m -12.46875,3.3437 1.03125,3.8437 -7.6875,2.0626 2.03125,7.6874 5.78125,-1.5312 1.03125,3.8125 -5.78125,1.5625 2.09375,7.6875 7.6875,-2.0625 1,3.8438 -11.5,3.0937 -7.25,-26.9063 11.5625,-3.0937 z m -13.71875,3.6563 1.03125,3.875 -7.6875,2.0312 2.09375,7.6875 5.71875,-1.5313 1.03125,3.8438 -5.75,1.5312 2.0625,7.6876 7.6875,-2.0626 1.03125,3.8438 -11.53125,3.0938 -7.1875,-26.875 11.5,-3.125 z m -14.21875,3.8437 7.21875,26.9063 -3.84375,1 -3.875,-14.4063 -0.53125,9.4375 -3.875,1 -5.1875,-7.875 3.875,14.4062 -3.875,1.0313 -7.1875,-26.875 3.84375,-1.0313 8.6875,13.125 0.90625,-15.6874 3.84375,-1.0313 z m -30.34375,8.375 c 0.95535,0.027 1.88803,0.2968 2.78125,0.8125 1.42913,0.8251 2.35569,2.0368 2.78125,3.625 l 0.5,1.9062 -0.34375,0.125 -3.46875,0.9063 -0.53125,-1.9063 c -0.14413,-0.5378 -0.45717,-0.9317 -0.9375,-1.1874 -0.46158,-0.2885 -0.96202,-0.3629 -1.5,-0.2188 -0.53794,0.1442 -0.93748,0.4503 -1.21875,0.9375 -0.26255,0.4548 -0.33163,0.9621 -0.1875,1.5 l 1.03125,3.8437 c 0.14415,0.538 0.44466,0.962 0.90625,1.25 0.48033,0.2558 0.99328,0.3005 1.53125,0.1563 1.71629,-0.4599 3.31656,-0.2219 4.8125,0.75 1.26853,0.8408 2.07749,2.0086 2.46875,3.4687 L 613,1683.125 c 0.42556,1.5883 0.20006,3.0708 -0.625,4.5 -0.82516,1.4292 -2.00553,2.3556 -3.59375,2.7812 -1.58824,0.4256 -3.10215,0.2314 -4.53125,-0.5937 -1.4292,-0.8251 -2.35569,-2.0367 -2.78125,-3.625 l -0.53125,-1.9063 3.875,-1.0312 0.5,1.9375 c 0.14414,0.538 0.44462,0.9305 0.90625,1.2187 0.48031,0.2557 0.99329,0.3317 1.53125,0.1876 0.53797,-0.1442 0.95619,-0.4516 1.21875,-0.9063 0.28121,-0.4872 0.33164,-0.9933 0.1875,-1.5313 l -1.03125,-3.875 c -0.14417,-0.5379 -0.45717,-0.9317 -0.9375,-1.1874 -0.4616,-0.2886 -0.96205,-0.363 -1.5,-0.2188 -1.71639,0.4599 -3.31651,0.2221 -4.8125,-0.75 -1.26855,-0.8406 -2.10871,-1.9774 -2.5,-3.4375 l -1.03125,-3.875 c -0.42555,-1.5882 -0.23139,-3.0708 0.59375,-4.5 0.8251,-1.4291 2.03678,-2.3868 3.625,-2.8125 0.59558,-0.1596 1.17678,-0.2038 1.75,-0.1875 z m -14.09375,3.625 c 1.16138,-0.085 2.27193,0.1937 3.34375,0.8125 1.42921,0.8251 2.35567,2.0367 2.78125,3.625 l 0.5,1.9375 -3.84375,1.0313 -0.5,-1.9688 c -0.14412,-0.5379 -0.45716,-0.9319 -0.9375,-1.1875 -0.46159,-0.2882 -0.96203,-0.3316 -1.5,-0.1875 -0.53795,0.1443 -0.93748,0.4504 -1.21875,0.9375 -0.26254,0.4548 -0.33163,0.9621 -0.1875,1.5 l 4.125,15.3437 c 0.14414,0.538 0.44464,0.9618 0.90625,1.25 0.48031,0.2557 0.96204,0.3005 1.5,0.1563 0.53796,-0.1441 0.95618,-0.4203 1.21875,-0.875 0.28126,-0.4872 0.33164,-0.9932 0.1875,-1.5313 l -0.5,-1.9374 3.84375,-1.0313 0.53125,1.9375 c 0.42554,1.5883 0.23139,3.102 -0.59375,4.5312 -0.8251,1.4291 -2.03676,2.3557 -3.625,2.7813 -1.58823,0.4255 -3.10208,0.2313 -4.53125,-0.5937 -1.42912,-0.8253 -2.35567,-2.0368 -2.78125,-3.625 l -4.125,-15.375 c -0.42556,-1.5882 -0.23134,-3.1021 0.59375,-4.5313 0.82516,-1.4292 2.0368,-2.3557 3.625,-2.7813 0.39705,-0.1064 0.80037,-0.1905 1.1875,-0.2187 z m -10.3125,2.6563 7.21875,26.875 -3.84375,1.0624 -7.21875,-26.9062 3.84375,-1.0312 z m -7.46875,2 7.1875,26.9062 -3.8125,1.0312 -3.125,-11.5312 -3.8125,1.0312 3.0625,11.5313 -3.8125,1.0313 -7.21875,-26.9063 3.84375,-1.0313 3.09375,11.5313 3.84375,-1.0313 -3.09375,-11.5312 3.84375,-1.0312 z m -17.28125,4.75 c 0.7674,-0.056 1.51232,0.1234 2.21875,0.5312 0.94195,0.544 1.55547,1.3304 1.84375,2.4062 l 2.03125,7.6876 c 0.28145,1.0503 0.16882,2.058 -0.375,3 -0.54382,0.9419 -1.35597,1.5623 -2.40625,1.8437 l -3.875,1.0313 3.09375,11.5312 -3.78125,1.0312 -7.21875,-26.875 7.6875,-2.0312 c 0.26257,-0.07 0.52545,-0.1375 0.78125,-0.1562 z m -15.9375,4.1562 12.9375,25.3438 -3.78125,1.0312 -2.71875,-5.4688 -5.40625,1.4063 0.40625,6.125 -3.8125,1.0313 -1.4375,-28.4688 3.8125,-1 z m 15.03125,0.125 c -0.0992,0.01 -0.21002,0 -0.3125,0.031 l -2.40625,0.6563 2.0625,7.7187 2.40625,-0.656 c 0.40991,-0.1098 0.73118,-0.3302 0.9375,-0.6875 0.20632,-0.3572 0.26608,-0.7151 0.15625,-1.125 l -1.3125,-4.8125 c -0.10982,-0.4098 -0.33018,-0.7312 -0.6875,-0.9375 -0.268,-0.1547 -0.54622,-0.2106 -0.84375,-0.1875 z m -28.9375,3.7812 c 0.76741,-0.056 1.48107,0.092 2.1875,0.5 0.94194,0.5439 1.56235,1.356 1.84375,2.4063 l 2.0625,7.6875 c 0.39125,1.4601 0.056,2.7332 -1,3.8125 l 5.09375,11.5 -3.8125,1.0313 -4.96875,-11 -2,0.5 3.125,11.5312 -3.8125,1.0312 -7.1875,-26.8437 7.6875,-2.0313 c 0.26256,-0.07 0.52546,-0.1062 0.78125,-0.125 z m -0.9375,4.2188 c -0.0996,0.01 -0.21004,0.035 -0.3125,0.062 l -2.40625,0.6563 2.09375,7.75 2.375,-0.6563 c 0.40981,-0.1098 0.76245,-0.3302 0.96875,-0.6875 0.19938,-0.3829 0.22797,-0.772 0.125,-1.1562 l -1.3125,-4.8126 c -0.1098,-0.4098 -0.33024,-0.6999 -0.6875,-0.9062 -0.27312,-0.1739 -0.54492,-0.2683 -0.84375,-0.25 z m 15,0.062 c -7e-5,0 -0.005,0.021 -0.0312,0.031 l 0.65625,10.125 3.875,-1 -4.5,-9.1563 z m -29.875,0.031 c 0.95538,0.027 1.88805,0.2967 2.78125,0.8124 1.42918,0.8252 2.35567,2.0368 2.78125,3.625 l -3.84375,1.0313 c -0.14413,-0.5379 -0.4571,-0.9318 -0.9375,-1.1875 -0.46158,-0.2882 -0.96201,-0.3628 -1.5,-0.2188 -0.53795,0.1443 -0.93748,0.4503 -1.21875,0.9376 -0.26255,0.4546 -0.33163,0.9621 -0.1875,1.5 l 4.125,15.375 c 0.14413,0.538 0.44465,0.9618 0.90625,1.25 0.48033,0.2556 0.96204,0.3003 1.5,0.1562 0.53796,-0.1442 0.95618,-0.4516 1.21875,-0.9062 0.28133,-0.4874 0.3629,-1.0245 0.21875,-1.5626 l -1.5625,-5.75 -1.90625,0.5313 -1.03125,-3.875 5.78125,-1.5313 2.5625,9.5938 c 0.42556,1.5883 0.23138,3.1021 -0.59375,4.5312 -0.82511,1.4291 -2.03677,2.3557 -3.625,2.7813 -1.58823,0.4256 -3.10206,0.2314 -4.53125,-0.5937 -1.42912,-0.8252 -2.35576,-2.0056 -2.78125,-3.5938 l -4.125,-15.375 c -0.42564,-1.5883 -0.23132,-3.1021 0.59375,-4.5312 0.82516,-1.4292 2.03679,-2.3557 3.625,-2.7813 0.59558,-0.1596 1.17677,-0.2351 1.75,-0.2187 z m -16.53125,4.1874 1,3.8438 -7.6875,2.0625 2.09375,7.6875 5.75,-1.5625 1,3.8437 -5.71875,1.5313 2.03125,7.6875 7.6875,-2.0312 1.03125,3.8124 -11.53125,3.125 -7.1875,-26.9062 11.53125,-3.0938 z m -17.65625,4.875 c 0.76742,-0.056 1.51226,0.1235 2.21875,0.5313 0.94193,0.5439 1.5311,1.3247 1.8125,2.375 l 2.0625,7.6875 c 0.39125,1.4602 0.0561,2.7332 -1,3.8125 l 5.125,11.5313 -3.8125,1 -5,-11 -1.96875,0.5312 3.09375,11.5312 -3.8125,1.0313 -7.1875,-26.875 7.6875,-2.0313 c 0.26257,-0.07 0.52544,-0.1062 0.78125,-0.125 z m -14.96875,3.9688 c 0.76737,-0.056 1.51225,0.1234 2.21875,0.5312 0.94193,0.544 1.52423,1.3617 1.8125,2.4376 l 2.1875,8.125 c 0.10297,0.3842 0.0501,0.7677 -0.15625,1.125 -0.20631,0.3573 -0.49078,0.5845 -0.875,0.6874 l 0,0.031 c 0.38425,-0.103 0.76768,-0.051 1.125,0.1563 0.35733,0.2063 0.58452,0.522 0.6875,0.9062 l 2.1875,8.1562 c 0.28141,1.0503 0.13755,2.0581 -0.40625,3 -0.5439,0.9421 -1.32473,1.5624 -2.375,1.8438 l -7.6875,2.0312 -7.1875,-26.8437 7.6875,-2.0625 c 0.26256,-0.07 0.52545,-0.1062 0.78125,-0.125 z m 14.0625,0.25 c -0.0996,0.01 -0.21002,0.035 -0.3125,0.062 l -2.4375,0.6563 2.09375,7.75 2.4375,-0.625 c 0.4099,-0.1098 0.69996,-0.3615 0.90625,-0.7188 0.19938,-0.3829 0.22797,-0.772 0.125,-1.1562 l -1.25,-4.8126 c -0.10981,-0.4097 -0.36148,-0.6999 -0.71875,-0.9062 -0.27313,-0.1739 -0.54489,-0.2683 -0.84375,-0.25 z m -26.125,2.875 7.1875,26.9062 -3.84375,1 -7.1875,-26.875 3.84375,-1.0312 z m 11.125,1.1562 c -0.0992,0.01 -0.21003,0.035 -0.3125,0.063 l -2.40625,0.625 2.0625,7.7187 2.4375,-0.625 c 0.40985,-0.1097 0.69996,-0.3614 0.90625,-0.7187 0.20625,-0.3573 0.266,-0.7151 0.15625,-1.125 l -1.28125,-4.8126 c -0.10989,-0.4097 -0.36149,-0.7311 -0.71875,-0.9374 -0.26797,-0.1547 -0.54621,-0.2106 -0.84375,-0.1876 z m -25.09375,2.5938 6.15625,23.0312 7.71875,-2.0624 1,3.8437 -11.5,3.0937 -7.21875,-26.875 3.84375,-1.0312 z m 28.1875,8.9375 c -0.0992,0.01 -0.21004,0 -0.3125,0.031 l -2.40625,0.6562 2.0625,7.75 2.4375,-0.6562 c 0.40982,-0.1099 0.69995,-0.3302 0.90625,-0.6876 0.20626,-0.3572 0.26601,-0.7776 0.15625,-1.1874 l -1.28125,-4.7813 c -0.10987,-0.4098 -0.33023,-0.7312 -0.6875,-0.9375 -0.26797,-0.1547 -0.57746,-0.2106 -0.875,-0.1875 z"
       transform="translate(0,-1052.3579)"
       id="path6480" />
    <path
       d="m 820.63076,535.72526 16.89155,63.04011 9.00573,-2.41308 -7.23924,-27.01719 13.5086,-3.61961 -2.41308,-9.00573 -13.5086,3.61961 -4.82615,-18.01146 18.01146,-4.82614 -2.41308,-9.00574 -27.01719,7.23923"
       style="font-size:108px;font-style:normal;font-variant:normal;font-weight:500;font-stretch:normal;text-align:start;line-height:89.99999762%;letter-spacing:0px;word-spacing:0px;writing-mode:lr-tb;text-anchor:start;fill:#00a651;fill-opacity:1;stroke:none;display:inline;font-family:DIN_OSP;-inkscape-font-specification:DIN_OSP Medium"
       id="path7016"
       inkscape:connector-curvature="0" />
    <path
       d="m 853.52278,526.91187 9.00574,-2.41307 13.27192,49.5315 c 0.33782,1.26082 1.04766,2.2289 2.12951,2.90424 1.12578,0.59924 2.31908,0.72993 3.5799,0.39209 1.26078,-0.33782 2.19884,-1.03961 2.81416,-2.10538 0.65926,-1.14187 0.81997,-2.34321 0.48216,-3.60402 l -13.27193,-49.53151 9.00573,-2.41307 13.27193,49.5315 c 0.99738,3.72238 0.52916,7.25832 -1.40466,10.60783 -1.93386,3.34952 -4.76197,5.52298 -8.48431,6.52038 -3.72239,0.99741 -7.25833,0.52919 -10.60783,-1.40466 -3.34953,-1.93384 -5.52299,-4.76194 -6.52039,-8.48432 l -13.27193,-49.53151"
       style="font-size:108px;font-style:normal;font-variant:normal;font-weight:500;font-stretch:normal;text-align:start;line-height:89.99999762%;letter-spacing:0px;word-spacing:0px;writing-mode:lr-tb;text-anchor:start;fill:#00a651;fill-opacity:1;stroke:none;display:inline;font-family:DIN_OSP;-inkscape-font-specification:DIN_OSP Medium"
       id="path7018"
       inkscape:connector-curvature="0" />
    <path
       d="m 884.63617,518.57507 27.01719,-7.23923 2.41308,9.00573 -9.00573,2.41308 14.47847,54.03436 -9.00573,2.41308 -14.47847,-54.03437 -9.00573,2.41308 -2.41308,-9.00573"
       style="font-size:108px;font-style:normal;font-variant:normal;font-weight:500;font-stretch:normal;text-align:start;line-height:89.99999762%;letter-spacing:0px;word-spacing:0px;writing-mode:lr-tb;text-anchor:start;fill:#00a651;fill-opacity:1;stroke:none;display:inline;font-family:DIN_OSP;-inkscape-font-specification:DIN_OSP Medium"
       id="path7020"
       inkscape:connector-curvature="0" />
    <path
       d="m 915.78896,510.2277 9.00573,-2.41307 13.27193,49.5315 c 0.33781,1.26082 1.04765,2.2289 2.12951,2.90424 1.12577,0.59924 2.31907,0.72993 3.57989,0.39209 1.26079,-0.33782 2.19884,-1.03961 2.81417,-2.10538 0.65925,-1.14187 0.81996,-2.34321 0.48215,-3.60402 l -13.27192,-49.53151 9.00573,-2.41307 13.27192,49.5315 c 0.99738,3.72238 0.52916,7.25832 -1.40465,10.60783 -1.93387,3.34952 -4.76198,5.52298 -8.48432,6.52038 -3.72239,0.99741 -7.25832,0.52919 -10.60783,-1.40466 -3.34953,-1.93384 -5.52298,-4.76194 -6.52038,-8.48432 L 915.78896,510.2277"
       style="font-size:108px;font-style:normal;font-variant:normal;font-weight:500;font-stretch:normal;text-align:start;line-height:89.99999762%;letter-spacing:0px;word-spacing:0px;writing-mode:lr-tb;text-anchor:start;fill:#00a651;fill-opacity:1;stroke:none;display:inline;font-family:DIN_OSP;-inkscape-font-specification:DIN_OSP Medium"
       id="path7022"
       inkscape:connector-curvature="0" />
    <path
       d="m 950.09086,501.13307 18.03559,-4.73611 c 2.46156,-0.6595 4.79616,-0.352 7.0038,0.92251 2.20763,1.27465 3.64123,3.1427 4.30082,5.60422 l 4.82616,18.01145 c 0.91695,3.42222 0.13776,6.398 -2.33756,8.92734 l 0,0 11.96574,27.00552 -8.91567,2.38895 -11.7421,-25.81064 -4.59293,1.23067 7.23924,27.01718 -8.91567,2.38894 -16.86742,-62.95003 m 11.30462,6.52672 4.87442,18.19156 5.67361,-1.52022 c 0.9606,-0.25736 1.68264,-0.80476 2.16611,-1.64217 0.46736,-0.89738 0.5804,-1.79637 0.3391,-2.69699 l -3.01635,-11.25716 c -0.2574,-0.96055 -0.80479,-1.68259 -1.64216,-2.16611 -0.85347,-0.54344 -1.76051,-0.68649 -2.72112,-0.42915 l -5.67361,1.52024"
       style="font-size:108px;font-style:normal;font-variant:normal;font-weight:500;font-stretch:normal;text-align:start;line-height:89.99999762%;letter-spacing:0px;word-spacing:0px;writing-mode:lr-tb;text-anchor:start;fill:#00a651;fill-opacity:1;stroke:none;display:inline;font-family:DIN_OSP;-inkscape-font-specification:DIN_OSP Medium"
       id="path7024"
       inkscape:connector-curvature="0" />
    <path
       d="m 1000.6569,555.05359 -16.89157,-63.04008 27.01717,-7.2393 2.4131,9.0058 -18.01146,4.82614 4.82616,18.01145 13.5085,-3.6196 2.4131,9.00573 -13.5085,3.61961 4.8261,18.01144 18.0115,-4.82614 2.4131,9.00572 -27.0172,7.23923"
       style="font-size:108px;font-style:normal;font-variant:normal;font-weight:500;font-stretch:normal;text-align:start;line-height:89.99999762%;letter-spacing:0px;word-spacing:0px;writing-mode:lr-tb;text-anchor:start;fill:#00a651;fill-opacity:1;stroke:none;display:inline;font-family:DIN_OSP;-inkscape-font-specification:DIN_OSP Medium"
       id="path7026"
       inkscape:connector-curvature="0" />
    <path
       d="m 1028.7742,479.95341 27.0172,-7.2392 2.4131,9.0057 -9.0058,2.4131 14.4785,54.03434 -9.0057,2.41307 -14.4785,-54.03441 -9.0057,2.4131 -2.4131,-9.0057"
       style="font-size:108px;font-style:normal;font-variant:normal;font-weight:500;font-stretch:normal;text-align:start;line-height:89.99999762%;letter-spacing:0px;word-spacing:0px;writing-mode:lr-tb;text-anchor:start;fill:#00a651;fill-opacity:1;stroke:none;display:inline;font-family:DIN_OSP;-inkscape-font-specification:DIN_OSP Medium"
       id="path7028"
       inkscape:connector-curvature="0" />
    <path
       d="m 1063.3556,474.93431 c 1.9339,-3.3494 4.7619,-5.5229 8.4843,-6.5203 3.7223,-0.9974 7.2583,-0.5291 10.6079,1.4046 3.3494,1.9339 5.5229,4.762 6.5204,8.4843 l 9.6523,36.02295 c 0.9973,3.7224 0.5291,7.25833 -1.4047,10.60784 -1.9339,3.34954 -4.762,5.523 -8.4843,6.52038 -3.7225,0.99743 -7.2583,0.52919 -10.6078,-1.40466 -3.3496,-1.93385 -5.523,-4.76194 -6.5204,-8.48432 l -9.6523,-36.02289 c -0.9974,-3.7223 -0.5292,-7.2583 1.4046,-10.6079 m 14.4114,2.9917 c -1.0819,-0.6753 -2.2532,-0.8441 -3.514,-0.5063 -1.2609,0.3379 -2.2209,1.0777 -2.8801,2.2196 -0.6154,1.0658 -0.7541,2.2291 -0.4162,3.4898 l 3.4266,12.78812 2.8233,10.53672 3.4024,12.69806 c 0.3378,1.26084 1.0476,2.22892 2.1295,2.90425 1.1257,0.59925 2.319,0.72995 3.5799,0.39208 1.2607,-0.33779 2.1988,-1.03958 2.8142,-2.10537 0.6592,-1.14185 0.8199,-2.34319 0.4821,-3.60402 l -3.4024,-12.69808 -2.8233,-10.53666 -3.4266,-12.7882 c -0.3379,-1.2607 -1.0697,-2.1907 -2.1954,-2.79"
       style="font-size:108px;font-style:normal;font-variant:normal;font-weight:500;font-stretch:normal;text-align:start;line-height:89.99999762%;letter-spacing:0px;word-spacing:0px;writing-mode:lr-tb;text-anchor:start;fill:#00a651;fill-opacity:1;stroke:none;display:inline;font-family:DIN_OSP;-inkscape-font-specification:DIN_OSP Medium"
       id="path7030"
       inkscape:connector-curvature="0" />
    <path
       d="m 1097.0542,465.90481 c 1.9338,-3.3494 4.7619,-5.5229 8.4843,-6.5204 3.7223,-0.9973 7.2583,-0.5291 10.6079,1.4047 3.3494,1.9339 5.5229,4.762 6.5204,8.4843 l 9.6523,36.02294 c 0.9973,3.7224 0.5291,7.25834 -1.4047,10.60782 -1.9339,3.34955 -4.762,5.523 -8.4843,6.52039 -3.7225,0.99743 -7.2584,0.52921 -10.6078,-1.40465 -3.3496,-1.93383 -5.5231,-4.76192 -6.5204,-8.48432 l -9.6523,-36.02288 c -0.9975,-3.7223 -0.5293,-7.2583 1.4046,-10.6079 m 14.4114,2.9917 c -1.0819,-0.6753 -2.2532,-0.8441 -3.514,-0.5063 -1.2608,0.3379 -2.2209,1.0777 -2.8801,2.2195 -0.6154,1.0659 -0.7541,2.2291 -0.4162,3.4899 l 3.4266,12.7881 2.8233,10.53672 3.4024,12.69808 c 0.3378,1.26083 1.0476,2.22891 2.1295,2.90422 1.1257,0.59927 2.319,0.72996 3.5799,0.39211 1.2607,-0.3378 2.1988,-1.0396 2.8142,-2.10538 0.6592,-1.14185 0.8199,-2.34319 0.4821,-3.60403 l -3.4024,-12.69808 -2.8233,-10.53674 -3.4266,-12.7881 c -0.3379,-1.2607 -1.0697,-2.1907 -2.1954,-2.79"
       style="font-size:108px;font-style:normal;font-variant:normal;font-weight:500;font-stretch:normal;text-align:start;line-height:89.99999762%;letter-spacing:0px;word-spacing:0px;writing-mode:lr-tb;text-anchor:start;fill:#00a651;fill-opacity:1;stroke:none;display:inline;font-family:DIN_OSP;-inkscape-font-specification:DIN_OSP Medium"
       id="path7032"
       inkscape:connector-curvature="0" />
    <path
       d="m 1143.1604,516.8699 -16.8916,-63.04009 9.0057,-2.4131 14.4785,54.03438 18.0115,-4.82615 2.4131,9.00572 -27.0172,7.23924"
       style="font-size:108px;font-style:normal;font-variant:normal;font-weight:500;font-stretch:normal;text-align:start;line-height:89.99999762%;letter-spacing:0px;word-spacing:0px;writing-mode:lr-tb;text-anchor:start;fill:#00a651;fill-opacity:1;stroke:none;display:inline;font-family:DIN_OSP;-inkscape-font-specification:DIN_OSP Medium"
       id="path7034"
       inkscape:connector-curvature="0" />
    <path
       d="m 1167.0442,491.16561 1.2066,4.50287 c 0.9974,3.72238 3.1708,6.55048 6.5204,8.48429 3.3495,1.93388 6.8854,2.4021 10.6079,1.40467 3.7222,-0.99739 6.5503,-3.17084 8.4843,-6.52039 1.9337,-3.34949 2.402,-6.88544 1.4046,-10.60784 l -2.413,-9.0057 c -0.9171,-3.4221 -2.8622,-6.1184 -5.8353,-8.0888 -3.5062,-2.2779 -7.2705,-2.878 -11.293,-1.8002 -1.2608,0.3379 -2.4541,0.2072 -3.5798,-0.3921 -1.082,-0.6753 -1.7918,-1.6434 -2.1296,-2.9042 l -2.413,-9.0057 c -0.3379,-1.2608 -0.1992,-2.4241 0.4162,-3.4899 0.6592,-1.1418 1.6192,-1.8816 2.8801,-2.2195 1.2607,-0.3378 2.432,-0.169 3.514,0.5062 1.1257,0.5993 1.8575,1.5293 2.1954,2.7901 l 1.2065,4.5028 8.1952,-2.1959 0.8106,-0.2171 -1.2066,-4.5029 c -0.9975,-3.7223 -3.1709,-6.5504 -6.5204,-8.4843 -3.3495,-1.9338 -6.8855,-2.402 -10.6078,-1.4047 -3.7224,0.9975 -6.5505,3.171 -8.4843,6.5204 -1.9339,3.3496 -2.4021,6.8855 -1.4047,10.6079 l 2.413,9.0057 c 0.917,3.4222 2.8621,6.1184 5.8354,8.0887 3.506,2.2781 7.2703,2.8781 11.2929,1.8002 1.2607,-0.3377 2.4321,-0.169 3.514,0.5063 1.1257,0.5993 1.8575,1.5293 2.1954,2.7901 l 2.4131,9.0057 c 0.3378,1.2608 0.177,2.4622 -0.4821,3.60401 -0.6154,1.0658 -1.5535,1.76759 -2.8142,2.10539 -1.2609,0.33786 -2.4542,0.20717 -3.5799,-0.3921 -1.0819,-0.67531 -1.7918,-1.6434 -2.1295,-2.9042 l -1.2066,-4.5029 -9.0058,2.4131"
       style="font-size:108px;font-style:normal;font-variant:normal;font-weight:500;font-stretch:normal;text-align:start;line-height:89.99999762%;letter-spacing:0px;word-spacing:0px;writing-mode:lr-tb;text-anchor:start;fill:#00a651;fill-opacity:1;stroke:none;display:inline;font-family:DIN_OSP;-inkscape-font-specification:DIN_OSP Medium"
       id="path7036"
       inkscape:connector-curvature="0" />
    <path
       d="m 871.38042,662.08544 -12.18373,-18.45308 9.04905,33.77148 -9.00573,2.41308 -16.89155,-63.0401 9.00573,-2.41308 20.3062,30.75514 2.20812,-36.78783 9.00573,-2.41308 16.89155,63.0401 -9.00573,2.41308 -9.04904,-33.77148 -1.32488,22.07269 -9.00572,2.41308"
       style="font-size:108px;font-style:normal;font-variant:normal;font-weight:500;font-stretch:normal;text-align:start;line-height:89.99999762%;letter-spacing:0px;word-spacing:0px;writing-mode:lr-tb;text-anchor:start;fill:#00a651;fill-opacity:1;stroke:none;display:inline;font-family:DIN_OSP;-inkscape-font-specification:DIN_OSP Medium"
       id="path7038"
       inkscape:connector-curvature="0" />
    <path
       d="m 900.9645,601.0707 8.91567,-2.38895 30.40014,59.42049 -8.91567,2.38894 -6.32134,-12.78467 -12.7222,3.31239 0.94202,14.32257 -8.91567,2.38895 -3.38295,-66.65972 m 9.23896,16.82905 1.55397,23.81092 9.09578,-2.43721 -10.55969,-21.39784 c 0,5e-5 -0.03,0.008 -0.0901,0.0241"
       style="font-size:108px;font-style:normal;font-variant:normal;font-weight:500;font-stretch:normal;text-align:start;line-height:89.99999762%;letter-spacing:0px;word-spacing:0px;writing-mode:lr-tb;text-anchor:start;fill:#00a651;fill-opacity:1;stroke:none;display:inline;font-family:DIN_OSP;-inkscape-font-specification:DIN_OSP Medium"
       id="path7040"
       inkscape:connector-curvature="0" />
    <path
       d="m 927.83254,593.87143 18.01145,-4.82616 c 2.46156,-0.6595 4.79616,-0.352 7.00381,0.92251 2.20762,1.27465 3.64926,3.17274 4.32494,5.69427 l 12.08952,45.11871 c 0.65955,2.46158 0.35205,4.79618 -0.9225,7.0038 -1.27461,2.20764 -3.14268,3.64125 -5.60422,4.30082 l -18.01146,4.82615 -16.89154,-63.0401 m 11.30461,6.52672 12.11366,45.20876 5.67361,-1.52023 c 0.96058,-0.25738 1.68262,-0.80477 2.1661,-1.64217 0.48344,-0.83735 0.59648,-1.73635 0.3391,-2.69698 l -10.27971,-38.36441 c -0.2574,-0.96054 -0.80479,-1.68258 -1.64216,-2.16611 -0.83739,-0.48339 -1.73638,-0.59643 -2.69699,-0.3391 l -5.67361,1.52024"
       style="font-size:108px;font-style:normal;font-variant:normal;font-weight:500;font-stretch:normal;text-align:start;line-height:89.99999762%;letter-spacing:0px;word-spacing:0px;writing-mode:lr-tb;text-anchor:start;fill:#00a651;fill-opacity:1;stroke:none;display:inline;font-family:DIN_OSP;-inkscape-font-specification:DIN_OSP Medium"
       id="path7042"
       inkscape:connector-curvature="0" />
    <path
       d="m 963.38708,584.44114 18.03559,-4.7361 c 2.46156,-0.6595 4.79616,-0.352 7.0038,0.92251 2.20763,1.27464 3.64123,3.14272 4.30082,5.60422 l 4.82615,18.01146 c 0.91696,3.42221 0.13777,6.39799 -2.33756,8.92733 l 0,0 11.96572,27.00553 -8.91565,2.38894 -11.7421,-25.81065 -4.59292,1.23067 7.23924,27.01719 -8.91568,2.38895 -16.86741,-62.95005 m 11.30462,6.52673 4.87441,18.19157 5.67361,-1.52024 c 0.96061,-0.25735 1.68265,-0.80474 2.16611,-1.64216 0.46737,-0.89737 0.5804,-1.79637 0.3391,-2.69699 l -3.01635,-11.25716 c -0.25739,-0.96055 -0.80478,-1.68258 -1.64216,-2.16611 -0.85346,-0.54343 -1.7605,-0.68649 -2.72111,-0.42915 l -5.67361,1.52024"
       style="font-size:108px;font-style:normal;font-variant:normal;font-weight:500;font-stretch:normal;text-align:start;line-height:89.99999762%;letter-spacing:0px;word-spacing:0px;writing-mode:lr-tb;text-anchor:start;fill:#00a651;fill-opacity:1;stroke:none;display:inline;font-family:DIN_OSP;-inkscape-font-specification:DIN_OSP Medium"
       id="path7044"
       inkscape:connector-curvature="0" />
    <path
       d="m 1024.1813,635.62102 -9.0057,2.41308 -16.89153,-63.0401 9.00573,-2.41308 16.8915,63.0401"
       style="font-size:108px;font-style:normal;font-variant:normal;font-weight:500;font-stretch:normal;text-align:start;line-height:89.99999762%;letter-spacing:0px;word-spacing:0px;writing-mode:lr-tb;text-anchor:start;fill:#00a651;fill-opacity:1;stroke:none;display:inline;font-family:DIN_OSP;-inkscape-font-specification:DIN_OSP Medium"
       id="path7046"
       inkscape:connector-curvature="0" />
    <path
       d="m 1016.1309,570.21196 18.0114,-4.82616 c 2.4616,-0.65951 4.7962,-0.352 7.0038,0.92251 2.2077,1.27464 3.6493,3.17273 4.325,5.69427 l 12.0895,45.11871 c 0.6596,2.46157 0.3521,4.79617 -0.9225,7.0038 -1.2746,2.20764 -3.1426,3.64124 -5.6042,4.30082 l -18.0115,4.82615 -16.8915,-63.0401 m 11.3046,6.52672 12.1137,45.20876 5.6736,-1.52024 c 0.9606,-0.25738 1.6826,-0.80477 2.1661,-1.64216 0.4834,-0.83736 0.5965,-1.73636 0.3391,-2.69698 l -10.2797,-38.36441 c -0.2574,-0.96055 -0.8048,-1.68259 -1.6422,-2.16611 -0.8374,-0.4834 -1.7364,-0.59643 -2.697,-0.3391 l -5.6736,1.52024"
       style="font-size:108px;font-style:normal;font-variant:normal;font-weight:500;font-stretch:normal;text-align:start;line-height:89.99999762%;letter-spacing:0px;word-spacing:0px;writing-mode:lr-tb;text-anchor:start;fill:#00a651;fill-opacity:1;stroke:none;display:inline;font-family:DIN_OSP;-inkscape-font-specification:DIN_OSP Medium"
       id="path7048"
       inkscape:connector-curvature="0" />
    <path
       style="color:#000000;fill:none;stroke:#ffffff;stroke-width:0.99999994;stroke-linecap:round;stroke-linejoin:miter;stroke-miterlimit:4;stroke-opacity:1;stroke-dasharray:none;stroke-dashoffset:0;marker:none;visibility:visible;display:inline;overflow:visible;enable-background:accumulate"
       d="m 0.49999997,-1051.8579 1487.19000003,0 0,2103.72 -1487.19000003,0 0,-2103.72 z"
       id="rect3121" />
  </g>
</svg>
