<?xml version="1.0" encoding="UTF-8"?>
<svg xmlns="http://www.w3.org/2000/svg" xmlns:xlink="http://www.w3.org/1999/xlink" width="320pt" height="320pt" viewBox="0 0 320 320" version="1.1">
<g id="surface0">
<path style=" stroke:none;fill-rule:nonzero;fill:#ffffff;fill-opacity:1;" d="M 159.550781 170.625 C 155.429688 170.855469 151.984375 173.3125 149.949219 176.773438 C 147.601562 180.769531 147.261719 185.484375 147.300781 189.800781 L 147.25 201.023438 C 146.128906 201.371094 144.8125 201.917969 144.101562 203.125 C 143.628906 203.925781 143.453125 204.832031 143.226562 205.449219 C 142.820312 206.542969 142.425781 207.667969 141.875 208.601562 C 141.742188 208.824219 141.582031 208.925781 141.449219 209.101562 C 140.558594 207.523438 139.511719 206.179688 137.800781 205.175781 C 132.796875 202.230469 126.820312 204.851562 124.101562 209.476562 C 120.941406 214.847656 122.78125 220.886719 128.074219 224 C 131.671875 226.117188 135.855469 226.191406 139.324219 223.824219 C 142.03125 221.953125 144.214844 218.414062 145.925781 215.898438 L 145.949219 215.898438 L 145.949219 215.875 C 146.414062 215.148438 147.039062 214.226562 147.699219 213.675781 C 148.03125 213.398438 148.359375 213.230469 148.648438 213.175781 C 148.9375 213.121094 149.210938 213.148438 149.601562 213.375 C 149.976562 213.597656 150.125 213.816406 150.226562 214.125 C 150.324219 214.433594 150.332031 214.84375 150.25 215.300781 C 150.082031 216.207031 149.546875 217.273438 149.101562 217.976562 L 149.074219 218 C 147.339844 220.949219 145.367188 224.617188 145.398438 228.398438 L 145.398438 228.425781 C 145.46875 232.117188 147.402344 235.140625 150.523438 236.976562 C 153.238281 238.570312 156.078125 239.140625 158.675781 238.574219 C 161.273438 238.011719 163.582031 236.292969 165.226562 233.5 C 166.558594 231.230469 167.144531 228.546875 166.773438 226.023438 C 166.40625 223.5 165.027344 221.121094 162.523438 219.648438 C 160.753906 218.605469 158.964844 218.292969 157.023438 218.273438 C 157.179688 217.808594 157.28125 217.332031 157.550781 216.875 C 158.257812 215.671875 159.429688 214.863281 160.101562 213.726562 C 160.480469 213.078125 160.507812 212.371094 160.523438 211.699219 C 160.542969 211.027344 160.503906 210.386719 160.5 210.050781 L 160.382812 208.851562 L 160.328125 195.25 L 160.398438 171.425781 L 160.398438 170.625 L 159.601562 170.625 L 159.574219 170.625 L 159.550781 170.625 L 159.550781 170.625 Z M 182 184.375 L 181.851562 184.449219 L 176.582031 187.148438 L 176.386719 201.175781 L 177.25 200.273438 C 178.734375 198.726562 180.570312 197.527344 181.675781 195.648438 C 183.398438 192.722656 184.191406 188.21875 182.949219 184.898438 L 182.75 184.375 L 182.199219 184.375 L 182 184.375 L 182 184.375 Z M 182 184.375 "/>
<path style="fill-rule:nonzero;fill:#ffffff;fill-opacity:1;stroke-width:0.8;stroke-linecap:butt;stroke-linejoin:miter;stroke:#000000;stroke-opacity:1;stroke-miterlimit:4;" d="M 176.734375 203.621094 L 177.027344 183.042969 "/>
<path style=" stroke:none;fill-rule:nonzero;fill:#000000;fill-opacity:1;" d="M 159.601562 171.425781 C 155.769531 171.640625 152.570312 173.910156 150.648438 177.175781 C 148.425781 180.957031 148.0625 185.535156 148.101562 189.800781 L 148.050781 201.574219 C 146.957031 201.859375 145.40625 202.492188 144.800781 203.523438 C 144.429688 204.15625 144.234375 205.027344 143.976562 205.726562 C 143.574219 206.800781 143.183594 207.96875 142.574219 209 C 142.238281 209.574219 141.882812 210.070312 141.351562 210.449219 C 140.386719 208.417969 139.347656 207.019531 137.398438 205.875 C 132.816406 203.179688 127.328125 205.578125 124.800781 209.875 C 121.832031 214.917969 123.488281 220.367188 128.476562 223.300781 C 131.855469 225.289062 135.65625 225.371094 138.875 223.175781 C 141.347656 221.464844 143.550781 217.984375 145.273438 215.449219 C 146.207031 213.992188 147.878906 211.425781 150 212.675781 C 152.121094 213.921875 150.742188 216.886719 149.773438 218.398438 C 148.054688 221.324219 146.167969 224.910156 146.199219 228.398438 C 146.265625 231.832031 148.003906 234.554688 150.925781 236.273438 C 156.082031 239.308594 161.425781 238.371094 164.523438 233.101562 C 167.019531 228.859375 166.710938 223.046875 162.125 220.351562 C 160.121094 219.171875 158.234375 218.832031 155.898438 219 C 156.050781 218.085938 156.378906 217.277344 156.851562 216.476562 C 157.660156 215.101562 158.894531 214.183594 159.398438 213.324219 C 159.871094 212.523438 159.707031 210.824219 159.699219 210.050781 L 159.699219 208.351562 L 160 208.199219 L 160 196.425781 L 159.675781 196.601562 L 159.601562 171.425781 Z M 182.199219 185.175781 L 176.851562 187.875 L 176.773438 199.625 C 178.457031 198.425781 179.945312 197 180.976562 195.25 C 182.558594 192.558594 183.308594 188.140625 182.199219 185.175781 Z M 153.226562 203.125 C 153.636719 203.078125 154.097656 203.1875 154.5 203.425781 C 155.246094 203.863281 155.9375 204.90625 155.398438 205.824219 C 154.859375 206.742188 153.886719 206.707031 153.023438 206.199219 C 152.164062 205.695312 151.625 204.75 152.199219 203.773438 C 152.4375 203.375 152.8125 203.171875 153.226562 203.125 Z M 133 208.976562 C 133.96875 209.007812 134.949219 209.292969 135.898438 209.851562 C 138.707031 211.5 139.703125 215.09375 138.050781 217.898438 C 136.261719 220.9375 132.605469 221.652344 129.625 219.898438 C 127.046875 218.382812 126.191406 214.570312 127.675781 212.050781 C 128.855469 210.039062 130.871094 208.898438 133 208.976562 Z M 156.023438 222.699219 C 157.179688 222.648438 158.371094 222.90625 159.425781 223.523438 C 162.117188 225.109375 163.085938 228.707031 161.5 231.398438 C 159.78125 234.324219 156.230469 235.378906 153.25 233.625 C 150.441406 231.972656 149.546875 228.382812 151.199219 225.574219 C 152.253906 223.785156 154.101562 222.789062 156.023438 222.699219 Z M 156.023438 222.699219 "/>
<path style="fill-rule:nonzero;fill:#ffffff;fill-opacity:1;stroke-width:0.8;stroke-linecap:butt;stroke-linejoin:miter;stroke:#000000;stroke-opacity:1;stroke-miterlimit:4;" d="M 160 160 L 160 208.464844 "/>
</g>
</svg>
