<?xml version="1.0" encoding="UTF-8"?>
<svg xmlns="http://www.w3.org/2000/svg" xmlns:xlink="http://www.w3.org/1999/xlink" width="320pt" height="320pt" viewBox="0 0 320 320" version="1.1">
<g id="surface0">
<path style="fill:none;stroke-width:0.8;stroke-linecap:butt;stroke-linejoin:miter;stroke:#000000;stroke-opacity:1;stroke-miterlimit:4;" d="M 160 160 L 160 232.300781 "/>
<path style=" stroke:none;fill-rule:nonzero;fill:#ffffff;fill-opacity:1;" d="M 158.777344 122.457031 L 158.828125 123.257812 L 159.578125 123.257812 L 158.785156 160.945312 C 158.785156 166.386719 159.96875 178.40625 159.96875 181.683594 C 159.320312 182.703125 158.925781 183.546875 158.277344 184.257812 C 157.183594 185.457031 156.003906 186.625 155.175781 187.933594 C 154.890625 188.382812 154.808594 188.8125 154.652344 189.230469 C 157.3125 189.285156 159.65625 189.722656 162.078125 191.257812 C 168.746094 195.480469 169.320312 204.320312 165.402344 210.507812 C 163.121094 214.109375 159.886719 216.335938 156.328125 217.058594 C 152.765625 217.78125 148.90625 217.007812 145.351562 214.757812 C 140.523438 211.699219 137.792969 206.691406 138.5 201.007812 C 139.082031 196.574219 142.070312 191.609375 144.101562 187.882812 L 144.101562 187.855469 C 144.707031 186.816406 145.5 185.414062 145.777344 184.183594 C 145.914062 183.566406 145.914062 183.015625 145.777344 182.558594 C 145.640625 182.097656 145.386719 181.703125 144.800781 181.332031 C 144.226562 180.96875 143.738281 180.898438 143.226562 180.980469 C 142.714844 181.066406 142.164062 181.34375 141.625 181.757812 C 140.550781 182.582031 139.574219 183.933594 138.976562 184.957031 L 138.953125 184.980469 C 136.40625 189 133.105469 193.769531 128.5 196.082031 C 123.976562 198.300781 119.160156 197.855469 114.976562 195.207031 C 111.324219 192.894531 108.851562 189.820312 107.925781 186.332031 C 107 182.84375 107.652344 178.980469 110.027344 175.230469 C 111.953125 172.191406 114.847656 169.78125 118.125 168.65625 C 121.40625 167.53125 125.09375 167.71875 128.425781 169.832031 C 130.941406 171.425781 132.515625 173.480469 133.777344 176.03125 C 134.394531 175.464844 135 174.914062 135.476562 174.15625 C 136.558594 172.449219 136.835938 170.449219 137.75 169.007812 C 138.25 168.21875 139.070312 167.703125 139.875 167.257812 C 140.671875 166.816406 141.484375 166.480469 141.925781 166.257812 L 141.953125 166.230469 L 143.601562 165.40625 L 143.175781 145.808594 C 143.054688 140.730469 143.589844 135.199219 146.402344 130.757812 C 148.753906 127.042969 153.433594 123.484375 157.976562 122.65625 L 157.976562 122.457031 L 158.675781 122.457031 L 158.777344 122.457031 L 158.777344 122.457031 L 158.777344 122.457031 Z M 158.777344 122.457031 "/>
<path style="fill-rule:nonzero;fill:#ffffff;fill-opacity:1;stroke-width:0.8;stroke-linecap:butt;stroke-linejoin:miter;stroke:#000000;stroke-opacity:1;stroke-miterlimit:4;" d="M 157.125 123.421875 L 157.324219 161.734375 L 159.953125 161.066406 L 159.953125 181.105469 C 159.925781 181.15625 159.90625 181.210938 159.875 181.257812 C 159.332031 182.117188 158.378906 182.945312 157.675781 183.707031 C 156.597656 184.886719 155.394531 186.097656 154.5 187.507812 C 154.007812 188.289062 153.632812 189.03125 153.5 189.933594 C 156.632812 189.832031 158.992188 190.246094 161.652344 191.933594 C 167.910156 195.894531 168.441406 204.214844 164.726562 210.082031 C 160.367188 216.964844 152.582031 218.390625 145.777344 214.082031 C 141.160156 211.160156 138.628906 206.492188 139.300781 201.105469 C 139.84375 196.957031 142.757812 192.003906 144.800781 188.257812 C 146.011719 186.171875 148.121094 182.492188 145.226562 180.65625 C 142.332031 178.824219 139.535156 182.394531 138.277344 184.558594 C 135.75 188.546875 132.492188 193.175781 128.152344 195.355469 C 123.859375 197.460938 119.390625 197.058594 115.402344 194.53125 C 108.359375 190.074219 106.144531 182.855469 110.703125 175.65625 C 114.367188 169.867188 121.742188 166.542969 128 170.507812 C 130.738281 172.242188 132.347656 174.355469 133.625 177.355469 C 134.660156 176.589844 135.457031 175.675781 136.152344 174.582031 C 137.339844 172.703125 137.683594 170.605469 138.425781 169.433594 C 139.121094 168.335938 141.335938 167.441406 142.300781 166.957031 L 144.402344 165.882812 L 143.976562 145.78125 C 143.859375 140.773438 144.402344 135.40625 147.078125 131.183594 C 149.40625 127.503906 152.746094 123.9375 157.125 123.421875 L 157.125 123.421875 Z M 151.953125 168.683594 C 151.292969 168.703125 150.671875 168.957031 150.277344 169.582031 C 149.484375 170.832031 150.152344 172.039062 151.328125 172.78125 C 152.5 173.523438 153.984375 173.585938 154.828125 172.257812 C 155.519531 171.160156 154.894531 169.898438 153.800781 169.207031 C 153.292969 168.886719 152.609375 168.660156 151.953125 168.683594 Z M 121.277344 174.65625 C 118.691406 174.726562 116.179688 176.007812 114.726562 178.308594 C 112.199219 182.296875 113.132812 187.382812 117.203125 189.957031 C 121.035156 192.382812 126.074219 191.191406 128.5 187.355469 C 130.976562 183.445312 129.609375 178.308594 125.777344 175.882812 C 124.398438 175.007812 122.828125 174.617188 121.277344 174.65625 Z M 153.050781 195.007812 C 150.417969 195.066406 147.867188 196.386719 146.351562 198.78125 C 143.726562 202.929688 145.183594 207.90625 149.25 210.480469 C 152.773438 212.710938 158.023438 211.324219 160.203125 207.882812 C 162.726562 203.890625 161.820312 198.933594 157.675781 196.308594 C 156.238281 195.398438 154.628906 194.972656 153.050781 195.007812 Z M 153.050781 195.007812 "/>
</g>
</svg>
