<?xml version="1.0" encoding="UTF-8"?>
<svg xmlns="http://www.w3.org/2000/svg" xmlns:xlink="http://www.w3.org/1999/xlink" width="320pt" height="320pt" viewBox="0 0 320 320" version="1.1">
<g id="surface0">
<path style=" stroke:none;fill-rule:nonzero;fill:#ffffff;fill-opacity:1;" d="M 161.175781 168.324219 L 161.125 169.125 L 160.375 169.125 L 160 203 C 160 208.441406 159.984375 224.273438 159.984375 227.550781 C 160.628906 228.570312 161.023438 229.417969 161.675781 230.125 C 162.769531 231.324219 163.945312 232.492188 164.773438 233.800781 C 165.0625 234.253906 165.144531 234.679688 165.300781 235.101562 C 162.640625 235.152344 160.296875 235.589844 157.875 237.125 C 151.207031 241.347656 150.632812 250.1875 154.550781 256.375 C 156.832031 259.976562 160.0625 262.203125 163.625 262.925781 C 167.1875 263.648438 171.046875 262.875 174.601562 260.625 C 179.429688 257.566406 182.160156 252.558594 181.449219 246.875 C 180.867188 242.441406 177.882812 237.476562 175.851562 233.75 L 175.851562 233.726562 C 175.246094 232.6875 174.453125 231.28125 174.175781 230.050781 C 174.035156 229.433594 174.039062 228.882812 174.175781 228.425781 C 174.3125 227.964844 174.566406 227.570312 175.148438 227.199219 C 175.726562 226.835938 176.210938 226.765625 176.726562 226.851562 C 177.238281 226.933594 177.789062 227.214844 178.324219 227.625 C 179.398438 228.449219 180.378906 229.800781 180.976562 230.824219 L 181 230.851562 C 183.542969 234.867188 186.847656 239.636719 191.449219 241.949219 C 195.976562 244.167969 200.789062 243.722656 204.976562 241.074219 C 208.628906 238.761719 211.101562 235.6875 212.023438 232.199219 C 212.949219 228.710938 212.300781 224.851562 209.925781 221.101562 C 208 218.058594 205.105469 215.652344 201.824219 214.523438 C 198.546875 213.398438 194.859375 213.589844 191.523438 215.699219 C 189.007812 217.292969 187.433594 219.347656 186.175781 221.898438 C 185.558594 221.332031 184.953125 220.78125 184.476562 220.023438 C 183.394531 218.316406 183.113281 216.320312 182.199219 214.875 C 181.699219 214.085938 180.882812 213.570312 180.074219 213.125 C 179.28125 212.6875 178.46875 212.347656 178.023438 212.125 L 178 212.101562 L 176.351562 211.273438 L 176.773438 191.675781 C 176.894531 186.597656 176.363281 181.066406 173.550781 176.625 C 171.199219 172.910156 166.519531 169.355469 161.976562 168.523438 L 161.976562 168.324219 L 161.273438 168.324219 L 161.175781 168.324219 L 161.175781 168.324219 Z M 161.175781 168.324219 "/>
<path style=" stroke:none;fill-rule:nonzero;fill:#000000;fill-opacity:1;" d="M 161.175781 169.125 L 160.976562 204.300781 L 160 203.800781 L 160 226.976562 C 160.027344 227.023438 160.046875 227.078125 160.074219 227.125 C 160.621094 227.984375 161.574219 228.8125 162.273438 229.574219 C 163.351562 230.753906 164.558594 231.96875 165.449219 233.375 C 165.945312 234.15625 166.316406 234.898438 166.449219 235.800781 C 163.320312 235.699219 160.960938 236.117188 158.300781 237.800781 C 152.042969 241.761719 151.507812 250.082031 155.226562 255.949219 C 159.582031 262.832031 167.371094 264.257812 174.175781 259.949219 C 178.789062 257.027344 181.320312 252.359375 180.648438 246.976562 C 180.105469 242.828125 177.195312 237.871094 175.148438 234.125 C 173.941406 232.042969 171.832031 228.359375 174.726562 226.523438 C 177.617188 224.691406 180.417969 228.265625 181.675781 230.425781 C 184.203125 234.414062 187.457031 239.042969 191.800781 241.226562 C 196.09375 243.328125 200.5625 242.925781 204.550781 240.398438 C 211.589844 235.941406 213.808594 228.722656 209.25 221.523438 C 205.585938 215.734375 198.207031 212.414062 191.949219 216.375 C 189.210938 218.109375 187.601562 220.222656 186.324219 223.226562 C 185.289062 222.457031 184.492188 221.542969 183.800781 220.449219 C 182.609375 218.574219 182.269531 216.472656 181.523438 215.300781 C 180.832031 214.207031 178.613281 213.308594 177.648438 212.824219 L 175.550781 211.75 L 175.976562 191.648438 C 176.09375 186.644531 175.550781 181.273438 172.875 177.050781 C 170.546875 173.375 165.554688 169.640625 161.175781 169.125 Z M 168 214.550781 C 168.65625 214.570312 169.277344 214.824219 169.675781 215.449219 C 170.46875 216.703125 169.796875 217.90625 168.625 218.648438 C 167.453125 219.394531 165.96875 219.453125 165.125 218.125 C 164.429688 217.027344 165.054688 215.769531 166.148438 215.074219 C 166.660156 214.753906 167.34375 214.527344 168 214.550781 Z M 198.675781 220.523438 C 201.261719 220.59375 203.769531 221.878906 205.226562 224.175781 C 207.75 228.164062 206.816406 233.25 202.75 235.824219 C 198.917969 238.253906 193.878906 237.058594 191.449219 233.226562 C 188.972656 229.3125 190.339844 224.175781 194.175781 221.75 C 195.554688 220.878906 197.125 220.484375 198.675781 220.523438 Z M 166.898438 240.875 C 169.53125 240.933594 172.082031 242.253906 173.601562 244.648438 C 176.226562 248.796875 174.769531 253.773438 170.699219 256.351562 C 167.179688 258.578125 161.929688 257.191406 159.75 253.75 C 157.222656 249.757812 158.128906 244.800781 162.273438 242.175781 C 163.710938 241.265625 165.320312 240.839844 166.898438 240.875 Z M 166.898438 240.875 "/>
<path style="fill:none;stroke-width:0.8;stroke-linecap:butt;stroke-linejoin:miter;stroke:#000000;stroke-opacity:1;stroke-miterlimit:4;" d="M 160 160 L 160 232.300781 "/>
</g>
</svg>
