<?xml version="1.0" encoding="UTF-8"?>
<svg xmlns="http://www.w3.org/2000/svg" xmlns:xlink="http://www.w3.org/1999/xlink" width="320pt" height="320pt" viewBox="0 0 320 320" version="1.1">
<g id="surface0">
<path style=" stroke:none;fill-rule:nonzero;fill:#ffffff;fill-opacity:1;" d="M 185.898438 161.324219 L 185.574219 161.5 L 135 186.976562 L 134.925781 187 L 134.898438 187.050781 L 128.398438 193.523438 L 128.375 193.574219 L 128.324219 193.625 L 122.050781 204.5 L 122 204.574219 L 122 204.699219 L 122 223.699219 L 122 223.75 L 122.023438 223.800781 L 122.949219 226.949219 L 123 227.101562 L 123.148438 227.175781 L 146.550781 238.898438 L 146.574219 238.898438 L 146.625 238.925781 L 148.550781 239.523438 L 148.800781 239.675781 L 149 239.773438 L 149.199219 239.675781 L 201.398438 213.148438 L 201.625 213.023438 L 201.601562 212.773438 L 200.851562 187.324219 L 200.851562 187.226562 L 200.800781 187.125 L 186.101562 161.648438 L 185.898438 161.324219 Z M 185.898438 161.324219 "/>
<path style="fill:none;stroke-width:0.8;stroke-linecap:butt;stroke-linejoin:miter;stroke:#000000;stroke-opacity:1;stroke-miterlimit:4;" d="M 124.457031 201.125 L 122.398438 204.6875 M 122.398438 209.4375 L 126.585938 202.1875 M 128.714844 203.253906 L 122.398438 214.1875 M 122.398438 218.9375 L 130.84375 204.316406 M 132.96875 205.378906 L 122.398438 223.6875 M 123.328125 226.828125 L 135.097656 206.445312 M 137.226562 207.507812 L 125.457031 227.894531 M 127.585938 228.957031 L 139.355469 208.574219 M 141.480469 209.636719 L 129.714844 230.019531 M 131.839844 231.085938 L 143.609375 210.699219 M 145.738281 211.765625 L 133.96875 232.148438 M 136.097656 233.210938 L 147.867188 212.828125 M 148.667969 216.1875 L 138.226562 234.277344 M 140.351562 235.339844 L 148.667969 220.9375 M 148.667969 225.6875 L 142.480469 236.40625 M 144.609375 237.46875 L 148.667969 230.4375 M 148.667969 235.1875 L 146.738281 238.53125 "/>
<path style="fill:none;stroke-width:0.8;stroke-linecap:butt;stroke-linejoin:miter;stroke:#000000;stroke-opacity:1;stroke-miterlimit:4;" d="M 128.683594 193.8125 L 124.460938 201.125 M 126.589844 202.191406 L 135.171875 187.324219 M 136.734375 189.363281 L 128.714844 203.253906 M 130.84375 204.316406 L 138.007812 191.910156 M 139.28125 194.453125 L 132.972656 205.382812 M 135.101562 206.445312 L 140.554688 197 M 141.828125 199.546875 L 137.230469 207.507812 M 139.355469 208.574219 L 143.097656 202.089844 M 144.371094 204.636719 L 141.484375 209.636719 M 143.613281 210.703125 L 145.644531 207.179688 M 146.917969 209.726562 L 145.742188 211.765625 M 147.867188 212.828125 L 148.191406 212.273438 "/>
<path style="fill:none;stroke-width:0.8;stroke-linecap:butt;stroke-linejoin:miter;stroke:#000000;stroke-opacity:1;stroke-miterlimit:4;" d="M 160 160 L 160 174.511719 L 174.648438 200.238281 M 147.214844 210.324219 L 148.84375 213.140625 M 153.144531 210.992188 L 138.433594 185.511719 M 142.734375 183.363281 L 157.445312 208.839844 M 161.746094 206.691406 L 147.035156 181.210938 M 151.335938 179.058594 L 166.046875 204.539062 M 170.347656 202.390625 L 155.636719 176.910156 M 178.949219 198.089844 L 164.238281 172.609375 M 168.539062 170.457031 L 183.25 195.9375 M 187.550781 193.789062 L 172.839844 168.308594 M 177.140625 166.15625 L 191.855469 191.636719 M 196.15625 189.488281 L 181.445312 164.007812 M 185.746094 161.855469 L 200.457031 187.335938 "/>
<path style="fill:none;stroke-width:0.8;stroke-linecap:butt;stroke-linejoin:miter;stroke:#000000;stroke-opacity:1;stroke-miterlimit:4;" d="M 150.996094 212.066406 L 148.667969 216.09375 M 148.667969 219.261719 L 153.566406 210.78125 M 156.136719 209.496094 L 148.667969 222.429688 M 148.667969 225.59375 L 158.707031 208.210938 M 161.273438 206.925781 L 148.667969 228.761719 M 148.667969 231.925781 L 163.84375 205.640625 M 166.414062 204.355469 L 148.667969 235.09375 M 148.667969 238.261719 L 168.984375 203.070312 M 171.554688 201.785156 L 150.234375 238.714844 M 152.804688 237.429688 L 174.125 200.5 M 176.695312 199.214844 L 155.375 236.144531 M 157.945312 234.859375 L 179.265625 197.933594 M 181.835938 196.648438 L 160.515625 233.574219 M 163.085938 232.289062 L 184.40625 195.363281 M 186.976562 194.078125 L 165.65625 231.003906 M 168.226562 229.71875 L 189.546875 192.792969 M 192.117188 191.507812 L 170.796875 228.4375 M 173.367188 227.152344 L 194.6875 190.222656 M 197.257812 188.9375 L 175.933594 225.867188 M 178.503906 224.582031 L 199.828125 187.652344 M 201.207031 188.425781 L 181.074219 223.296875 M 183.644531 222.011719 L 201.207031 191.59375 M 201.207031 194.761719 L 186.214844 220.726562 M 188.785156 219.441406 L 201.207031 197.925781 M 201.207031 201.09375 L 191.355469 218.15625 M 193.925781 216.871094 L 201.207031 204.261719 M 201.207031 207.425781 L 196.496094 215.585938 M 199.066406 214.300781 L 201.207031 210.59375 M 148.667969 239.132812 L 149.007812 239.328125 M 150.707031 238.480469 L 148.667969 237.304688 M 148.667969 235.476562 L 152.402344 237.632812 M 154.101562 236.78125 L 148.667969 233.648438 M 148.667969 231.820312 L 155.796875 235.933594 M 157.492188 235.085938 L 148.667969 229.992188 M 148.667969 228.164062 L 159.191406 234.238281 M 160.886719 233.390625 L 148.667969 226.335938 M 148.667969 224.507812 L 162.585938 232.539062 M 164.28125 231.691406 L 148.667969 222.679688 M 148.667969 220.851562 L 165.980469 230.84375 M 167.675781 229.996094 L 148.667969 219.023438 M 148.667969 217.195312 L 169.371094 229.148438 M 171.070312 228.296875 L 148.667969 215.367188 M 148.667969 213.539062 L 172.765625 227.449219 M 174.464844 226.601562 L 150.082031 212.523438 M 151.777344 211.675781 L 176.160156 225.753906 M 177.855469 224.90625 L 153.472656 210.828125 M 155.171875 209.980469 L 179.554688 224.054688 M 181.25 223.207031 L 156.867188 209.128906 M 158.566406 208.28125 L 182.949219 222.359375 M 184.644531 221.511719 L 160.261719 207.433594 M 161.957031 206.585938 L 186.339844 220.664062 M 188.039062 219.8125 L 163.65625 205.738281 M 165.351562 204.886719 L 189.734375 218.964844 M 191.433594 218.117188 L 167.050781 204.039062 M 168.746094 203.191406 L 193.128906 217.269531 M 194.824219 216.421875 L 170.445312 202.34375 M 172.140625 201.496094 L 196.523438 215.570312 M 198.21875 214.722656 L 173.835938 200.644531 M 175.535156 199.796875 L 199.917969 213.875 M 201.207031 212.792969 L 177.230469 198.949219 M 178.929688 198.101562 L 201.207031 210.964844 M 201.207031 209.132812 L 180.625 197.253906 M 182.320312 196.402344 L 201.207031 207.304688 M 201.207031 205.476562 L 184.019531 195.554688 M 185.714844 194.707031 L 201.207031 203.648438 M 201.207031 201.820312 L 187.414062 193.859375 M 189.109375 193.007812 L 201.207031 199.992188 M 201.207031 198.164062 L 190.808594 192.160156 M 192.503906 191.3125 L 201.207031 196.335938 M 201.207031 194.507812 L 194.199219 190.464844 M 195.898438 189.617188 L 201.207031 192.679688 M 201.207031 190.851562 L 197.59375 188.765625 M 199.292969 187.917969 L 201.207031 189.023438 M 201.207031 187.195312 L 200.988281 187.070312 "/>
</g>
</svg>
