<?xml version="1.0" encoding="UTF-8"?>
<svg xmlns="http://www.w3.org/2000/svg" xmlns:xlink="http://www.w3.org/1999/xlink" width="320pt" height="320pt" viewBox="0 0 320 320" version="1.1">
<g id="surface0">
<path style="fill:none;stroke-width:0.8;stroke-linecap:butt;stroke-linejoin:miter;stroke:#000000;stroke-opacity:1;stroke-miterlimit:4;" d="M 160 160 L 160 168.066406 "/>
<path style="fill-rule:nonzero;fill:#ffffff;fill-opacity:1;stroke-width:0.8;stroke-linecap:round;stroke-linejoin:round;stroke:#000000;stroke-opacity:1;stroke-miterlimit:4;" d="M 147.492188 183.964844 L 148.566406 182.171875 L 148.480469 180.019531 L 148.164062 178.132812 L 147.449219 177.6875 L 146.285156 178.269531 L 143.90625 180.332031 L 143.5 181.675781 L 143.457031 183.382812 L 143.863281 184.144531 L 144.21875 184.722656 "/>
<path style="fill-rule:nonzero;fill:#ffffff;fill-opacity:1;stroke-width:0.8;stroke-linecap:round;stroke-linejoin:round;stroke:#000000;stroke-opacity:1;stroke-miterlimit:4;" d="M 161.75 175.667969 L 162.515625 174.144531 L 162.605469 172.351562 L 162.335938 170.734375 L 161.570312 169.390625 L 160.988281 168.402344 L 160.136719 167.90625 L 158.65625 168.808594 L 158.074219 170.375 L 157.714844 173.425781 L 157.804688 175.578125 L 158.339844 176.339844 "/>
<path style="fill-rule:nonzero;fill:#ffffff;fill-opacity:1;stroke-width:0.8;stroke-linecap:round;stroke-linejoin:round;stroke:#000000;stroke-opacity:1;stroke-miterlimit:4;" d="M 148.300781 189.972656 L 148.746094 188.71875 L 148.617188 186.875 L 148.347656 184.679688 L 147.449219 183.875 L 146.285156 183.828125 L 144.984375 184.144531 L 143.769531 185.039062 L 143.097656 186.789062 L 143.140625 188.71875 L 143.277344 190.554688 L 143.816406 191.183594 "/>
<path style="fill-rule:nonzero;fill:#ffffff;fill-opacity:1;stroke-width:0.8;stroke-linecap:round;stroke-linejoin:round;stroke:#000000;stroke-opacity:1;stroke-miterlimit:4;" d="M 162.558594 210.246094 L 163.320312 209.164062 L 163.902344 202.886719 L 163.945312 199.839844 L 164.039062 197.414062 L 164.171875 196.160156 L 164.082031 193.113281 L 164.351562 192.125 L 164.578125 190.734375 L 164.667969 189.253906 L 164.21875 187.011719 L 163.992188 184.144531 L 163.546875 180.644531 L 163.050781 178.269531 L 162.648438 176.476562 L 161.660156 175.578125 L 159.914062 175.445312 L 158.746094 175.980469 L 157.582031 177.011719 L 157.175781 179.570312 L 156.640625 185.128906 L 156.28125 188.492188 L 157.039062 190.644531 L 156.371094 192.886719 L 155.160156 196.339844 L 153.097656 202.351562 L 152.648438 203.558594 L 151.621094 201.632812 L 150.808594 198.855469 L 150.363281 196.429688 L 149.644531 193.15625 L 149.242188 191.316406 L 148.527344 190.019531 L 147.492188 189.792969 L 145.699219 190.417969 L 143.5 191.316406 L 142.875 192.753906 L 141.890625 198.3125 L 141.4375 202.527344 L 141.035156 206.023438 L 140.945312 208.222656 L 140.8125 210.601562 L 141.125 212.308594 "/>
<path style="fill-rule:nonzero;fill:#ffffff;fill-opacity:1;stroke-width:0.8;stroke-linecap:round;stroke-linejoin:round;stroke:#000000;stroke-opacity:1;stroke-miterlimit:4;" d="M 162.871094 217.59375 L 163.1875 215.398438 L 163.320312 213.109375 L 163.230469 211.140625 L 163.050781 210.375 L 160.09375 209.566406 L 156.324219 209.027344 L 152.960938 209.34375 L 150.945312 209.34375 L 148.4375 209.433594 L 144.757812 210.464844 L 141.621094 211.496094 L 140.8125 212.886719 L 140.589844 214.546875 L 140.632812 216.160156 "/>
<path style="fill-rule:nonzero;fill:#ffffff;fill-opacity:1;stroke-width:0.8;stroke-linecap:round;stroke-linejoin:round;stroke:#000000;stroke-opacity:1;stroke-miterlimit:4;" d="M 171.167969 204.902344 L 171.570312 203.019531 L 171.570312 200.417969 L 171.078125 199.839844 L 170.363281 199.792969 L 169.507812 199.523438 L 168.703125 199.882812 L 167.761719 199.792969 L 167.308594 201.71875 L 166.234375 201.765625 L 167.492188 204.996094 "/>
<path style="fill-rule:nonzero;fill:#ffffff;fill-opacity:1;stroke-width:0.8;stroke-linecap:round;stroke-linejoin:round;stroke:#000000;stroke-opacity:1;stroke-miterlimit:4;" d="M 135.652344 207.191406 L 136.058594 205.847656 L 135.519531 203.738281 L 135.027344 202.125 L 134.398438 201.453125 L 133.367188 201.453125 L 132.15625 201.992188 L 131.441406 202.976562 L 131.800781 204.902344 L 132.246094 206.925781 L 133.1875 207.820312 "/>
<path style="fill-rule:nonzero;fill:#ffffff;fill-opacity:1;stroke-width:0.8;stroke-linecap:round;stroke-linejoin:round;stroke:#000000;stroke-opacity:1;stroke-miterlimit:4;" d="M 155.519531 229.566406 L 160.449219 229.160156 L 162.558594 228.582031 L 163.726562 227.863281 L 165.742188 225.128906 L 167.941406 221.765625 L 169.644531 219.253906 L 171.214844 216.792969 L 171.660156 215.578125 L 171.792969 212.527344 L 171.660156 206.785156 L 171.660156 205.039062 L 170.183594 204.722656 L 167.941406 204.769531 L 167.085938 205.175781 L 165.96875 213.785156 L 164.351562 216.070312 L 162.558594 217.867188 L 160.183594 219.296875 L 156.054688 219.570312 "/>
<path style="fill-rule:nonzero;fill:#ffffff;fill-opacity:1;stroke-width:0.8;stroke-linecap:round;stroke-linejoin:round;stroke:#000000;stroke-opacity:1;stroke-miterlimit:4;" d="M 149.511719 230.019531 L 147.359375 230.421875 L 144.757812 229.972656 L 142.695312 229.160156 L 140.988281 227.28125 L 139.734375 225.21875 L 137.316406 221.40625 L 136.195312 219.210938 L 133.90625 213.335938 L 132.832031 210.464844 L 132.199219 208.582031 L 132.15625 208.042969 L 134.441406 207.597656 L 136.285156 206.964844 L 137.492188 210.019531 L 138.347656 213.109375 L 139.421875 214.90625 L 141.976562 217.640625 L 143.457031 218.808594 L 146.375 219.34375 L 148.835938 219.523438 "/>
<path style="fill-rule:nonzero;fill:#ffffff;fill-opacity:1;stroke-width:0.8;stroke-linecap:round;stroke-linejoin:round;stroke:#000000;stroke-opacity:1;stroke-miterlimit:4;" d="M 157.128906 224.277344 L 156.953125 226.921875 L 156.144531 228.941406 L 154.976562 230.105469 L 153.230469 230.554688 L 151.078125 230.554688 L 149.46875 229.972656 L 148.566406 228.851562 L 148.074219 226.921875 L 148.164062 223.5625 L 148.347656 221.320312 L 148.617188 219.703125 L 149.824219 218.402344 L 151.078125 217.414062 L 153.949219 217.507812 L 155.609375 218.761719 L 156.640625 220.957031 L 157.128906 224.277344 Z M 157.128906 224.277344 "/>
</g>
</svg>
