<?xml version="1.0" encoding="UTF-8"?>
<svg xmlns="http://www.w3.org/2000/svg" xmlns:xlink="http://www.w3.org/1999/xlink" width="320pt" height="320pt" viewBox="0 0 320 320" version="1.1">
<g id="surface0">
<path style="fill:none;stroke-width:0.8;stroke-linecap:butt;stroke-linejoin:miter;stroke:#000000;stroke-opacity:1;stroke-miterlimit:4;" d="M 160 153.777344 L 160 163.628906 "/>
<path style="fill-rule:nonzero;fill:#ffffff;fill-opacity:1;stroke-width:0.8;stroke-linecap:butt;stroke-linejoin:miter;stroke:#000000;stroke-opacity:1;stroke-miterlimit:4;" d="M 126.578125 212.738281 L 156.496094 204.277344 L 156.554688 220.992188 L 146.132812 227.992188 L 146.140625 230.777344 L 158.667969 227.949219 L 161.453125 227.929688 L 174 230.671875 L 173.992188 227.886719 L 163.519531 220.957031 L 163.460938 204.242188 L 193.4375 212.496094 L 193.421875 208.316406 L 163.402344 187.527344 L 163.386719 169.453125 L 163.15625 169.085938 C 162.820312 166.015625 161.511719 163.730469 159.929688 163.722656 C 158.355469 163.714844 157.019531 165.984375 156.652344 169.046875 L 156.417969 169.414062 L 156.4375 187.554688 L 126.5625 208.550781 L 126.578125 212.730469 L 126.578125 212.730469 "/>
</g>
</svg>
