<?xml version="1.0" encoding="UTF-8"?>
<svg xmlns="http://www.w3.org/2000/svg" xmlns:xlink="http://www.w3.org/1999/xlink" width="320pt" height="320pt" viewBox="0 0 320 320" version="1.1">
<g id="surface0">
<path style=" stroke:none;fill-rule:nonzero;fill:#ffffff;fill-opacity:1;" d="M 171.039062 252.222656 L 247.582031 252.222656 L 247.582031 280 L 171.039062 280 L 171.039062 252.222656 Z M 171.039062 252.222656 "/>
<path style="fill-rule:nonzero;fill:#ffffff;fill-opacity:1;stroke-width:0.8;stroke-linecap:butt;stroke-linejoin:miter;stroke:#000000;stroke-opacity:1;stroke-miterlimit:4;" d="M 171.039062 252.222656 L 247.582031 252.222656 L 247.582031 280 L 171.039062 280 L 171.039062 252.222656 Z M 171.039062 252.222656 "/>
<path style="fill-rule:nonzero;fill:#ffffff;fill-opacity:1;stroke-width:0.8;stroke-linecap:butt;stroke-linejoin:miter;stroke:#000000;stroke-opacity:1;stroke-miterlimit:4;" d="M 171.039062 280 L 247.582031 280 L 247.582031 287.9375 L 171.039062 287.9375 L 171.039062 280 Z M 171.039062 280 "/>
<path style=" stroke:none;fill-rule:nonzero;fill:#ffffff;fill-opacity:1;" d="M 171.039062 287.9375 L 247.582031 287.9375 L 247.582031 295.875 L 171.039062 295.875 L 171.039062 287.9375 Z M 171.039062 287.9375 "/>
<path style="fill-rule:nonzero;fill:#ffffff;fill-opacity:1;stroke-width:0.8;stroke-linecap:butt;stroke-linejoin:miter;stroke:#000000;stroke-opacity:1;stroke-miterlimit:4;" d="M 171.039062 287.9375 L 247.582031 287.9375 L 247.582031 295.875 L 171.039062 295.875 L 171.039062 287.9375 Z M 171.039062 287.9375 "/>
<path style="fill-rule:nonzero;fill:#ffffff;fill-opacity:1;stroke-width:0.8;stroke-linecap:butt;stroke-linejoin:miter;stroke:#000000;stroke-opacity:1;stroke-miterlimit:4;" d="M 201.945312 250.238281 L 255.519531 250.238281 L 255.519531 258.171875 L 201.945312 258.171875 L 201.945312 250.238281 Z M 201.945312 250.238281 "/>
<path style="fill-rule:nonzero;fill:#ffffff;fill-opacity:1;stroke-width:0.8;stroke-linecap:butt;stroke-linejoin:miter;stroke:#000000;stroke-opacity:1;stroke-miterlimit:4;" d="M 201.945312 250.238281 L 255.519531 250.238281 L 255.519531 258.171875 L 201.945312 258.171875 L 201.945312 250.238281 Z M 201.945312 250.238281 "/>
<path style="fill:none;stroke-width:0.8;stroke-linecap:butt;stroke-linejoin:miter;stroke:#000000;stroke-opacity:1;stroke-miterlimit:4;" d="M 223.730469 249.734375 L 223.730469 193.601562 L 159.996094 193.601562 L 159.996094 159.246094 "/>
<path style="fill:none;stroke-width:0.8;stroke-linecap:butt;stroke-linejoin:miter;stroke:#000000;stroke-opacity:1;stroke-miterlimit:4;" d="M 179.832031 270.542969 L 180.921875 268.90625 L 182.015625 266.722656 M 183.652344 261.808594 L 180.375 271.636719 L 180.375 272.730469 L 180.921875 273.273438 L 182.015625 273.273438 L 183.105469 272.730469 L 183.652344 272.183594 L 184.742188 270.542969 M 180.375 266.175781 L 184.199219 266.175781 "/>
<path style="fill:none;stroke-width:0.8;stroke-linecap:butt;stroke-linejoin:miter;stroke:#000000;stroke-opacity:1;stroke-miterlimit:4;" d="M 185.289062 272.183594 L 186.382812 271.636719 L 186.929688 271.089844 L 187.472656 270 L 187.472656 268.90625 L 186.929688 268.359375 L 186.382812 268.359375 L 185.289062 268.90625 L 184.742188 270 L 184.742188 271.636719 L 185.289062 272.730469 L 186.382812 273.273438 L 187.472656 273.273438 L 188.566406 272.730469 L 189.113281 272.183594 L 190.203125 270.542969 "/>
<path style="fill:none;stroke-width:0.8;stroke-linecap:butt;stroke-linejoin:miter;stroke:#000000;stroke-opacity:1;stroke-miterlimit:4;" d="M 190.203125 270.542969 L 191.296875 268.90625 L 192.386719 268.359375 L 192.933594 268.90625 L 192.933594 269.453125 L 192.386719 271.636719 L 191.84375 273.273438 M 192.386719 271.636719 L 192.933594 270.542969 L 194.027344 268.90625 L 195.117188 268.359375 L 196.210938 268.359375 L 196.757812 268.90625 L 196.757812 269.453125 L 196.210938 271.636719 L 195.664062 273.273438 M 196.210938 271.636719 L 196.757812 270.542969 L 197.847656 268.90625 L 198.941406 268.359375 L 200.03125 268.359375 L 200.578125 268.90625 L 200.578125 270 L 200.03125 271.636719 L 200.03125 272.730469 L 200.578125 273.273438 L 201.125 273.273438 L 202.214844 272.730469 L 202.761719 272.183594 L 203.855469 270.542969 "/>
<path style="fill:none;stroke-width:0.8;stroke-linecap:butt;stroke-linejoin:miter;stroke:#000000;stroke-opacity:1;stroke-miterlimit:4;" d="M 203.855469 270.542969 L 204.945312 268.90625 L 205.492188 267.816406 L 204.945312 270 L 201.667969 279.828125 M 204.945312 270 L 205.492188 268.90625 L 206.582031 268.359375 L 207.675781 268.359375 L 208.769531 268.90625 L 209.3125 270 L 209.3125 271.089844 L 208.769531 272.183594 L 208.222656 272.730469 L 207.128906 273.273438 M 204.945312 272.730469 L 206.039062 273.273438 L 207.675781 273.273438 L 209.3125 272.730469 L 210.40625 272.183594 L 212.042969 270.542969 "/>
<path style="fill:none;stroke-width:0.8;stroke-linecap:butt;stroke-linejoin:miter;stroke:#000000;stroke-opacity:1;stroke-miterlimit:4;" d="M 212.042969 270.542969 L 213.136719 268.90625 L 214.773438 266.175781 L 215.320312 265.085938 L 215.867188 263.445312 L 215.867188 262.355469 L 215.320312 261.808594 L 214.226562 262.355469 L 213.679688 263.445312 L 213.136719 265.628906 L 212.589844 269.453125 L 212.589844 272.730469 L 213.136719 273.273438 L 213.679688 273.273438 L 214.773438 272.730469 L 215.320312 272.183594 L 216.410156 270.542969 "/>
<path style="fill:none;stroke-width:0.8;stroke-linecap:butt;stroke-linejoin:miter;stroke:#000000;stroke-opacity:1;stroke-miterlimit:4;" d="M 221.324219 270 L 220.78125 268.90625 L 219.6875 268.359375 L 218.59375 268.359375 L 217.503906 268.90625 L 216.957031 269.453125 L 216.410156 270.542969 L 216.410156 271.636719 L 216.957031 272.730469 L 218.050781 273.273438 L 219.140625 273.273438 L 220.234375 272.730469 L 220.78125 271.636719 L 221.871094 268.359375 L 221.324219 271.089844 L 221.324219 272.730469 L 221.871094 273.273438 L 222.417969 273.273438 L 223.507812 272.730469 L 224.054688 272.183594 L 225.148438 270.542969 "/>
<path style="fill:none;stroke-width:0.8;stroke-linecap:butt;stroke-linejoin:miter;stroke:#000000;stroke-opacity:1;stroke-miterlimit:4;" d="M 225.148438 270.542969 L 226.238281 268.90625 L 227.332031 266.722656 M 228.96875 261.808594 L 225.691406 271.636719 L 225.691406 272.730469 L 226.238281 273.273438 L 227.332031 273.273438 L 228.421875 272.730469 L 228.96875 272.183594 L 230.0625 270.542969 M 225.691406 266.175781 L 229.515625 266.175781 "/>
<path style="fill:none;stroke-width:0.8;stroke-linecap:butt;stroke-linejoin:miter;stroke:#000000;stroke-opacity:1;stroke-miterlimit:4;" d="M 230.605469 272.183594 L 231.699219 271.636719 L 232.246094 271.089844 L 232.792969 270 L 232.792969 268.90625 L 232.246094 268.359375 L 231.699219 268.359375 L 230.605469 268.90625 L 230.0625 270 L 230.0625 271.636719 L 230.605469 272.730469 L 231.699219 273.273438 L 232.792969 273.273438 L 233.882812 272.730469 L 234.429688 272.183594 L 235.519531 270.542969 "/>
</g>
</svg>
