<?xml version="1.0" encoding="UTF-8"?>
<svg xmlns="http://www.w3.org/2000/svg" xmlns:xlink="http://www.w3.org/1999/xlink" width="320pt" height="320pt" viewBox="0 0 320 320" version="1.1">
<g id="surface0">
<path style="fill:none;stroke-width:0.8;stroke-linecap:butt;stroke-linejoin:miter;stroke:#000000;stroke-opacity:1;stroke-miterlimit:4;" d="M 166.28125 166.371094 L 160.007812 166.371094 L 160 165.097656 L 160 160 "/>
<path style="fill-rule:nonzero;fill:#ffffff;fill-opacity:1;stroke-width:0.8;stroke-linecap:round;stroke-linejoin:round;stroke:#000000;stroke-opacity:1;stroke-miterlimit:4;" d="M 208.246094 143.164062 L 203.226562 139.558594 C 203.226562 139.558594 200.765625 138.84375 198.925781 139.238281 C 197.101562 139.644531 192.804688 141.398438 192.804688 141.398438 L 184.757812 145.238281 L 180.300781 147.71875 L 176.480469 150.199219 L 175.050781 152.519531 L 174.808594 154.601562 L 174.808594 157.324219 L 178.386719 156.199219 L 179.984375 157.007812 L 182.929688 152.921875 L 189.621094 149.5625 L 196.9375 146.527344 L 199.730469 147.003906 L 202.992188 149.644531 "/>
<path style="fill-rule:nonzero;fill:#ffffff;fill-opacity:1;stroke-width:0.8;stroke-linecap:round;stroke-linejoin:round;stroke:#000000;stroke-opacity:1;stroke-miterlimit:4;" d="M 194.476562 177.566406 L 191.527344 176.847656 L 187.46875 176.847656 L 177.273438 170.605469 L 175.125 168.125 L 174.648438 166.285156 L 172.574219 164.285156 L 170.742188 163.167969 L 169.3125 164.285156 L 166.445312 163.964844 L 165.089844 164.285156 L 165.011719 166.445312 L 165.253906 168.683594 L 168.996094 171.5625 L 171.542969 172.765625 L 184.996094 182.53125 L 188.339844 184.523438 L 192.878906 184.523438 L 196.386719 184.046875 "/>
<path style="fill-rule:nonzero;fill:#ffffff;fill-opacity:1;stroke-width:0.8;stroke-linecap:round;stroke-linejoin:round;stroke:#000000;stroke-opacity:1;stroke-miterlimit:4;" d="M 235 154.125 L 242.804688 156.367188 L 247.820312 157.402344 L 250.046875 158.921875 L 250.046875 160.359375 C 250.046875 160.359375 249.8125 161.484375 249.492188 161.484375 C 249.175781 161.484375 247.65625 161.804688 247.65625 161.804688 L 243.996094 161.804688 L 240.652344 161.5625 L 236.597656 161.722656 L 233.402344 161.882812 "/>
<path style="fill-rule:nonzero;fill:#ffffff;fill-opacity:1;stroke-width:0.8;stroke-linecap:round;stroke-linejoin:round;stroke:#000000;stroke-opacity:1;stroke-miterlimit:4;" d="M 199.5625 175.328125 L 195.429688 177.007812 L 194.3125 177.726562 L 195.507812 180.925781 L 196.386719 183.96875 L 198.140625 185.648438 L 202.589844 185.085938 L 211.1875 183.566406 L 219.636719 181.5625 L 223.535156 178.847656 L 229.503906 168.203125 L 233.085938 162.285156 L 235.242188 157.722656 C 235.242188 157.722656 235.476562 155.5625 235.15625 154.527344 C 234.839844 153.484375 233.566406 152.199219 233.566406 152.199219 L 230.941406 150.84375 L 226.082031 150.28125 L 219.074219 149.644531 L 215.570312 147.804688 L 210.316406 143.878906 L 208.324219 143.238281 L 205.933594 144.761719 L 204.34375 146.523438 L 203.226562 148.199219 L 202.90625 149.878906 L 202.90625 150.601562 "/>
<path style="fill-rule:nonzero;fill:#ffffff;fill-opacity:1;stroke-width:0.8;stroke-linecap:round;stroke-linejoin:round;stroke:#000000;stroke-opacity:1;stroke-miterlimit:4;" d="M 210.160156 171.40625 L 207.769531 174.042969 L 203.863281 175.40625 L 199.648438 175.40625 L 196.785156 174.285156 L 194.554688 172.203125 L 192.238281 169.402344 L 190.890625 167.328125 L 189.695312 165.242188 L 189.777344 162.363281 L 191.207031 156.847656 L 194.710938 153.5625 L 199.011719 151.082031 L 202.441406 150.527344 L 206.101562 151.324219 L 209.441406 153.484375 L 211.90625 156.125 L 213.261719 159.328125 L 213.261719 163.242188 L 212.074219 167.722656 L 210.160156 171.40625 Z M 210.160156 171.40625 "/>
</g>
</svg>
