<?xml version="1.0" encoding="UTF-8"?>
<svg xmlns="http://www.w3.org/2000/svg" xmlns:xlink="http://www.w3.org/1999/xlink" width="320pt" height="320pt" viewBox="0 0 320 320" version="1.1">
<g id="surface0">
<path style="fill-rule:nonzero;fill:#ffffff;fill-opacity:1;stroke-width:0.8;stroke-linecap:round;stroke-linejoin:round;stroke:#000000;stroke-opacity:1;stroke-miterlimit:4;" d="M 102.703125 159.980469 L 217.296875 159.980469 L 194.378906 199.382812 L 125.621094 199.382812 L 102.703125 159.980469 Z M 102.703125 159.980469 "/>
<path style="fill:none;stroke-width:0.8;stroke-linecap:butt;stroke-linejoin:miter;stroke:#000000;stroke-opacity:1;stroke-miterlimit:4;" d="M 129.621094 168.984375 L 129.621094 168.355469 L 128.992188 167.726562 L 127.734375 167.726562 L 126.476562 168.355469 L 125.847656 168.984375 L 125.214844 170.242188 L 125.214844 171.503906 L 125.847656 172.761719 L 127.105469 173.390625 L 128.992188 173.390625 L 130.878906 172.132812 L 132.136719 170.242188 "/>
<path style="fill:none;stroke-width:0.8;stroke-linecap:butt;stroke-linejoin:miter;stroke:#000000;stroke-opacity:1;stroke-miterlimit:4;" d="M 135.914062 167.726562 L 134.65625 167.726562 L 133.394531 168.355469 L 132.765625 168.984375 L 132.136719 170.242188 L 132.136719 171.503906 L 132.765625 172.761719 L 134.023438 173.390625 L 135.285156 173.390625 L 136.542969 172.761719 L 137.171875 172.132812 L 137.800781 170.875 L 137.800781 169.613281 L 137.171875 168.355469 L 135.914062 167.726562 L 135.285156 168.355469 L 135.285156 169.613281 L 135.914062 170.875 L 137.171875 171.503906 L 139.058594 171.503906 L 140.316406 170.875 L 140.945312 170.242188 "/>
<path style="fill:none;stroke-width:0.8;stroke-linecap:butt;stroke-linejoin:miter;stroke:#000000;stroke-opacity:1;stroke-miterlimit:4;" d="M 140.945312 170.242188 L 142.203125 168.355469 L 143.464844 167.726562 L 144.09375 168.355469 L 144.09375 168.984375 L 143.464844 171.503906 L 142.832031 173.390625 M 143.464844 171.503906 L 144.09375 170.242188 L 145.351562 168.355469 L 146.609375 167.726562 L 147.867188 167.726562 L 148.496094 168.355469 L 148.496094 168.984375 L 147.867188 171.503906 L 147.238281 173.390625 M 147.867188 171.503906 L 148.496094 170.242188 L 149.753906 168.355469 L 151.011719 167.726562 L 152.273438 167.726562 L 152.902344 168.355469 L 152.902344 169.613281 L 152.273438 171.503906 L 152.273438 172.761719 L 152.902344 173.390625 L 153.53125 173.390625 L 154.789062 172.761719 L 155.417969 172.132812 L 156.675781 170.242188 "/>
<path style="fill:none;stroke-width:0.8;stroke-linecap:butt;stroke-linejoin:miter;stroke:#000000;stroke-opacity:1;stroke-miterlimit:4;" d="M 156.675781 170.242188 L 157.933594 168.355469 L 159.191406 167.726562 L 159.820312 168.355469 L 159.820312 168.984375 L 159.191406 171.503906 L 158.5625 173.390625 M 159.191406 171.503906 L 159.820312 170.242188 L 161.082031 168.355469 L 162.339844 167.726562 L 163.597656 167.726562 L 164.226562 168.355469 L 164.226562 168.984375 L 163.597656 171.503906 L 162.96875 173.390625 M 163.597656 171.503906 L 164.226562 170.242188 L 165.484375 168.355469 L 166.742188 167.726562 L 168 167.726562 L 168.628906 168.355469 L 168.628906 169.613281 L 168 171.503906 L 168 172.761719 L 168.628906 173.390625 L 169.257812 173.390625 L 170.519531 172.761719 L 171.148438 172.132812 L 172.40625 170.242188 "/>
<path style="fill:none;stroke-width:0.8;stroke-linecap:butt;stroke-linejoin:miter;stroke:#000000;stroke-opacity:1;stroke-miterlimit:4;" d="M 174.292969 164.582031 L 174.292969 165.210938 L 174.921875 165.210938 L 174.921875 164.582031 L 174.292969 164.582031 M 172.40625 170.242188 L 173.664062 167.726562 L 172.40625 171.503906 L 172.40625 172.761719 L 173.035156 173.390625 L 173.664062 173.390625 L 174.921875 172.761719 L 175.550781 172.132812 L 176.808594 170.242188 "/>
<path style="fill:none;stroke-width:0.8;stroke-linecap:butt;stroke-linejoin:miter;stroke:#000000;stroke-opacity:1;stroke-miterlimit:4;" d="M 176.808594 170.242188 L 178.070312 168.355469 L 179.328125 165.839844 M 181.214844 160.175781 L 177.4375 171.503906 L 177.4375 172.761719 L 178.070312 173.390625 L 179.328125 173.390625 L 180.585938 172.761719 L 181.214844 172.132812 L 182.472656 170.242188 M 177.4375 165.210938 L 181.84375 165.210938 "/>
<path style="fill:none;stroke-width:0.8;stroke-linecap:butt;stroke-linejoin:miter;stroke:#000000;stroke-opacity:1;stroke-miterlimit:4;" d="M 127.269531 185.515625 L 128.625 183.484375 L 129.300781 182.128906 L 128.625 184.839844 L 124.5625 197.027344 M 128.625 184.839844 L 129.300781 183.484375 L 130.65625 182.808594 L 132.011719 182.808594 L 133.363281 183.484375 L 134.042969 184.839844 L 134.042969 186.191406 L 133.363281 187.546875 L 132.6875 188.222656 L 131.332031 188.902344 M 128.625 188.222656 L 129.980469 188.902344 L 132.011719 188.902344 L 134.042969 188.222656 L 135.394531 187.546875 L 137.425781 185.515625 "/>
<path style="fill:none;stroke-width:0.8;stroke-linecap:butt;stroke-linejoin:miter;stroke:#000000;stroke-opacity:1;stroke-miterlimit:4;" d="M 137.425781 185.515625 L 138.78125 183.484375 L 139.457031 182.128906 L 139.457031 183.484375 L 141.488281 183.484375 L 142.167969 184.160156 L 142.167969 185.515625 L 141.488281 187.546875 L 141.488281 188.222656 L 142.167969 188.902344 L 142.84375 188.902344 L 144.199219 188.222656 L 144.875 187.546875 L 146.230469 185.515625 "/>
<path style="fill:none;stroke-width:0.8;stroke-linecap:butt;stroke-linejoin:miter;stroke:#000000;stroke-opacity:1;stroke-miterlimit:4;" d="M 148.261719 179.421875 L 148.261719 180.097656 L 148.9375 180.097656 L 148.9375 179.421875 L 148.261719 179.421875 M 146.230469 185.515625 L 147.585938 182.808594 L 146.230469 186.871094 L 146.230469 188.222656 L 146.90625 188.902344 L 147.585938 188.902344 L 148.9375 188.222656 L 149.617188 187.546875 L 150.96875 185.515625 "/>
<path style="fill:none;stroke-width:0.8;stroke-linecap:butt;stroke-linejoin:miter;stroke:#000000;stroke-opacity:1;stroke-miterlimit:4;" d="M 150.96875 185.515625 L 152.324219 182.808594 L 151.648438 186.191406 L 151.648438 188.222656 L 152.324219 188.902344 L 153 188.902344 L 155.03125 188.222656 L 156.386719 186.871094 L 157.0625 184.839844 L 157.0625 182.808594 M 157.0625 182.808594 L 157.742188 185.515625 L 158.417969 186.191406 L 159.773438 186.191406 L 161.125 185.515625 "/>
<path style="fill:none;stroke-width:0.8;stroke-linecap:butt;stroke-linejoin:miter;stroke:#000000;stroke-opacity:1;stroke-miterlimit:4;" d="M 163.15625 179.421875 L 163.15625 180.097656 L 163.835938 180.097656 L 163.835938 179.421875 L 163.15625 179.421875 M 161.125 185.515625 L 162.480469 182.808594 L 161.125 186.871094 L 161.125 188.222656 L 161.804688 188.902344 L 162.480469 188.902344 L 163.835938 188.222656 L 164.511719 187.546875 L 165.867188 185.515625 "/>
<path style="fill:none;stroke-width:0.8;stroke-linecap:butt;stroke-linejoin:miter;stroke:#000000;stroke-opacity:1;stroke-miterlimit:4;" d="M 165.867188 185.515625 L 167.21875 183.484375 L 169.25 180.097656 L 169.929688 178.746094 L 170.605469 176.714844 L 170.605469 175.359375 L 169.929688 174.683594 L 168.574219 175.359375 L 167.898438 176.714844 L 167.21875 179.421875 L 166.542969 184.160156 L 166.542969 188.222656 L 167.21875 188.902344 L 167.898438 188.902344 L 169.25 188.222656 L 169.929688 187.546875 L 171.28125 185.515625 "/>
<path style="fill:none;stroke-width:0.8;stroke-linecap:butt;stroke-linejoin:miter;stroke:#000000;stroke-opacity:1;stroke-miterlimit:4;" d="M 171.960938 187.546875 L 173.3125 186.871094 L 173.992188 186.191406 L 174.667969 184.839844 L 174.667969 183.484375 L 173.992188 182.808594 L 173.3125 182.808594 L 171.960938 183.484375 L 171.28125 184.839844 L 171.28125 186.871094 L 171.960938 188.222656 L 173.3125 188.902344 L 174.667969 188.902344 L 176.023438 188.222656 L 176.699219 187.546875 L 178.054688 185.515625 "/>
<path style="fill:none;stroke-width:0.8;stroke-linecap:butt;stroke-linejoin:miter;stroke:#000000;stroke-opacity:1;stroke-miterlimit:4;" d="M 184.148438 184.839844 L 183.472656 183.484375 L 182.117188 182.808594 L 180.761719 182.808594 L 179.410156 183.484375 L 178.730469 184.160156 L 178.054688 185.515625 L 178.054688 186.871094 L 178.730469 188.222656 L 180.085938 188.902344 L 181.441406 188.902344 L 182.792969 188.222656 L 183.472656 187.546875 M 184.824219 182.808594 L 183.472656 187.546875 L 180.761719 194.996094 L 180.085938 196.351562 L 178.730469 197.027344 L 178.054688 196.351562 L 178.054688 194.996094 L 178.730469 192.964844 L 180.761719 190.933594 L 182.792969 189.578125 L 184.148438 188.902344 L 186.179688 187.546875 L 188.210938 185.515625 "/>
<path style="fill:none;stroke-width:0.8;stroke-linecap:butt;stroke-linejoin:miter;stroke:#000000;stroke-opacity:1;stroke-miterlimit:4;" d="M 188.886719 187.546875 L 190.242188 186.871094 L 190.917969 186.191406 L 191.597656 184.839844 L 191.597656 183.484375 L 190.917969 182.808594 L 190.242188 182.808594 L 188.886719 183.484375 L 188.210938 184.839844 L 188.210938 186.871094 L 188.886719 188.222656 L 190.242188 188.902344 L 191.597656 188.902344 L 192.949219 188.222656 L 193.628906 187.546875 L 194.980469 185.515625 "/>
<path style="fill:none;stroke-width:0.8;stroke-linecap:butt;stroke-linejoin:miter;stroke:#000000;stroke-opacity:1;stroke-miterlimit:4;" d="M 194.980469 185.515625 L 196.335938 183.484375 L 197.011719 182.128906 L 197.011719 183.484375 L 198.367188 185.515625 L 199.042969 186.871094 L 199.042969 188.222656 L 197.691406 188.902344 M 194.980469 188.222656 L 196.335938 188.902344 L 199.042969 188.902344 L 200.398438 188.222656 L 201.074219 187.546875 L 202.429688 185.515625 "/>
</g>
</svg>
