<?xml version="1.0" encoding="UTF-8"?>
<svg xmlns="http://www.w3.org/2000/svg" xmlns:xlink="http://www.w3.org/1999/xlink" width="320pt" height="320pt" viewBox="0 0 320 320" version="1.1">
<g id="surface0">
<path style="fill:none;stroke-width:0.8;stroke-linecap:butt;stroke-linejoin:miter;stroke:#000000;stroke-opacity:1;stroke-miterlimit:4;" d="M 160 159.839844 L 160 166.066406 "/>
<path style="fill-rule:nonzero;fill:#ffffff;fill-opacity:1;stroke-width:0.8;stroke-linecap:round;stroke-linejoin:round;stroke:#000000;stroke-opacity:1;stroke-miterlimit:4;" d="M 150.019531 163.753906 L 150.644531 165.851562 L 151.765625 167.179688 L 153.023438 168.019531 L 154.003906 167.878906 L 156.453125 165.648438 L 157.289062 165.148438 L 156.800781 163.753906 L 155.609375 162.285156 L 153.304688 161.660156 L 152.046875 161.378906 "/>
<path style="fill-rule:nonzero;fill:#ffffff;fill-opacity:1;stroke-width:0.8;stroke-linecap:round;stroke-linejoin:round;stroke:#000000;stroke-opacity:1;stroke-miterlimit:4;" d="M 150.578125 165.78125 L 145.613281 165.851562 L 144.980469 170.886719 L 145.121094 175.285156 L 144.84375 184.160156 L 145.40625 188.636719 L 149.738281 188.914062 "/>
<path style="fill-rule:nonzero;fill:#ffffff;fill-opacity:1;stroke-width:0.8;stroke-linecap:round;stroke-linejoin:round;stroke:#000000;stroke-opacity:1;stroke-miterlimit:4;" d="M 155.332031 189.328125 L 160.855469 189.046875 L 161.554688 178.640625 L 161.488281 166.550781 L 159.390625 166.058594 L 156.171875 165.992188 "/>
<path style="fill-rule:nonzero;fill:#ffffff;fill-opacity:1;stroke-width:0.8;stroke-linecap:round;stroke-linejoin:round;stroke:#000000;stroke-opacity:1;stroke-miterlimit:4;" d="M 125.894531 165.296875 L 121.90625 165.222656 L 119.390625 165.925781 L 118.273438 167.042969 L 117.992188 168.921875 L 119.320312 170.390625 L 122.257812 172.421875 L 124.566406 174.234375 "/>
<path style="fill-rule:nonzero;fill:#ffffff;fill-opacity:1;stroke-width:0.8;stroke-linecap:round;stroke-linejoin:round;stroke:#000000;stroke-opacity:1;stroke-miterlimit:4;" d="M 137.710938 188.355469 L 142.1875 187.792969 L 144.980469 185.980469 "/>
<path style="fill-rule:nonzero;fill:#ffffff;fill-opacity:1;stroke-width:0.8;stroke-linecap:round;stroke-linejoin:round;stroke:#000000;stroke-opacity:1;stroke-miterlimit:4;" d="M 149.109375 190.03125 L 150.226562 188.078125 L 153.023438 186.332031 L 154.5625 187.859375 L 155.332031 189.328125 L 155.332031 190.589844 L 154.425781 191.425781 L 153.234375 192.261719 L 151.695312 192.613281 "/>
<path style="fill-rule:nonzero;fill:#ffffff;fill-opacity:1;stroke-width:0.8;stroke-linecap:round;stroke-linejoin:round;stroke:#000000;stroke-opacity:1;stroke-miterlimit:4;" d="M 137.503906 172.070312 L 138.128906 164.738281 L 140.855469 161.449219 L 142.882812 160.332031 L 144.632812 161.378906 L 147.222656 163.402344 L 149.039062 165.015625 L 152.46875 160.964844 L 151.207031 159.21875 L 147.082031 155.300781 L 145.054688 152.992188 L 143.164062 152.082031 L 140.859375 152.855469 L 137.292969 155.296875 L 132.394531 158.792969 L 129.179688 161.03125 C 129.179688 161.03125 127.640625 162.21875 127.574219 162.5625 C 127.503906 162.917969 125.960938 165.292969 125.960938 165.292969 L 124.914062 172.28125 L 124.285156 176.613281 L 124.21875 183.953125 L 124.636719 187.023438 L 126.59375 189.328125 L 131.210938 192.542969 L 136.734375 196.316406 L 142.046875 199.808594 L 143.9375 200.652344 L 145.753906 200.371094 L 148.832031 196.871094 L 151.558594 193.597656 L 151.699219 192.6875 L 148.480469 189.472656 L 147.714844 189.402344 L 146.3125 191.074219 L 144.148438 193.101562 L 142.609375 193.246094 L 140.859375 191.851562 L 137.992188 188.914062 L 137.015625 186.742188 L 137.082031 183.25 "/>
<path style="fill-rule:nonzero;fill:#ffffff;fill-opacity:1;stroke-width:0.8;stroke-linecap:round;stroke-linejoin:round;stroke:#000000;stroke-opacity:1;stroke-miterlimit:4;" d="M 139.667969 182.0625 L 137.917969 183.117188 L 134.773438 183.527344 L 131.347656 183.460938 L 128.410156 182.765625 L 125.894531 180.664062 L 125.335938 177.730469 L 125.824219 174.585938 L 127.015625 173.121094 L 128.550781 172.136719 L 130.996094 171.792969 L 134.214844 171.652344 L 138.269531 172.28125 L 140.367188 173.539062 L 142.117188 175.496094 L 142.324219 177.523438 L 141.558594 180.179688 L 139.667969 182.0625 Z M 139.667969 182.0625 "/>
</g>
</svg>
