<?xml version="1.0" encoding="UTF-8"?>
<svg xmlns="http://www.w3.org/2000/svg" xmlns:xlink="http://www.w3.org/1999/xlink" width="320pt" height="320pt" viewBox="0 0 320 320" version="1.1">
<g id="surface0">
<path style="fill:none;stroke-width:0.8;stroke-linecap:butt;stroke-linejoin:miter;stroke:#000000;stroke-opacity:1;stroke-miterlimit:4;" d="M 160 160 L 160 177.667969 "/>
<path style="fill-rule:nonzero;fill:#ffffff;fill-opacity:1;stroke-width:0.8;stroke-linecap:round;stroke-linejoin:round;stroke:#000000;stroke-opacity:1;stroke-miterlimit:4;" d="M 120.597656 177.671875 L 199.402344 177.671875 L 199.402344 215.105469 L 120.597656 215.105469 L 120.597656 177.671875 Z M 120.597656 177.671875 "/>
<path style="fill:none;stroke-width:0.8;stroke-linecap:butt;stroke-linejoin:miter;stroke:#000000;stroke-opacity:1;stroke-miterlimit:4;" d="M 143.609375 194.082031 L 142.351562 194.082031 L 141.09375 193.453125 L 140.464844 192.195312 L 141.09375 190.933594 L 142.980469 190.304688 L 144.867188 190.304688 L 147.382812 190.933594 L 149.273438 190.933594 L 150.53125 190.304688 M 147.382812 190.933594 L 146.125 195.339844 L 144.867188 199.113281 L 143.609375 201.632812 L 142.351562 202.890625 L 141.09375 203.519531 L 139.835938 203.519531 L 138.574219 202.890625 L 137.945312 201.632812 L 137.945312 200.375 L 138.574219 199.742188 L 139.835938 199.742188 L 141.09375 200.375 "/>
<path style="fill:none;stroke-width:0.8;stroke-linecap:butt;stroke-linejoin:miter;stroke:#000000;stroke-opacity:1;stroke-miterlimit:4;" d="M 153.046875 197.855469 L 151.789062 197.855469 L 150.53125 198.484375 L 149.902344 199.113281 L 149.273438 200.375 L 149.273438 201.632812 L 149.902344 202.890625 L 151.160156 203.519531 L 152.417969 203.519531 L 153.675781 202.890625 L 154.304688 202.261719 L 154.933594 201.003906 L 154.933594 199.742188 L 154.304688 198.484375 L 153.046875 197.855469 L 152.417969 198.484375 L 152.417969 199.742188 L 153.046875 201.003906 L 154.304688 201.632812 L 156.191406 201.632812 L 157.453125 201.003906 L 158.082031 200.375 "/>
<path style="fill:none;stroke-width:0.8;stroke-linecap:butt;stroke-linejoin:miter;stroke:#000000;stroke-opacity:1;stroke-miterlimit:4;" d="M 161.855469 197.855469 L 160.597656 197.855469 L 159.339844 198.484375 L 158.710938 199.113281 L 158.082031 200.375 L 158.082031 201.632812 L 158.710938 202.890625 L 159.96875 203.519531 L 161.226562 203.519531 L 162.484375 202.890625 L 163.113281 202.261719 L 163.742188 201.003906 L 163.742188 199.742188 L 163.113281 198.484375 L 161.855469 197.855469 L 161.226562 198.484375 L 161.226562 199.742188 L 161.855469 201.003906 L 163.113281 201.632812 L 165 201.632812 L 166.261719 201.003906 L 166.890625 200.375 "/>
<path style="fill:none;stroke-width:0.8;stroke-linecap:butt;stroke-linejoin:miter;stroke:#000000;stroke-opacity:1;stroke-miterlimit:4;" d="M 166.890625 200.375 L 168.148438 198.484375 L 170.035156 195.339844 L 170.664062 194.082031 L 171.292969 192.195312 L 171.292969 190.933594 L 170.664062 190.304688 L 169.40625 190.933594 L 168.777344 192.195312 L 168.148438 194.710938 L 167.519531 199.113281 L 167.519531 202.890625 L 168.148438 203.519531 L 168.777344 203.519531 L 170.035156 202.890625 L 170.664062 202.261719 L 171.921875 200.375 "/>
<path style="fill:none;stroke-width:0.8;stroke-linecap:butt;stroke-linejoin:miter;stroke:#000000;stroke-opacity:1;stroke-miterlimit:4;" d="M 171.921875 200.375 L 173.179688 198.484375 L 173.808594 197.226562 L 173.808594 198.484375 L 175.070312 200.375 L 175.699219 201.632812 L 175.699219 202.890625 L 174.4375 203.519531 M 171.921875 202.890625 L 173.179688 203.519531 L 175.699219 203.519531 L 176.957031 202.890625 L 177.585938 202.261719 L 178.84375 200.375 "/>
</g>
</svg>
