<?xml version="1.0" encoding="UTF-8"?>
<svg xmlns="http://www.w3.org/2000/svg" xmlns:xlink="http://www.w3.org/1999/xlink" width="320pt" height="320pt" viewBox="0 0 320 320" version="1.1">
<g id="surface0">
<path style=" stroke:none;fill-rule:nonzero;fill:#ffffff;fill-opacity:1;" d="M 160.023438 161.375 L 159.800781 161.476562 L 128.65625 177.214844 L 127.75 179.199219 L 125.753906 182.691406 L 125.648438 204.574219 L 135.734375 209.789062 L 139.699219 202.878906 L 137.632812 201.703125 L 141.75 194.574219 L 173.148438 210.351562 L 174.25 212.898438 L 174.273438 212.976562 L 178.398438 229.476562 L 178.398438 229.523438 L 178.425781 229.550781 L 179.703125 231.753906 L 188.9375 236.453125 L 191.191406 236.71875 L 222.023438 221.25 L 222.199219 220.925781 L 222.207031 194.832031 L 221.375 194.375 L 217.964844 195.90625 L 214.851562 190.5 L 214.800781 190.398438 L 214.675781 190.351562 L 168.101562 167.152344 L 160.199219 161.523438 L 160.023438 161.375 L 160.023438 161.375 Z M 160.023438 161.375 "/>
<path style="fill:none;stroke-width:0.8;stroke-linecap:butt;stroke-linejoin:miter;stroke:#000000;stroke-opacity:1;stroke-miterlimit:4;" d="M 128.109375 179.402344 L 126.167969 182.761719 M 126.167969 187.511719 L 130.238281 180.464844 M 132.363281 181.53125 L 126.167969 192.261719 M 126.167969 197.011719 L 134.492188 182.59375 M 136.621094 183.660156 L 126.167969 201.761719 M 126.839844 205.351562 L 138.75 184.722656 M 140.875 185.785156 L 128.96875 206.414062 M 131.09375 207.476562 L 143.003906 186.851562 M 145.132812 187.914062 L 133.222656 208.542969 M 143.6875 195.167969 L 147.261719 188.976562 M 139.351562 202.675781 L 135.351562 209.605469 M 145.816406 196.230469 L 149.386719 190.042969 M 151.515625 191.105469 L 147.945312 197.292969 M 150.070312 198.359375 L 153.644531 192.171875 M 155.773438 193.234375 L 152.199219 199.421875 M 154.328125 200.488281 L 157.902344 194.296875 M 160.027344 195.363281 L 156.457031 201.550781 M 158.582031 202.613281 L 162.15625 196.425781 M 164.285156 197.488281 L 160.710938 203.679688 M 162.839844 204.742188 L 166.414062 198.554688 M 168.539062 199.617188 L 164.96875 205.804688 M 167.09375 206.871094 L 170.667969 200.683594 M 172.796875 201.746094 L 169.222656 207.933594 M 171.351562 209 L 174.925781 202.808594 M 177.050781 203.875 L 173.480469 210.0625 M 174.636719 212.808594 L 179.179688 204.9375 M 181.308594 206 L 175.464844 216.125 M 176.292969 219.4375 L 183.4375 207.066406 M 185.5625 208.128906 L 177.121094 222.753906 M 177.949219 226.070312 L 187.691406 209.195312 M 189.820312 210.257812 L 178.777344 229.382812 M 180.039062 231.949219 L 189.964844 214.757812 M 189.964844 219.507812 L 182.167969 233.011719 M 184.292969 234.078125 L 189.964844 224.257812 M 189.964844 229.007812 L 186.421875 235.140625 M 188.550781 236.207031 L 189.964844 233.757812 "/>
<path style="fill:none;stroke-width:0.8;stroke-linecap:butt;stroke-linejoin:miter;stroke:#000000;stroke-opacity:1;stroke-miterlimit:4;" d="M 129.007812 177.015625 L 131.308594 181.003906 M 139.101562 184.898438 L 133.308594 174.863281 M 137.609375 172.714844 L 146.890625 188.792969 M 154.683594 192.691406 L 141.910156 170.5625 M 146.210938 168.410156 L 162.476562 196.585938 M 170.269531 200.480469 L 150.511719 166.261719 M 154.8125 164.109375 L 178.058594 204.378906 M 167.753906 167.328125 L 191.996094 209.316406 M 196.296875 207.164062 L 175.546875 171.222656 M 183.335938 175.121094 L 200.597656 205.015625 M 204.898438 202.863281 L 191.128906 179.015625 M 198.921875 182.910156 L 209.199219 200.710938 M 213.5 198.5625 L 206.714844 186.808594 M 214.503906 190.703125 L 217.800781 196.410156 M 160 159.507812 L 159.980469 163.53125 L 185.851562 208.273438 "/>
<path style="fill:none;stroke-width:0.8;stroke-linecap:butt;stroke-linejoin:miter;stroke:#000000;stroke-opacity:1;stroke-miterlimit:4;" d="M 191.851562 209.386719 L 189.964844 212.652344 M 189.964844 215.820312 L 194.421875 208.101562 M 196.988281 206.816406 L 189.964844 218.984375 M 189.964844 222.152344 L 199.558594 205.53125 M 202.128906 204.246094 L 189.964844 225.320312 M 189.964844 228.484375 L 204.699219 202.960938 M 207.269531 201.675781 L 189.964844 231.652344 M 189.964844 234.816406 L 209.839844 200.390625 M 212.410156 199.105469 L 190.835938 236.476562 M 193.40625 235.191406 L 214.980469 197.824219 M 217.550781 196.539062 L 195.976562 233.90625 M 198.546875 232.621094 L 220.121094 195.253906 M 221.863281 195.402344 L 201.117188 231.335938 M 203.6875 230.050781 L 221.863281 198.570312 M 221.863281 201.734375 L 206.253906 228.765625 M 208.824219 227.480469 L 221.863281 204.902344 M 221.863281 208.066406 L 211.394531 226.195312 M 213.964844 224.910156 L 221.863281 211.234375 M 221.863281 214.402344 L 216.535156 223.625 M 219.105469 222.339844 L 221.863281 217.566406 M 221.863281 220.734375 L 221.675781 221.054688 M 191.554688 236.117188 L 189.964844 235.199219 M 189.964844 233.371094 L 193.253906 235.269531 M 194.949219 234.417969 L 189.964844 231.542969 M 189.964844 229.714844 L 196.648438 233.570312 M 198.34375 232.722656 L 189.964844 227.886719 M 189.964844 226.058594 L 200.039062 231.875 M 201.738281 231.027344 L 189.964844 224.230469 M 189.964844 222.402344 L 203.433594 230.175781 M 205.132812 229.328125 L 189.964844 220.574219 M 189.964844 218.746094 L 206.828125 228.480469 M 208.523438 227.632812 L 189.964844 216.917969 M 189.964844 215.089844 L 210.222656 226.785156 M 211.917969 225.933594 L 189.964844 213.261719 M 189.964844 211.433594 L 213.617188 225.085938 M 215.3125 224.238281 L 190.640625 209.992188 M 192.335938 209.144531 L 217.007812 223.390625 M 218.707031 222.542969 L 194.03125 208.296875 M 195.730469 207.449219 L 220.402344 221.691406 M 221.863281 220.707031 L 197.425781 206.597656 M 199.125 205.75 L 221.863281 218.878906 M 221.863281 217.050781 L 200.820312 204.902344 M 202.515625 204.054688 L 221.863281 215.222656 M 221.863281 213.394531 L 204.214844 203.207031 M 205.910156 202.355469 L 221.863281 211.566406 M 221.863281 209.738281 L 207.609375 201.507812 M 209.304688 200.660156 L 221.863281 207.910156 M 221.863281 206.082031 L 211.003906 199.8125 M 212.699219 198.964844 L 221.863281 204.253906 M 221.863281 202.425781 L 214.394531 198.113281 M 216.09375 197.265625 L 221.863281 200.597656 M 221.863281 198.769531 L 217.789062 196.417969 M 219.488281 195.570312 L 221.863281 196.941406 M 221.863281 195.113281 L 221.183594 194.722656 "/>
</g>
</svg>
