<?xml version="1.0" encoding="UTF-8"?>
<svg xmlns="http://www.w3.org/2000/svg" xmlns:xlink="http://www.w3.org/1999/xlink" width="320pt" height="320pt" viewBox="0 0 320 320" version="1.1">
<g id="surface0">
<path style="fill:none;stroke-width:0.8;stroke-linecap:butt;stroke-linejoin:miter;stroke:#000000;stroke-opacity:1;stroke-miterlimit:4;" d="M 160 160 L 160 177.667969 "/>
<path style="fill-rule:nonzero;fill:#ffffff;fill-opacity:1;stroke-width:0.8;stroke-linecap:butt;stroke-linejoin:miter;stroke:#000000;stroke-opacity:1;stroke-miterlimit:4;" d="M 188.582031 250.707031 L 131.417969 250.707031 L 131.417969 176.949219 L 175.179688 176.949219 L 188.582031 190.359375 L 188.582031 250.707031 Z M 188.582031 250.707031 "/>
<path style="fill:none;stroke-width:0.800223;stroke-linecap:butt;stroke-linejoin:miter;stroke:#000000;stroke-opacity:1;stroke-miterlimit:4;" d="M 144.514088 189.515625 L 144.514088 196.125 L 144.826762 196.125 M 144.514088 189.515625 L 144.826762 189.515625 L 144.826762 196.125 M 144.514088 192.664062 L 143.884831 192.035156 L 143.255575 191.71875 L 142.309735 191.71875 L 141.680479 192.035156 L 141.051222 192.664062 L 140.738548 193.605469 L 140.738548 194.238281 L 141.051222 195.179688 L 141.680479 195.808594 L 142.309735 196.125 L 143.255575 196.125 L 143.884831 195.808594 L 144.514088 195.179688 M 144.514088 192.664062 L 143.255575 192.035156 L 142.309735 192.035156 L 141.680479 192.347656 L 141.367804 192.664062 L 141.051222 193.605469 L 141.051222 194.238281 L 141.367804 195.179688 L 141.680479 195.496094 L 142.309735 195.808594 L 143.255575 195.808594 L 144.514088 195.179688 " transform="matrix(0.999443,0,0,1,0,0)"/>
<path style="fill:none;stroke-width:0.800223;stroke-linecap:butt;stroke-linejoin:miter;stroke:#000000;stroke-opacity:1;stroke-miterlimit:4;" d="M 147.343789 193.921875 L 150.806656 193.921875 L 150.806656 192.976562 L 150.493981 192.347656 L 150.177399 192.035156 L 149.548142 191.71875 L 148.602303 191.71875 L 147.973046 192.035156 L 147.343789 192.664062 L 147.031115 193.605469 L 147.031115 194.238281 L 147.343789 195.179688 L 147.973046 195.808594 L 148.602303 196.125 L 149.548142 196.125 L 150.177399 195.808594 L 150.806656 195.179688 M 147.343789 193.605469 L 150.493981 193.605469 L 150.493981 192.976562 L 150.177399 192.347656 L 149.548142 192.035156 L 148.602303 192.035156 L 147.973046 192.347656 L 147.660372 192.664062 L 147.343789 193.605469 L 147.343789 194.238281 L 147.660372 195.179688 L 147.973046 195.496094 L 148.602303 195.808594 L 149.548142 195.808594 L 150.177399 195.496094 L 150.493981 194.867188 L 150.806656 195.179688 " transform="matrix(0.999443,0,0,1,0,0)"/>
<path style="fill:none;stroke-width:0.800223;stroke-linecap:butt;stroke-linejoin:miter;stroke:#000000;stroke-opacity:1;stroke-miterlimit:4;" d="M 155.211453 189.515625 L 154.582196 189.515625 L 153.952939 189.832031 L 153.640265 190.773438 L 153.640265 196.125 L 153.952939 196.125 M 155.211453 189.515625 L 155.211453 189.832031 L 154.582196 189.832031 L 153.952939 190.144531 M 154.269522 189.832031 L 153.952939 190.773438 L 153.952939 196.125 M 152.694426 191.71875 L 154.898779 191.71875 L 154.898779 192.035156 M 152.694426 191.71875 L 152.694426 192.035156 L 154.898779 192.035156 " transform="matrix(0.999443,0,0,1,0,0)"/>
<path style="fill:none;stroke-width:0.800223;stroke-linecap:butt;stroke-linejoin:miter;stroke:#000000;stroke-opacity:1;stroke-miterlimit:4;" d="M 160.874763 191.71875 L 160.874763 196.125 L 161.191346 196.125 M 160.874763 191.71875 L 161.191346 191.71875 L 161.191346 196.125 M 160.874763 192.664062 L 160.245507 192.035156 L 159.61625 191.71875 L 158.674319 191.71875 L 158.045062 192.035156 L 157.415806 192.664062 L 157.099223 193.605469 L 157.099223 194.238281 L 157.415806 195.179688 L 158.045062 195.808594 L 158.674319 196.125 L 159.61625 196.125 L 160.245507 195.808594 L 160.874763 195.179688 M 160.874763 192.664062 L 159.61625 192.035156 L 158.674319 192.035156 L 158.045062 192.347656 L 157.72848 192.664062 L 157.415806 193.605469 L 157.415806 194.238281 L 157.72848 195.179688 L 158.045062 195.496094 L 158.674319 195.808594 L 159.61625 195.808594 L 160.874763 195.179688 " transform="matrix(0.999443,0,0,1,0,0)"/>
<path style="fill:none;stroke-width:0.800223;stroke-linecap:butt;stroke-linejoin:miter;stroke:#000000;stroke-opacity:1;stroke-miterlimit:4;" d="M 163.708373 191.71875 L 163.708373 194.867188 L 164.021047 195.808594 L 164.650304 196.125 L 165.596143 196.125 L 166.2254 195.808594 L 167.167331 194.867188 M 163.708373 191.71875 L 164.021047 191.71875 L 164.021047 194.867188 L 164.33763 195.496094 L 164.966887 195.808594 L 165.596143 195.808594 L 166.2254 195.496094 L 167.167331 194.867188 M 167.167331 191.71875 L 167.167331 196.125 L 167.483914 196.125 M 167.167331 191.71875 L 167.483914 191.71875 L 167.483914 196.125 " transform="matrix(0.999443,0,0,1,0,0)"/>
<path style="fill:none;stroke-width:0.800223;stroke-linecap:butt;stroke-linejoin:miter;stroke:#000000;stroke-opacity:1;stroke-miterlimit:4;" d="M 170.000941 189.515625 L 170.000941 196.125 L 170.317523 196.125 M 170.000941 189.515625 L 170.317523 189.515625 L 170.317523 196.125 " transform="matrix(0.999443,0,0,1,0,0)"/>
<path style="fill:none;stroke-width:0.800223;stroke-linecap:butt;stroke-linejoin:miter;stroke:#000000;stroke-opacity:1;stroke-miterlimit:4;" d="M 173.147224 189.515625 L 173.147224 196.125 L 173.463807 196.125 M 173.147224 189.515625 L 173.463807 189.515625 L 173.463807 196.125 M 172.205293 191.71875 L 174.405738 191.71875 L 174.405738 192.035156 M 172.205293 191.71875 L 172.205293 192.035156 L 174.405738 192.035156 " transform="matrix(0.999443,0,0,1,0,0)"/>
<path style="fill:none;stroke-width:0.800223;stroke-linecap:butt;stroke-linejoin:miter;stroke:#000000;stroke-opacity:1;stroke-miterlimit:4;" d="M 179.439792 192.664062 L 179.127118 192.035156 L 178.181278 191.71875 L 177.239347 191.71875 L 176.293508 192.035156 L 175.980834 192.664062 L 176.293508 193.292969 L 176.922765 193.605469 L 178.497861 194.238281 L 179.127118 194.550781 M 178.810535 194.238281 L 179.127118 194.867188 L 179.127118 195.179688 L 178.810535 195.808594 M 179.127118 195.496094 L 178.181278 195.808594 L 177.239347 195.808594 L 176.293508 195.496094 M 176.610091 195.808594 L 176.293508 195.179688 L 175.980834 195.179688 M 179.439792 192.664062 L 179.127118 192.664062 L 178.810535 192.035156 M 179.127118 192.347656 L 178.181278 192.035156 L 177.239347 192.035156 L 176.293508 192.347656 M 176.610091 192.035156 L 176.293508 192.664062 L 176.610091 193.292969 M 176.293508 192.976562 L 176.922765 193.292969 L 178.497861 193.921875 L 179.127118 194.238281 L 179.439792 194.867188 L 179.439792 195.179688 L 179.127118 195.808594 L 178.181278 196.125 L 177.239347 196.125 L 176.293508 195.808594 L 175.980834 195.179688 " transform="matrix(0.999443,0,0,1,0,0)"/>
<path style="fill:none;stroke-width:1.549013;stroke-linecap:butt;stroke-linejoin:miter;stroke:#000000;stroke-opacity:1;stroke-miterlimit:4;" d="M 541.938752 201.578125 L 541.938752 226.152344 L 543.110353 226.152344 M 541.938752 201.578125 L 543.110353 201.578125 L 543.110353 226.152344 M 541.938752 213.28125 L 539.595549 210.9375 L 537.252347 209.769531 L 533.737544 209.769531 L 531.408986 210.9375 L 529.065784 213.28125 L 527.894183 216.789062 L 527.894183 219.128906 L 529.065784 222.640625 L 531.408986 224.980469 L 533.737544 226.152344 L 537.252347 226.152344 L 539.595549 224.980469 L 541.938752 222.640625 M 541.938752 213.28125 L 537.252347 210.9375 L 533.737544 210.9375 L 531.408986 212.109375 L 530.237385 213.28125 L 529.065784 216.789062 L 529.065784 219.128906 L 530.237385 222.640625 L 531.408986 223.8125 L 533.737544 224.980469 L 537.252347 224.980469 L 541.938752 222.640625 " transform="matrix(0.266729,0,0,1,0,0)"/>
<path style="fill:none;stroke-width:1.549013;stroke-linecap:butt;stroke-linejoin:miter;stroke:#000000;stroke-opacity:1;stroke-miterlimit:4;" d="M 552.468517 217.960938 L 565.341484 217.960938 L 565.341484 214.449219 L 564.169883 212.109375 L 562.998282 210.9375 L 560.65508 209.769531 L 557.140276 209.769531 L 554.811719 210.9375 L 552.468517 213.28125 L 551.296916 216.789062 L 551.296916 219.128906 L 552.468517 222.640625 L 554.811719 224.980469 L 557.140276 226.152344 L 560.65508 226.152344 L 562.998282 224.980469 L 565.341484 222.640625 M 552.468517 216.789062 L 564.169883 216.789062 L 564.169883 214.449219 L 562.998282 212.109375 L 560.65508 210.9375 L 557.140276 210.9375 L 554.811719 212.109375 L 553.640118 213.28125 L 552.468517 216.789062 L 552.468517 219.128906 L 553.640118 222.640625 L 554.811719 223.8125 L 557.140276 224.980469 L 560.65508 224.980469 L 562.998282 223.8125 L 564.169883 221.472656 L 565.341484 222.640625 " transform="matrix(0.266729,0,0,1,0,0)"/>
<path style="fill:none;stroke-width:1.549013;stroke-linecap:butt;stroke-linejoin:miter;stroke:#000000;stroke-opacity:1;stroke-miterlimit:4;" d="M 581.71461 201.578125 L 579.386053 201.578125 L 577.042851 202.746094 L 575.871249 206.257812 L 575.871249 226.152344 L 577.042851 226.152344 M 581.71461 201.578125 L 581.71461 202.746094 L 579.386053 202.746094 L 577.042851 203.917969 M 578.214452 202.746094 L 577.042851 206.257812 L 577.042851 226.152344 M 572.356446 209.769531 L 580.557654 209.769531 L 580.557654 210.9375 M 572.356446 209.769531 L 572.356446 210.9375 L 580.557654 210.9375 " transform="matrix(0.266729,0,0,1,0,0)"/>
<path style="fill:none;stroke-width:1.549013;stroke-linecap:butt;stroke-linejoin:miter;stroke:#000000;stroke-opacity:1;stroke-miterlimit:4;" d="M 602.788786 209.769531 L 602.788786 226.152344 L 603.960387 226.152344 M 602.788786 209.769531 L 603.960387 209.769531 L 603.960387 226.152344 M 602.788786 213.28125 L 600.445583 210.9375 L 598.102381 209.769531 L 594.587578 209.769531 L 592.25902 210.9375 L 589.915818 213.28125 L 588.744217 216.789062 L 588.744217 219.128906 L 589.915818 222.640625 L 592.25902 224.980469 L 594.587578 226.152344 L 598.102381 226.152344 L 600.445583 224.980469 L 602.788786 222.640625 M 602.788786 213.28125 L 598.102381 210.9375 L 594.587578 210.9375 L 592.25902 212.109375 L 591.087419 213.28125 L 589.915818 216.789062 L 589.915818 219.128906 L 591.087419 222.640625 L 592.25902 223.8125 L 594.587578 224.980469 L 598.102381 224.980469 L 602.788786 222.640625 " transform="matrix(0.266729,0,0,1,0,0)"/>
<path style="fill:none;stroke-width:1.549013;stroke-linecap:butt;stroke-linejoin:miter;stroke:#000000;stroke-opacity:1;stroke-miterlimit:4;" d="M 613.318551 209.769531 L 613.318551 221.472656 L 614.490152 224.980469 L 616.833354 226.152344 L 620.333513 226.152344 L 622.676715 224.980469 L 626.191518 221.472656 M 613.318551 209.769531 L 614.490152 209.769531 L 614.490152 221.472656 L 615.661753 223.8125 L 618.004955 224.980469 L 620.333513 224.980469 L 622.676715 223.8125 L 626.191518 221.472656 M 626.191518 209.769531 L 626.191518 226.152344 L 627.363119 226.152344 M 626.191518 209.769531 L 627.363119 209.769531 L 627.363119 226.152344 " transform="matrix(0.266729,0,0,1,0,0)"/>
<path style="fill:none;stroke-width:1.549013;stroke-linecap:butt;stroke-linejoin:miter;stroke:#000000;stroke-opacity:1;stroke-miterlimit:4;" d="M 636.721284 201.578125 L 636.721284 226.152344 L 637.892885 226.152344 M 636.721284 201.578125 L 637.892885 201.578125 L 637.892885 226.152344 " transform="matrix(0.266729,0,0,1,0,0)"/>
<path style="fill:none;stroke-width:1.549013;stroke-linecap:butt;stroke-linejoin:miter;stroke:#000000;stroke-opacity:1;stroke-miterlimit:4;" d="M 648.42265 201.578125 L 648.42265 226.152344 L 649.594251 226.152344 M 648.42265 201.578125 L 649.594251 201.578125 L 649.594251 226.152344 M 644.907847 209.769531 L 653.109055 209.769531 L 653.109055 210.9375 M 644.907847 209.769531 L 644.907847 210.9375 L 653.109055 210.9375 " transform="matrix(0.266729,0,0,1,0,0)"/>
<path style="fill:none;stroke-width:1.549013;stroke-linecap:butt;stroke-linejoin:miter;stroke:#000000;stroke-opacity:1;stroke-miterlimit:4;" d="M 671.825383 213.28125 L 670.653782 210.9375 L 667.153623 209.769531 L 663.63882 209.769531 L 660.124016 210.9375 L 658.952415 213.28125 L 660.124016 215.621094 L 662.467219 216.789062 L 668.310579 219.128906 L 670.653782 220.300781 M 669.48218 219.128906 L 670.653782 221.472656 L 670.653782 222.640625 L 669.48218 224.980469 M 670.653782 223.8125 L 667.153623 224.980469 L 663.63882 224.980469 L 660.124016 223.8125 M 661.295617 224.980469 L 660.124016 222.640625 L 658.952415 222.640625 M 671.825383 213.28125 L 670.653782 213.28125 L 669.48218 210.9375 M 670.653782 212.109375 L 667.153623 210.9375 L 663.63882 210.9375 L 660.124016 212.109375 M 661.295617 210.9375 L 660.124016 213.28125 L 661.295617 215.621094 M 660.124016 214.449219 L 662.467219 215.621094 L 668.310579 217.960938 L 670.653782 219.128906 L 671.825383 221.472656 L 671.825383 222.640625 L 670.653782 224.980469 L 667.153623 226.152344 L 663.63882 226.152344 L 660.124016 224.980469 L 658.952415 222.640625 " transform="matrix(0.266729,0,0,1,0,0)"/>
<path style="fill:none;stroke-width:1.009439;stroke-linecap:butt;stroke-linejoin:miter;stroke:#000000;stroke-opacity:1;stroke-miterlimit:4;" d="M 144.40625 368.697678 L 144.40625 375.308775 L 144.722656 375.308775 M 144.40625 368.697678 L 144.722656 368.697678 L 144.722656 375.308775 M 144.40625 371.844635 L 143.777344 371.216488 L 143.148438 370.899304 L 142.203125 370.899304 L 141.570312 371.216488 L 140.941406 371.844635 L 140.625 372.789966 L 140.625 373.418113 L 140.941406 374.363444 L 141.570312 374.997811 L 142.203125 375.308775 L 143.148438 375.308775 L 143.777344 374.997811 L 144.40625 374.363444 M 144.40625 371.844635 L 143.148438 371.216488 L 142.203125 371.216488 L 141.570312 371.527452 L 141.257812 371.844635 L 140.941406 372.789966 L 140.941406 373.418113 L 141.257812 374.363444 L 141.570312 374.680627 L 142.203125 374.997811 L 143.148438 374.997811 L 144.40625 374.363444 " transform="matrix(1,0,0,0.628087,0,0)"/>
<path style="fill:none;stroke-width:1.009439;stroke-linecap:butt;stroke-linejoin:miter;stroke:#000000;stroke-opacity:1;stroke-miterlimit:4;" d="M 147.242188 373.107149 L 150.707031 373.107149 L 150.707031 372.161818 L 150.390625 371.527452 L 150.078125 371.216488 L 149.445312 370.899304 L 148.503906 370.899304 L 147.871094 371.216488 L 147.242188 371.844635 L 146.925781 372.789966 L 146.925781 373.418113 L 147.242188 374.363444 L 147.871094 374.997811 L 148.503906 375.308775 L 149.445312 375.308775 L 150.078125 374.997811 L 150.707031 374.363444 M 147.242188 372.789966 L 150.390625 372.789966 L 150.390625 372.161818 L 150.078125 371.527452 L 149.445312 371.216488 L 148.503906 371.216488 L 147.871094 371.527452 L 147.558594 371.844635 L 147.242188 372.789966 L 147.242188 373.418113 L 147.558594 374.363444 L 147.871094 374.680627 L 148.503906 374.997811 L 149.445312 374.997811 L 150.078125 374.680627 L 150.390625 374.05248 L 150.707031 374.363444 " transform="matrix(1,0,0,0.628087,0,0)"/>
<path style="fill:none;stroke-width:1.009439;stroke-linecap:butt;stroke-linejoin:miter;stroke:#000000;stroke-opacity:1;stroke-miterlimit:4;" d="M 155.117188 368.697678 L 154.488281 368.697678 L 153.855469 369.008643 L 153.542969 369.953973 L 153.542969 375.308775 L 153.855469 375.308775 M 155.117188 368.697678 L 155.117188 369.008643 L 154.488281 369.008643 L 153.855469 369.325826 M 154.171875 369.008643 L 153.855469 369.953973 L 153.855469 375.308775 M 152.597656 370.899304 L 154.800781 370.899304 L 154.800781 371.216488 M 152.597656 370.899304 L 152.597656 371.216488 L 154.800781 371.216488 " transform="matrix(1,0,0,0.628087,0,0)"/>
<path style="fill:none;stroke-width:1.009439;stroke-linecap:butt;stroke-linejoin:miter;stroke:#000000;stroke-opacity:1;stroke-miterlimit:4;" d="M 160.789062 370.899304 L 160.789062 375.308775 L 161.101562 375.308775 M 160.789062 370.899304 L 161.101562 370.899304 L 161.101562 375.308775 M 160.789062 371.844635 L 160.15625 371.216488 L 159.527344 370.899304 L 158.582031 370.899304 L 157.953125 371.216488 L 157.324219 371.844635 L 157.007812 372.789966 L 157.007812 373.418113 L 157.324219 374.363444 L 157.953125 374.997811 L 158.582031 375.308775 L 159.527344 375.308775 L 160.15625 374.997811 L 160.789062 374.363444 M 160.789062 371.844635 L 159.527344 371.216488 L 158.582031 371.216488 L 157.953125 371.527452 L 157.636719 371.844635 L 157.324219 372.789966 L 157.324219 373.418113 L 157.636719 374.363444 L 157.953125 374.680627 L 158.582031 374.997811 L 159.527344 374.997811 L 160.789062 374.363444 " transform="matrix(1,0,0,0.628087,0,0)"/>
<path style="fill:none;stroke-width:1.009439;stroke-linecap:butt;stroke-linejoin:miter;stroke:#000000;stroke-opacity:1;stroke-miterlimit:4;" d="M 163.621094 370.899304 L 163.621094 374.05248 L 163.9375 374.997811 L 164.566406 375.308775 L 165.511719 375.308775 L 166.144531 374.997811 L 167.085938 374.05248 M 163.621094 370.899304 L 163.9375 370.899304 L 163.9375 374.05248 L 164.253906 374.680627 L 164.882812 374.997811 L 165.511719 374.997811 L 166.144531 374.680627 L 167.085938 374.05248 M 167.085938 370.899304 L 167.085938 375.308775 L 167.402344 375.308775 M 167.085938 370.899304 L 167.402344 370.899304 L 167.402344 375.308775 " transform="matrix(1,0,0,0.628087,0,0)"/>
<path style="fill:none;stroke-width:1.009439;stroke-linecap:butt;stroke-linejoin:miter;stroke:#000000;stroke-opacity:1;stroke-miterlimit:4;" d="M 169.921875 368.697678 L 169.921875 375.308775 L 170.238281 375.308775 M 169.921875 368.697678 L 170.238281 368.697678 L 170.238281 375.308775 " transform="matrix(1,0,0,0.628087,0,0)"/>
<path style="fill:none;stroke-width:1.009439;stroke-linecap:butt;stroke-linejoin:miter;stroke:#000000;stroke-opacity:1;stroke-miterlimit:4;" d="M 173.074219 368.697678 L 173.074219 375.308775 L 173.386719 375.308775 M 173.074219 368.697678 L 173.386719 368.697678 L 173.386719 375.308775 M 172.128906 370.899304 L 174.332031 370.899304 L 174.332031 371.216488 M 172.128906 370.899304 L 172.128906 371.216488 L 174.332031 371.216488 " transform="matrix(1,0,0,0.628087,0,0)"/>
<path style="fill:none;stroke-width:1.009439;stroke-linecap:butt;stroke-linejoin:miter;stroke:#000000;stroke-opacity:1;stroke-miterlimit:4;" d="M 179.375 371.844635 L 179.058594 371.216488 L 178.113281 370.899304 L 177.167969 370.899304 L 176.222656 371.216488 L 175.90625 371.844635 L 176.222656 372.472782 L 176.851562 372.789966 L 178.429688 373.418113 L 179.058594 373.735297 M 178.742188 373.418113 L 179.058594 374.05248 L 179.058594 374.363444 L 178.742188 374.997811 M 179.058594 374.680627 L 178.113281 374.997811 L 177.167969 374.997811 L 176.222656 374.680627 M 176.539062 374.997811 L 176.222656 374.363444 L 175.90625 374.363444 M 179.375 371.844635 L 179.058594 371.844635 L 178.742188 371.216488 M 179.058594 371.527452 L 178.113281 371.216488 L 177.167969 371.216488 L 176.222656 371.527452 M 176.539062 371.216488 L 176.222656 371.844635 L 176.539062 372.472782 M 176.222656 372.161818 L 176.851562 372.472782 L 178.429688 373.107149 L 179.058594 373.418113 L 179.375 374.05248 L 179.375 374.363444 L 179.058594 374.997811 L 178.113281 375.308775 L 177.167969 375.308775 L 176.222656 374.997811 L 175.90625 374.363444 " transform="matrix(1,0,0,0.628087,0,0)"/>
<path style="fill-rule:nonzero;fill:#ffffff;fill-opacity:1;stroke-width:0.8;stroke-linecap:butt;stroke-linejoin:miter;stroke:#000000;stroke-opacity:1;stroke-miterlimit:4;" d="M 175.179688 176.949219 L 175.179688 190.359375 L 188.582031 190.359375 "/>
</g>
</svg>
