<?xml version="1.0" encoding="UTF-8"?>
<svg xmlns="http://www.w3.org/2000/svg" xmlns:xlink="http://www.w3.org/1999/xlink" width="320pt" height="320pt" viewBox="0 0 320 320" version="1.1">
<g id="surface0">
<path style="fill-rule:nonzero;fill:#ffffff;fill-opacity:1;stroke-width:0.8;stroke-linecap:round;stroke-linejoin:round;stroke:#000000;stroke-opacity:1;stroke-miterlimit:4;" d="M 87.203125 212.378906 L 106.5625 159.183594 L 232.796875 159.183594 L 213.4375 212.378906 L 87.203125 212.378906 Z M 87.203125 212.378906 "/>
<path style="fill:none;stroke-width:0.8;stroke-linecap:butt;stroke-linejoin:miter;stroke:#000000;stroke-opacity:1;stroke-miterlimit:4;" d="M 106.203125 178.628906 L 107.460938 178 L 108.09375 177.367188 L 108.722656 176.109375 L 108.722656 174.851562 L 108.09375 174.222656 L 107.460938 174.222656 L 106.203125 174.851562 L 105.574219 176.109375 L 105.574219 178 L 106.203125 179.257812 L 107.460938 179.886719 L 108.722656 179.886719 L 109.980469 179.257812 L 110.609375 178.628906 L 111.867188 176.738281 "/>
<path style="fill:none;stroke-width:0.8;stroke-linecap:butt;stroke-linejoin:miter;stroke:#000000;stroke-opacity:1;stroke-miterlimit:4;" d="M 111.867188 176.738281 L 113.125 174.851562 L 114.382812 174.222656 L 115.640625 174.222656 L 116.269531 174.851562 L 116.269531 179.257812 L 116.902344 179.886719 L 118.789062 179.886719 L 120.675781 178.628906 L 121.933594 176.738281 M 120.046875 174.851562 L 119.417969 174.222656 L 118.160156 174.222656 L 117.53125 174.851562 L 115.011719 179.257812 L 114.382812 179.886719 L 113.125 179.886719 L 112.496094 179.257812 "/>
<path style="fill:none;stroke-width:0.8;stroke-linecap:butt;stroke-linejoin:miter;stroke:#000000;stroke-opacity:1;stroke-miterlimit:4;" d="M 121.933594 176.738281 L 123.191406 174.851562 L 123.820312 173.59375 L 123.191406 176.109375 L 119.417969 187.4375 M 123.191406 176.109375 L 123.820312 174.851562 L 125.078125 174.222656 L 126.339844 174.222656 L 127.597656 174.851562 L 128.226562 176.109375 L 128.226562 177.367188 L 127.597656 178.628906 L 126.96875 179.257812 L 125.710938 179.886719 M 123.191406 179.257812 L 124.449219 179.886719 L 126.339844 179.886719 L 128.226562 179.257812 L 129.484375 178.628906 L 131.371094 176.738281 "/>
<path style="fill:none;stroke-width:0.8;stroke-linecap:butt;stroke-linejoin:miter;stroke:#000000;stroke-opacity:1;stroke-miterlimit:4;" d="M 132 178.628906 L 133.257812 178 L 133.890625 177.367188 L 134.519531 176.109375 L 134.519531 174.851562 L 133.890625 174.222656 L 133.257812 174.222656 L 132 174.851562 L 131.371094 176.109375 L 131.371094 178 L 132 179.257812 L 133.257812 179.886719 L 134.519531 179.886719 L 135.777344 179.257812 L 136.40625 178.628906 L 137.664062 176.738281 "/>
<path style="fill:none;stroke-width:0.8;stroke-linecap:butt;stroke-linejoin:miter;stroke:#000000;stroke-opacity:1;stroke-miterlimit:4;" d="M 137.664062 176.738281 L 138.921875 174.851562 L 139.550781 173.59375 L 139.550781 174.851562 L 141.4375 174.851562 L 142.066406 175.480469 L 142.066406 176.738281 L 141.4375 178.628906 L 141.4375 179.257812 L 142.066406 179.886719 L 142.699219 179.886719 L 143.957031 179.257812 L 144.585938 178.628906 L 145.84375 176.738281 "/>
<path style="fill:none;stroke-width:0.8;stroke-linecap:butt;stroke-linejoin:miter;stroke:#000000;stroke-opacity:1;stroke-miterlimit:4;" d="M 147.730469 171.078125 L 147.730469 171.707031 L 148.359375 171.707031 L 148.359375 171.078125 L 147.730469 171.078125 M 145.84375 176.738281 L 147.101562 174.222656 L 145.84375 178 L 145.84375 179.257812 L 146.472656 179.886719 L 147.101562 179.886719 L 148.359375 179.257812 L 148.988281 178.628906 L 150.246094 176.738281 "/>
<path style="fill:none;stroke-width:0.8;stroke-linecap:butt;stroke-linejoin:miter;stroke:#000000;stroke-opacity:1;stroke-miterlimit:4;" d="M 150.246094 176.738281 L 151.507812 174.851562 L 152.765625 174.222656 L 153.394531 174.851562 L 153.394531 175.480469 L 152.765625 178 L 152.136719 179.886719 M 152.765625 178 L 153.394531 176.738281 L 154.652344 174.851562 L 155.910156 174.222656 L 157.167969 174.222656 L 157.796875 174.851562 L 157.796875 175.480469 L 157.167969 178 L 156.539062 179.886719 M 157.167969 178 L 157.796875 176.738281 L 159.054688 174.851562 L 160.316406 174.222656 L 161.574219 174.222656 L 162.203125 174.851562 L 162.203125 176.109375 L 161.574219 178 L 161.574219 179.257812 L 162.203125 179.886719 L 162.832031 179.886719 L 164.089844 179.257812 L 164.71875 178.628906 L 165.976562 176.738281 "/>
<path style="fill:none;stroke-width:0.8;stroke-linecap:butt;stroke-linejoin:miter;stroke:#000000;stroke-opacity:1;stroke-miterlimit:4;" d="M 166.605469 178.628906 L 167.863281 178 L 168.492188 177.367188 L 169.125 176.109375 L 169.125 174.851562 L 168.492188 174.222656 L 167.863281 174.222656 L 166.605469 174.851562 L 165.976562 176.109375 L 165.976562 178 L 166.605469 179.257812 L 167.863281 179.886719 L 169.125 179.886719 L 170.382812 179.257812 L 171.011719 178.628906 L 172.269531 176.738281 "/>
<path style="fill:none;stroke-width:0.8;stroke-linecap:butt;stroke-linejoin:miter;stroke:#000000;stroke-opacity:1;stroke-miterlimit:4;" d="M 172.269531 176.738281 L 173.527344 174.851562 L 174.785156 174.222656 L 175.414062 174.851562 L 175.414062 175.480469 L 174.785156 178 L 174.15625 179.886719 M 174.785156 178 L 175.414062 176.738281 L 176.671875 174.851562 L 177.933594 174.222656 L 179.191406 174.222656 L 179.820312 174.851562 L 179.820312 176.109375 L 179.191406 178 L 179.191406 179.257812 L 179.820312 179.886719 L 180.449219 179.886719 L 181.707031 179.257812 L 182.335938 178.628906 L 183.59375 176.738281 "/>
<path style="fill:none;stroke-width:0.8;stroke-linecap:butt;stroke-linejoin:miter;stroke:#000000;stroke-opacity:1;stroke-miterlimit:4;" d="M 183.59375 176.738281 L 184.851562 174.851562 L 186.109375 172.335938 M 188 166.671875 L 184.222656 178 L 184.222656 179.257812 L 184.851562 179.886719 L 186.109375 179.886719 L 187.371094 179.257812 L 188 178.628906 L 189.257812 176.738281 M 184.222656 171.707031 L 188.628906 171.707031 "/>
<path style="fill:none;stroke-width:0.8;stroke-linecap:butt;stroke-linejoin:miter;stroke:#000000;stroke-opacity:1;stroke-miterlimit:4;" d="M 191.144531 171.078125 L 191.144531 171.707031 L 191.773438 171.707031 L 191.773438 171.078125 L 191.144531 171.078125 M 189.257812 176.738281 L 190.515625 174.222656 L 189.257812 178 L 189.257812 179.257812 L 189.886719 179.886719 L 190.515625 179.886719 L 191.773438 179.257812 L 192.402344 178.628906 L 193.660156 176.738281 "/>
<path style="fill:none;stroke-width:0.8;stroke-linecap:butt;stroke-linejoin:miter;stroke:#000000;stroke-opacity:1;stroke-miterlimit:4;" d="M 193.660156 176.738281 L 194.917969 174.851562 L 196.179688 174.222656 L 196.808594 174.851562 L 196.808594 175.480469 L 196.179688 178 L 195.550781 179.886719 M 196.179688 178 L 196.808594 176.738281 L 198.066406 174.851562 L 199.324219 174.222656 L 200.582031 174.222656 L 201.210938 174.851562 L 201.210938 176.109375 L 200.582031 178 L 200.582031 179.257812 L 201.210938 179.886719 L 201.839844 179.886719 L 203.097656 179.257812 L 203.730469 178.628906 L 204.988281 176.738281 "/>
<path style="fill:none;stroke-width:0.8;stroke-linecap:butt;stroke-linejoin:miter;stroke:#000000;stroke-opacity:1;stroke-miterlimit:4;" d="M 210.648438 176.109375 L 210.019531 174.851562 L 208.761719 174.222656 L 207.503906 174.222656 L 206.246094 174.851562 L 205.617188 175.480469 L 204.988281 176.738281 L 204.988281 178 L 205.617188 179.257812 L 206.875 179.886719 L 208.132812 179.886719 L 209.390625 179.257812 L 210.019531 178.628906 M 211.277344 174.222656 L 210.019531 178.628906 L 207.503906 185.546875 L 206.875 186.808594 L 205.617188 187.4375 L 204.988281 186.808594 L 204.988281 185.546875 L 205.617188 183.660156 L 207.503906 181.773438 L 209.390625 180.515625 L 210.648438 179.886719 L 212.539062 178.628906 L 214.425781 176.738281 "/>
<path style="fill:none;stroke-width:0.8;stroke-linecap:butt;stroke-linejoin:miter;stroke:#000000;stroke-opacity:1;stroke-miterlimit:4;" d="M 129.800781 194.195312 L 132.316406 191.046875 L 133.574219 189.160156 L 134.203125 187.902344 L 134.832031 186.015625 L 134.832031 184.757812 L 134.203125 184.125 L 132.945312 184.757812 L 132.316406 186.015625 L 131.058594 191.046875 L 129.167969 196.710938 L 127.28125 201.113281 L 126.652344 203.003906 L 126.652344 204.261719 L 127.28125 204.890625 L 128.539062 204.261719 L 129.167969 202.375 L 129.800781 196.710938 L 130.429688 197.339844 L 131.6875 197.339844 L 132.945312 196.710938 L 133.574219 196.082031 L 134.832031 194.195312 "/>
<path style="fill:none;stroke-width:0.8;stroke-linecap:butt;stroke-linejoin:miter;stroke:#000000;stroke-opacity:1;stroke-miterlimit:4;" d="M 134.832031 194.195312 L 136.089844 192.304688 L 136.71875 191.046875 L 136.71875 192.304688 L 138.609375 192.304688 L 139.238281 192.933594 L 139.238281 194.195312 L 138.609375 196.082031 L 138.609375 196.710938 L 139.238281 197.339844 L 139.867188 197.339844 L 141.125 196.710938 L 141.753906 196.082031 L 143.011719 194.195312 "/>
<path style="fill:none;stroke-width:0.8;stroke-linecap:butt;stroke-linejoin:miter;stroke:#000000;stroke-opacity:1;stroke-miterlimit:4;" d="M 143.640625 196.082031 L 144.898438 195.453125 L 145.527344 194.824219 L 146.15625 193.566406 L 146.15625 192.304688 L 145.527344 191.675781 L 144.898438 191.675781 L 143.640625 192.304688 L 143.011719 193.566406 L 143.011719 195.453125 L 143.640625 196.710938 L 144.898438 197.339844 L 146.15625 197.339844 L 147.417969 196.710938 L 148.046875 196.082031 L 149.304688 194.195312 "/>
<path style="fill:none;stroke-width:0.8;stroke-linecap:butt;stroke-linejoin:miter;stroke:#000000;stroke-opacity:1;stroke-miterlimit:4;" d="M 149.933594 196.082031 L 151.191406 195.453125 L 151.820312 194.824219 L 152.449219 193.566406 L 152.449219 192.304688 L 151.820312 191.675781 L 151.191406 191.675781 L 149.933594 192.304688 L 149.304688 193.566406 L 149.304688 195.453125 L 149.933594 196.710938 L 151.191406 197.339844 L 152.449219 197.339844 L 153.707031 196.710938 L 154.335938 196.082031 L 155.59375 194.195312 "/>
<path style="fill:none;stroke-width:0.8;stroke-linecap:butt;stroke-linejoin:miter;stroke:#000000;stroke-opacity:1;stroke-miterlimit:4;" d="M 155.59375 194.195312 L 158.113281 191.046875 L 159.371094 189.160156 L 160 187.902344 L 160.628906 186.015625 L 160.628906 184.757812 L 160 184.125 L 158.742188 184.757812 L 158.113281 186.015625 L 156.855469 191.046875 L 154.964844 196.710938 L 153.078125 201.113281 L 152.449219 203.003906 L 152.449219 204.261719 L 153.078125 204.890625 L 154.335938 204.261719 L 154.964844 202.375 L 155.59375 196.710938 L 156.226562 197.339844 L 157.484375 197.339844 L 158.742188 196.710938 L 159.371094 196.082031 L 160.628906 194.195312 "/>
<path style="fill:none;stroke-width:0.8;stroke-linecap:butt;stroke-linejoin:miter;stroke:#000000;stroke-opacity:1;stroke-miterlimit:4;" d="M 164.402344 191.675781 L 163.144531 191.675781 L 161.886719 192.304688 L 161.257812 192.933594 L 160.628906 194.195312 L 160.628906 195.453125 L 161.257812 196.710938 L 162.515625 197.339844 L 163.773438 197.339844 L 165.035156 196.710938 L 165.664062 196.082031 L 166.292969 194.824219 L 166.292969 193.566406 L 165.664062 192.304688 L 164.402344 191.675781 L 163.773438 192.304688 L 163.773438 193.566406 L 164.402344 194.824219 L 165.664062 195.453125 L 167.550781 195.453125 L 168.808594 194.824219 L 169.4375 194.195312 "/>
<path style="fill:none;stroke-width:0.8;stroke-linecap:butt;stroke-linejoin:miter;stroke:#000000;stroke-opacity:1;stroke-miterlimit:4;" d="M 169.4375 194.195312 L 170.695312 192.304688 L 171.324219 191.046875 L 171.324219 192.304688 L 173.214844 192.304688 L 173.84375 192.933594 L 173.84375 194.195312 L 173.214844 196.082031 L 173.214844 196.710938 L 173.84375 197.339844 L 174.472656 197.339844 L 175.730469 196.710938 L 176.359375 196.082031 L 177.617188 194.195312 "/>
<path style="fill:none;stroke-width:0.8;stroke-linecap:butt;stroke-linejoin:miter;stroke:#000000;stroke-opacity:1;stroke-miterlimit:4;" d="M 177.617188 194.195312 L 178.875 192.304688 L 180.132812 191.675781 L 180.761719 192.304688 L 180.761719 192.933594 L 180.132812 195.453125 L 179.503906 197.339844 M 180.132812 195.453125 L 180.761719 194.195312 L 182.023438 192.304688 L 183.28125 191.675781 L 184.539062 191.675781 L 185.167969 192.304688 L 185.167969 192.933594 L 184.539062 195.453125 L 183.910156 197.339844 M 184.539062 195.453125 L 185.167969 194.195312 L 186.425781 192.304688 L 187.683594 191.675781 L 188.941406 191.675781 L 189.570312 192.304688 L 189.570312 193.566406 L 188.941406 195.453125 L 188.941406 196.710938 L 189.570312 197.339844 L 190.199219 197.339844 L 191.460938 196.710938 L 192.089844 196.082031 L 193.347656 194.195312 "/>
</g>
</svg>
