<?xml version="1.0" encoding="UTF-8"?>
<svg xmlns="http://www.w3.org/2000/svg" xmlns:xlink="http://www.w3.org/1999/xlink" width="320pt" height="320pt" viewBox="0 0 320 320" version="1.1">
<g id="surface0">
<path style="fill:none;stroke-width:0.8;stroke-linecap:butt;stroke-linejoin:miter;stroke:#000000;stroke-opacity:1;stroke-miterlimit:4;" d="M 160 159.839844 L 160 166.066406 "/>
<path style="fill-rule:nonzero;fill:#ffffff;fill-opacity:1;stroke-width:0.8;stroke-linecap:round;stroke-linejoin:round;stroke:#000000;stroke-opacity:1;stroke-miterlimit:4;" d="M 13.097656 239.71875 L 39.835938 166.101562 L 160.03125 166.101562 L 133.292969 239.71875 L 13.097656 239.71875 Z M 13.097656 239.71875 "/>
<path style="fill:none;stroke-width:0.800823;stroke-linecap:butt;stroke-linejoin:miter;stroke:#000000;stroke-opacity:1;stroke-miterlimit:4;" d="M 37.545907 189.589844 L 37.545907 197.425781 L 35.804046 198.296875 L 36.673019 198.296875 L 38.41488 199.167969 L 39.287768 200.039062 M 38.41488 189.589844 L 38.41488 198.296875 L 40.156741 199.167969 M 39.287768 189.589844 L 39.287768 197.425781 L 41.029628 198.296875 L 41.898602 198.296875 L 40.156741 199.167969 L 39.287768 200.039062 M 37.545907 189.589844 L 41.029628 188.71875 L 42.771489 187.847656 L 45.382323 191.332031 L 43.640462 192.203125 L 39.287768 194.8125 M 41.898602 188.71875 L 44.51335 191.332031 M 39.287768 189.589844 L 41.029628 188.71875 L 43.640462 192.203125 " transform="matrix(0.997945,0,0,1,0,0)"/>
<path style="fill:none;stroke-width:0.800823;stroke-linecap:butt;stroke-linejoin:miter;stroke:#000000;stroke-opacity:1;stroke-miterlimit:4;" d="M 54.091627 187.847656 L 52.349766 188.71875 L 49.735018 189.589844 L 49.735018 197.425781 L 47.993157 198.296875 M 50.607905 189.589844 L 50.607905 197.425781 L 53.21874 199.167969 M 54.091627 187.847656 L 51.476879 189.589844 L 51.476879 197.425781 L 53.21874 198.296875 L 54.091627 199.167969 M 47.993157 198.296875 L 49.735018 198.296875 L 51.476879 199.167969 L 52.349766 200.039062 L 54.091627 199.167969 L 56.702461 198.296875 L 58.444322 198.296875 M 49.735018 183.496094 L 52.349766 181.753906 L 53.21874 184.367188 L 58.444322 189.589844 L 58.444322 198.296875 M 52.349766 184.367188 L 50.607905 183.496094 L 51.476879 182.625 L 52.349766 184.367188 L 57.571434 189.589844 L 57.571434 197.425781 M 49.735018 183.496094 L 56.702461 190.460938 L 56.702461 198.296875 " transform="matrix(0.997945,0,0,1,0,0)"/>
<path style="fill:none;stroke-width:0.800823;stroke-linecap:butt;stroke-linejoin:miter;stroke:#000000;stroke-opacity:1;stroke-miterlimit:4;" d="M 65.407851 181.753906 L 63.669904 183.496094 L 65.407851 184.367188 L 67.149711 183.496094 L 65.407851 181.753906 M 65.407851 182.625 L 64.538877 183.496094 L 66.280738 183.496094 L 65.407851 182.625 M 65.407851 187.847656 L 64.538877 188.71875 L 62.797017 189.589844 L 64.538877 190.460938 L 64.538877 198.296875 L 66.280738 200.039062 L 68.022599 198.296875 M 65.407851 190.460938 L 66.280738 189.589844 L 65.407851 188.71875 L 64.538877 189.589844 L 65.407851 190.460938 L 65.407851 198.296875 L 66.280738 199.167969 M 65.407851 187.847656 L 66.280738 188.71875 L 68.022599 189.589844 L 66.280738 190.460938 L 66.280738 197.425781 L 67.149711 198.296875 L 68.022599 198.296875 " transform="matrix(0.997945,0,0,1,0,0)"/>
<path style="fill:none;stroke-width:0.800823;stroke-linecap:butt;stroke-linejoin:miter;stroke:#000000;stroke-opacity:1;stroke-miterlimit:4;" d="M 72.375294 183.496094 L 73.248181 185.234375 L 73.248181 197.425781 L 71.50632 198.296875 L 72.375294 198.296875 L 74.117155 199.167969 L 74.986128 200.039062 M 74.117155 185.234375 L 73.248181 183.496094 L 74.117155 182.625 L 74.117155 198.296875 L 75.859015 199.167969 M 72.375294 183.496094 L 74.986128 181.753906 L 74.986128 197.425781 L 76.727989 198.296875 L 77.600876 198.296875 L 75.859015 199.167969 L 74.986128 200.039062 M 70.633433 187.847656 L 73.248181 187.847656 M 74.986128 187.847656 L 77.600876 187.847656 " transform="matrix(0.997945,0,0,1,0,0)"/>
<path style="fill:none;stroke-width:0.800823;stroke-linecap:butt;stroke-linejoin:miter;stroke:#000000;stroke-opacity:1;stroke-miterlimit:4;" d="M 81.953571 189.589844 L 81.953571 197.425781 L 80.21171 198.296875 M 82.826458 190.460938 L 82.826458 197.425781 L 85.437292 199.167969 M 83.695432 189.589844 L 83.695432 197.425781 L 85.437292 198.296875 L 86.306266 199.167969 M 80.21171 198.296875 L 81.953571 198.296875 L 83.695432 199.167969 L 84.568319 200.039062 L 86.306266 199.167969 L 88.921014 198.296875 L 90.662875 198.296875 M 81.953571 189.589844 L 83.695432 189.589844 L 86.306266 188.71875 L 88.048126 187.847656 L 88.921014 188.71875 L 90.662875 189.589844 L 92.404735 189.589844 L 90.662875 190.460938 L 90.662875 198.296875 M 87.179153 188.71875 L 89.789987 190.460938 L 89.789987 197.425781 M 86.306266 188.71875 L 87.179153 189.589844 L 88.921014 190.460938 L 88.921014 198.296875 " transform="matrix(0.997945,0,0,1,0,0)"/>
<path style="fill:none;stroke-width:0.800823;stroke-linecap:butt;stroke-linejoin:miter;stroke:#000000;stroke-opacity:1;stroke-miterlimit:4;" d="M 95.884543 189.589844 L 96.75743 189.589844 L 97.626404 190.460938 L 97.626404 197.425781 L 95.884543 198.296875 L 96.75743 198.296875 L 98.499291 199.167969 L 99.368264 200.039062 M 96.75743 188.71875 L 98.499291 189.589844 L 98.499291 198.296875 L 100.241152 199.167969 M 95.884543 189.589844 L 97.626404 187.847656 L 99.368264 189.589844 L 99.368264 197.425781 L 101.110125 198.296875 L 101.983013 198.296875 L 100.241152 199.167969 L 99.368264 200.039062 M 99.368264 189.589844 L 102.851986 187.847656 L 103.724873 188.71875 L 105.46282 189.589844 L 106.335707 189.589844 M 101.983013 188.71875 L 102.851986 189.589844 L 104.593847 189.589844 M 101.110125 188.71875 L 102.851986 190.460938 L 104.593847 190.460938 L 106.335707 189.589844 " transform="matrix(0.997945,0,0,1,0,0)"/>
<path style="fill:none;stroke-width:0.800823;stroke-linecap:butt;stroke-linejoin:miter;stroke:#000000;stroke-opacity:1;stroke-miterlimit:4;" d="M 110.688402 181.753906 L 108.946541 183.496094 L 110.688402 184.367188 L 112.430263 183.496094 L 110.688402 181.753906 M 110.688402 182.625 L 109.819429 183.496094 L 111.56129 183.496094 L 110.688402 182.625 M 110.688402 187.847656 L 109.819429 188.71875 L 108.077568 189.589844 L 109.819429 190.460938 L 109.819429 198.296875 L 111.56129 200.039062 L 113.30315 198.296875 M 110.688402 190.460938 L 111.56129 189.589844 L 110.688402 188.71875 L 109.819429 189.589844 L 110.688402 190.460938 L 110.688402 198.296875 L 111.56129 199.167969 M 110.688402 187.847656 L 111.56129 188.71875 L 113.30315 189.589844 L 111.56129 190.460938 L 111.56129 197.425781 L 112.430263 198.296875 L 113.30315 198.296875 " transform="matrix(0.997945,0,0,1,0,0)"/>
<path style="fill:none;stroke-width:0.800823;stroke-linecap:butt;stroke-linejoin:miter;stroke:#000000;stroke-opacity:1;stroke-miterlimit:4;" d="M 120.266679 192.203125 L 118.524819 193.945312 L 117.655845 195.683594 L 117.655845 197.425781 L 118.524819 199.167969 L 120.266679 200.039062 L 122.00854 198.296875 L 124.619374 197.425781 M 117.655845 195.683594 L 118.524819 197.425781 L 119.397706 198.296875 L 121.139567 199.167969 M 118.524819 193.945312 L 118.524819 195.683594 L 119.397706 197.425781 L 121.139567 198.296875 L 122.00854 198.296875 M 118.524819 190.460938 L 120.266679 190.460938 L 122.881428 189.589844 L 124.619374 188.71875 L 125.492262 187.847656 L 127.234122 189.589844 L 126.361235 190.460938 L 126.361235 197.425781 L 127.234122 198.296875 L 128.103096 198.296875 M 119.397706 188.71875 L 118.524819 189.589844 L 121.139567 189.589844 M 123.750401 189.589844 L 126.361235 189.589844 L 125.492262 188.71875 L 125.492262 198.296875 L 126.361235 199.167969 M 117.655845 189.589844 L 119.397706 187.847656 L 120.266679 188.71875 L 122.00854 189.589844 L 124.619374 190.460938 L 124.619374 198.296875 L 126.361235 200.039062 L 128.103096 198.296875 M 117.655845 189.589844 L 122.00854 193.945312 " transform="matrix(0.997945,0,0,1,0,0)"/>
<path style="fill:none;stroke-width:0.800823;stroke-linecap:butt;stroke-linejoin:miter;stroke:#000000;stroke-opacity:1;stroke-miterlimit:4;" d="M 132.459705 183.496094 L 133.328678 185.234375 L 133.328678 197.425781 L 131.586817 198.296875 L 132.459705 198.296875 L 134.197651 199.167969 L 135.070539 200.039062 M 134.197651 185.234375 L 133.328678 183.496094 L 134.197651 182.625 L 134.197651 198.296875 L 135.939512 199.167969 M 132.459705 183.496094 L 135.070539 181.753906 L 135.070539 197.425781 L 136.812399 198.296875 L 137.681373 198.296875 L 135.939512 199.167969 L 135.070539 200.039062 " transform="matrix(0.997945,0,0,1,0,0)"/>
<path style="fill:none;stroke-width:0.800823;stroke-linecap:butt;stroke-linejoin:miter;stroke:#000000;stroke-opacity:1;stroke-miterlimit:4;" d="M 37.545907 213.613281 L 37.545907 221.453125 L 35.804046 222.324219 L 36.673019 222.324219 L 38.41488 223.195312 L 39.287768 224.0625 M 38.41488 213.613281 L 38.41488 222.324219 L 40.156741 223.195312 M 39.287768 213.613281 L 39.287768 221.453125 L 41.029628 222.324219 L 41.898602 222.324219 L 40.156741 223.195312 L 39.287768 224.0625 M 37.545907 213.613281 L 41.029628 212.746094 L 42.771489 211.875 L 43.640462 212.746094 L 45.382323 213.613281 L 46.251296 213.613281 M 41.898602 212.746094 L 42.771489 213.613281 L 44.51335 213.613281 M 39.287768 213.613281 L 41.029628 212.746094 L 42.771489 214.484375 L 44.51335 214.484375 L 46.251296 213.613281 " transform="matrix(0.997945,0,0,1,0,0)"/>
<path style="fill:none;stroke-width:0.800823;stroke-linecap:butt;stroke-linejoin:miter;stroke:#000000;stroke-opacity:1;stroke-miterlimit:4;" d="M 49.735018 213.613281 L 49.735018 221.453125 L 47.993157 222.324219 M 50.607905 214.484375 L 50.607905 221.453125 L 53.21874 223.195312 M 51.476879 213.613281 L 51.476879 221.453125 L 53.21874 222.324219 L 54.091627 223.195312 M 47.993157 222.324219 L 49.735018 222.324219 L 51.476879 223.195312 L 52.349766 224.0625 L 54.091627 223.195312 L 56.702461 222.324219 L 58.444322 222.324219 M 49.735018 213.613281 L 51.476879 213.613281 L 54.091627 212.746094 L 55.829574 211.875 L 56.702461 212.746094 L 58.444322 213.613281 L 60.186183 213.613281 L 58.444322 214.484375 L 58.444322 222.324219 M 54.9606 212.746094 L 57.571434 214.484375 L 57.571434 221.453125 M 54.091627 212.746094 L 54.9606 213.613281 L 56.702461 214.484375 L 56.702461 222.324219 " transform="matrix(0.997945,0,0,1,0,0)"/>
<path style="fill:none;stroke-width:0.800823;stroke-linecap:butt;stroke-linejoin:miter;stroke:#000000;stroke-opacity:1;stroke-miterlimit:4;" d="M 63.669904 213.613281 L 64.538877 213.613281 L 65.411765 214.484375 L 65.411765 221.453125 L 63.669904 222.324219 L 64.538877 222.324219 L 66.280738 223.195312 L 67.149711 224.0625 M 65.411765 212.746094 L 66.280738 213.613281 L 66.280738 222.324219 L 68.022599 223.195312 M 63.669904 213.613281 L 65.411765 211.875 L 67.149711 213.613281 L 67.149711 221.453125 L 68.891572 222.324219 L 67.149711 224.0625 M 67.149711 214.484375 L 69.76446 213.613281 L 71.50632 212.746094 L 72.375294 211.875 L 73.248181 212.746094 L 74.986128 213.613281 L 75.859015 213.613281 L 74.117155 214.484375 L 74.117155 221.453125 L 74.986128 222.324219 L 75.859015 222.324219 M 71.50632 212.746094 L 73.248181 213.613281 L 73.248181 222.324219 L 74.117155 223.195312 M 69.76446 213.613281 L 70.633433 213.613281 L 72.375294 214.484375 L 72.375294 222.324219 L 74.117155 224.0625 L 75.859015 222.324219 " transform="matrix(0.997945,0,0,1,0,0)"/>
<path style="fill:none;stroke-width:0.800823;stroke-linecap:butt;stroke-linejoin:miter;stroke:#000000;stroke-opacity:1;stroke-miterlimit:4;" d="M 80.21171 207.519531 L 81.084598 209.261719 L 81.084598 221.453125 L 79.342737 222.324219 L 80.21171 222.324219 L 81.953571 223.195312 L 82.826458 224.0625 M 81.953571 209.261719 L 81.084598 207.519531 L 81.953571 206.648438 L 81.953571 222.324219 L 83.695432 223.195312 M 80.21171 207.519531 L 82.826458 205.777344 L 82.826458 221.453125 L 84.568319 222.324219 L 85.437292 222.324219 L 83.695432 223.195312 L 82.826458 224.0625 M 78.469849 211.875 L 81.084598 211.875 M 82.826458 211.875 L 85.437292 211.875 " transform="matrix(0.997945,0,0,1,0,0)"/>
<path style="fill:none;stroke-width:0.800823;stroke-linecap:butt;stroke-linejoin:miter;stroke:#000000;stroke-opacity:1;stroke-miterlimit:4;" d="M 88.048126 213.613281 L 88.921014 213.613281 L 89.789987 214.484375 L 89.789987 221.453125 L 88.048126 222.324219 L 88.921014 222.324219 L 90.662875 223.195312 L 91.531848 224.0625 M 88.921014 212.746094 L 90.662875 213.613281 L 90.662875 222.324219 L 92.404735 223.195312 M 88.048126 213.613281 L 89.789987 211.875 L 91.531848 213.613281 L 91.531848 221.453125 L 93.273709 222.324219 L 94.146596 222.324219 L 92.404735 223.195312 L 91.531848 224.0625 M 91.531848 213.613281 L 95.015569 211.875 L 95.884543 212.746094 L 97.626404 213.613281 L 98.499291 213.613281 M 94.146596 212.746094 L 95.015569 213.613281 L 96.75743 213.613281 M 93.273709 212.746094 L 95.015569 214.484375 L 96.75743 214.484375 L 98.499291 213.613281 " transform="matrix(0.997945,0,0,1,0,0)"/>
<path style="fill:none;stroke-width:0.800823;stroke-linecap:butt;stroke-linejoin:miter;stroke:#000000;stroke-opacity:1;stroke-miterlimit:4;" d="M 101.983013 213.613281 L 101.983013 221.453125 L 100.241152 222.324219 M 102.851986 214.484375 L 102.851986 221.453125 L 105.46282 223.195312 M 103.724873 213.613281 L 103.724873 221.453125 L 105.46282 222.324219 L 106.335707 223.195312 M 100.241152 222.324219 L 101.983013 222.324219 L 103.724873 223.195312 L 104.593847 224.0625 L 106.335707 223.195312 L 108.946541 222.324219 L 110.688402 222.324219 M 101.983013 213.613281 L 103.724873 213.613281 L 106.335707 212.746094 L 108.077568 211.875 L 108.946541 212.746094 L 110.688402 213.613281 L 112.430263 213.613281 L 110.688402 214.484375 L 110.688402 222.324219 M 107.204681 212.746094 L 109.819429 214.484375 L 109.819429 221.453125 M 106.335707 212.746094 L 107.204681 213.613281 L 108.946541 214.484375 L 108.946541 222.324219 " transform="matrix(0.997945,0,0,1,0,0)"/>
<path style="fill:none;stroke-width:0.800823;stroke-linecap:butt;stroke-linejoin:miter;stroke:#000000;stroke-opacity:1;stroke-miterlimit:4;" d="M 116.782958 207.519531 L 117.655845 209.261719 L 117.655845 221.453125 L 115.913984 222.324219 L 116.782958 222.324219 L 118.524819 223.195312 L 119.397706 224.0625 M 118.524819 209.261719 L 117.655845 207.519531 L 118.524819 206.648438 L 118.524819 222.324219 L 120.266679 223.195312 M 116.782958 207.519531 L 119.397706 205.777344 L 119.397706 221.453125 L 121.139567 222.324219 L 122.00854 222.324219 L 120.266679 223.195312 L 119.397706 224.0625 " transform="matrix(0.997945,0,0,1,0,0)"/>
</g>
</svg>
