<?xml version="1.0" encoding="UTF-8"?>
<svg xmlns="http://www.w3.org/2000/svg" xmlns:xlink="http://www.w3.org/1999/xlink" width="320pt" height="320pt" viewBox="0 0 320 320" version="1.1">
<g id="surface0">
<path style="fill-rule:nonzero;fill:#ffffff;fill-opacity:1;stroke-width:0.8;stroke-linecap:round;stroke-linejoin:round;stroke:#000000;stroke-opacity:1;stroke-miterlimit:4;" d="M 90.28125 212.707031 L 109.640625 159.511719 L 229.71875 159.511719 L 210.359375 212.707031 L 90.28125 212.707031 Z M 90.28125 212.707031 "/>
<path style="fill:none;stroke-width:0.8;stroke-linecap:butt;stroke-linejoin:miter;stroke:#000000;stroke-opacity:1;stroke-miterlimit:4;" d="M 115.300781 180.859375 L 114.671875 179.601562 L 113.414062 178.972656 L 112.15625 178.972656 L 110.894531 179.601562 L 110.265625 180.230469 L 109.636719 181.488281 L 109.636719 182.75 L 110.265625 184.007812 L 111.527344 184.636719 L 112.785156 184.636719 L 114.042969 184.007812 L 114.671875 182.75 L 118.445312 171.421875 M 115.929688 178.972656 L 115.300781 182.117188 L 115.300781 184.007812 L 115.929688 184.636719 L 116.558594 184.636719 L 117.816406 184.007812 L 118.445312 183.378906 L 119.703125 181.488281 "/>
<path style="fill:none;stroke-width:0.8;stroke-linecap:butt;stroke-linejoin:miter;stroke:#000000;stroke-opacity:1;stroke-miterlimit:4;" d="M 120.335938 183.378906 L 121.59375 182.75 L 122.222656 182.117188 L 122.851562 180.859375 L 122.851562 179.601562 L 122.222656 178.972656 L 121.59375 178.972656 L 120.335938 179.601562 L 119.703125 180.859375 L 119.703125 182.75 L 120.335938 184.007812 L 121.59375 184.636719 L 122.851562 184.636719 L 124.109375 184.007812 L 124.738281 183.378906 L 125.996094 181.488281 "/>
<path style="fill:none;stroke-width:0.8;stroke-linecap:butt;stroke-linejoin:miter;stroke:#000000;stroke-opacity:1;stroke-miterlimit:4;" d="M 130.402344 180.230469 L 130.402344 179.601562 L 129.773438 178.972656 L 128.511719 178.972656 L 127.253906 179.601562 L 126.625 180.230469 L 125.996094 181.488281 L 125.996094 182.75 L 126.625 184.007812 L 127.882812 184.636719 L 129.773438 184.636719 L 131.660156 183.378906 L 132.917969 181.488281 "/>
<path style="fill:none;stroke-width:0.8;stroke-linecap:butt;stroke-linejoin:miter;stroke:#000000;stroke-opacity:1;stroke-miterlimit:4;" d="M 133.546875 183.378906 L 134.804688 182.75 L 135.433594 182.117188 L 136.0625 180.859375 L 136.0625 179.601562 L 135.433594 178.972656 L 134.804688 178.972656 L 133.546875 179.601562 L 132.917969 180.859375 L 132.917969 182.75 L 133.546875 184.007812 L 134.804688 184.636719 L 136.0625 184.636719 L 137.320312 184.007812 L 137.953125 183.378906 L 139.210938 181.488281 "/>
<path style="fill:none;stroke-width:0.8;stroke-linecap:butt;stroke-linejoin:miter;stroke:#000000;stroke-opacity:1;stroke-miterlimit:4;" d="M 139.210938 181.488281 L 140.46875 179.601562 L 141.726562 178.972656 L 142.355469 179.601562 L 142.355469 180.230469 L 141.726562 182.75 L 141.097656 184.636719 M 141.726562 182.75 L 142.355469 181.488281 L 143.613281 179.601562 L 144.871094 178.972656 L 146.128906 178.972656 L 146.761719 179.601562 L 146.761719 180.859375 L 146.128906 182.75 L 146.128906 184.007812 L 146.761719 184.636719 L 147.390625 184.636719 L 148.648438 184.007812 L 149.277344 183.378906 L 150.535156 181.488281 "/>
<path style="fill:none;stroke-width:0.8;stroke-linecap:butt;stroke-linejoin:miter;stroke:#000000;stroke-opacity:1;stroke-miterlimit:4;" d="M 150.535156 181.488281 L 151.792969 179.601562 L 153.050781 177.085938 M 154.9375 171.421875 L 151.164062 182.75 L 151.164062 184.007812 L 151.792969 184.636719 L 153.050781 184.636719 L 154.308594 184.007812 L 154.9375 183.378906 L 156.199219 181.488281 M 151.164062 176.457031 L 155.570312 176.457031 "/>
<path style="fill:none;stroke-width:0.8;stroke-linecap:butt;stroke-linejoin:miter;stroke:#000000;stroke-opacity:1;stroke-miterlimit:4;" d="M 156.199219 181.488281 L 157.457031 179.601562 L 158.085938 178.34375 L 158.085938 179.601562 L 159.972656 179.601562 L 160.601562 180.230469 L 160.601562 181.488281 L 159.972656 183.378906 L 159.972656 184.007812 L 160.601562 184.636719 L 161.230469 184.636719 L 162.488281 184.007812 L 163.117188 183.378906 L 164.378906 181.488281 "/>
<path style="fill:none;stroke-width:0.8;stroke-linecap:butt;stroke-linejoin:miter;stroke:#000000;stroke-opacity:1;stroke-miterlimit:4;" d="M 170.039062 180.859375 L 169.410156 179.601562 L 168.152344 178.972656 L 166.894531 178.972656 L 165.636719 179.601562 L 165.007812 180.230469 L 164.378906 181.488281 L 164.378906 182.75 L 165.007812 184.007812 L 166.265625 184.636719 L 167.523438 184.636719 L 168.78125 184.007812 L 169.410156 182.75 L 170.667969 178.972656 L 170.039062 182.117188 L 170.039062 184.007812 L 170.667969 184.636719 L 171.296875 184.636719 L 172.558594 184.007812 L 173.1875 183.378906 L 174.445312 181.488281 "/>
<path style="fill:none;stroke-width:0.8;stroke-linecap:butt;stroke-linejoin:miter;stroke:#000000;stroke-opacity:1;stroke-miterlimit:4;" d="M 174.445312 181.488281 L 175.703125 179.601562 L 177.589844 176.457031 L 178.21875 175.199219 L 178.847656 173.308594 L 178.847656 172.050781 L 178.21875 171.421875 L 176.960938 172.050781 L 176.332031 173.308594 L 175.703125 175.828125 L 175.074219 180.230469 L 175.074219 184.007812 L 175.703125 184.636719 L 176.332031 184.636719 L 177.589844 184.007812 L 178.21875 183.378906 L 179.476562 181.488281 "/>
<path style="fill:none;stroke-width:0.8;stroke-linecap:butt;stroke-linejoin:miter;stroke:#000000;stroke-opacity:1;stroke-miterlimit:4;" d="M 181.367188 175.828125 L 181.367188 176.457031 L 181.996094 176.457031 L 181.996094 175.828125 L 181.367188 175.828125 M 179.476562 181.488281 L 180.734375 178.972656 L 179.476562 182.75 L 179.476562 184.007812 L 180.105469 184.636719 L 180.734375 184.636719 L 181.996094 184.007812 L 182.625 183.378906 L 183.882812 181.488281 "/>
<path style="fill:none;stroke-width:0.8;stroke-linecap:butt;stroke-linejoin:miter;stroke:#000000;stroke-opacity:1;stroke-miterlimit:4;" d="M 183.882812 181.488281 L 185.140625 179.601562 L 185.769531 178.34375 L 185.769531 179.601562 L 187.027344 181.488281 L 187.65625 182.75 L 187.65625 184.007812 L 186.398438 184.636719 M 183.882812 184.007812 L 185.140625 184.636719 L 187.65625 184.636719 L 188.914062 184.007812 L 189.542969 183.378906 L 190.804688 181.488281 "/>
<path style="fill:none;stroke-width:0.8;stroke-linecap:butt;stroke-linejoin:miter;stroke:#000000;stroke-opacity:1;stroke-miterlimit:4;" d="M 191.433594 183.378906 L 192.691406 182.75 L 193.320312 182.117188 L 193.949219 180.859375 L 193.949219 179.601562 L 193.320312 178.972656 L 192.691406 178.972656 L 191.433594 179.601562 L 190.804688 180.859375 L 190.804688 182.75 L 191.433594 184.007812 L 192.691406 184.636719 L 193.949219 184.636719 L 195.207031 184.007812 L 195.835938 183.378906 L 197.09375 181.488281 "/>
<path style="fill:none;stroke-width:0.8;stroke-linecap:butt;stroke-linejoin:miter;stroke:#000000;stroke-opacity:1;stroke-miterlimit:4;" d="M 202.757812 180.859375 L 202.128906 179.601562 L 200.871094 178.972656 L 199.613281 178.972656 L 198.351562 179.601562 L 197.722656 180.230469 L 197.09375 181.488281 L 197.09375 182.75 L 197.722656 184.007812 L 198.984375 184.636719 L 200.242188 184.636719 L 201.5 184.007812 L 202.128906 182.75 L 205.902344 171.421875 M 203.386719 178.972656 L 202.757812 182.117188 L 202.757812 184.007812 L 203.386719 184.636719 L 204.015625 184.636719 L 205.273438 184.007812 L 205.902344 183.378906 L 207.160156 181.488281 "/>
<path style="fill:none;stroke-width:0.8;stroke-linecap:butt;stroke-linejoin:miter;stroke:#000000;stroke-opacity:1;stroke-miterlimit:4;" d="M 111.839844 196.390625 L 111.839844 195.761719 L 111.210938 195.132812 L 109.953125 195.132812 L 108.695312 195.761719 L 108.066406 196.390625 L 107.4375 197.648438 L 107.4375 198.910156 L 108.066406 200.167969 L 109.324219 200.796875 L 111.210938 200.796875 L 113.097656 199.539062 L 114.355469 197.648438 "/>
<path style="fill:none;stroke-width:0.8;stroke-linecap:butt;stroke-linejoin:miter;stroke:#000000;stroke-opacity:1;stroke-miterlimit:4;" d="M 118.132812 195.132812 L 116.875 195.132812 L 115.613281 195.761719 L 114.984375 196.390625 L 114.355469 197.648438 L 114.355469 198.910156 L 114.984375 200.167969 L 116.246094 200.796875 L 117.503906 200.796875 L 118.761719 200.167969 L 119.390625 199.539062 L 120.019531 198.28125 L 120.019531 197.019531 L 119.390625 195.761719 L 118.132812 195.132812 L 117.503906 195.761719 L 117.503906 197.019531 L 118.132812 198.28125 L 119.390625 198.910156 L 121.277344 198.910156 L 122.535156 198.28125 L 123.164062 197.648438 "/>
<path style="fill:none;stroke-width:0.8;stroke-linecap:butt;stroke-linejoin:miter;stroke:#000000;stroke-opacity:1;stroke-miterlimit:4;" d="M 123.164062 197.648438 L 124.421875 195.761719 L 126.3125 192.617188 L 126.941406 191.359375 L 127.570312 189.472656 L 127.570312 188.210938 L 126.941406 187.582031 L 125.683594 188.210938 L 125.054688 189.472656 L 124.421875 191.988281 L 123.792969 196.390625 L 123.792969 200.167969 L 124.421875 200.796875 L 125.054688 200.796875 L 126.3125 200.167969 L 126.941406 199.539062 L 128.199219 197.648438 "/>
<path style="fill:none;stroke-width:0.8;stroke-linecap:butt;stroke-linejoin:miter;stroke:#000000;stroke-opacity:1;stroke-miterlimit:4;" d="M 128.199219 197.648438 L 129.457031 195.761719 L 131.34375 192.617188 L 131.972656 191.359375 L 132.601562 189.472656 L 132.601562 188.210938 L 131.972656 187.582031 L 130.714844 188.210938 L 130.085938 189.472656 L 129.457031 191.988281 L 128.828125 196.390625 L 128.828125 200.167969 L 129.457031 200.796875 L 130.085938 200.796875 L 131.34375 200.167969 L 131.972656 199.539062 L 133.234375 197.648438 "/>
<path style="fill:none;stroke-width:0.8;stroke-linecap:butt;stroke-linejoin:miter;stroke:#000000;stroke-opacity:1;stroke-miterlimit:4;" d="M 138.894531 197.019531 L 138.265625 195.761719 L 137.007812 195.132812 L 135.75 195.132812 L 134.492188 195.761719 L 133.863281 196.390625 L 133.234375 197.648438 L 133.234375 198.910156 L 133.863281 200.167969 L 135.121094 200.796875 L 136.378906 200.796875 L 137.636719 200.167969 L 138.265625 198.910156 L 139.523438 195.132812 L 138.894531 198.28125 L 138.894531 200.167969 L 139.523438 200.796875 L 140.152344 200.796875 L 141.410156 200.167969 L 142.042969 199.539062 L 143.300781 197.648438 "/>
<path style="fill:none;stroke-width:0.8;stroke-linecap:butt;stroke-linejoin:miter;stroke:#000000;stroke-opacity:1;stroke-miterlimit:4;" d="M 143.300781 197.648438 L 144.558594 195.761719 L 146.445312 192.617188 L 147.074219 191.359375 L 147.703125 189.472656 L 147.703125 188.210938 L 147.074219 187.582031 L 145.816406 188.210938 L 145.1875 189.472656 L 144.558594 191.988281 L 143.929688 196.390625 L 143.929688 200.167969 L 144.558594 200.796875 L 145.1875 200.796875 L 146.445312 200.167969 L 147.703125 198.910156 L 148.332031 197.019531 L 148.332031 195.132812 L 148.960938 197.648438 L 149.589844 198.28125 L 150.851562 198.28125 L 152.109375 197.648438 "/>
<path style="fill:none;stroke-width:0.8;stroke-linecap:butt;stroke-linejoin:miter;stroke:#000000;stroke-opacity:1;stroke-miterlimit:4;" d="M 155.882812 195.132812 L 154.625 195.132812 L 153.367188 195.761719 L 152.738281 196.390625 L 152.109375 197.648438 L 152.109375 198.910156 L 152.738281 200.167969 L 153.996094 200.796875 L 155.253906 200.796875 L 156.511719 200.167969 L 157.140625 199.539062 L 157.769531 198.28125 L 157.769531 197.019531 L 157.140625 195.761719 L 155.882812 195.132812 L 155.253906 195.761719 L 155.253906 197.019531 L 155.882812 198.28125 L 157.140625 198.910156 L 159.027344 198.910156 L 160.289062 198.28125 L 160.917969 197.648438 "/>
<path style="fill:none;stroke-width:0.8;stroke-linecap:butt;stroke-linejoin:miter;stroke:#000000;stroke-opacity:1;stroke-miterlimit:4;" d="M 160.917969 197.648438 L 162.175781 195.761719 L 162.804688 194.503906 L 162.804688 195.761719 L 164.691406 195.761719 L 165.320312 196.390625 L 165.320312 197.648438 L 164.691406 199.539062 L 164.691406 200.167969 L 165.320312 200.796875 L 165.949219 200.796875 L 167.207031 200.167969 L 167.835938 199.539062 L 169.097656 197.648438 "/>
<path style="fill:none;stroke-width:0.8;stroke-linecap:butt;stroke-linejoin:miter;stroke:#000000;stroke-opacity:1;stroke-miterlimit:4;" d="M 174.757812 197.019531 L 174.128906 195.761719 L 172.871094 195.132812 L 171.613281 195.132812 L 170.355469 195.761719 L 169.726562 196.390625 L 169.097656 197.648438 L 169.097656 198.910156 L 169.726562 200.167969 L 170.984375 200.796875 L 172.242188 200.796875 L 173.5 200.167969 L 174.128906 198.910156 L 175.386719 195.132812 L 174.757812 198.28125 L 174.757812 200.167969 L 175.386719 200.796875 L 176.015625 200.796875 L 177.277344 200.167969 L 177.90625 199.539062 L 179.164062 197.648438 "/>
<path style="fill:none;stroke-width:0.8;stroke-linecap:butt;stroke-linejoin:miter;stroke:#000000;stroke-opacity:1;stroke-miterlimit:4;" d="M 179.164062 197.648438 L 180.421875 195.761719 L 181.679688 193.246094 M 183.566406 187.582031 L 179.792969 198.910156 L 179.792969 200.167969 L 180.421875 200.796875 L 181.679688 200.796875 L 182.9375 200.167969 L 183.566406 199.539062 L 184.824219 197.648438 M 179.792969 192.617188 L 184.195312 192.617188 "/>
<path style="fill:none;stroke-width:0.8;stroke-linecap:butt;stroke-linejoin:miter;stroke:#000000;stroke-opacity:1;stroke-miterlimit:4;" d="M 186.714844 191.988281 L 186.714844 192.617188 L 187.34375 192.617188 L 187.34375 191.988281 L 186.714844 191.988281 M 184.824219 197.648438 L 186.085938 195.132812 L 184.824219 198.910156 L 184.824219 200.167969 L 185.457031 200.796875 L 186.085938 200.796875 L 187.34375 200.167969 L 187.972656 199.539062 L 189.230469 197.648438 "/>
<path style="fill:none;stroke-width:0.8;stroke-linecap:butt;stroke-linejoin:miter;stroke:#000000;stroke-opacity:1;stroke-miterlimit:4;" d="M 193.003906 195.132812 L 191.746094 195.132812 L 190.488281 195.761719 L 189.859375 196.390625 L 189.230469 197.648438 L 189.230469 198.910156 L 189.859375 200.167969 L 191.117188 200.796875 L 192.375 200.796875 L 193.632812 200.167969 L 194.261719 199.539062 L 194.894531 198.28125 L 194.894531 197.019531 L 194.261719 195.761719 L 193.003906 195.132812 L 192.375 195.761719 L 192.375 197.019531 L 193.003906 198.28125 L 194.261719 198.910156 L 196.152344 198.910156 L 197.410156 198.28125 L 198.039062 197.648438 "/>
<path style="fill:none;stroke-width:0.8;stroke-linecap:butt;stroke-linejoin:miter;stroke:#000000;stroke-opacity:1;stroke-miterlimit:4;" d="M 198.039062 197.648438 L 199.296875 195.761719 L 200.554688 195.132812 L 201.183594 195.761719 L 201.183594 196.390625 L 200.554688 198.910156 L 199.925781 200.796875 M 200.554688 198.910156 L 201.183594 197.648438 L 202.441406 195.761719 L 203.703125 195.132812 L 204.960938 195.132812 L 205.589844 195.761719 L 205.589844 197.019531 L 204.960938 198.910156 L 204.960938 200.167969 L 205.589844 200.796875 L 206.21875 200.796875 L 207.476562 200.167969 L 208.105469 199.539062 L 209.363281 197.648438 "/>
</g>
</svg>
