<?xml version="1.0" encoding="UTF-8"?>
<svg xmlns="http://www.w3.org/2000/svg" xmlns:xlink="http://www.w3.org/1999/xlink" width="320pt" height="320pt" viewBox="0 0 320 320" version="1.1">
<g id="surface0">
<path style="fill:none;stroke-width:0.8;stroke-linecap:butt;stroke-linejoin:miter;stroke:#000000;stroke-opacity:1;stroke-miterlimit:4;" d="M 160 160 L 160 179.269531 "/>
<path style="fill-rule:nonzero;fill:#ffffff;fill-opacity:1;stroke-width:0.8;stroke-linecap:round;stroke-linejoin:round;stroke:#000000;stroke-opacity:1;stroke-miterlimit:4;" d="M 163.585938 231.695312 C 163.585938 231.695312 162.449219 233.171875 162.449219 233.398438 C 162.449219 233.625 162.164062 235.105469 162.164062 235.390625 C 162.164062 235.671875 162.789062 238.910156 162.789062 238.910156 L 163.472656 240.21875 L 164.269531 240.726562 L 165.578125 240.558594 L 166.316406 239.648438 L 166.773438 237.945312 L 166.886719 235.898438 L 167.058594 234.253906 "/>
<path style="fill-rule:nonzero;fill:#ffffff;fill-opacity:1;stroke-width:0.8;stroke-linecap:round;stroke-linejoin:round;stroke:#000000;stroke-opacity:1;stroke-miterlimit:4;" d="M 167.113281 225.046875 L 164.726562 226.980469 L 163.183594 229.648438 L 163.246094 231.242188 L 164.269531 232.316406 L 165.804688 233.625 L 167.058594 234.308594 L 168.082031 233.796875 L 169.902344 232.71875 L 171.78125 230.558594 "/>
<path style="fill-rule:nonzero;fill:#ffffff;fill-opacity:1;stroke-width:0.8;stroke-linecap:round;stroke-linejoin:round;stroke:#000000;stroke-opacity:1;stroke-miterlimit:4;" d="M 144.917969 206.070312 C 144.917969 206.410156 145.65625 212.546875 145.65625 212.546875 L 146.511719 218.226562 L 147.59375 224.820312 L 148.445312 226.921875 L 149.359375 227.714844 L 151.574219 228.683594 L 153.230469 228.742188 L 154.535156 227.601562 L 155.503906 224.421875 L 158.007812 213.738281 L 159.714844 208.457031 L 160.855469 206.636719 L 161.652344 206.410156 L 162.789062 207.664062 L 164.210938 212.773438 L 166.089844 221.292969 L 167.628906 226.582031 L 169.621094 229.988281 L 171.78125 230.617188 L 174.171875 230.046875 L 175.027344 228.855469 L 175.425781 226.695312 L 175.253906 225.726562 "/>
<path style="fill-rule:nonzero;fill:#ffffff;fill-opacity:1;stroke-width:0.8;stroke-linecap:round;stroke-linejoin:round;stroke:#000000;stroke-opacity:1;stroke-miterlimit:4;" d="M 171.496094 217.207031 L 170.929688 221.414062 L 170.984375 222.152344 L 172.066406 222.261719 L 172.523438 223.628906 L 173.207031 225.046875 L 174.230469 225.84375 L 175.539062 225.730469 L 176.449219 224.707031 L 177.019531 222.773438 L 176.675781 220.386719 L 175.710938 217.207031 "/>
<path style="fill-rule:nonzero;fill:#ffffff;fill-opacity:1;stroke-width:0.8;stroke-linecap:round;stroke-linejoin:round;stroke:#000000;stroke-opacity:1;stroke-miterlimit:4;" d="M 139.398438 211.699219 L 138.144531 214.027344 L 137.632812 215.558594 L 137.289062 216.699219 L 137.859375 217.664062 L 139.171875 218.226562 L 141.386719 218.628906 L 142.527344 217.546875 L 143.152344 215.050781 L 143.207031 212.773438 L 143.035156 211.804688 "/>
<path style="fill-rule:nonzero;fill:#ffffff;fill-opacity:1;stroke-width:0.8;stroke-linecap:round;stroke-linejoin:round;stroke:#000000;stroke-opacity:1;stroke-miterlimit:4;" d="M 162.617188 179.996094 L 166.375 180.105469 L 170.53125 181.070312 L 172.917969 181.980469 L 174.515625 183.117188 L 176.109375 184.996094 L 176.675781 187.550781 L 176.960938 200.503906 L 177.1875 212.265625 L 176.960938 214.421875 L 176.5625 217.152344 L 173.660156 217.433594 L 170.984375 217.207031 L 170.128906 209.3125 L 169.617188 202.601562 L 169.164062 197.890625 L 168.648438 196.527344 L 167.226562 195.394531 L 164.667969 193.460938 "/>
<path style="fill-rule:nonzero;fill:#ffffff;fill-opacity:1;stroke-width:0.8;stroke-linecap:round;stroke-linejoin:round;stroke:#000000;stroke-opacity:1;stroke-miterlimit:4;" d="M 155.390625 180.449219 L 149.015625 181.980469 L 146.851562 183.289062 L 144.632812 186.8125 L 141.671875 192.71875 L 139.90625 196.414062 L 139.398438 199.59375 L 138.824219 207.4375 L 138.539062 210.671875 L 138.882812 211.523438 L 141.101562 212.210938 L 143.777344 211.753906 L 144.746094 207.039062 L 146.109375 201.46875 L 148.164062 198.175781 L 151.179688 195.726562 L 153.511719 194.480469 L 155.957031 193.234375 "/>
<path style="fill-rule:nonzero;fill:#ffffff;fill-opacity:1;stroke-width:0.8;stroke-linecap:round;stroke-linejoin:round;stroke:#000000;stroke-opacity:1;stroke-miterlimit:4;" d="M 154.25 181.929688 L 155.617188 180.222656 L 157.324219 179.371094 L 159.203125 178.96875 L 161.195312 179.371094 L 163.414062 180.332031 L 164.382812 181.699219 L 165.519531 185.105469 L 165.519531 187.433594 L 165.347656 191.414062 L 164.726562 193.402344 L 163.816406 195.046875 L 162.390625 195.902344 L 160.515625 196.242188 L 158.632812 196.015625 L 156.8125 194.992188 L 155.558594 192.265625 L 154.191406 187.492188 L 153.855469 184.085938 L 154.25 181.929688 Z M 154.25 181.929688 "/>
</g>
</svg>
