<?xml version="1.0" encoding="UTF-8"?>
<svg xmlns="http://www.w3.org/2000/svg" xmlns:xlink="http://www.w3.org/1999/xlink" width="320pt" height="320pt" viewBox="0 0 320 320" version="1.1">
<g id="surface0">
<path style="fill-rule:nonzero;fill:#ffffff;fill-opacity:1;stroke-width:0.8;stroke-linecap:round;stroke-linejoin:round;stroke:#000000;stroke-opacity:1;stroke-miterlimit:4;" d="M 199.402344 177.671875 L 160 160 L 120.597656 177.671875 L 120.597656 215.105469 L 199.402344 215.105469 L 199.402344 177.671875 Z M 199.402344 177.671875 "/>
<path style="fill:none;stroke-width:0.8;stroke-linecap:butt;stroke-linejoin:miter;stroke:#000000;stroke-opacity:1;stroke-miterlimit:4;" d="M 144.3125 188.804688 L 142.839844 188.804688 L 141.371094 188.066406 L 140.632812 186.597656 L 141.371094 185.125 L 143.574219 184.390625 L 145.78125 184.390625 L 148.722656 185.125 L 150.929688 185.125 L 152.402344 184.390625 M 148.722656 185.125 L 147.253906 190.273438 L 145.78125 194.6875 L 144.3125 197.628906 L 142.839844 199.101562 L 141.371094 199.835938 L 139.898438 199.835938 L 138.425781 199.101562 L 137.691406 197.628906 L 137.691406 196.15625 L 138.425781 195.421875 L 139.898438 195.421875 L 141.371094 196.15625 "/>
<path style="fill:none;stroke-width:0.8;stroke-linecap:butt;stroke-linejoin:miter;stroke:#000000;stroke-opacity:1;stroke-miterlimit:4;" d="M 152.144531 193.214844 L 150.671875 193.214844 L 149.203125 193.953125 L 148.464844 194.6875 L 147.730469 196.15625 L 147.730469 197.628906 L 148.464844 199.101562 L 149.9375 199.835938 L 151.40625 199.835938 L 152.878906 199.101562 L 153.613281 198.363281 L 154.351562 196.894531 L 154.351562 195.421875 L 153.613281 193.953125 L 152.144531 193.214844 L 151.40625 193.953125 L 151.40625 195.421875 L 152.144531 196.894531 L 153.613281 197.628906 L 155.820312 197.628906 L 157.292969 196.894531 L 158.027344 196.15625 "/>
<path style="fill:none;stroke-width:0.8;stroke-linecap:butt;stroke-linejoin:miter;stroke:#000000;stroke-opacity:1;stroke-miterlimit:4;" d="M 162.441406 193.214844 L 160.96875 193.214844 L 159.5 193.953125 L 158.761719 194.6875 L 158.027344 196.15625 L 158.027344 197.628906 L 158.761719 199.101562 L 160.234375 199.835938 L 161.703125 199.835938 L 163.175781 199.101562 L 163.910156 198.363281 L 164.648438 196.894531 L 164.648438 195.421875 L 163.910156 193.953125 L 162.441406 193.214844 L 161.703125 193.953125 L 161.703125 195.421875 L 162.441406 196.894531 L 163.910156 197.628906 L 166.117188 197.628906 L 167.589844 196.894531 L 168.324219 196.15625 "/>
<path style="fill:none;stroke-width:0.8;stroke-linecap:butt;stroke-linejoin:miter;stroke:#000000;stroke-opacity:1;stroke-miterlimit:4;" d="M 168.324219 196.15625 L 169.796875 193.953125 L 172 190.273438 L 172.738281 188.804688 L 173.472656 186.597656 L 173.472656 185.125 L 172.738281 184.390625 L 171.265625 185.125 L 170.53125 186.597656 L 169.796875 189.539062 L 169.058594 194.6875 L 169.058594 199.101562 L 169.796875 199.835938 L 170.53125 199.835938 L 172 199.101562 L 172.738281 198.363281 L 174.207031 196.15625 "/>
<path style="fill:none;stroke-width:0.8;stroke-linecap:butt;stroke-linejoin:miter;stroke:#000000;stroke-opacity:1;stroke-miterlimit:4;" d="M 174.207031 196.15625 L 175.679688 193.953125 L 176.414062 192.480469 L 176.414062 193.953125 L 177.886719 196.15625 L 178.621094 197.628906 L 178.621094 199.101562 L 177.148438 199.835938 M 174.207031 199.101562 L 175.679688 199.835938 L 178.621094 199.835938 L 180.09375 199.101562 L 180.828125 198.363281 L 182.296875 196.15625 "/>
</g>
</svg>
