<?xml version="1.0" encoding="UTF-8"?>
<svg xmlns="http://www.w3.org/2000/svg" xmlns:xlink="http://www.w3.org/1999/xlink" width="320pt" height="320pt" viewBox="0 0 320 320" version="1.1">
<g id="surface0">
<path style="fill-rule:nonzero;fill:#ffffff;fill-opacity:1;stroke-width:0.8;stroke-linecap:round;stroke-linejoin:round;stroke:#000000;stroke-opacity:1;stroke-miterlimit:4;" d="M 131.277344 187.472656 L 131.816406 186.011719 L 133.039062 180.941406 L 131.429688 180.636719 L 130.820312 178.867188 L 129.28125 178.792969 L 126.988281 179.632812 L 125.753906 182.484375 L 125.070312 186.164062 L 124.996094 187.550781 "/>
<path style="fill-rule:nonzero;fill:#ffffff;fill-opacity:1;stroke-width:0.8;stroke-linecap:round;stroke-linejoin:round;stroke:#000000;stroke-opacity:1;stroke-miterlimit:4;" d="M 166.457031 178.640625 L 165.84375 174.871094 L 164.074219 171.644531 L 162.085938 169.957031 L 158.640625 169.800781 L 157.796875 170.722656 L 158.871094 173.71875 L 157.796875 175.410156 L 159.863281 178.253906 L 161.472656 180.253906 "/>
<path style="fill-rule:nonzero;fill:#ffffff;fill-opacity:1;stroke-width:0.8;stroke-linecap:round;stroke-linejoin:round;stroke:#000000;stroke-opacity:1;stroke-miterlimit:4;" d="M 173.582031 197.691406 L 174.121094 194.011719 L 172.589844 188.707031 L 171.285156 185.019531 L 169.515625 181.023438 L 168.066406 178.480469 L 166.375 178.714844 L 163.238281 179.632812 L 161.398438 180.328125 L 161.78125 181.789062 L 162.542969 184.089844 L 164.074219 188.402344 L 164.695312 191.546875 L 164.695312 193.621094 "/>
<path style="fill-rule:nonzero;fill:#ffffff;fill-opacity:1;stroke-width:0.8;stroke-linecap:round;stroke-linejoin:round;stroke:#000000;stroke-opacity:1;stroke-miterlimit:4;" d="M 123.765625 198.925781 L 123.535156 194.472656 L 123.765625 191.9375 L 124 189.78125 L 124.917969 187.625 L 126.222656 186.859375 L 128.976562 187.09375 L 131.355469 187.472656 L 131.816406 189.015625 L 131.664062 191.089844 "/>
<path style="fill-rule:nonzero;fill:#ffffff;fill-opacity:1;stroke-width:0.8;stroke-linecap:round;stroke-linejoin:round;stroke:#000000;stroke-opacity:1;stroke-miterlimit:4;" d="M 132.355469 204.457031 L 127.832031 206.839844 L 125.304688 206.765625 L 124.070312 205.691406 L 123.460938 204.078125 L 123.308594 201.382812 L 123.765625 198.925781 L 125.449219 197.539062 L 127.367188 195.625 L 130.132812 193.238281 "/>
<path style="fill-rule:nonzero;fill:#ffffff;fill-opacity:1;stroke-width:0.8;stroke-linecap:round;stroke-linejoin:round;stroke:#000000;stroke-opacity:1;stroke-miterlimit:4;" d="M 143.304688 190.78125 L 137.332031 190.546875 L 133.957031 190.628906 L 131.734375 191.007812 L 129.746094 193.929688 L 129.441406 197.925781 L 130.207031 202.617188 L 131.503906 204.078125 L 135.722656 205.378906 L 148.601562 207.613281 L 155.347656 208.226562 L 161.09375 208.378906 L 166.375 207.839844 L 169.597656 206.613281 L 171.433594 205.304688 L 172.589844 202.617188 L 173.273438 200.613281 L 173.582031 197.539062 L 172.285156 196.390625 L 167.296875 194.472656 L 163.316406 193.164062 L 158.40625 192.089844 "/>
<path style="fill-rule:nonzero;fill:#ffffff;fill-opacity:1;stroke-width:0.8;stroke-linecap:round;stroke-linejoin:round;stroke:#000000;stroke-opacity:1;stroke-miterlimit:4;" d="M 144.078125 188.167969 L 145.6875 184.40625 L 148.0625 181.789062 L 150.589844 180.867188 L 153.964844 181.097656 L 157.488281 183.9375 L 158.710938 187.550781 L 158.328125 193.007812 L 156.335938 197.851562 L 153.882812 200.695312 L 150.285156 202.074219 L 146.300781 200.769531 L 143.851562 198.3125 L 143 195.15625 L 142.851562 192.394531 L 144.078125 188.167969 Z M 144.078125 188.167969 "/>
<path style="fill:none;stroke-width:0.8;stroke-linecap:butt;stroke-linejoin:miter;stroke:#000000;stroke-opacity:1;stroke-miterlimit:4;" d="M 160 160 L 160 169.894531 "/>
</g>
</svg>
