<?xml version="1.0" encoding="UTF-8"?>
<svg xmlns="http://www.w3.org/2000/svg" xmlns:xlink="http://www.w3.org/1999/xlink" width="320pt" height="320pt" viewBox="0 0 320 320" version="1.1">
<g id="surface0">
<path style="fill:none;stroke-width:0.8;stroke-linecap:butt;stroke-linejoin:miter;stroke:#000000;stroke-opacity:1;stroke-miterlimit:4;" d="M 160 160 L 160 164.867188 "/>
<path style="fill-rule:nonzero;fill:#ffffff;fill-opacity:1;stroke-width:0.8;stroke-linecap:round;stroke-linejoin:round;stroke:#000000;stroke-opacity:1;stroke-miterlimit:4;" d="M 165.109375 211.597656 L 164.035156 213.394531 L 164.125 215.546875 L 164.441406 217.429688 L 165.15625 217.878906 L 166.320312 217.292969 L 168.699219 215.230469 L 169.101562 213.886719 L 169.144531 212.183594 L 168.742188 211.421875 L 168.382812 210.839844 "/>
<path style="fill-rule:nonzero;fill:#ffffff;fill-opacity:1;stroke-width:0.8;stroke-linecap:round;stroke-linejoin:round;stroke:#000000;stroke-opacity:1;stroke-miterlimit:4;" d="M 150.851562 219.898438 L 150.089844 221.417969 L 150 223.214844 L 150.269531 224.828125 L 151.03125 226.171875 L 151.613281 227.160156 L 152.46875 227.65625 L 153.945312 226.757812 L 154.53125 225.1875 L 154.886719 222.140625 L 154.800781 219.988281 L 154.261719 219.226562 "/>
<path style="fill-rule:nonzero;fill:#ffffff;fill-opacity:1;stroke-width:0.8;stroke-linecap:round;stroke-linejoin:round;stroke:#000000;stroke-opacity:1;stroke-miterlimit:4;" d="M 164.304688 205.59375 L 163.855469 206.847656 L 163.988281 208.6875 L 164.257812 210.882812 L 165.15625 211.6875 L 166.320312 211.734375 L 167.621094 211.421875 L 168.835938 210.523438 L 169.503906 208.777344 L 169.460938 206.847656 L 169.324219 205.007812 L 168.789062 204.382812 "/>
<path style="fill-rule:nonzero;fill:#ffffff;fill-opacity:1;stroke-width:0.8;stroke-linecap:round;stroke-linejoin:round;stroke:#000000;stroke-opacity:1;stroke-miterlimit:4;" d="M 150.046875 185.320312 L 149.285156 186.398438 L 148.699219 192.675781 L 148.65625 195.726562 L 148.5625 198.148438 L 148.429688 199.402344 L 148.519531 202.453125 L 148.25 203.441406 L 148.027344 204.832031 L 147.9375 206.308594 L 148.382812 208.550781 L 148.609375 211.421875 L 149.058594 214.917969 L 149.550781 217.292969 L 149.957031 219.089844 L 150.941406 219.988281 L 152.691406 220.121094 L 153.855469 219.582031 L 155.019531 218.550781 L 155.425781 215.992188 L 155.960938 210.433594 L 156.320312 207.070312 L 155.5625 204.917969 L 156.230469 202.675781 L 157.441406 199.222656 L 159.503906 193.214844 L 159.957031 192.003906 L 160.984375 193.929688 L 161.792969 196.710938 L 162.242188 199.136719 L 162.957031 202.410156 L 163.363281 204.246094 L 164.078125 205.546875 L 165.109375 205.773438 L 166.902344 205.144531 L 169.101562 204.246094 L 169.730469 202.808594 L 170.714844 197.25 L 171.167969 193.035156 L 171.566406 189.539062 L 171.65625 187.339844 L 171.792969 184.960938 L 171.476562 183.257812 "/>
<path style="fill-rule:nonzero;fill:#ffffff;fill-opacity:1;stroke-width:0.8;stroke-linecap:round;stroke-linejoin:round;stroke:#000000;stroke-opacity:1;stroke-miterlimit:4;" d="M 149.730469 177.972656 L 149.414062 180.167969 L 149.285156 182.457031 L 149.371094 184.425781 L 149.550781 185.1875 L 152.511719 185.996094 L 156.277344 186.535156 L 159.640625 186.21875 L 161.65625 186.21875 L 164.167969 186.128906 L 167.847656 185.097656 L 170.984375 184.066406 L 171.792969 182.675781 L 172.015625 181.019531 L 171.972656 179.402344 "/>
<path style="fill-rule:nonzero;fill:#ffffff;fill-opacity:1;stroke-width:0.8;stroke-linecap:round;stroke-linejoin:round;stroke:#000000;stroke-opacity:1;stroke-miterlimit:4;" d="M 141.4375 190.660156 L 141.03125 192.542969 L 141.03125 195.144531 L 141.527344 195.726562 L 142.242188 195.773438 L 143.09375 196.039062 L 143.898438 195.683594 L 144.84375 195.773438 L 145.292969 193.84375 L 146.367188 193.796875 L 145.109375 190.566406 "/>
<path style="fill-rule:nonzero;fill:#ffffff;fill-opacity:1;stroke-width:0.8;stroke-linecap:round;stroke-linejoin:round;stroke:#000000;stroke-opacity:1;stroke-miterlimit:4;" d="M 176.949219 188.371094 L 176.546875 189.71875 L 177.082031 191.824219 L 177.578125 193.441406 L 178.203125 194.109375 L 179.234375 194.109375 L 180.445312 193.574219 L 181.164062 192.585938 L 180.804688 190.660156 L 180.355469 188.640625 L 179.414062 187.746094 "/>
<path style="fill-rule:nonzero;fill:#ffffff;fill-opacity:1;stroke-width:0.8;stroke-linecap:round;stroke-linejoin:round;stroke:#000000;stroke-opacity:1;stroke-miterlimit:4;" d="M 157.085938 165.996094 L 152.152344 166.402344 L 150.046875 166.980469 L 148.878906 167.703125 L 146.863281 170.433594 L 144.664062 173.796875 L 142.957031 176.308594 L 141.390625 178.773438 L 140.941406 179.988281 L 140.808594 183.035156 L 140.941406 188.777344 L 140.941406 190.523438 L 142.421875 190.839844 L 144.664062 190.792969 L 145.515625 190.386719 L 146.636719 181.777344 L 148.25 179.492188 L 150.046875 177.699219 L 152.421875 176.265625 L 156.546875 175.992188 "/>
<path style="fill-rule:nonzero;fill:#ffffff;fill-opacity:1;stroke-width:0.8;stroke-linecap:round;stroke-linejoin:round;stroke:#000000;stroke-opacity:1;stroke-miterlimit:4;" d="M 163.09375 165.546875 L 165.246094 165.140625 L 167.847656 165.59375 L 169.910156 166.402344 L 171.613281 168.28125 L 172.867188 170.34375 L 175.289062 174.15625 L 176.410156 176.351562 L 178.699219 182.230469 L 179.773438 185.097656 L 180.402344 186.980469 L 180.445312 187.519531 L 178.160156 187.96875 L 176.320312 188.597656 L 175.109375 185.546875 L 174.257812 182.457031 L 173.183594 180.65625 L 170.625 177.925781 L 169.144531 176.757812 L 166.230469 176.21875 L 163.765625 176.039062 "/>
<path style="fill-rule:nonzero;fill:#ffffff;fill-opacity:1;stroke-width:0.8;stroke-linecap:round;stroke-linejoin:round;stroke:#000000;stroke-opacity:1;stroke-miterlimit:4;" d="M 155.472656 171.289062 L 155.652344 168.640625 L 156.457031 166.625 L 157.625 165.460938 L 159.371094 165.007812 L 161.523438 165.007812 L 163.136719 165.59375 L 164.035156 166.714844 L 164.53125 168.640625 L 164.441406 172.003906 L 164.257812 174.246094 L 163.988281 175.859375 L 162.777344 177.160156 L 161.523438 178.148438 L 158.652344 178.058594 L 156.996094 176.804688 L 155.960938 174.609375 L 155.472656 171.289062 Z M 155.472656 171.289062 "/>
</g>
</svg>
