<?xml version="1.0" encoding="UTF-8"?>
<svg xmlns="http://www.w3.org/2000/svg" xmlns:xlink="http://www.w3.org/1999/xlink" width="320pt" height="320pt" viewBox="0 0 320 320" version="1.1">
<g id="surface0">
<path style="fill:none;stroke-width:0.8;stroke-linecap:butt;stroke-linejoin:miter;stroke:#000000;stroke-opacity:1;stroke-miterlimit:4;" d="M 160 159.839844 L 160 166.066406 "/>
<path style="fill-rule:nonzero;fill:#ffffff;fill-opacity:1;stroke-width:0.8;stroke-linecap:round;stroke-linejoin:round;stroke:#000000;stroke-opacity:1;stroke-miterlimit:4;" d="M 162.332031 171.8125 L 162.332031 168.828125 L 161.953125 166.914062 L 161.03125 165.996094 L 159.503906 165.613281 L 157.664062 165.996094 L 155.984375 168.21875 L 155.753906 169.214844 "/>
<path style="fill-rule:nonzero;fill:#ffffff;fill-opacity:1;stroke-width:0.8;stroke-linecap:round;stroke-linejoin:round;stroke:#000000;stroke-opacity:1;stroke-miterlimit:4;" d="M 130.441406 217.980469 C 130.441406 217.980469 128.835938 219.964844 128.988281 220.34375 C 129.140625 220.730469 129.140625 224.332031 129.140625 224.332031 L 129.984375 227.929688 L 132.128906 229.464844 L 133.734375 229.15625 L 134.804688 227.550781 L 135.871094 225.023438 L 136.257812 221.5 L 136.484375 218.671875 L 135.71875 216.675781 "/>
<path style="fill-rule:nonzero;fill:#ffffff;fill-opacity:1;stroke-width:0.8;stroke-linecap:round;stroke-linejoin:round;stroke:#000000;stroke-opacity:1;stroke-miterlimit:4;" d="M 150.097656 175.488281 L 152.546875 172.191406 L 153.839844 170.515625 L 155.679688 169.289062 L 158.203125 169.824219 L 160.652344 170.664062 L 162.332031 171.964844 L 162.5625 173.960938 L 162.871094 177.175781 L 162.871094 178.855469 "/>
<path style="fill-rule:nonzero;fill:#ffffff;fill-opacity:1;stroke-width:0.8;stroke-linecap:round;stroke-linejoin:round;stroke:#000000;stroke-opacity:1;stroke-miterlimit:4;" d="M 125.78125 198.917969 L 126.3125 204.042969 L 127.003906 210.78125 L 127.917969 214.070312 L 129.445312 217.671875 L 131.742188 218.359375 L 133.351562 218.050781 L 135.339844 217.207031 L 136.332031 215.984375 L 137.324219 212.925781 L 138.472656 208.636719 "/>
<path style="fill-rule:nonzero;fill:#ffffff;fill-opacity:1;stroke-width:0.8;stroke-linecap:round;stroke-linejoin:round;stroke:#000000;stroke-opacity:1;stroke-miterlimit:4;" d="M 110.023438 202.972656 L 107.582031 203.738281 L 105.285156 206.570312 L 104.519531 208.410156 L 105.820312 212.621094 L 106.890625 213.992188 L 109.574219 211.238281 L 111.171875 211.546875 L 112.703125 208.792969 L 113.011719 207.105469 "/>
<path style="fill-rule:nonzero;fill:#ffffff;fill-opacity:1;stroke-width:0.8;stroke-linecap:round;stroke-linejoin:round;stroke:#000000;stroke-opacity:1;stroke-miterlimit:4;" d="M 169.519531 214.152344 L 169.441406 216.597656 L 169.441406 218.976562 L 171.816406 219.507812 L 172.652344 221.648438 L 173.039062 222.949219 L 174.796875 222.722656 L 176.78125 221.035156 L 177.625 218.742188 L 177.472656 215.90625 L 177.167969 213.460938 L 176.402344 212.238281 "/>
<path style="fill-rule:nonzero;fill:#ffffff;fill-opacity:1;stroke-width:0.8;stroke-linecap:round;stroke-linejoin:round;stroke:#000000;stroke-opacity:1;stroke-miterlimit:4;" d="M 150.019531 197.152344 L 156.210938 198.375 L 158.433594 198.917969 L 160.878906 199.675781 L 163.707031 204.042969 L 166.386719 208.941406 L 167.914062 212.003906 L 168.605469 214.148438 L 171.277344 214.148438 L 174.492188 213.304688 L 176.554688 212.15625 L 176.097656 207.410156 L 174.796875 200.289062 L 171.433594 193.789062 L 166.15625 183.835938 L 164.546875 180.230469 L 162.179688 178.316406 L 156.445312 176.941406 L 148.875 175.40625 L 141.535156 174.953125 L 136.867188 174.796875 L 132.964844 175.871094 L 130.59375 177.929688 L 125.9375 182.683594 L 120.203125 189.414062 L 115.382812 195.539062 L 112.402344 198.835938 L 110.488281 200.902344 C 110.488281 200.902344 109.71875 201.746094 109.800781 202.277344 C 109.878906 202.8125 111.9375 205.722656 111.9375 205.722656 L 113.847656 207.867188 L 114.925781 208.40625 L 118.441406 204.730469 L 124.175781 199.835938 L 128.304688 197.457031 L 133.503906 196.3125 "/>
<path style="fill-rule:nonzero;fill:#ffffff;fill-opacity:1;stroke-width:0.8;stroke-linecap:round;stroke-linejoin:round;stroke:#000000;stroke-opacity:1;stroke-miterlimit:4;" d="M 138.546875 186.511719 L 141.839844 185.902344 L 145.355469 186.585938 L 148.105469 188.578125 L 149.863281 191.023438 C 149.863281 191.023438 150.402344 194.933594 150.402344 195.238281 C 150.402344 195.542969 149.714844 199.605469 149.714844 199.605469 L 148.035156 203.890625 L 145.738281 207.027344 L 142.371094 208.796875 L 139.390625 209.175781 L 136.867188 207.800781 L 134.570312 204.117188 L 133.582031 200.449219 L 133.65625 194.707031 L 135.191406 189.722656 L 136.714844 187.582031 L 138.546875 186.511719 Z M 138.546875 186.511719 "/>
</g>
</svg>
