<?xml version="1.0" encoding="UTF-8"?>
<svg xmlns="http://www.w3.org/2000/svg" xmlns:xlink="http://www.w3.org/1999/xlink" width="320pt" height="320pt" viewBox="0 0 320 320" version="1.1">
<g id="surface0">
<path style=" stroke:none;fill-rule:nonzero;fill:rgb(90.196078%,90.196078%,90.196078%);fill-opacity:1;" d="M 60.496094 211.261719 C 60.496094 203.378906 60.496094 203.378906 65.421875 203.378906 L 75.273438 203.378906 C 80.199219 203.378906 80.199219 203.378906 80.199219 211.261719 L 94.972656 211.261719 L 94.972656 242.785156 L 60.496094 242.785156 L 60.496094 211.261719 Z M 60.496094 211.261719 "/>
<path style="fill:none;stroke-width:0.8;stroke-linecap:butt;stroke-linejoin:miter;stroke:#000000;stroke-opacity:1;stroke-miterlimit:4;" d="M 60.496094 211.261719 C 60.496094 203.378906 60.496094 203.378906 65.421875 203.378906 L 75.273438 203.378906 C 80.199219 203.378906 80.199219 203.378906 80.199219 211.261719 L 94.972656 211.261719 L 94.972656 242.785156 L 60.496094 242.785156 L 60.496094 211.261719 "/>
<path style="fill-rule:nonzero;fill:#ffffff;fill-opacity:1;stroke-width:0.8;stroke-linecap:butt;stroke-linejoin:miter;stroke:#000000;stroke-opacity:1;stroke-miterlimit:4;" d="M 60.496094 242.785156 L 55.570312 215.203125 L 90.050781 215.203125 L 94.972656 242.785156 L 60.496094 242.785156 Z M 60.496094 242.785156 "/>
<path style="fill:none;stroke-width:0.8;stroke-linecap:butt;stroke-linejoin:miter;stroke:#000000;stroke-opacity:1;stroke-miterlimit:4;" d="M -211.460938 94.691406 L -167.105469 151.050781 " transform="matrix(0,-1,1,0,0,0)"/>
<path style="fill-rule:nonzero;fill:#ffffff;fill-opacity:1;stroke-width:0.8;stroke-linecap:butt;stroke-linejoin:miter;stroke:#000000;stroke-opacity:1;stroke-miterlimit:4;" d="M -163.234375 148.007812 L -170.976562 154.097656 L -161.011719 158.792969 L -163.234375 148.007812 Z M -163.234375 148.007812 " transform="matrix(0,-1,1,0,0,0)"/>
<path style="fill:none;stroke-width:0.8;stroke-linecap:butt;stroke-linejoin:miter;stroke:#000000;stroke-opacity:1;stroke-miterlimit:4;" d="M 64.960938 226.488281 L 65.589844 226.488281 L 66.21875 227.117188 L 66.21875 232.148438 L 64.960938 232.777344 L 65.589844 232.777344 L 66.847656 233.40625 L 67.476562 234.039062 M 66.21875 225.859375 L 66.847656 226.488281 L 66.847656 232.777344 L 68.105469 233.40625 M 64.960938 226.488281 L 66.21875 225.230469 L 67.476562 226.488281 L 67.476562 232.148438 L 68.734375 232.777344 L 67.476562 234.039062 M 67.476562 227.117188 L 69.363281 226.488281 L 70.621094 225.859375 L 71.25 225.230469 L 71.878906 225.859375 L 73.140625 226.488281 L 73.769531 226.488281 L 72.511719 227.117188 L 72.511719 232.148438 L 73.140625 232.777344 L 73.769531 232.777344 M 70.621094 225.859375 L 71.878906 226.488281 L 71.878906 232.777344 L 72.511719 233.40625 M 69.363281 226.488281 L 69.992188 226.488281 L 71.25 227.117188 L 71.25 232.777344 L 72.511719 234.039062 L 73.769531 232.777344 "/>
<path style="fill:none;stroke-width:0.8;stroke-linecap:butt;stroke-linejoin:miter;stroke:#000000;stroke-opacity:1;stroke-miterlimit:4;" d="M 77.542969 226.488281 L 77.542969 232.148438 L 76.285156 232.777344 M 78.171875 227.117188 L 78.171875 232.148438 L 80.058594 233.40625 M 78.800781 226.488281 L 78.800781 232.148438 L 80.058594 232.777344 L 80.6875 233.40625 M 76.285156 232.777344 L 77.542969 232.777344 L 78.800781 233.40625 L 79.429688 234.039062 L 80.6875 233.40625 L 82.578125 232.777344 L 83.835938 232.777344 M 77.542969 226.488281 L 78.800781 226.488281 L 80.6875 225.859375 L 81.949219 225.230469 L 82.578125 225.859375 L 83.835938 226.488281 L 85.09375 226.488281 L 83.835938 227.117188 L 83.835938 232.777344 M 81.320312 225.859375 L 83.207031 227.117188 L 83.207031 232.148438 M 80.6875 225.859375 L 81.320312 226.488281 L 82.578125 227.117188 L 82.578125 232.777344 "/>
</g>
</svg>
