<?xml version="1.0" encoding="UTF-8"?>
<svg xmlns="http://www.w3.org/2000/svg" xmlns:xlink="http://www.w3.org/1999/xlink" width="320pt" height="320pt" viewBox="0 0 320 320" version="1.1">
<g id="surface0">
<path style="fill-rule:nonzero;fill:#ffffff;fill-opacity:1;stroke-width:0.8;stroke-linecap:round;stroke-linejoin:round;stroke:#000000;stroke-opacity:1;stroke-miterlimit:4;" d="M 100.160156 175.476562 L 160.003906 159.714844 L 160.003906 199.117188 L 100.160156 199.117188 L 100.160156 175.476562 Z M 100.160156 175.476562 "/>
<path style="fill:none;stroke-width:0.8;stroke-linecap:butt;stroke-linejoin:miter;stroke:#000000;stroke-opacity:1;stroke-miterlimit:4;" d="M 116.976562 182.703125 L 116.976562 182.074219 L 116.347656 181.445312 L 115.085938 181.445312 L 113.828125 182.074219 L 113.199219 182.703125 L 112.570312 183.960938 L 112.570312 185.21875 L 113.199219 186.476562 L 114.457031 187.105469 L 116.347656 187.105469 L 118.234375 185.847656 L 119.492188 183.960938 "/>
<path style="fill:none;stroke-width:0.8;stroke-linecap:butt;stroke-linejoin:miter;stroke:#000000;stroke-opacity:1;stroke-miterlimit:4;" d="M 123.265625 181.445312 L 122.007812 181.445312 L 120.75 182.074219 L 120.121094 182.703125 L 119.492188 183.960938 L 119.492188 185.21875 L 120.121094 186.476562 L 121.378906 187.105469 L 122.636719 187.105469 L 123.894531 186.476562 L 124.527344 185.847656 L 125.15625 184.589844 L 125.15625 183.332031 L 124.527344 182.074219 L 123.265625 181.445312 L 122.636719 182.074219 L 122.636719 183.332031 L 123.265625 184.589844 L 124.527344 185.21875 L 126.414062 185.21875 L 127.671875 184.589844 L 128.300781 183.960938 "/>
<path style="fill:none;stroke-width:0.8;stroke-linecap:butt;stroke-linejoin:miter;stroke:#000000;stroke-opacity:1;stroke-miterlimit:4;" d="M 133.964844 183.332031 L 133.335938 182.074219 L 132.074219 181.445312 L 130.816406 181.445312 L 129.558594 182.074219 L 128.929688 182.703125 L 128.300781 183.960938 L 128.300781 185.21875 L 128.929688 186.476562 L 130.1875 187.105469 L 131.445312 187.105469 L 132.707031 186.476562 L 133.335938 185.21875 L 137.109375 173.894531 M 134.59375 181.445312 L 133.964844 184.589844 L 133.964844 186.476562 L 134.59375 187.105469 L 135.222656 187.105469 L 136.480469 186.476562 L 137.109375 185.847656 L 138.367188 183.960938 "/>
<path style="fill:none;stroke-width:0.8;stroke-linecap:butt;stroke-linejoin:miter;stroke:#000000;stroke-opacity:1;stroke-miterlimit:4;" d="M 138.996094 185.847656 L 140.253906 185.21875 L 140.882812 184.589844 L 141.515625 183.332031 L 141.515625 182.074219 L 140.882812 181.445312 L 140.253906 181.445312 L 138.996094 182.074219 L 138.367188 183.332031 L 138.367188 185.21875 L 138.996094 186.476562 L 140.253906 187.105469 L 141.515625 187.105469 L 142.773438 186.476562 L 143.402344 185.847656 L 144.660156 183.960938 "/>
</g>
</svg>
