<?xml version="1.0" encoding="UTF-8"?>
<svg xmlns="http://www.w3.org/2000/svg" xmlns:xlink="http://www.w3.org/1999/xlink" width="320pt" height="320pt" viewBox="0 0 320 320" version="1.1">
<g id="surface0">
<path style="fill-rule:nonzero;fill:#ffffff;fill-opacity:1;stroke-width:0.8;stroke-linecap:round;stroke-linejoin:round;stroke:#000000;stroke-opacity:1;stroke-miterlimit:4;" d="M 128.109375 158.113281 L 191.890625 158.113281 L 179.136719 197.519531 L 140.863281 197.519531 L 128.109375 158.113281 Z M 128.109375 158.113281 "/>
<path style="fill:none;stroke-width:0.8;stroke-linecap:butt;stroke-linejoin:miter;stroke:#000000;stroke-opacity:1;stroke-miterlimit:4;" d="M 143.636719 177.519531 L 146.019531 174.542969 L 147.207031 172.757812 L 147.804688 171.570312 L 148.398438 169.785156 L 148.398438 168.59375 L 147.804688 168 L 146.613281 168.59375 L 146.019531 169.785156 L 144.828125 174.542969 L 143.042969 179.898438 L 141.257812 184.0625 L 140.664062 185.847656 L 140.664062 187.039062 L 141.257812 187.632812 L 142.449219 187.039062 L 143.042969 185.253906 L 143.636719 179.898438 L 144.234375 180.492188 L 145.421875 180.492188 L 146.613281 179.898438 L 147.207031 179.304688 L 148.398438 177.519531 "/>
<path style="fill:none;stroke-width:0.8;stroke-linecap:butt;stroke-linejoin:miter;stroke:#000000;stroke-opacity:1;stroke-miterlimit:4;" d="M 151.96875 175.140625 L 150.777344 175.140625 L 149.589844 175.734375 L 148.992188 176.328125 L 148.398438 177.519531 L 148.398438 178.710938 L 148.992188 179.898438 L 150.183594 180.492188 L 151.371094 180.492188 L 152.5625 179.898438 L 153.15625 179.304688 L 153.753906 178.113281 L 153.753906 176.925781 L 153.15625 175.734375 L 151.96875 175.140625 L 151.371094 175.734375 L 151.371094 176.925781 L 151.96875 178.113281 L 153.15625 178.710938 L 154.941406 178.710938 L 156.132812 178.113281 L 156.726562 177.519531 "/>
<path style="fill:none;stroke-width:0.8;stroke-linecap:butt;stroke-linejoin:miter;stroke:#000000;stroke-opacity:1;stroke-miterlimit:4;" d="M 156.726562 177.519531 L 157.917969 175.734375 L 158.511719 174.542969 L 158.511719 175.734375 L 160.296875 175.734375 L 160.890625 176.328125 L 160.890625 177.519531 L 160.296875 179.304688 L 160.296875 179.898438 L 160.890625 180.492188 L 161.488281 180.492188 L 162.675781 179.898438 L 163.273438 179.304688 L 164.460938 177.519531 "/>
<path style="fill:none;stroke-width:0.8;stroke-linecap:butt;stroke-linejoin:miter;stroke:#000000;stroke-opacity:1;stroke-miterlimit:4;" d="M 164.460938 177.519531 L 165.652344 175.734375 L 167.4375 172.757812 L 168.03125 171.570312 L 168.628906 169.785156 L 168.628906 168.59375 L 168.03125 168 L 166.84375 168.59375 L 166.246094 169.785156 L 165.652344 172.164062 L 165.058594 175.734375 L 164.460938 180.492188 M 164.460938 180.492188 L 165.058594 178.710938 L 165.652344 177.519531 L 166.84375 175.734375 L 168.03125 175.140625 L 169.222656 175.140625 L 169.816406 175.734375 L 169.816406 176.925781 L 168.628906 177.519531 L 166.84375 177.519531 M 166.84375 177.519531 L 168.03125 178.113281 L 168.628906 179.898438 L 169.222656 180.492188 L 169.816406 180.492188 L 171.007812 179.898438 L 171.601562 179.304688 L 172.792969 177.519531 "/>
<path style="fill:none;stroke-width:0.8;stroke-linecap:butt;stroke-linejoin:miter;stroke:#000000;stroke-opacity:1;stroke-miterlimit:4;" d="M 172.792969 177.519531 L 173.980469 175.734375 L 174.578125 174.542969 L 174.578125 175.734375 L 175.765625 177.519531 L 176.363281 178.710938 L 176.363281 179.898438 L 175.171875 180.492188 M 172.792969 179.898438 L 173.980469 180.492188 L 176.363281 180.492188 L 177.550781 179.898438 L 178.148438 179.304688 L 179.335938 177.519531 "/>
</g>
</svg>
