<?xml version="1.0" encoding="UTF-8"?>
<svg xmlns="http://www.w3.org/2000/svg" xmlns:xlink="http://www.w3.org/1999/xlink" width="320pt" height="320pt" viewBox="0 0 320 320" version="1.1">
<g id="surface0">
<path style="fill:none;stroke-width:0.8;stroke-linecap:butt;stroke-linejoin:miter;stroke:#000000;stroke-opacity:1;stroke-miterlimit:4;" d="M 160 160 L 160 174.46875 "/>
<path style="fill-rule:nonzero;fill:#ffffff;fill-opacity:1;stroke-width:0.8;stroke-linecap:round;stroke-linejoin:round;stroke:#000000;stroke-opacity:1;stroke-miterlimit:4;" d="M 162.441406 208.835938 L 162.1875 205.980469 L 161.09375 203.984375 L 159.699219 202.578125 L 158.40625 202.503906 L 154.679688 204.730469 L 153.476562 205.148438 L 153.742188 207.066406 L 154.882812 209.261719 L 157.679688 210.664062 L 159.222656 211.355469 "/>
<path style="fill-rule:nonzero;fill:#ffffff;fill-opacity:1;stroke-width:0.8;stroke-linecap:round;stroke-linejoin:round;stroke:#000000;stroke-opacity:1;stroke-miterlimit:4;" d="M 162.253906 206.089844 L 168.640625 207.289062 L 170.769531 200.996094 L 171.738281 195.316406 L 174.410156 184.003906 L 174.859375 178.113281 L 169.371094 176.625 "/>
<path style="fill-rule:nonzero;fill:#ffffff;fill-opacity:1;stroke-width:0.8;stroke-linecap:round;stroke-linejoin:round;stroke:#000000;stroke-opacity:1;stroke-miterlimit:4;" d="M 162.300781 174.636719 L 155.140625 173.558594 L 151.527344 186.730469 L 148.457031 202.257812 L 151.019531 203.433594 L 155.128906 204.359375 "/>
<path style="fill-rule:nonzero;fill:#ffffff;fill-opacity:1;stroke-width:0.8;stroke-linecap:round;stroke-linejoin:round;stroke:#000000;stroke-opacity:1;stroke-miterlimit:4;" d="M 193.796875 213.148438 L 198.894531 214.28125 L 202.308594 214.035156 L 204.035156 212.894531 L 204.882812 210.554688 L 203.5625 208.324219 L 200.328125 204.953125 L 197.839844 202.023438 "/>
<path style="fill-rule:nonzero;fill:#ffffff;fill-opacity:1;stroke-width:0.8;stroke-linecap:round;stroke-linejoin:round;stroke:#000000;stroke-opacity:1;stroke-miterlimit:4;" d="M 184.660156 180.480469 L 178.765625 180.035156 L 174.707031 181.632812 "/>
<path style="fill-rule:nonzero;fill:#ffffff;fill-opacity:1;stroke-width:0.8;stroke-linecap:round;stroke-linejoin:round;stroke:#000000;stroke-opacity:1;stroke-miterlimit:4;" d="M 170.46875 175.359375 L 168.527344 177.574219 L 164.480469 179.085938 L 162.90625 176.722656 L 162.300781 174.636719 L 162.632812 173.019531 L 164.011719 172.183594 L 165.757812 171.417969 L 167.824219 171.371094 "/>
<path style="fill-rule:nonzero;fill:#ffffff;fill-opacity:1;stroke-width:0.8;stroke-linecap:round;stroke-linejoin:round;stroke:#000000;stroke-opacity:1;stroke-miterlimit:4;" d="M 180.671875 201.429688 L 177.953125 210.671875 L 173.597656 214.179688 L 170.703125 215.085938 L 168.734375 213.289062 L 165.9375 210.015625 L 164.027344 207.46875 L 158.570312 211.777344 L 159.730469 214.34375 L 164 220.449219 L 166.003906 223.933594 L 168.191406 225.59375 L 171.351562 225.207031 L 176.5625 223.003906 L 183.757812 219.796875 L 188.46875 217.761719 C 188.46875 217.761719 190.753906 216.640625 190.929688 216.214844 C 191.113281 215.78125 193.710938 213.132812 193.710938 213.132812 L 196.878906 204.4375 L 198.816406 199.046875 L 200.820312 189.644531 L 201.085938 185.597656 L 199.175781 182.132812 L 194.089844 176.804688 L 187.988281 170.523438 L 182.082031 164.652344 L 179.878906 163.078125 L 177.472656 162.964844 L 172.613281 166.652344 L 168.257812 170.144531 L 167.84375 171.277344 L 171.128906 176.238281 L 172.09375 176.53125 L 174.328125 174.75 L 177.636719 172.714844 L 179.652344 172.929688 L 181.53125 175.175781 L 184.445312 179.6875 L 185.128906 182.730469 L 184.128906 187.195312 "/>
<path style="fill-rule:nonzero;fill:#ffffff;fill-opacity:1;stroke-width:0.8;stroke-linecap:round;stroke-linejoin:round;stroke:#000000;stroke-opacity:1;stroke-miterlimit:4;" d="M 195.128906 190.078125 L 197.808594 193.425781 L 197.761719 197.339844 L 196.316406 201.246094 L 194.40625 202.816406 L 192.175781 203.675781 L 188.945312 203.484375 L 184.78125 202.824219 L 179.742188 200.957031 L 177.378906 198.796875 L 175.644531 195.828125 L 175.90625 193.175781 L 177.585938 189.964844 L 180.503906 188.046875 L 183.023438 187.148438 L 187.164062 187.4375 L 191.546875 188.417969 L 195.128906 190.078125 Z M 195.128906 190.078125 "/>
</g>
</svg>
