<?xml version="1.0" encoding="UTF-8"?>
<svg xmlns="http://www.w3.org/2000/svg" xmlns:xlink="http://www.w3.org/1999/xlink" width="320pt" height="320pt" viewBox="0 0 320 320" version="1.1">
<g id="surface0">
<path style="fill-rule:nonzero;fill:#ffffff;fill-opacity:1;stroke-width:0.8;stroke-linecap:butt;stroke-linejoin:miter;stroke:#000000;stroke-opacity:1;stroke-miterlimit:4;" d="M 160.902344 236.867188 L 146.9375 212.007812 L 121.765625 198.613281 L 146.625 184.648438 L 160.019531 159.476562 L 173.984375 184.335938 L 199.15625 197.730469 L 174.296875 211.695312 L 160.902344 236.867188 Z M 160.902344 236.867188 "/>
<path style="fill:none;stroke-width:0.799948;stroke-linecap:butt;stroke-linejoin:miter;stroke:#000000;stroke-opacity:1;stroke-miterlimit:4;" d="M 134.917044 197.525742 L 134.920483 196.88125 L 134.271617 196.233231 L 132.982544 196.234166 L 131.690033 196.879593 L 131.042058 197.524553 L 130.398412 198.817999 L 130.399347 200.107073 L 131.044775 201.399584 L 132.334271 202.047091 L 134.271786 202.045733 L 136.212272 200.755346 L 137.503893 198.816939 " transform="matrix(1,-0.0113956,0.0113956,1,0,0)"/>
<path style="fill:none;stroke-width:0.799948;stroke-linecap:butt;stroke-linejoin:miter;stroke:#000000;stroke-opacity:1;stroke-miterlimit:4;" d="M 143.315927 198.172233 L 142.6705 196.879722 L 141.377098 196.232171 L 140.084119 196.233061 L 138.795513 196.878533 L 138.147539 197.523493 L 137.503893 198.816939 L 137.500878 200.109874 L 138.14635 201.398479 L 139.439752 202.046031 L 140.732731 202.04514 L 142.021336 201.399668 L 142.668843 200.110172 L 143.959105 196.23425 L 143.312957 199.461262 L 143.314315 201.398778 L 143.959275 202.046752 L 144.607717 202.046329 L 145.896323 201.400857 L 146.544297 200.755898 L 147.835918 198.817491 " transform="matrix(1,-0.0113956,0.0113956,1,0,0)"/>
<path style="fill:none;stroke-width:0.799948;stroke-linecap:butt;stroke-linejoin:miter;stroke:#000000;stroke-opacity:1;stroke-miterlimit:4;" d="M 147.835918 198.817491 L 149.127538 196.879085 L 150.42005 196.233658 L 151.065054 196.877727 L 151.065477 197.526169 L 150.418861 200.108644 L 149.771777 202.046583 M 150.418861 200.108644 L 151.066412 198.815242 L 152.357988 196.880742 L 153.646594 196.23527 L 154.939573 196.234379 L 155.584577 196.878448 L 155.585468 198.171427 L 154.938384 200.109366 L 154.939319 201.398439 L 155.584279 202.046414 L 156.232721 202.045991 L 157.521326 201.400519 L 158.169301 200.755559 L 159.460922 198.817153 " transform="matrix(1,-0.0113956,0.0113956,1,0,0)"/>
<path style="fill:none;stroke-width:0.799948;stroke-linecap:butt;stroke-linejoin:miter;stroke:#000000;stroke-opacity:1;stroke-miterlimit:4;" d="M 159.460922 198.817153 L 160.752075 196.23421 L 160.105926 199.461222 L 160.107284 201.398737 L 160.752244 202.046712 L 161.396781 202.046244 L 163.333828 201.400349 L 164.625872 200.110386 L 165.272956 198.172447 L 165.271598 196.234932 M 165.271598 196.234932 L 165.91796 198.816516 L 166.56292 199.464491 L 167.855899 199.4636 L 169.14841 198.818173 " transform="matrix(1,-0.0113956,0.0113956,1,0,0)"/>
<path style="fill:none;stroke-width:0.799948;stroke-linecap:butt;stroke-linejoin:miter;stroke:#000000;stroke-opacity:1;stroke-miterlimit:4;" d="M 174.960489 198.169561 L 174.315017 196.880955 L 173.021615 196.233404 L 171.732542 196.234339 L 170.440031 196.879766 L 169.792056 197.524726 L 169.14841 198.818173 L 169.149345 200.107246 L 169.794773 201.399757 L 171.084269 202.047264 L 172.377248 202.046373 L 173.669759 201.400946 L 174.313405 200.1075 L 175.607528 196.235528 L 174.96138 199.46254 L 174.958832 201.400011 L 175.607698 202.04803 L 176.252234 202.047562 L 177.544746 201.402135 L 178.188859 200.753225 L 179.480435 198.818725 " transform="matrix(1,-0.0113956,0.0113956,1,0,0)"/>
<path style="fill:none;stroke-width:0.799948;stroke-linecap:butt;stroke-linejoin:miter;stroke:#000000;stroke-opacity:1;stroke-miterlimit:4;" d="M 179.480435 198.818725 L 180.772056 196.880319 L 181.419607 195.586917 L 181.420498 196.879895 L 182.710929 198.816476 L 183.356357 200.108987 L 183.357248 201.401966 L 182.064736 202.047393 M 179.482261 201.400777 L 180.771802 202.044378 L 183.357715 202.046502 L 184.646321 201.401031 L 185.294295 200.756071 L 186.585916 198.817665 " transform="matrix(1,-0.0113956,0.0113956,1,0,0)"/>
</g>
</svg>
