<?xml version="1.0" encoding="UTF-8"?>
<svg xmlns="http://www.w3.org/2000/svg" xmlns:xlink="http://www.w3.org/1999/xlink" width="320pt" height="320pt" viewBox="0 0 320 320" version="1.1">
<g id="surface0">
<path style="fill:none;stroke-width:0.8;stroke-linecap:butt;stroke-linejoin:miter;stroke:#000000;stroke-opacity:1;stroke-miterlimit:4;" d="M 160 160 L 160 179.269531 L 189.75 179.269531 "/>
<path style="fill-rule:nonzero;fill:#ffffff;fill-opacity:1;stroke-width:0.793701;stroke-linecap:round;stroke-linejoin:round;stroke:#000000;stroke-opacity:1;stroke-miterlimit:4;" d="M 202.625 186.867188 L 201.871094 189.746094 L 201.308594 192.242188 L 200.558594 194.554688 L 200.5 196.054688 L 201.183594 197.367188 L 201.933594 199.246094 L 202.625 200.496094 L 203.5625 200.75 L 205.503906 199.375 L 209.445312 196.183594 L 212.324219 194.621094 L 213.578125 193.871094 L 215.707031 196.867188 L 216.960938 198.746094 L 215.082031 200.75 L 210.699219 204 L 205.253906 208.191406 L 202.4375 209.441406 L 200.117188 208.625 L 196.675781 204.816406 L 190.292969 198.429688 L 186.410156 194.554688 L 185.46875 192.617188 L 186.472656 186.988281 L 190.542969 172.484375 L 193.484375 166.292969 L 194.738281 164.789062 L 198.179688 163.351562 L 205.691406 160.851562 L 210.761719 159.84375 L 213.390625 159.59375 L 216.398438 159.410156 L 217.898438 159.726562 L 218.714844 160.351562 L 219.085938 161.472656 L 218.648438 163.785156 L 217.714844 164.851562 L 216.335938 166.039062 L 215.644531 166.355469 "/>
<path style="fill-rule:nonzero;fill:#ffffff;fill-opacity:1;stroke-width:0.793701;stroke-linecap:round;stroke-linejoin:round;stroke:#000000;stroke-opacity:1;stroke-miterlimit:4;" d="M 203.5 174.167969 L 203.878906 169.730469 L 205.253906 167.667969 L 206.691406 166.230469 L 210.761719 163.535156 L 212.390625 163.285156 L 213.832031 163.726562 L 214.578125 164.601562 L 215.457031 166.355469 L 214.707031 167.859375 L 213.703125 168.542969 L 212.140625 170.105469 L 210.636719 172.484375 L 209.507812 174.671875 L 208.761719 176.042969 "/>
<path style="fill-rule:nonzero;fill:#ffffff;fill-opacity:1;stroke-width:0.793701;stroke-linecap:round;stroke-linejoin:round;stroke:#000000;stroke-opacity:1;stroke-miterlimit:4;" d="M 204.316406 168.976562 L 200.5 168.976562 L 199.121094 169.730469 L 198.179688 170.730469 L 198.054688 171.734375 L 198.804688 174.167969 "/>
<path style="fill-rule:nonzero;fill:#ffffff;fill-opacity:1;stroke-width:0.793701;stroke-linecap:round;stroke-linejoin:round;stroke:#000000;stroke-opacity:1;stroke-miterlimit:4;" d="M 211.199219 171.484375 L 213.890625 174.046875 L 215.519531 175.925781 L 215.894531 177.109375 L 215.394531 178.671875 L 214.269531 179.609375 L 211.453125 180.925781 "/>
<path style="fill-rule:nonzero;fill:#ffffff;fill-opacity:1;stroke-width:0.793701;stroke-linecap:round;stroke-linejoin:round;stroke:#000000;stroke-opacity:1;stroke-miterlimit:4;" d="M 214.019531 194.429688 L 217.585938 188.992188 L 219.527344 189.800781 L 223.65625 188.242188 L 224.097656 192.933594 L 223.410156 194.496094 L 220.90625 195.804688 L 216.460938 197.871094 "/>
<path style="fill-rule:nonzero;fill:#ffffff;fill-opacity:1;stroke-width:0.793701;stroke-linecap:round;stroke-linejoin:round;stroke:#000000;stroke-opacity:1;stroke-miterlimit:4;" d="M 193.921875 176.484375 L 195.175781 175.046875 L 197.113281 174.296875 L 203.1875 174.230469 L 204.628906 174.480469 L 206.378906 175.109375 L 208.132812 175.734375 L 209.386719 176.542969 L 210.886719 178.105469 L 211.453125 180.550781 L 211.074219 182.796875 L 209.886719 184.925781 L 208.445312 186.175781 L 206.003906 186.871094 L 202.5 186.929688 L 197.554688 186.554688 L 194.859375 184.800781 L 192.984375 182.738281 L 192.734375 179.300781 L 193.921875 176.484375 Z M 193.921875 176.484375 "/>
</g>
</svg>
