<?xml version="1.0" encoding="UTF-8"?>
<svg xmlns="http://www.w3.org/2000/svg" xmlns:xlink="http://www.w3.org/1999/xlink" width="320pt" height="320pt" viewBox="0 0 320 320" version="1.1">
<g id="surface0">
<path style="fill:none;stroke-width:0.8;stroke-linecap:butt;stroke-linejoin:miter;stroke:#000000;stroke-opacity:1;stroke-miterlimit:4;" d="M 160 172.976562 L 160 160 "/>
<path style="fill-rule:nonzero;fill:#ffffff;fill-opacity:1;stroke-width:0.8;stroke-linecap:butt;stroke-linejoin:miter;stroke:#000000;stroke-opacity:1;stroke-miterlimit:4;" d="M 193.421875 188.164062 L 163.503906 196.625 L 163.445312 179.910156 L 173.867188 172.910156 L 173.859375 170.125 L 161.332031 172.953125 L 158.546875 172.972656 L 146 170.230469 L 146.007812 173.015625 L 156.480469 179.945312 L 156.539062 196.65625 L 126.5625 188.40625 L 126.578125 192.582031 L 156.597656 213.371094 L 156.613281 231.449219 L 156.84375 231.816406 C 157.179688 234.882812 158.488281 237.171875 160.070312 237.179688 C 161.644531 237.1875 162.980469 234.917969 163.347656 231.855469 L 163.582031 231.484375 L 163.5625 213.347656 L 193.4375 192.351562 L 193.421875 188.171875 L 193.421875 188.171875 "/>
</g>
</svg>
