<?xml version="1.0" encoding="UTF-8"?>
<svg xmlns="http://www.w3.org/2000/svg" xmlns:xlink="http://www.w3.org/1999/xlink" width="320pt" height="320pt" viewBox="0 0 320 320" version="1.1">
<g id="surface0">
<path style="fill-rule:nonzero;fill:#ffffff;fill-opacity:1;stroke-width:0.8;stroke-linecap:round;stroke-linejoin:round;stroke:#000000;stroke-opacity:1;stroke-miterlimit:4;" d="M 141.285156 255.6875 L 141.285156 159.496094 L 178.714844 159.496094 L 178.714844 255.6875 L 141.285156 255.6875 Z M 141.285156 255.6875 "/>
<path style="fill:none;stroke-width:0.8;stroke-linecap:butt;stroke-linejoin:miter;stroke:#000000;stroke-opacity:1;stroke-miterlimit:4;" d="M -250.328125 162.746094 L -249.105469 162.136719 L -247.273438 160.304688 L -245.441406 157.863281 L -243 153.589844 L -241.167969 149.925781 L -241.167969 162.746094 L -241.78125 160.914062 L -243 159.085938 L -244.222656 157.863281 L -246.054688 156.640625 L -247.273438 156.640625 L -247.886719 157.253906 L -247.886719 158.472656 L -247.273438 159.695312 L -246.054688 160.914062 L -244.222656 162.136719 L -242.390625 162.746094 L -239.339844 162.746094 " transform="matrix(0,-1,1,0,0,0)"/>
<path style="fill:none;stroke-width:0.8;stroke-linecap:butt;stroke-linejoin:miter;stroke:#000000;stroke-opacity:1;stroke-miterlimit:4;" d="M -238.117188 159.695312 L -236.894531 157.863281 L -236.285156 156.640625 L -236.894531 159.085938 L -240.558594 170.074219 M -236.894531 159.085938 L -236.285156 157.863281 L -235.066406 157.253906 L -233.84375 157.253906 L -232.621094 157.863281 L -232.011719 159.085938 L -232.011719 160.304688 L -232.621094 161.527344 L -233.234375 162.136719 L -234.453125 162.746094 M -236.894531 162.136719 L -235.675781 162.746094 L -233.84375 162.746094 L -232.011719 162.136719 L -230.792969 161.527344 L -228.960938 159.695312 " transform="matrix(0,-1,1,0,0,0)"/>
<path style="fill:none;stroke-width:0.8;stroke-linecap:butt;stroke-linejoin:miter;stroke:#000000;stroke-opacity:1;stroke-miterlimit:4;" d="M -228.960938 159.695312 L -227.738281 157.863281 L -227.128906 156.640625 L -227.738281 159.085938 L -231.402344 170.074219 M -227.738281 159.085938 L -227.128906 157.863281 L -225.90625 157.253906 L -224.6875 157.253906 L -223.464844 157.863281 L -222.855469 159.085938 L -222.855469 160.304688 L -223.464844 161.527344 L -224.074219 162.136719 L -225.296875 162.746094 M -227.738281 162.136719 L -226.519531 162.746094 L -224.6875 162.746094 L -222.855469 162.136719 L -221.632812 161.527344 L -219.800781 159.695312 " transform="matrix(0,-1,1,0,0,0)"/>
<path style="fill:none;stroke-width:0.8;stroke-linecap:butt;stroke-linejoin:miter;stroke:#000000;stroke-opacity:1;stroke-miterlimit:4;" d="M -219.800781 159.695312 L -218.582031 157.863281 L -217.972656 156.640625 L -217.972656 157.863281 L -216.140625 157.863281 L -215.527344 158.472656 L -215.527344 159.695312 L -216.140625 161.527344 L -216.140625 162.136719 L -215.527344 162.746094 L -214.917969 162.746094 L -213.699219 162.136719 L -213.085938 161.527344 L -211.867188 159.695312 " transform="matrix(0,-1,1,0,0,0)"/>
<path style="fill:none;stroke-width:0.8;stroke-linecap:butt;stroke-linejoin:miter;stroke:#000000;stroke-opacity:1;stroke-miterlimit:4;" d="M -208.203125 157.253906 L -209.421875 157.253906 L -210.644531 157.863281 L -211.253906 158.472656 L -211.867188 159.695312 L -211.867188 160.914062 L -211.253906 162.136719 L -210.035156 162.746094 L -208.8125 162.746094 L -207.59375 162.136719 L -206.980469 161.527344 L -206.371094 160.304688 L -206.371094 159.085938 L -206.980469 157.863281 L -208.203125 157.253906 L -208.8125 157.863281 L -208.8125 159.085938 L -208.203125 160.304688 L -206.980469 160.914062 L -205.148438 160.914062 L -203.929688 160.304688 L -203.320312 159.695312 " transform="matrix(0,-1,1,0,0,0)"/>
<path style="fill:none;stroke-width:0.8;stroke-linecap:butt;stroke-linejoin:miter;stroke:#000000;stroke-opacity:1;stroke-miterlimit:4;" d="M -197.824219 159.085938 L -198.433594 157.863281 L -199.65625 157.253906 L -200.875 157.253906 L -202.097656 157.863281 L -202.707031 158.472656 L -203.320312 159.695312 L -203.320312 160.914062 L -202.707031 162.136719 L -201.488281 162.746094 L -200.265625 162.746094 L -199.046875 162.136719 L -198.433594 160.914062 L -197.214844 157.253906 L -197.824219 160.304688 L -197.824219 162.136719 L -197.214844 162.746094 L -196.601562 162.746094 L -195.382812 162.136719 L -194.773438 161.527344 L -193.550781 159.695312 " transform="matrix(0,-1,1,0,0,0)"/>
<path style="fill:none;stroke-width:0.8;stroke-linecap:butt;stroke-linejoin:miter;stroke:#000000;stroke-opacity:1;stroke-miterlimit:4;" d="M -189.277344 158.472656 L -189.277344 157.863281 L -189.886719 157.253906 L -191.109375 157.253906 L -192.328125 157.863281 L -192.941406 158.472656 L -193.550781 159.695312 L -193.550781 160.914062 L -192.941406 162.136719 L -191.71875 162.746094 L -189.886719 162.746094 L -188.054688 161.527344 L -186.835938 159.695312 " transform="matrix(0,-1,1,0,0,0)"/>
<path style="fill:none;stroke-width:0.8;stroke-linecap:butt;stroke-linejoin:miter;stroke:#000000;stroke-opacity:1;stroke-miterlimit:4;" d="M -186.835938 159.695312 L -185.613281 157.863281 L -183.78125 154.8125 L -183.171875 153.589844 L -182.5625 151.757812 L -182.5625 150.539062 L -183.171875 149.925781 L -184.394531 150.539062 L -185.003906 151.757812 L -185.613281 154.199219 L -186.226562 157.863281 L -186.835938 162.746094 M -186.835938 162.746094 L -186.226562 160.914062 L -185.613281 159.695312 L -184.394531 157.863281 L -183.171875 157.253906 L -181.953125 157.253906 L -181.339844 157.863281 L -181.339844 159.085938 L -181.953125 160.914062 L -181.953125 162.136719 L -181.339844 162.746094 L -180.730469 162.746094 L -179.507812 162.136719 L -178.898438 161.527344 L -177.679688 159.695312 " transform="matrix(0,-1,1,0,0,0)"/>
<path style="fill:none;stroke-width:0.8;stroke-linecap:butt;stroke-linejoin:miter;stroke:#000000;stroke-opacity:1;stroke-miterlimit:4;" d="M -177.066406 161.527344 L -175.847656 160.914062 L -175.234375 160.304688 L -174.625 159.085938 L -174.625 157.863281 L -175.234375 157.253906 L -175.847656 157.253906 L -177.066406 157.863281 L -177.679688 159.085938 L -177.679688 160.914062 L -177.066406 162.136719 L -175.847656 162.746094 L -174.625 162.746094 L -173.40625 162.136719 L -172.792969 161.527344 L -171.574219 159.695312 " transform="matrix(0,-1,1,0,0,0)"/>
<path style="fill:none;stroke-width:0.8;stroke-linecap:butt;stroke-linejoin:miter;stroke:#000000;stroke-opacity:1;stroke-miterlimit:4;" d="M -171.574219 159.695312 L -170.351562 157.863281 L -169.742188 156.640625 L -169.742188 157.863281 L -168.519531 159.695312 L -167.910156 160.914062 L -167.910156 162.136719 L -169.132812 162.746094 M -171.574219 162.136719 L -170.351562 162.746094 L -167.910156 162.746094 L -166.6875 162.136719 L -166.078125 161.527344 L -164.859375 159.695312 " transform="matrix(0,-1,1,0,0,0)"/>
</g>
</svg>
