<?xml version="1.0" encoding="UTF-8"?>
<svg xmlns="http://www.w3.org/2000/svg" xmlns:xlink="http://www.w3.org/1999/xlink" width="320pt" height="320pt" viewBox="0 0 320 320" version="1.1">
<g id="surface0">
<path style="fill:none;stroke-width:0.8;stroke-linecap:butt;stroke-linejoin:miter;stroke:#000000;stroke-opacity:1;stroke-miterlimit:4;" d="M 160 160 L 160 179.269531 L 169.152344 179.269531 "/>
<path style="fill-rule:nonzero;fill:#ffffff;fill-opacity:1;stroke-width:0.8;stroke-linecap:round;stroke-linejoin:round;stroke:#000000;stroke-opacity:1;stroke-miterlimit:4;" d="M 186.394531 176.984375 L 186.75 178.710938 L 186.035156 180.082031 L 185.136719 180.199219 "/>
<path style="fill-rule:nonzero;fill:#ffffff;fill-opacity:1;stroke-width:0.8;stroke-linecap:round;stroke-linejoin:round;stroke:#000000;stroke-opacity:1;stroke-miterlimit:4;" d="M 170.136719 196.859375 L 169.960938 206.738281 L 169.84375 210.78125 L 169.304688 214.707031 L 168.765625 218.273438 L 168.40625 220.835938 L 168.707031 222.917969 L 169.78125 225 L 170.796875 225.65625 L 172.113281 225.417969 L 173.246094 224.347656 L 173.425781 222.324219 L 173.425781 217.503906 L 173.609375 213.574219 L 175.160156 207.09375 L 175.992188 204.59375 L 177.070312 202.273438 L 177.3125 198.703125 "/>
<path style="fill-rule:nonzero;fill:#ffffff;fill-opacity:1;stroke-width:0.8;stroke-linecap:round;stroke-linejoin:round;stroke:#000000;stroke-opacity:1;stroke-miterlimit:4;" d="M 186.933594 195.726562 L 187.347656 198.289062 L 186.988281 200.011719 L 186.75 201.917969 L 187.527344 204.175781 L 188.363281 204.894531 L 189.675781 205.070312 L 191.40625 204 L 192.664062 201.199219 L 192.726562 197.988281 L 192.066406 195.789062 L 191.707031 194.894531 "/>
<path style="fill-rule:nonzero;fill:#ffffff;fill-opacity:1;stroke-width:0.8;stroke-linecap:round;stroke-linejoin:round;stroke:#000000;stroke-opacity:1;stroke-miterlimit:4;" d="M 196.011719 176.871094 L 195.949219 179.429688 L 193.265625 190.90625 L 192.246094 194.121094 L 191.46875 195.195312 L 189.023438 195.726562 L 187.464844 195.789062 L 184.777344 195.3125 L 183.582031 195.789062 L 179.457031 197.332031 L 177.25 198.703125 L 174.921875 198.582031 L 172.589844 198.226562 L 170.675781 197.574219 L 169.421875 195.789062 L 168.777344 192.277344 L 168.953125 188.890625 L 169.4375 183.117188 L 168.953125 178.414062 L 168.539062 175.378906 L 169.78125 169.148438 "/>
<path style="fill-rule:nonzero;fill:#ffffff;fill-opacity:1;stroke-width:0.8;stroke-linecap:round;stroke-linejoin:round;stroke:#000000;stroke-opacity:1;stroke-miterlimit:4;" d="M 170.082031 165.507812 L 169.78125 169.199219 C 169.78125 169.199219 169.898438 172.824219 169.960938 173.121094 C 170.019531 173.421875 170.320312 176.398438 170.320312 176.398438 L 170.914062 179.070312 L 171.511719 181.570312 L 171.695312 183.710938 L 171.21875 187.578125 L 170.859375 189.484375 L 171.21875 191.03125 L 172.113281 192.695312 L 173.425781 193.234375 L 174.085938 191.507812 L 174.621094 190.019531 L 174.800781 189.308594 L 176.175781 189.066406 L 175.875 184.601562 L 175.753906 181.449219 L 176.230469 176.75 L 176.230469 174.011719 L 175.992188 171.273438 L 176.230469 168.425781 L 176.890625 165.625 "/>
<path style="fill-rule:nonzero;fill:#ffffff;fill-opacity:1;stroke-width:0.8;stroke-linecap:round;stroke-linejoin:round;stroke:#000000;stroke-opacity:1;stroke-miterlimit:4;" d="M 196.011719 164.671875 L 196.609375 167.292969 L 196.492188 168.539062 L 193.917969 171.992188 L 192.128906 173.894531 L 191.050781 174.671875 L 188.363281 175.558594 L 186.75 176.335938 L 185.496094 178.359375 L 184.660156 179.429688 L 185.136719 180.257812 L 183.761719 182.34375 L 184.660156 182.523438 L 185.195312 183.058594 L 186.632812 183.175781 L 188.363281 183.234375 L 192.605469 178.414062 L 198.160156 174.007812 L 202.347656 170.382812 L 202.761719 168.960938 L 202.402344 166.039062 L 201.027344 163.304688 "/>
<path style="fill-rule:nonzero;fill:#ffffff;fill-opacity:1;stroke-width:0.8;stroke-linecap:round;stroke-linejoin:round;stroke:#000000;stroke-opacity:1;stroke-miterlimit:4;" d="M 177.429688 150.75 L 173.609375 151.699219 L 171.21875 153.074219 L 170.082031 154.800781 L 169.660156 157.59375 L 169.660156 161.398438 L 169.960938 165.5625 L 170.738281 165.625 L 172.289062 165.5625 L 174.023438 165.386719 L 175.578125 165.859375 L 176.890625 165.5625 L 178.089844 164.261719 "/>
<path style="fill-rule:nonzero;fill:#ffffff;fill-opacity:1;stroke-width:0.8;stroke-linecap:round;stroke-linejoin:round;stroke:#000000;stroke-opacity:1;stroke-miterlimit:4;" d="M 193.382812 151.460938 L 196.011719 151.644531 L 197.507812 152.773438 L 199.238281 155.511719 L 200.613281 159.199219 L 201.386719 161.996094 L 201.089844 163.246094 L 199.714844 163.785156 L 197.207031 164.554688 L 195.890625 164.609375 L 194.339844 163.304688 "/>
<path style="fill-rule:nonzero;fill:#ffffff;fill-opacity:1;stroke-width:0.8;stroke-linecap:round;stroke-linejoin:round;stroke:#000000;stroke-opacity:1;stroke-miterlimit:4;" d="M 180.179688 166.160156 L 181.792969 166.875 L 184.835938 167.472656 L 187.347656 166.996094 L 190.277344 165.746094 L 191.351562 164.910156 L 192.664062 165.03125 L 193.800781 164.316406 L 194.578125 162.773438 L 195.410156 158.128906 L 194.816406 154.972656 L 193.019531 150.636719 L 190.929688 148.25 L 187.164062 146.824219 L 184.597656 146.941406 L 181.609375 147.660156 L 178.980469 149.324219 L 177.726562 150.457031 L 176.652344 152.359375 L 176.230469 155.574219 L 176.351562 158.25 L 177.011719 161.578125 L 178.386719 164.734375 L 180.179688 166.160156 Z M 180.179688 166.160156 "/>
</g>
</svg>
