<?xml version="1.0" encoding="UTF-8"?>
<svg xmlns="http://www.w3.org/2000/svg" xmlns:xlink="http://www.w3.org/1999/xlink" width="320pt" height="320pt" viewBox="0 0 320 320" version="1.1">
<g id="surface0">
<path style=" stroke:none;fill-rule:nonzero;fill:#000000;fill-opacity:1;" d="M 161.867188 160 C 161.867188 161.03125 161.03125 161.867188 160 161.867188 C 158.96875 161.867188 158.132812 161.03125 158.132812 160 C 158.132812 158.96875 158.96875 158.132812 160 158.132812 C 161.03125 158.132812 161.867188 158.96875 161.867188 160 Z M 161.867188 160 "/>
<path style=" stroke:none;fill-rule:nonzero;fill:#000000;fill-opacity:1;" d="M 140.488281 160 C 140.488281 161.355469 139.390625 162.449219 138.039062 162.449219 C 136.683594 162.449219 135.585938 161.355469 135.585938 160 C 135.585938 158.644531 136.683594 157.550781 138.039062 157.550781 C 139.390625 157.550781 140.488281 158.644531 140.488281 160 Z M 140.488281 160 "/>
<path style="fill:none;stroke-width:1.6;stroke-linecap:butt;stroke-linejoin:miter;stroke:#000000;stroke-opacity:1;stroke-miterlimit:4;" d="M 138.144531 160.082031 C 138.144531 154.035156 143.046875 149.132812 149.097656 149.132812 C 155.144531 149.132812 160.046875 154.035156 160.046875 160.082031 L 160.046875 160.082031 "/>
</g>
</svg>
