<?xml version="1.0" encoding="UTF-8"?>
<svg xmlns="http://www.w3.org/2000/svg" xmlns:xlink="http://www.w3.org/1999/xlink" width="320pt" height="320pt" viewBox="0 0 320 320" version="1.1">
<g id="surface0">
<path style=" stroke:none;fill-rule:nonzero;fill:#000000;fill-opacity:1;" d="M 160.085938 158.238281 C 161.117188 158.261719 161.9375 159.113281 161.917969 160.144531 C 161.894531 161.175781 161.042969 161.992188 160.011719 161.972656 C 158.980469 161.953125 158.160156 161.101562 158.183594 160.070312 C 158.203125 159.039062 159.054688 158.21875 160.085938 158.238281 Z M 160.085938 158.238281 "/>
<path style=" stroke:none;fill-rule:nonzero;fill:#000000;fill-opacity:1;" d="M 160.046875 179.613281 C 161.402344 179.640625 162.476562 180.761719 162.449219 182.113281 C 162.421875 183.46875 161.304688 184.542969 159.949219 184.515625 C 158.597656 184.488281 157.523438 183.367188 157.550781 182.015625 C 157.578125 180.664062 158.695312 179.585938 160.046875 179.613281 Z M 160.046875 179.613281 "/>
<path style="fill:none;stroke-width:0.8;stroke-linecap:butt;stroke-linejoin:miter;stroke:#000000;stroke-opacity:1;stroke-miterlimit:4;" d="M 160 160 L 160 181.097656 "/>
</g>
</svg>
