<?xml version="1.0" encoding="UTF-8"?>
<svg xmlns="http://www.w3.org/2000/svg" xmlns:xlink="http://www.w3.org/1999/xlink" width="320pt" height="320pt" viewBox="0 0 320 320" version="1.1">
<g id="surface0">
<path style=" stroke:none;fill-rule:nonzero;fill:#ffffff;fill-opacity:1;" d="M 160.5 143.601562 C 158.738281 143.601562 157.488281 144.117188 156.425781 144.824219 C 155.742188 145.273438 155.234375 145.851562 154.875 146.523438 C 154.871094 146.535156 154.855469 146.539062 154.851562 146.550781 C 154.417969 147.335938 154.273438 148.351562 154.273438 149.199219 L 154.273438 149.601562 L 154.273438 150 L 154.675781 150 L 155.074219 150 L 158.648438 150 C 158.621094 150.027344 158.574219 150.078125 158.550781 150.101562 L 158.523438 150.101562 C 158.289062 150.324219 157.839844 150.644531 157.523438 151.199219 C 157.203125 151.769531 157.074219 152.519531 157.199219 153.5 L 157.25 154.476562 L 157.25 154.875 L 157.25 158.800781 L 157.25 159.199219 L 157.25 159.601562 L 157.648438 159.601562 L 158.050781 159.601562 L 162 159.601562 L 162.398438 159.601562 L 162.800781 159.601562 L 162.800781 159.199219 L 162.800781 158.800781 L 162.800781 154.875 L 162.800781 154.476562 L 162.800781 154.199219 L 162.824219 154.199219 L 162.824219 153.800781 L 162.824219 153.398438 C 162.824219 153.046875 162.835938 152.820312 162.851562 152.773438 C 162.878906 152.679688 162.863281 152.683594 163.074219 152.550781 L 163.101562 152.550781 L 163.125 152.5 L 163.148438 152.476562 L 164.976562 151 C 165.824219 150.285156 166.273438 149.242188 166.273438 148.074219 C 166.273438 146.648438 165.550781 145.402344 164.273438 144.601562 L 164.25 144.601562 C 163.3125 144.015625 162.242188 143.757812 161.101562 143.675781 L 161.148438 143.601562 L 160.5 143.601562 Z M 160.5 143.601562 "/>
<path style=" stroke:none;fill-rule:nonzero;fill:#000000;fill-opacity:1;" d="M 160.503906 144.390625 C 161.753906 144.390625 162.863281 144.691406 163.832031 145.292969 C 164.929688 145.984375 165.476562 146.914062 165.476562 148.082031 C 165.476562 149.0625 165.140625 149.835938 164.46875 150.398438 L 162.632812 151.882812 C 162.023438 152.273438 162.023438 152.695312 162.023438 153.398438 L 157.992188 153.398438 C 157.769531 151.675781 158.5 151.199219 159.070312 150.660156 C 159.222656 150.507812 159.875 150.011719 160.636719 149.363281 C 161.113281 148.960938 161.488281 148.734375 161.488281 148.269531 C 161.488281 147.945312 161.355469 147.679688 161.082031 147.480469 C 160.824219 147.277344 160.515625 147.179688 160.152344 147.179688 C 159.753906 147.179688 159.066406 147.328125 159.046875 148.589844 L 159.066406 149.210938 L 155.078125 149.210938 C 155.078125 148.457031 155.230469 147.464844 155.542969 146.914062 C 155.839844 146.347656 156.285156 145.871094 156.878906 145.480469 C 157.859375 144.828125 158.890625 144.390625 160.503906 144.390625 M 158.046875 154.863281 L 161.996094 154.863281 L 161.996094 158.789062 L 158.046875 158.789062 L 158.046875 154.863281 "/>
</g>
</svg>
