<?xml version="1.0" encoding="UTF-8"?>
<svg xmlns="http://www.w3.org/2000/svg" xmlns:xlink="http://www.w3.org/1999/xlink" width="320pt" height="320pt" viewBox="0 0 320 320" version="1.1">
<g id="surface0">
<path style=" stroke:none;fill-rule:nonzero;fill:#ffffff;fill-opacity:1;" d="M 163.351562 158.699219 C 162.960938 158.699219 162.558594 158.714844 162.125 158.800781 C 161.691406 158.878906 161.277344 159.023438 160.851562 159.175781 L 160.574219 159.273438 L 160.300781 159.375 L 160.300781 159.648438 L 160.300781 159.925781 L 160.300781 160.851562 L 160.300781 161.5 L 160.300781 162.148438 L 160.875 161.851562 C 160.203125 162.355469 159.824219 163.148438 159.824219 164.023438 C 159.824219 164.804688 160.105469 165.539062 160.675781 166.050781 C 161.253906 166.554688 162.03125 166.773438 162.851562 166.773438 C 163.40625 166.773438 163.882812 166.628906 164.324219 166.449219 L 164.324219 166.601562 L 164.726562 166.601562 L 165.125 166.601562 L 166.226562 166.601562 L 166.625 166.601562 L 167.023438 166.601562 L 167.023438 166.199219 L 167.023438 165.800781 L 167.023438 162.300781 C 167.023438 161.214844 166.710938 160.292969 166.050781 159.648438 C 165.386719 159.003906 164.445312 158.699219 163.351562 158.699219 Z M 163.351562 159.5 C 164.304688 159.5 165.023438 159.734375 165.5 160.199219 C 165.976562 160.664062 166.226562 161.363281 166.226562 162.300781 L 166.226562 165.800781 L 165.125 165.800781 L 165.125 165.75 L 165.125 164.976562 L 164.5 165.425781 C 164.285156 165.582031 164.203125 165.699219 164.199219 165.699219 C 163.824219 165.878906 163.378906 165.976562 162.851562 165.976562 C 162.175781 165.976562 161.625 165.800781 161.226562 165.449219 C 160.835938 165.101562 160.625 164.613281 160.625 164.023438 C 160.625 163.34375 160.886719 162.796875 161.375 162.449219 C 161.878906 162.09375 162.609375 161.925781 163.601562 161.925781 L 164.574219 161.925781 L 165.125 161.925781 L 164.949219 161.402344 C 164.9375 161.367188 164.9375 161.269531 164.898438 161.152344 C 164.863281 161.03125 164.78125 160.871094 164.625 160.75 C 164.304688 160.5 163.847656 160.351562 163.25 160.351562 C 162.863281 160.351562 162.5 160.394531 162.148438 160.476562 C 161.804688 160.554688 161.449219 160.671875 161.101562 160.851562 L 161.101562 159.925781 C 161.503906 159.78125 161.90625 159.667969 162.273438 159.601562 C 162.644531 159.527344 162.988281 159.5 163.351562 159.5 Z M 161.601562 161.5 C 161.464844 161.554688 161.324219 161.605469 161.199219 161.675781 L 161.449219 161.550781 C 161.492188 161.527344 161.554688 161.519531 161.601562 161.5 Z M 161.726562 166.300781 C 161.222656 166.226562 160.6875 166.339844 160.273438 166.699219 L 160.273438 166.726562 L 160.25 166.726562 C 160.03125 166.933594 159.890625 167.203125 159.925781 167.476562 C 159.960938 167.746094 160.113281 167.917969 160.25 168.050781 C 160.386719 168.179688 160.527344 168.289062 160.625 168.375 C 160.722656 168.460938 160.777344 168.535156 160.773438 168.523438 L 160.773438 168.574219 L 160.800781 168.601562 C 161.46875 169.757812 161.757812 171.097656 162.023438 172.449219 C 162.191406 173.515625 162.410156 174.523438 162.175781 175.449219 C 162.0625 175.777344 161.863281 176.128906 161.601562 176.375 C 161.328125 176.628906 161.023438 176.796875 160.648438 176.800781 L 160.625 176.800781 C 160.625 176.800781 160.457031 176.75 160.25 176.648438 C 160.042969 176.550781 159.785156 176.417969 159.523438 176.273438 C 159.265625 176.132812 158.992188 175.96875 158.726562 175.875 C 158.511719 175.800781 158.265625 175.800781 158.023438 175.851562 L 158.023438 175.824219 C 157.984375 175.824219 157.964844 175.847656 157.925781 175.851562 C 157.898438 175.859375 157.875 175.839844 157.851562 175.851562 L 157.851562 175.875 C 157.472656 175.90625 157.121094 175.976562 156.875 176.175781 C 156.585938 176.410156 156.425781 176.746094 156.425781 177.101562 C 156.425781 177.8125 156.953125 178.503906 157.851562 178.949219 L 157.875 178.976562 L 157.898438 178.976562 C 158.488281 179.179688 159.175781 179.078125 159.851562 178.898438 C 160.523438 178.71875 161.15625 178.449219 161.574219 178.148438 L 161.601562 178.148438 C 163.421875 176.746094 164.808594 174.90625 165.773438 172.925781 L 165.773438 172.898438 C 166.445312 171.429688 167.125 169.824219 167.199219 168.125 C 167.210938 167.820312 167.195312 167.457031 167.050781 167.101562 C 166.910156 166.757812 166.59375 166.433594 166.148438 166.324219 L 166.148438 166.300781 C 166.132812 166.292969 166.117188 166.308594 166.101562 166.300781 C 165.683594 166.195312 165.261719 166.320312 164.976562 166.574219 C 164.675781 166.84375 164.503906 167.316406 164.699219 167.75 C 165.007812 168.425781 165.363281 168.980469 165.351562 169.523438 C 165.34375 170.390625 165.003906 171.257812 164.601562 172.125 C 164.53125 171.582031 164.492188 171.035156 164.375 170.5 L 164.375 170.476562 C 164.09375 169.367188 163.851562 168.09375 163 167.050781 C 162.996094 167.042969 162.980469 167.058594 162.976562 167.050781 C 162.664062 166.648438 162.21875 166.371094 161.726562 166.300781 Z M 165.898438 167.074219 L 165.925781 167.074219 L 165.949219 167.074219 C 166.15625 167.113281 166.222656 167.210938 166.300781 167.398438 C 166.375 167.582031 166.40625 167.847656 166.398438 168.074219 C 166.398438 168.082031 166.398438 168.09375 166.398438 168.101562 C 166.378906 168.539062 166.226562 168.984375 166.125 169.425781 C 166.105469 168.605469 165.675781 167.976562 165.425781 167.425781 C 165.382812 167.335938 165.394531 167.269531 165.5 167.175781 C 165.605469 167.078125 165.777344 167.039062 165.898438 167.074219 Z M 161.625 167.125 C 161.925781 167.171875 162.214844 167.3125 162.375 167.523438 L 162.375 167.550781 C 163.074219 168.394531 163.308594 169.523438 163.601562 170.675781 C 163.808594 171.621094 163.921875 172.5625 163.976562 173.523438 L 164.023438 174.222656 C 163.695312 174.726562 163.34375 175.191406 162.949219 175.648438 C 163.246094 174.480469 162.988281 173.351562 162.824219 172.324219 L 162.824219 172.300781 C 162.5625 170.96875 162.234375 169.574219 161.523438 168.300781 C 161.507812 168.269531 161.519531 168.230469 161.5 168.199219 L 161.476562 168.222656 C 161.394531 168.035156 161.289062 167.878906 161.175781 167.773438 C 161.039062 167.652344 160.90625 167.554688 160.824219 167.472656 C 160.742188 167.394531 160.722656 167.347656 160.726562 167.375 C 160.726562 167.398438 160.6875 167.410156 160.800781 167.300781 C 161.007812 167.117188 161.324219 167.078125 161.625 167.125 Z M 158.199219 176.574219 C 158.175781 176.585938 158.265625 176.582031 158.449219 176.648438 C 158.636719 176.714844 158.898438 176.839844 159.148438 176.976562 C 159.398438 177.109375 159.652344 177.253906 159.898438 177.375 C 160.148438 177.496094 160.355469 177.609375 160.648438 177.601562 C 160.898438 177.601562 161.058594 177.40625 161.273438 177.324219 C 161.210938 177.375 161.167969 177.449219 161.101562 177.5 C 160.824219 177.699219 160.246094 177.964844 159.648438 178.125 C 159.066406 178.28125 158.460938 178.316406 158.175781 178.226562 L 158.148438 178.226562 C 157.488281 177.875 157.226562 177.375 157.226562 177.101562 C 157.226562 176.960938 157.265625 176.890625 157.375 176.800781 C 157.484375 176.710938 157.691406 176.625 158.023438 176.625 L 158.101562 176.625 L 158.199219 176.574219 Z M 158.199219 176.574219 "/>
<path style="fill:none;stroke-width:0.8;stroke-linecap:square;stroke-linejoin:miter;stroke:#000000;stroke-opacity:1;stroke-miterlimit:4;" d="M 160 158.285156 L 160 178.285156 "/>
<path style=" stroke:none;fill-rule:nonzero;fill:#000000;fill-opacity:1;" d="M 160.53125 167.007812 C 161.15625 166.46875 162.214844 166.660156 162.6875 167.285156 C 163.46875 168.234375 163.691406 169.445312 163.980469 170.578125 C 164.191406 171.542969 164.328125 172.523438 164.378906 173.507812 C 165.011719 172.265625 165.738281 170.925781 165.75 169.523438 C 165.769531 168.816406 165.339844 168.214844 165.054688 167.585938 C 164.820312 167.0625 165.46875 166.515625 166.027344 166.683594 C 166.707031 166.816406 166.820312 167.566406 166.800781 168.105469 C 166.730469 169.707031 166.070312 171.277344 165.40625 172.742188 C 164.460938 174.671875 163.113281 176.464844 161.34375 177.824219 C 160.648438 178.324219 158.894531 178.902344 158.027344 178.601562 C 156.425781 177.804688 156.425781 176.21875 158.027344 176.21875 C 158.601562 175.957031 160.058594 177.210938 160.644531 177.191406 C 161.617188 177.183594 162.3125 176.351562 162.574219 175.558594 C 162.839844 174.511719 162.589844 173.425781 162.425781 172.382812 C 162.15625 171.023438 161.855469 169.636719 161.148438 168.40625 C 161.003906 167.929688 159.871094 167.644531 160.53125 167.007812 Z M 160.53125 167.007812 "/>
<path style=" stroke:none;fill-rule:nonzero;fill:#000000;fill-opacity:1;" d="M 164.046875 162.707031 C 163.167969 162.707031 162.558594 162.800781 162.21875 162.988281 C 161.878906 163.175781 161.707031 163.496094 161.707031 163.945312 C 161.707031 164.304688 161.835938 164.59375 162.085938 164.804688 C 162.34375 165.015625 162.691406 165.117188 163.128906 165.117188 C 163.734375 165.117188 164.214844 164.921875 164.578125 164.523438 C 164.945312 164.125 165.128906 163.59375 165.128906 162.933594 L 165.128906 162.707031 L 164.046875 162.707031 M 166.21875 162.289062 L 166.21875 165.808594 L 165.128906 165.808594 L 165.128906 164.871094 C 164.882812 165.246094 164.570312 165.523438 164.199219 165.703125 C 163.828125 165.878906 163.375 165.964844 162.839844 165.964844 C 162.160156 165.964844 161.621094 165.789062 161.21875 165.4375 C 160.820312 165.082031 160.621094 164.605469 160.621094 164.011719 C 160.621094 163.320312 160.867188 162.796875 161.363281 162.445312 C 161.867188 162.09375 162.613281 161.914062 163.601562 161.914062 L 165.128906 161.914062 L 165.128906 161.816406 C 165.128906 161.351562 164.964844 160.992188 164.632812 160.738281 C 164.304688 160.480469 163.84375 160.351562 163.246094 160.351562 C 162.867188 160.351562 162.5 160.394531 162.140625 160.480469 C 161.78125 160.5625 161.4375 160.691406 161.105469 160.859375 L 161.105469 159.921875 C 161.503906 159.78125 161.890625 159.675781 162.265625 159.605469 C 162.640625 159.53125 163.003906 159.496094 163.359375 159.496094 C 164.320312 159.496094 165.035156 159.726562 165.507812 160.1875 C 165.980469 160.648438 166.21875 161.351562 166.21875 162.289062 "/>
</g>
</svg>
