<?xml version="1.0" encoding="UTF-8"?>
<svg xmlns="http://www.w3.org/2000/svg" xmlns:xlink="http://www.w3.org/1999/xlink" width="320pt" height="320pt" viewBox="0 0 320 320" version="1.1">
<g id="surface0">
<path style="fill:none;stroke-width:0.8;stroke-linecap:round;stroke-linejoin:miter;stroke:#000000;stroke-opacity:1;stroke-miterlimit:4;" d="M 151.375 191.910156 C 151.375 193.1875 150.339844 194.222656 149.066406 194.222656 C 147.789062 194.222656 146.753906 193.1875 146.753906 191.910156 C 146.753906 190.636719 147.789062 189.601562 149.066406 189.601562 C 150.339844 189.601562 151.375 190.636719 151.375 191.910156 Z M 151.375 191.910156 "/>
<path style="fill:none;stroke-width:0.8;stroke-linecap:butt;stroke-linejoin:miter;stroke:#000000;stroke-opacity:1;stroke-miterlimit:4;" d="M 159.710938 171.761719 C 157.101562 169.8125 154.175781 168.359375 151.261719 166.933594 M 140.398438 163.3125 C 147.890625 165.757812 155.320312 168.390625 162.847656 170.714844 C 174.5625 174.332031 160.011719 180.226562 160.011719 160.003906 M 150.054688 170.554688 L 150.054688 162.105469 M 159.710938 180.210938 C 158.101562 179.40625 156.492188 178.601562 154.882812 177.796875 C 157.472656 178.5625 159.964844 179.691406 162.625 180.210938 L 164.539062 180.210938 L 165.746094 179.003906 C 165.886719 177.367188 164.910156 175.894531 163.882812 174.71875 C 162.644531 173.527344 161.089844 172.757812 159.710938 171.761719 M 159.710938 210.382812 C 158.488281 209.488281 157.085938 208.808594 155.984375 207.761719 L 154.882812 205.554688 C 155.640625 204.066406 157.621094 204.238281 158.957031 204.714844 C 161.234375 205.34375 163.523438 205.949219 165.746094 206.765625 M 162.125 205.554688 C 160.066406 204.589844 158.085938 203.429688 156.300781 202.011719 C 155.164062 200.789062 154.695312 199.105469 154.851562 197.472656 C 155.125 196.019531 156.804688 195.65625 158.03125 196.054688 C 159.640625 196.441406 161.230469 196.902344 162.820312 197.347656 C 163.800781 197.652344 164.773438 197.980469 165.746094 198.316406 M 162.125 197.109375 C 160.066406 196.140625 158.085938 194.980469 156.300781 193.5625 C 155.179688 192.359375 154.710938 190.710938 154.84375 189.101562 C 155.074219 187.582031 156.859375 187.1875 158.144531 187.449219 C 160.214844 187.753906 162.183594 189.195312 164.335938 188.589844 C 165.746094 188.1875 166.15625 186.488281 165.332031 185.359375 C 164.6875 183.871094 163.578125 182.59375 162.144531 181.824219 C 161.335938 181.28125 160.511719 180.765625 159.710938 180.210938 M 159.710938 240.558594 C 157.914062 239.621094 152.882812 236.28125 156.335938 234.636719 C 159.1875 234.480469 161.910156 235.890625 164.648438 236.566406 L 165.195312 236.753906 L 165.746094 236.9375 M 162.125 235.730469 C 159.253906 234.1875 155.421875 232.75 154.792969 229.117188 C 154.367188 224.980469 158.984375 226.117188 161.355469 227.117188 C 162.835938 227.519531 164.308594 227.953125 165.746094 228.488281 M 162.125 227.28125 C 159.191406 225.714844 155.105469 224.160156 154.789062 220.320312 C 154.613281 216.699219 158.871094 217.378906 161.035156 218.460938 C 163.621094 220.105469 167.3125 217.660156 165.011719 214.828125 C 163.871094 212.710938 161.570312 211.738281 159.710938 210.382812 M 154.882812 250.214844 C 154.636719 252.152344 155.222656 254.214844 156.636719 255.59375 C 158.277344 257.296875 161.050781 258.117188 163.214844 256.9375 C 164.089844 256.613281 164.84375 255.96875 165.191406 255.085938 C 165.660156 253.96875 165.996094 252.714844 165.664062 251.511719 C 165.066406 248.84375 162.589844 246.675781 159.839844 246.550781 C 158.476562 246.535156 157.136719 247.070312 156.082031 247.921875 C 155.703125 248.699219 154.953125 249.441406 155.125 250.375 C 155.433594 251.253906 156.515625 251.492188 157.347656 251.484375 C 158.355469 251.457031 159.320312 251.082031 160.207031 250.636719 C 161.304688 249.929688 161.863281 248.621094 162.101562 247.382812 C 162.199219 246.316406 162.082031 245.246094 162.125 244.179688 C 161.496094 242.875 160.890625 241.472656 159.710938 240.558594 M 157.296875 262.285156 C 154.976562 261.835938 154.25 264.90625 155.164062 266.542969 C 156.273438 269.859375 160.566406 272.011719 163.679688 269.996094 C 165.902344 268.632812 166.167969 265.515625 165.5 263.230469 C 164.441406 260.871094 162.492188 259.027344 160.230469 257.8125 L 159.972656 257.632812 L 159.710938 257.457031 "/>
</g>
</svg>
